<?xml version="1.0" encoding="UTF-8"?>
<svg xmlns="http://www.w3.org/2000/svg" xmlns:xlink="http://www.w3.org/1999/xlink" viewBox="0 0 42.4 58.16">
  <defs>
    <style>
      .cls-1 {
        fill: url(#linear-gradient-38);
      }

      .cls-1, .cls-2, .cls-3, .cls-4, .cls-5, .cls-6, .cls-7, .cls-8, .cls-9, .cls-10, .cls-11, .cls-12, .cls-13, .cls-14, .cls-15, .cls-16, .cls-17, .cls-18, .cls-19, .cls-20, .cls-21, .cls-22, .cls-23, .cls-24, .cls-25, .cls-26, .cls-27, .cls-28, .cls-29, .cls-30, .cls-31, .cls-32, .cls-33, .cls-34, .cls-35, .cls-36, .cls-37, .cls-38, .cls-39, .cls-40, .cls-41, .cls-42, .cls-43, .cls-44, .cls-45, .cls-46, .cls-47, .cls-48, .cls-49, .cls-50, .cls-51, .cls-52, .cls-53, .cls-54, .cls-55, .cls-56, .cls-57, .cls-58, .cls-59, .cls-60, .cls-61, .cls-62, .cls-63, .cls-64, .cls-65, .cls-66, .cls-67, .cls-68, .cls-69, .cls-70, .cls-71, .cls-72, .cls-73, .cls-74, .cls-75, .cls-76, .cls-77, .cls-78, .cls-79, .cls-80, .cls-81, .cls-82, .cls-83 {
        stroke-width: 0px;
      }

      .cls-2 {
        fill: url(#linear-gradient-12);
      }

      .cls-3 {
        fill: url(#linear-gradient-17);
      }

      .cls-4 {
        fill: url(#linear-gradient-19);
      }

      .cls-5 {
        fill: url(#linear-gradient-33);
      }

      .cls-6 {
        fill: url(#linear-gradient);
      }

      .cls-7 {
        fill: url(#linear-gradient-62);
      }

      .cls-8 {
        fill: url(#linear-gradient-67);
      }

      .cls-9 {
        fill: url(#linear-gradient-57);
      }

      .cls-10 {
        fill: #7389d9;
      }

      .cls-11 {
        fill: #a2bfef;
      }

      .cls-12 {
        fill: url(#linear-gradient-21);
      }

      .cls-13 {
        fill: url(#linear-gradient-6);
      }

      .cls-14 {
        fill: #120a30;
      }

      .cls-84 {
        isolation: isolate;
      }

      .cls-15 {
        fill: url(#linear-gradient-42);
      }

      .cls-16 {
        fill: #ffc69c;
      }

      .cls-17 {
        fill: url(#linear-gradient-15);
      }

      .cls-18 {
        fill: url(#linear-gradient-11);
      }

      .cls-19 {
        fill: #879ade;
      }

      .cls-20 {
        fill: url(#linear-gradient-5);
      }

      .cls-21 {
        fill: #99aff0;
      }

      .cls-22 {
        fill: url(#linear-gradient-31);
      }

      .cls-23 {
        fill: url(#linear-gradient-71);
      }

      .cls-24 {
        fill: url(#linear-gradient-58);
      }

      .cls-25 {
        fill: url(#linear-gradient-63);
      }

      .cls-26 {
        fill: url(#linear-gradient-34);
      }

      .cls-27 {
        fill: url(#linear-gradient-41);
      }

      .cls-28 {
        fill: url(#linear-gradient-40);
      }

      .cls-29 {
        fill: url(#linear-gradient-66);
      }

      .cls-30 {
        fill: url(#linear-gradient-13);
      }

      .cls-31 {
        fill: url(#linear-gradient-23);
      }

      .cls-32 {
        fill: url(#linear-gradient-25);
      }

      .cls-33 {
        fill: url(#linear-gradient-43);
      }

      .cls-34 {
        fill: url(#linear-gradient-16);
      }

      .cls-35 {
        fill: url(#linear-gradient-22);
      }

      .cls-36 {
        fill: url(#linear-gradient-54);
      }

      .cls-37 {
        fill: url(#linear-gradient-55);
      }

      .cls-38 {
        fill: #fff;
      }

      .cls-39 {
        fill: url(#linear-gradient-35);
      }

      .cls-40 {
        fill: url(#linear-gradient-50);
      }

      .cls-41 {
        fill: url(#linear-gradient-32);
      }

      .cls-42 {
        fill: url(#linear-gradient-60);
      }

      .cls-43 {
        fill: url(#linear-gradient-59);
      }

      .cls-44 {
        fill: url(#linear-gradient-20);
      }

      .cls-45 {
        fill: url(#linear-gradient-14);
      }

      .cls-46 {
        fill: url(#linear-gradient-2);
      }

      .cls-47 {
        fill: url(#linear-gradient-52);
      }

      .cls-48 {
        fill: #24b289;
      }

      .cls-49 {
        fill: url(#linear-gradient-45);
      }

      .cls-50 {
        fill: #d4dbdd;
        mix-blend-mode: multiply;
      }

      .cls-51 {
        fill: url(#linear-gradient-7);
      }

      .cls-52 {
        fill: url(#linear-gradient-39);
      }

      .cls-53 {
        fill: url(#linear-gradient-3);
      }

      .cls-54 {
        fill: #2a3463;
      }

      .cls-55 {
        fill: #ffa15c;
      }

      .cls-56 {
        fill: url(#linear-gradient-69);
      }

      .cls-57 {
        fill: url(#linear-gradient-9);
      }

      .cls-58 {
        fill: url(#linear-gradient-27);
      }

      .cls-59 {
        fill: url(#linear-gradient-53);
      }

      .cls-60 {
        fill: url(#linear-gradient-65);
      }

      .cls-61 {
        fill: url(#linear-gradient-36);
      }

      .cls-62 {
        fill: url(#linear-gradient-48);
      }

      .cls-63 {
        fill: url(#linear-gradient-49);
      }

      .cls-64 {
        fill: url(#linear-gradient-8);
      }

      .cls-65 {
        fill: url(#linear-gradient-47);
      }

      .cls-66 {
        fill: url(#linear-gradient-24);
      }

      .cls-67 {
        fill: url(#linear-gradient-26);
      }

      .cls-68 {
        fill: url(#linear-gradient-61);
      }

      .cls-69 {
        fill: url(#linear-gradient-18);
      }

      .cls-70 {
        fill: url(#linear-gradient-51);
      }

      .cls-71 {
        fill: url(#linear-gradient-30);
      }

      .cls-72 {
        fill: url(#linear-gradient-44);
      }

      .cls-73 {
        fill: url(#linear-gradient-68);
      }

      .cls-74 {
        fill: url(#linear-gradient-72);
      }

      .cls-75 {
        fill: url(#linear-gradient-29);
      }

      .cls-76 {
        fill: url(#linear-gradient-46);
      }

      .cls-77 {
        fill: url(#linear-gradient-64);
      }

      .cls-78 {
        fill: url(#linear-gradient-28);
      }

      .cls-79 {
        fill: url(#linear-gradient-56);
      }

      .cls-80 {
        fill: url(#linear-gradient-10);
      }

      .cls-81 {
        fill: url(#linear-gradient-70);
      }

      .cls-82 {
        fill: url(#linear-gradient-4);
      }

      .cls-83 {
        fill: url(#linear-gradient-37);
      }
    </style>
    <linearGradient id="linear-gradient" x1="18.75" y1="41.08" x2="20.31" y2="41.08" gradientUnits="userSpaceOnUse">
      <stop offset="0" stop-color="#7389d9"/>
      <stop offset="1" stop-color="#34355d"/>
    </linearGradient>
    <linearGradient id="linear-gradient-2" x1="19.79" y1="41.68" x2="21.34" y2="41.68" xlink:href="#linear-gradient"/>
    <linearGradient id="linear-gradient-3" x1="20.82" y1="42.27" x2="22.38" y2="42.27" xlink:href="#linear-gradient"/>
    <linearGradient id="linear-gradient-4" x1="21.84" y1="42.87" x2="23.39" y2="42.87" xlink:href="#linear-gradient"/>
    <linearGradient id="linear-gradient-5" x1="11.49" y1="38.64" x2="19.25" y2="38.64" xlink:href="#linear-gradient"/>
    <linearGradient id="linear-gradient-6" x1="8.58" y1="34.83" x2="9.79" y2="34.83" xlink:href="#linear-gradient"/>
    <linearGradient id="linear-gradient-7" x1="9.3" y1="35.54" x2="10.86" y2="35.54" xlink:href="#linear-gradient"/>
    <linearGradient id="linear-gradient-8" x1="10.65" y1="36.02" x2="11.86" y2="36.02" xlink:href="#linear-gradient"/>
    <linearGradient id="linear-gradient-9" x1="4.31" y1="37.54" x2="5.58" y2="37.54" xlink:href="#linear-gradient"/>
    <linearGradient id="linear-gradient-10" x1="5.34" y1="38.14" x2="6.61" y2="38.14" xlink:href="#linear-gradient"/>
    <linearGradient id="linear-gradient-11" x1="17.76" y1="45.31" x2="19.03" y2="45.31" xlink:href="#linear-gradient"/>
    <linearGradient id="linear-gradient-12" x1="7.51" y1="35.59" x2="9.06" y2="35.59" xlink:href="#linear-gradient"/>
    <linearGradient id="linear-gradient-13" x1="8.51" y1="36.17" x2="10.06" y2="36.17" xlink:href="#linear-gradient"/>
    <linearGradient id="linear-gradient-14" x1="18.89" y1="42.16" x2="20.45" y2="42.16" xlink:href="#linear-gradient"/>
    <linearGradient id="linear-gradient-15" x1="17.86" y1="41.57" x2="19.41" y2="41.57" xlink:href="#linear-gradient"/>
    <linearGradient id="linear-gradient-16" x1="16.82" y1="40.97" x2="18.38" y2="40.97" xlink:href="#linear-gradient"/>
    <linearGradient id="linear-gradient-17" x1="15.79" y1="40.37" x2="17.34" y2="40.37" xlink:href="#linear-gradient"/>
    <linearGradient id="linear-gradient-18" x1="14.75" y1="39.77" x2="16.31" y2="39.77" xlink:href="#linear-gradient"/>
    <linearGradient id="linear-gradient-19" x1="13.72" y1="39.18" x2="15.27" y2="39.18" xlink:href="#linear-gradient"/>
    <linearGradient id="linear-gradient-20" x1="12.68" y1="38.58" x2="14.24" y2="38.58" xlink:href="#linear-gradient"/>
    <linearGradient id="linear-gradient-21" x1="11.65" y1="37.98" x2="13.2" y2="37.98" xlink:href="#linear-gradient"/>
    <linearGradient id="linear-gradient-22" x1="10.61" y1="37.38" x2="12.17" y2="37.38" xlink:href="#linear-gradient"/>
    <linearGradient id="linear-gradient-23" x1="9.58" y1="36.79" x2="11.13" y2="36.79" xlink:href="#linear-gradient"/>
    <linearGradient id="linear-gradient-24" x1="19.93" y1="43.06" x2="22.52" y2="43.06" xlink:href="#linear-gradient"/>
    <linearGradient id="linear-gradient-25" x1="6.67" y1="36.22" x2="8.73" y2="36.22" xlink:href="#linear-gradient"/>
    <linearGradient id="linear-gradient-26" x1="20.13" y1="43.85" x2="21.68" y2="43.85" xlink:href="#linear-gradient"/>
    <linearGradient id="linear-gradient-27" x1="5.83" y1="36.78" x2="8.11" y2="36.78" xlink:href="#linear-gradient"/>
    <linearGradient id="linear-gradient-28" x1="16.48" y1="42.71" x2="18.03" y2="42.71" xlink:href="#linear-gradient"/>
    <linearGradient id="linear-gradient-29" x1="15.36" y1="42.08" x2="16.91" y2="42.08" xlink:href="#linear-gradient"/>
    <linearGradient id="linear-gradient-30" x1="14.24" y1="41.44" x2="15.79" y2="41.44" xlink:href="#linear-gradient"/>
    <linearGradient id="linear-gradient-31" x1="13.12" y1="40.8" x2="14.67" y2="40.8" xlink:href="#linear-gradient"/>
    <linearGradient id="linear-gradient-32" x1="12" y1="40.17" x2="13.55" y2="40.17" xlink:href="#linear-gradient"/>
    <linearGradient id="linear-gradient-33" x1="10.87" y1="39.53" x2="12.43" y2="39.53" xlink:href="#linear-gradient"/>
    <linearGradient id="linear-gradient-34" x1="9.75" y1="38.9" x2="11.31" y2="38.9" xlink:href="#linear-gradient"/>
    <linearGradient id="linear-gradient-35" x1="8.63" y1="38.26" x2="10.19" y2="38.26" xlink:href="#linear-gradient"/>
    <linearGradient id="linear-gradient-36" x1="7.51" y1="37.62" x2="9.07" y2="37.62" xlink:href="#linear-gradient"/>
    <linearGradient id="linear-gradient-37" x1="17.59" y1="43.36" x2="19.14" y2="43.36" xlink:href="#linear-gradient"/>
    <linearGradient id="linear-gradient-38" x1="18.6" y1="44.14" x2="20.83" y2="44.14" xlink:href="#linear-gradient"/>
    <linearGradient id="linear-gradient-39" x1="4.98" y1="37.35" x2="7.57" y2="37.35" xlink:href="#linear-gradient"/>
    <linearGradient id="linear-gradient-40" x1="7.05" y1="38.24" x2="8.61" y2="38.24" xlink:href="#linear-gradient"/>
    <linearGradient id="linear-gradient-41" x1="16.37" y1="43.62" x2="17.92" y2="43.62" xlink:href="#linear-gradient"/>
    <linearGradient id="linear-gradient-42" x1="15.33" y1="43.02" x2="16.89" y2="43.02" xlink:href="#linear-gradient"/>
    <linearGradient id="linear-gradient-43" x1="14.3" y1="42.43" x2="15.85" y2="42.43" xlink:href="#linear-gradient"/>
    <linearGradient id="linear-gradient-44" x1="13.26" y1="41.83" x2="14.82" y2="41.83" xlink:href="#linear-gradient"/>
    <linearGradient id="linear-gradient-45" x1="12.23" y1="41.23" x2="13.78" y2="41.23" xlink:href="#linear-gradient"/>
    <linearGradient id="linear-gradient-46" x1="11.19" y1="40.63" x2="12.75" y2="40.63" xlink:href="#linear-gradient"/>
    <linearGradient id="linear-gradient-47" x1="10.16" y1="40.03" x2="11.71" y2="40.03" xlink:href="#linear-gradient"/>
    <linearGradient id="linear-gradient-48" x1="9.12" y1="39.43" x2="10.68" y2="39.43" xlink:href="#linear-gradient"/>
    <linearGradient id="linear-gradient-49" x1="8.09" y1="38.84" x2="9.64" y2="38.84" xlink:href="#linear-gradient"/>
    <linearGradient id="linear-gradient-50" x1="17.48" y1="44.54" x2="19.99" y2="44.54" xlink:href="#linear-gradient"/>
    <linearGradient id="linear-gradient-51" x1="19.04" y1="43.22" x2="20.58" y2="43.22" xlink:href="#linear-gradient"/>
    <linearGradient id="linear-gradient-52" x1="17.95" y1="42.59" x2="19.49" y2="42.59" xlink:href="#linear-gradient"/>
    <linearGradient id="linear-gradient-53" x1="16.86" y1="41.96" x2="18.4" y2="41.96" xlink:href="#linear-gradient"/>
    <linearGradient id="linear-gradient-54" x1="15.76" y1="41.33" x2="17.31" y2="41.33" xlink:href="#linear-gradient"/>
    <linearGradient id="linear-gradient-55" x1="14.67" y1="40.7" x2="16.22" y2="40.7" xlink:href="#linear-gradient"/>
    <linearGradient id="linear-gradient-56" x1="13.58" y1="40.07" x2="15.13" y2="40.07" xlink:href="#linear-gradient"/>
    <linearGradient id="linear-gradient-57" x1="12.49" y1="39.44" x2="14.04" y2="39.44" xlink:href="#linear-gradient"/>
    <linearGradient id="linear-gradient-58" x1="11.4" y1="38.81" x2="12.95" y2="38.81" xlink:href="#linear-gradient"/>
    <linearGradient id="linear-gradient-59" x1="10.31" y1="38.18" x2="11.86" y2="38.18" xlink:href="#linear-gradient"/>
    <linearGradient id="linear-gradient-60" x1="9.22" y1="37.55" x2="10.76" y2="37.55" xlink:href="#linear-gradient"/>
    <linearGradient id="linear-gradient-61" x1="8.13" y1="36.92" x2="9.67" y2="36.92" xlink:href="#linear-gradient"/>
    <linearGradient id="linear-gradient-62" x1="16.73" y1="44.71" x2="18" y2="44.71" xlink:href="#linear-gradient"/>
    <linearGradient id="linear-gradient-63" x1="15.69" y1="44.11" x2="16.96" y2="44.11" xlink:href="#linear-gradient"/>
    <linearGradient id="linear-gradient-64" x1="14.66" y1="43.51" x2="15.93" y2="43.51" xlink:href="#linear-gradient"/>
    <linearGradient id="linear-gradient-65" x1="13.62" y1="42.91" x2="14.89" y2="42.91" xlink:href="#linear-gradient"/>
    <linearGradient id="linear-gradient-66" x1="12.59" y1="42.31" x2="13.86" y2="42.31" xlink:href="#linear-gradient"/>
    <linearGradient id="linear-gradient-67" x1="11.55" y1="41.72" x2="12.82" y2="41.72" xlink:href="#linear-gradient"/>
    <linearGradient id="linear-gradient-68" x1="10.52" y1="41.12" x2="11.79" y2="41.12" xlink:href="#linear-gradient"/>
    <linearGradient id="linear-gradient-69" x1="9.48" y1="40.52" x2="10.75" y2="40.52" xlink:href="#linear-gradient"/>
    <linearGradient id="linear-gradient-70" x1="8.45" y1="39.92" x2="9.72" y2="39.92" xlink:href="#linear-gradient"/>
    <linearGradient id="linear-gradient-71" x1="7.41" y1="39.32" x2="8.68" y2="39.32" xlink:href="#linear-gradient"/>
    <linearGradient id="linear-gradient-72" x1="6.38" y1="38.72" x2="7.65" y2="38.72" xlink:href="#linear-gradient"/>
  </defs>
  <g class="cls-84">
    <g id="Layer_2" data-name="Layer 2">
      <g id="Layer_1-2" data-name="Layer 1">
        <g>
          <g>
            <path class="cls-50" d="m33.29,54.45c-6.71,3.87-19.48,5.31-26.23,1.41-6.75-3.9-10.11-15-3.4-18.87,6.71-3.87,21.89-5.79,28.64-1.89,6.75,3.9,7.7,15.48,1,19.36Z"/>
            <g>
              <g>
                <path class="cls-38" d="m13.81,45.55s-4.3-1.67-6.23-1.81c-1.93-.13-4.85-2.07-5.65-1.67-.8.4-.03,5.04,2.31,5.83,2.34.79,6.92,1.25,8.43.46,1.51-.79,1.14-2.81,1.14-2.81Z"/>
                <path class="cls-48" d="m14.48,45.55s-4.3-1.67-6.23-1.81c-1.93-.13-4.85-2.07-5.65-1.67-.8.4-.03,5.04,2.31,5.83,2.34.79,6.92,1.25,8.43.46,1.51-.79,1.14-2.81,1.14-2.81Z"/>
                <path class="cls-54" d="m34.34,32.01s4.72,2.26,3.39,8.68c-1.34,6.43-.95,10.8-3.58,12.18-3.84,2.01-16.87-2.71-22.42-4.39-.82-.25-4.68-2.88,0-4.15,2.23-.61,16.12,1.16,16.12,1.16,0,0,1.24-5.8-1.54-7.83l-2.79-2.03s-.78-2.88,2.79-4.6c3.57-1.72,8.04.98,8.04.98Z"/>
                <path class="cls-54" d="m30.1,31.89c-6.19-4.17-18.75-3.58-16.64-3.6.59,0-8.74.83-8.54,2.99.2,2.19,8.42,17.08,8.42,17.08,0,0,.11-.64,1.18-2.01,1.17-1.48,2.9.01,2.9.01l-4.22-11.06s3.87-.89,8.3.41c4.23,1.25,2.81.76,2.81.76,0,0,7.29-3.58,5.78-4.59Z"/>
                <path class="cls-11" d="m38.27,31.53c-.84,3.8-1.08,3.89-1.61,4.2,0,0-3.14.74-4.36.9-3.36.42-5.23.51-8.9-3.44-1.24-1.34-1.62-2.92-1.15-4.14.2-.47,1.41-1.61,1.47-1.98.3-1.18.04-2.78,0-4.75,0-.54-.02-1.12-.07-1.73-.11-1.45-1.58-6.69-.59-8.36.06-.29.26-.55.62-.76l.87-.5c.96-.55,2.57-.47,3.64.14l3.69,1.02c.57.34,9.5,7.09,7.88,7.49.18.39.04.88.24,2.16.35,2.17-1.29,7.73-1.73,9.75Z"/>
                <path class="cls-11" d="m32.42,13.03c-1.68-.03-2.22.53-2.22.53l-2.37.75s-2.01,2.41,0,3.21c2.01.8,5-.65,5.82-1.98.81-1.33.45-2.48-1.22-2.51Z"/>
                <path class="cls-55" d="m32.1,15.85c-.97.56-3.01,1.64-3.99,1.08-1.15-.65-.07-1.5-.18-1.73-.05,0-.51-3.21-.51-3.21l2.74-.67c.25.13,1.63-.87,1.63-.87l1.38,3.79c.31.51-.37,1.19-1.06,1.6Z"/>
                <path class="cls-16" d="m14.01,43.88l-1.68.67-.03,1.82,2.23,3.6s1.43-1.32,1.83-1.19c.4.12,1.07.48,1.07,0,0-.3,1.02-.22.8-.81-.13-.36-2.05-2.88-2.05-2.88l-2.17-1.2Z"/>
                <g>
                  <path class="cls-48" d="m16.15,48.36c-.83.8-1.82.2-2.05,2.28-.17,1.49-3.37,3.6-3.46,3.85-.09.25-.75,2.64,2.63,1.74s4.19-3.58,6.02-4.11c1.84-.54,1.52-1.79,1.05-2.17-.47-.38-2.53-2.65-2.53-2.65,0,0,.2-.73-1.66,1.06Z"/>
                  <path class="cls-38" d="m20.34,49.96s-.92-1.22-2.46,0c-1.54,1.22-3.25,3.41-4.55,3.56-1.29.14-1.92-.19-2.7.98-.78,1.16-1.19,2.7,1.66,2.64,2.85-.07,4.65-2.89,5.6-3.86.94-.96,4.1-1.63,2.46-3.32Z"/>
                </g>
              </g>
              <g>
                <g>
                  <g>
                    <g>
                      <path class="cls-19" d="m28.6,41.53l-.55.18-15.42-8.91c-.36-.21-.91-.23-1.22-.05l-8.9,5.14-.45-.34v.83c.02.13.12.26.3.36l15.67,9.05c.36.21.91.23,1.22.05l9.14-5.28c.11-.06.18-.14.2-.23.02-.07.02-.8.02-.8Z"/>
                      <path class="cls-21" d="m18.03,47.01l-15.67-9.05c-.36-.21-.4-.53-.09-.71l9.14-5.28c.31-.18.86-.16,1.22.05l15.67,9.05c.36.21.4.53.09.71l-9.14,5.28c-.31.18-.86.16-1.22-.05Z"/>
                      <polygon class="cls-54" points="20.6 46.84 19.92 47.23 19.92 47 20.6 46.61 20.6 46.84"/>
                      <polygon class="cls-54" points="21.86 46.11 21.18 46.5 21.18 46.27 21.86 45.88 21.86 46.11"/>
                    </g>
                    <path class="cls-19" d="m3.83,37.9l14.21,8.2c.22.12.54.14.73.03l4.66-2.69c.19-.11.16-.3-.05-.42l-14.21-8.2c-.22-.12-.54-.14-.73-.03l-4.66,2.69c-.19.11-.16.3.05.42Z"/>
                    <g>
                      <g>
                        <polygon class="cls-54" points="19.25 40.64 18.53 41.05 11.49 36.99 11.49 36.81 19.25 40.46 19.25 40.64"/>
                        <g>
                          <path class="cls-54" d="m19.59,41.53l-.83-.48s0,.18,0,.18c.01,0,.83.47.83.47l.72-.42v-.17l-.72.42Z"/>
                          <path class="cls-6" d="m19.47,40.63l-.72.42s.83.48.83.48l.72-.42s-.83-.48-.83-.48Z"/>
                        </g>
                        <g>
                          <path class="cls-54" d="m20.62,42.13l-.83-.48v.17s.83.49.83.49l.72-.42v-.17l-.72.42Z"/>
                          <path class="cls-46" d="m20.51,41.23l-.72.42.83.48.72-.42s-.83-.48-.83-.48Z"/>
                        </g>
                        <g>
                          <path class="cls-54" d="m21.66,42.72l-.83-.48v.17s.83.49.83.49l.72-.42v-.17l-.72.42Z"/>
                          <path class="cls-53" d="m21.54,41.83l-.72.42.83.48.72-.42s-.83-.48-.83-.48Z"/>
                        </g>
                        <g>
                          <path class="cls-54" d="m22.67,43.32l-.83-.48v.17s.83.49.83.49l.72-.42v-.17l-.72.42Z"/>
                          <path class="cls-82" d="m22.56,42.42l-.72.42.83.48.72-.42s-.83-.48-.83-.48Z"/>
                        </g>
                        <polygon class="cls-20" points="19.25 40.46 18.53 40.88 11.49 36.81 12.21 36.4 19.25 40.46"/>
                        <g>
                          <polygon class="cls-54" points="9.41 35.35 8.58 34.87 8.58 34.7 9.79 34.96 9.79 35.13 9.41 35.35"/>
                          <polygon class="cls-54" points="10.13 36.16 9.3 35.68 9.3 35.5 10.86 35.57 10.86 35.74 10.13 36.16"/>
                          <polygon class="cls-54" points="11.48 36.55 10.65 36.07 10.65 35.89 11.86 36.15 11.86 36.33 11.48 36.55"/>
                          <polygon class="cls-13" points="9.41 35.18 8.58 34.7 8.96 34.48 9.79 34.96 9.41 35.18"/>
                          <polygon class="cls-51" points="10.13 35.99 9.3 35.5 10.02 35.09 10.86 35.57 10.13 35.99"/>
                          <polygon class="cls-64" points="11.48 36.38 10.65 35.89 11.03 35.67 11.86 36.15 11.48 36.38"/>
                        </g>
                      </g>
                      <polygon class="cls-54" points="5.14 38.08 4.31 37.6 4.74 37.35 5.58 37.83 5.14 38.08"/>
                      <polygon class="cls-54" points="6.18 38.68 5.34 38.2 5.78 37.94 6.61 38.42 6.18 38.68"/>
                      <polygon class="cls-54" points="8.34 36.22 7.51 35.73 8.23 35.32 9.06 35.8 8.34 36.22"/>
                      <polygon class="cls-54" points="9.38 36.81 8.54 36.33 9.27 35.92 10.1 36.4 9.38 36.81"/>
                      <polygon class="cls-54" points="22.52 43.57 21.8 43.98 19.93 42.9 19.93 42.73 22.52 43.39 22.52 43.57"/>
                      <polygon class="cls-54" points="8.73 36.58 8.01 36.99 6.67 36.22 7.39 35.8 8.73 36.58"/>
                      <polygon class="cls-54" points="7.39 37.61 5.83 36.71 6.55 36.29 8.11 37.19 7.39 37.61"/>
                      <polygon class="cls-54" points="16.2 42.7 15.37 42.21 16.09 41.8 16.92 42.28 16.2 42.7"/>
                      <polygon class="cls-54" points="20.83 44.54 20.11 44.95 18.6 44.08 19.33 43.67 20.83 44.54"/>
                      <polygon class="cls-54" points="6.85 38.27 4.98 37.19 5.71 36.78 7.57 37.85 6.85 38.27"/>
                      <polygon class="cls-54" points="7.89 38.87 7.05 38.39 7.78 37.97 8.61 38.45 7.89 38.87"/>
                      <polygon class="cls-54" points="16.17 43.65 15.33 43.17 16.05 42.75 16.89 43.23 16.17 43.65"/>
                      <polygon class="cls-54" points="19.27 45.44 17.48 44.41 17.48 44.23 19.99 44.85 19.99 45.02 19.27 45.44"/>
                      <rect class="cls-54" x="4.31" y="37.41" width=".51" height=".19"/>
                      <rect class="cls-54" x="5.25" y="37.65" width=".33" height=".15"/>
                      <rect class="cls-54" x="6.06" y="38.25" width=".56" height=".16"/>
                      <rect class="cls-54" x="5.34" y="38.02" width=".57" height=".17"/>
                      <rect class="cls-54" x="7.53" y="35.54" width=".59" height=".17"/>
                      <rect class="cls-54" x="7.34" y="36.99" width=".78" height=".18"/>
                      <rect class="cls-54" x="8.4" y="35.62" width=".65" height=".17"/>
                      <rect class="cls-54" x="7.34" y="36.4" width="1.39" height=".18"/>
                      <rect class="cls-54" x="18.6" y="43.89" width=".52" height=".17"/>
                      <rect class="cls-54" x="6.4" y="37.68" width="1.14" height=".18"/>
                      <rect class="cls-54" x="5.84" y="36.53" width="1.55" height=".17"/>
                      <rect class="cls-54" x="4.98" y="37.01" width=".44" height=".18"/>
                      <rect class="cls-54" x="7.7" y="38.28" width=".91" height=".17"/>
                      <rect class="cls-54" x="20.25" y="44.38" width=".56" height=".18"/>
                      <polygon class="cls-57" points="5.14 37.9 4.31 37.42 4.74 37.17 5.58 37.65 5.14 37.9"/>
                      <polygon class="cls-80" points="6.18 38.5 5.34 38.02 5.78 37.77 6.61 38.25 6.18 38.5"/>
                      <g>
                        <polygon class="cls-54" points="18.59 45.85 17.76 45.37 17.76 45.19 19.03 45.42 19.03 45.59 18.59 45.85"/>
                        <polygon class="cls-18" points="18.59 45.67 17.76 45.19 18.2 44.94 19.03 45.42 18.59 45.67"/>
                      </g>
                      <polygon class="cls-2" points="8.34 36.04 7.51 35.56 8.23 35.14 9.06 35.62 8.34 36.04"/>
                      <g>
                        <rect class="cls-54" x="8.51" y="36.14" width=".73" height=".18"/>
                        <rect class="cls-54" x="9.54" y="36.2" width=".52" height=".18"/>
                        <polygon class="cls-30" points="9.34 36.62 8.51 36.14 9.23 35.72 10.06 36.21 9.34 36.62"/>
                      </g>
                      <g>
                        <polygon class="cls-54" points="19.73 42.79 18.89 42.31 18.89 42.13 20.45 42.2 20.45 42.37 19.73 42.79"/>
                        <polygon class="cls-45" points="19.73 42.61 18.89 42.13 19.61 41.72 20.45 42.2 19.73 42.61"/>
                      </g>
                      <g>
                        <polygon class="cls-54" points="18.69 42.19 17.86 41.71 17.86 41.53 19.41 41.6 19.41 41.77 18.69 42.19"/>
                        <polygon class="cls-17" points="18.69 42.02 17.86 41.53 18.58 41.12 19.41 41.6 18.69 42.02"/>
                      </g>
                      <g>
                        <polygon class="cls-54" points="17.66 41.59 16.82 41.11 16.82 40.94 18.38 41 18.38 41.18 17.66 41.59"/>
                        <polygon class="cls-34" points="17.66 41.42 16.82 40.94 17.54 40.52 18.38 41 17.66 41.42"/>
                      </g>
                      <g>
                        <polygon class="cls-54" points="16.62 41 15.79 40.51 15.79 40.34 17.34 40.4 17.34 40.58 16.62 41"/>
                        <polygon class="cls-3" points="16.62 40.82 15.79 40.34 16.51 39.92 17.34 40.4 16.62 40.82"/>
                      </g>
                      <g>
                        <polygon class="cls-54" points="15.59 40.4 14.75 39.92 14.75 39.74 16.31 39.81 16.31 39.98 15.59 40.4"/>
                        <polygon class="cls-69" points="15.59 40.22 14.75 39.74 15.47 39.33 16.31 39.81 15.59 40.22"/>
                      </g>
                      <g>
                        <polygon class="cls-54" points="14.55 39.8 13.72 39.32 13.72 39.14 15.27 39.21 15.27 39.38 14.55 39.8"/>
                        <polygon class="cls-4" points="14.55 39.63 13.72 39.14 14.44 38.73 15.27 39.21 14.55 39.63"/>
                      </g>
                      <g>
                        <polygon class="cls-54" points="13.52 39.2 12.68 38.72 12.68 38.55 14.24 38.61 14.24 38.79 13.52 39.2"/>
                        <polygon class="cls-44" points="13.52 39.03 12.68 38.55 13.4 38.13 14.24 38.61 13.52 39.03"/>
                      </g>
                      <g>
                        <polygon class="cls-54" points="12.48 38.61 11.65 38.12 11.65 37.95 13.2 38.01 13.2 38.19 12.48 38.61"/>
                        <polygon class="cls-12" points="12.48 38.43 11.65 37.95 12.37 37.53 13.2 38.01 12.48 38.43"/>
                      </g>
                      <g>
                        <polygon class="cls-54" points="11.45 38.01 10.61 37.53 10.61 37.35 12.17 37.42 12.17 37.59 11.45 38.01"/>
                        <polygon class="cls-35" points="11.45 37.83 10.61 37.35 11.34 36.94 12.17 37.42 11.45 37.83"/>
                      </g>
                      <g>
                        <polygon class="cls-54" points="10.41 37.41 9.58 36.93 9.58 36.75 11.13 36.82 11.13 36.99 10.41 37.41"/>
                        <polygon class="cls-31" points="10.41 37.24 9.58 36.75 10.3 36.34 11.13 36.82 10.41 37.24"/>
                      </g>
                      <polygon class="cls-66" points="22.52 43.39 21.8 43.81 19.93 42.73 20.65 42.31 22.52 43.39"/>
                      <polygon class="cls-32" points="8.73 36.4 8.01 36.82 6.67 36.05 7.39 35.63 8.73 36.4"/>
                      <g>
                        <polygon class="cls-54" points="20.95 44.29 20.12 43.81 20.12 43.99 20.95 44.47 21.68 44.05 21.68 43.88 20.95 44.29"/>
                        <path class="cls-67" d="m21.68,43.88l-.83-.48-.71.41s.82.49.82.49l.72-.42Z"/>
                      </g>
                      <polygon class="cls-58" points="7.39 37.44 5.83 36.53 6.55 36.12 8.11 37.02 7.39 37.44"/>
                      <g>
                        <polygon class="cls-54" points="17.31 43.16 16.48 42.68 16.48 42.86 17.31 43.34 18.03 42.92 18.03 42.75 17.31 43.16"/>
                        <polygon class="cls-78" points="18.03 42.75 17.2 42.27 16.48 42.68 17.31 43.16 18.03 42.75"/>
                      </g>
                      <g>
                        <polygon class="cls-54" points="16.19 42.53 15.36 42.05 15.36 42.22 16.19 42.7 16.91 42.28 16.91 42.11 16.19 42.53"/>
                        <polygon class="cls-75" points="16.91 42.11 16.08 41.63 15.36 42.05 16.19 42.53 16.91 42.11"/>
                      </g>
                      <g>
                        <polygon class="cls-54" points="15.07 41.89 14.24 41.41 14.24 41.58 15.07 42.06 15.79 41.65 15.79 41.47 15.07 41.89"/>
                        <polygon class="cls-71" points="15.79 41.47 14.96 40.99 14.24 41.41 15.07 41.89 15.79 41.47"/>
                      </g>
                      <g>
                        <polygon class="cls-54" points="13.95 41.25 13.12 40.77 13.12 40.95 13.95 41.43 14.67 41.01 14.67 40.84 13.95 41.25"/>
                        <polygon class="cls-22" points="14.67 40.84 13.84 40.36 13.12 40.77 13.95 41.25 14.67 40.84"/>
                      </g>
                      <g>
                        <polygon class="cls-54" points="12.83 40.62 12 40.14 12 40.31 12.83 40.79 13.55 40.37 13.55 40.2 12.83 40.62"/>
                        <polygon class="cls-41" points="13.55 40.2 12.72 39.72 12 40.14 12.83 40.62 13.55 40.2"/>
                      </g>
                      <g>
                        <polygon class="cls-54" points="11.71 39.98 10.87 39.5 10.87 39.67 11.71 40.16 12.43 39.74 12.43 39.56 11.71 39.98"/>
                        <polygon class="cls-5" points="12.43 39.56 11.6 39.08 10.87 39.5 11.71 39.98 12.43 39.56"/>
                      </g>
                      <g>
                        <polygon class="cls-54" points="10.59 39.34 9.75 38.86 9.75 39.04 10.59 39.52 11.31 39.1 11.31 38.93 10.59 39.34"/>
                        <polygon class="cls-26" points="11.31 38.93 10.48 38.45 9.75 38.86 10.59 39.34 11.31 38.93"/>
                      </g>
                      <g>
                        <polygon class="cls-54" points="9.47 38.71 8.63 38.23 8.63 38.4 9.47 38.88 10.19 38.47 10.19 38.29 9.47 38.71"/>
                        <polygon class="cls-39" points="10.19 38.29 9.35 37.81 8.63 38.23 9.47 38.71 10.19 38.29"/>
                      </g>
                      <g>
                        <polygon class="cls-54" points="8.35 38.07 7.51 37.59 7.51 37.77 8.35 38.25 9.07 37.83 9.07 37.66 8.35 38.07"/>
                        <polygon class="cls-61" points="9.07 37.66 8.23 37.17 7.51 37.59 8.35 38.07 9.07 37.66"/>
                      </g>
                      <g>
                        <polygon class="cls-54" points="18.42 43.8 17.59 43.32 17.59 43.5 18.42 43.98 19.14 43.56 19.14 43.39 18.42 43.8"/>
                        <polygon class="cls-83" points="19.14 43.39 18.31 42.91 17.59 43.32 18.42 43.8 19.14 43.39"/>
                      </g>
                      <polygon class="cls-1" points="20.83 44.36 20.11 44.78 18.6 43.91 19.33 43.49 20.83 44.36"/>
                      <polygon class="cls-52" points="6.85 38.1 4.98 37.02 5.71 36.6 7.57 37.68 6.85 38.1"/>
                      <polygon class="cls-28" points="7.89 38.69 7.05 38.21 7.78 37.8 8.61 38.28 7.89 38.69"/>
                      <g>
                        <polygon class="cls-54" points="17.2 44.07 16.37 43.59 16.37 43.76 17.2 44.25 17.92 43.83 17.92 43.65 17.2 44.07"/>
                        <polygon class="cls-27" points="17.92 43.65 17.09 43.17 16.37 43.59 17.2 44.07 17.92 43.65"/>
                      </g>
                      <g>
                        <polygon class="cls-54" points="16.17 43.47 15.33 42.99 15.33 43.17 16.17 43.65 16.89 43.23 16.89 43.06 16.17 43.47"/>
                        <polygon class="cls-15" points="16.89 43.06 16.05 42.58 15.33 42.99 16.17 43.47 16.89 43.06"/>
                      </g>
                      <g>
                        <polygon class="cls-54" points="15.13 42.87 14.3 42.39 14.3 42.57 15.13 43.05 15.85 42.63 15.85 42.46 15.13 42.87"/>
                        <polygon class="cls-33" points="15.85 42.46 15.02 41.98 14.3 42.39 15.13 42.87 15.85 42.46"/>
                      </g>
                      <g>
                        <polygon class="cls-54" points="14.1 42.28 13.26 41.8 13.26 41.97 14.1 42.45 14.82 42.03 14.82 41.86 14.1 42.28"/>
                        <polygon class="cls-72" points="14.82 41.86 13.98 41.38 13.26 41.8 14.1 42.28 14.82 41.86"/>
                      </g>
                      <g>
                        <polygon class="cls-54" points="13.06 41.68 12.23 41.2 12.23 41.37 13.06 41.85 13.78 41.44 13.78 41.26 13.06 41.68"/>
                        <polygon class="cls-49" points="13.78 41.26 12.95 40.78 12.23 41.2 13.06 41.68 13.78 41.26"/>
                      </g>
                      <g>
                        <polygon class="cls-54" points="12.03 41.08 11.19 40.6 11.19 40.77 12.03 41.25 12.75 40.84 12.75 40.66 12.03 41.08"/>
                        <polygon class="cls-76" points="12.75 40.66 11.91 40.18 11.19 40.6 12.03 41.08 12.75 40.66"/>
                      </g>
                      <g>
                        <polygon class="cls-54" points="10.99 40.48 10.16 40 10.16 40.17 10.99 40.66 11.71 40.24 11.71 40.06 10.99 40.48"/>
                        <polygon class="cls-65" points="11.71 40.06 10.88 39.58 10.16 40 10.99 40.48 11.71 40.06"/>
                      </g>
                      <g>
                        <polygon class="cls-54" points="9.96 39.88 9.12 39.4 9.12 39.58 9.96 40.06 10.68 39.64 10.68 39.47 9.96 39.88"/>
                        <polygon class="cls-62" points="10.68 39.47 9.85 38.99 9.12 39.4 9.96 39.88 10.68 39.47"/>
                      </g>
                      <g>
                        <polygon class="cls-54" points="8.92 39.28 8.09 38.8 8.09 38.98 8.92 39.46 9.64 39.04 9.64 38.87 8.92 39.28"/>
                        <polygon class="cls-63" points="9.64 38.87 8.81 38.39 8.09 38.8 8.92 39.28 9.64 38.87"/>
                      </g>
                      <polygon class="cls-40" points="19.27 45.27 17.48 44.23 18.2 43.81 19.99 44.85 19.27 45.27"/>
                      <g>
                        <path class="cls-21" d="m19.71,36.93l2.62,1.51-2.62-1.51Z"/>
                        <polygon class="cls-21" points="22.16 38.54 22.33 38.64 22.16 38.54 22.16 38.54"/>
                        <path class="cls-19" d="m14.44,37.1l4.63,2.67c.26.15.67.17.89.04l2.19-1.26-2.62-1.51-2.8-1.61-2.36,1.36c-.06.04-.1.08-.13.13.03.07.1.13.19.19Z"/>
                        <path class="cls-21" d="m22.16,38.54l-2.62-1.51,2.62,1.51Z"/>
                        <path class="cls-38" d="m22.57,37.95l-2.32-1.34-.55.32,2.62,1.51.31-.18c.06-.04.1-.08.13-.13-.03-.07-.1-.13-.19-.19Z"/>
                        <path class="cls-19" d="m19.71,36.93l-.17-.1.55-.32-2.14-1.24c-.26-.15-.67-.17-.89-.04l-.13.08,2.8,1.61h0Z"/>
                        <polygon class="cls-21" points="19.53 37.03 16.74 35.42 19.53 37.03 19.53 37.03"/>
                        <g>
                          <path class="cls-21" d="m14.44,37.3l4.63,2.67c.26.15.67.17.89.04l2.36-1.36-.17-.1-2.19,1.26c-.23.13-.63.12-.89-.04l-4.63-2.67c-.1-.06-.16-.12-.19-.19-.06.13,0,.28.19.39Z"/>
                          <path class="cls-21" d="m22.76,38.14s-.07.09-.13.13l-.31.18-2.62-1.51-2.8-1.61-.17.1,2.8,1.61,2.62,1.51.17.1.31-.18c.15-.08.19-.21.13-.33Z"/>
                          <polygon class="cls-21" points="20.25 36.61 20.08 36.51 19.53 36.83 19.71 36.93 20.25 36.61"/>
                        </g>
                      </g>
                      <g>
                        <polygon class="cls-54" points="19.86 43.67 19.03 43.18 19.03 43.36 19.86 43.84 20.58 43.42 20.58 43.25 19.86 43.67"/>
                        <path class="cls-70" d="m20.58,43.25l-.83-.48-.71.41s.82.49.82.49l.72-.42Z"/>
                      </g>
                      <g>
                        <polygon class="cls-54" points="18.77 43.04 17.94 42.55 17.94 42.73 18.77 43.21 19.49 42.79 19.49 42.62 18.77 43.04"/>
                        <path class="cls-47" d="m19.49,42.62l-.83-.48-.71.41s.82.49.82.49l.72-.42Z"/>
                      </g>
                      <g>
                        <polygon class="cls-54" points="17.68 42.41 16.85 41.93 16.85 42.1 17.68 42.58 18.4 42.16 18.4 41.99 17.68 42.41"/>
                        <path class="cls-59" d="m18.4,41.99l-.83-.48-.71.41s.82.49.82.49l.72-.42Z"/>
                      </g>
                      <g>
                        <polygon class="cls-54" points="16.59 41.78 15.76 41.3 15.76 41.47 16.59 41.95 17.31 41.54 17.31 41.36 16.59 41.78"/>
                        <path class="cls-36" d="m17.31,41.36l-.83-.48-.71.41s.82.49.82.49l.72-.42Z"/>
                      </g>
                      <g>
                        <polygon class="cls-54" points="15.5 41.15 14.67 40.67 14.67 40.84 15.5 41.32 16.22 40.91 16.22 40.73 15.5 41.15"/>
                        <path class="cls-37" d="m16.22,40.73l-.83-.48-.71.41s.82.49.82.49l.72-.42Z"/>
                      </g>
                      <g>
                        <polygon class="cls-54" points="14.41 40.52 13.57 40.04 13.57 40.21 14.41 40.69 15.13 40.28 15.13 40.1 14.41 40.52"/>
                        <path class="cls-79" d="m15.13,40.1l-.83-.48-.71.41s.82.49.82.49l.72-.42Z"/>
                      </g>
                      <g>
                        <polygon class="cls-54" points="13.32 39.89 12.48 39.41 12.48 39.58 13.32 40.06 14.04 39.65 14.04 39.47 13.32 39.89"/>
                        <path class="cls-9" d="m14.04,39.47l-.83-.48-.71.41s.82.49.82.49l.72-.42Z"/>
                      </g>
                      <g>
                        <polygon class="cls-54" points="12.22 39.26 11.39 38.78 11.39 38.95 12.22 39.44 12.95 39.02 12.95 38.84 12.22 39.26"/>
                        <path class="cls-24" d="m12.95,38.84l-.83-.48-.71.41s.82.49.82.49l.72-.42Z"/>
                      </g>
                      <g>
                        <polygon class="cls-54" points="11.13 38.63 10.3 38.15 10.3 38.32 11.13 38.81 11.86 38.39 11.86 38.21 11.13 38.63"/>
                        <path class="cls-43" d="m11.86,38.21l-.83-.48-.71.41s.82.49.82.49l.72-.42Z"/>
                      </g>
                      <g>
                        <polygon class="cls-54" points="10.04 38 9.21 37.52 9.21 37.7 10.04 38.18 10.76 37.76 10.76 37.59 10.04 38"/>
                        <path class="cls-42" d="m10.76,37.59l-.83-.48-.71.41s.82.49.82.49l.72-.42Z"/>
                      </g>
                      <g>
                        <polygon class="cls-54" points="8.95 37.37 8.12 36.89 8.12 37.07 8.95 37.55 9.67 37.13 9.67 36.96 8.95 37.37"/>
                        <path class="cls-68" d="m9.67,36.96l-.83-.48-.71.41s.82.49.82.49l.72-.42Z"/>
                      </g>
                      <g>
                        <polygon class="cls-54" points="17.56 45.25 16.73 44.77 16.73 44.59 18 44.82 18 45 17.56 45.25"/>
                        <polygon class="cls-7" points="17.56 45.07 16.73 44.59 17.16 44.34 18 44.82 17.56 45.07"/>
                      </g>
                      <g>
                        <polygon class="cls-54" points="16.52 44.65 15.69 44.17 15.69 43.99 16.96 44.22 16.96 44.4 16.52 44.65"/>
                        <polygon class="cls-25" points="16.52 44.48 15.69 43.99 16.13 43.74 16.96 44.22 16.52 44.48"/>
                      </g>
                      <g>
                        <polygon class="cls-54" points="15.49 44.05 14.66 43.57 14.66 43.4 15.93 43.62 15.93 43.8 15.49 44.05"/>
                        <polygon class="cls-77" points="15.49 43.88 14.66 43.4 15.09 43.14 15.93 43.62 15.49 43.88"/>
                      </g>
                      <g>
                        <polygon class="cls-54" points="14.45 43.45 13.62 42.97 13.62 42.8 14.89 43.03 14.89 43.2 14.45 43.45"/>
                        <polygon class="cls-60" points="14.45 43.28 13.62 42.8 14.06 42.55 14.89 43.03 14.45 43.28"/>
                      </g>
                      <g>
                        <polygon class="cls-54" points="13.42 42.86 12.59 42.37 12.59 42.2 13.86 42.43 13.86 42.6 13.42 42.86"/>
                        <polygon class="cls-29" points="13.42 42.68 12.59 42.2 13.02 41.95 13.86 42.43 13.42 42.68"/>
                      </g>
                      <g>
                        <polygon class="cls-54" points="12.38 42.26 11.55 41.78 11.55 41.6 12.82 41.83 12.82 42 12.38 42.26"/>
                        <polygon class="cls-8" points="12.38 42.08 11.55 41.6 11.99 41.35 12.82 41.83 12.38 42.08"/>
                      </g>
                      <g>
                        <polygon class="cls-54" points="11.35 41.66 10.52 41.18 10.52 41 11.79 41.23 11.79 41.41 11.35 41.66"/>
                        <polygon class="cls-73" points="11.35 41.48 10.52 41 10.95 40.75 11.79 41.23 11.35 41.48"/>
                      </g>
                      <g>
                        <polygon class="cls-54" points="10.31 41.06 9.48 40.58 9.48 40.41 10.75 40.63 10.75 40.81 10.31 41.06"/>
                        <polygon class="cls-56" points="10.31 40.89 9.48 40.41 9.92 40.15 10.75 40.63 10.31 40.89"/>
                      </g>
                      <g>
                        <polygon class="cls-54" points="9.28 40.46 8.45 39.98 8.45 39.81 9.72 40.04 9.72 40.21 9.28 40.46"/>
                        <polygon class="cls-81" points="9.28 40.29 8.45 39.81 8.88 39.55 9.72 40.04 9.28 40.29"/>
                      </g>
                      <g>
                        <polygon class="cls-54" points="8.25 39.86 7.41 39.38 7.41 39.21 8.68 39.44 8.68 39.61 8.25 39.86"/>
                        <polygon class="cls-23" points="8.25 39.69 7.41 39.21 7.85 38.96 8.68 39.44 8.25 39.69"/>
                      </g>
                      <g>
                        <polygon class="cls-54" points="7.21 39.27 6.38 38.78 6.38 38.61 7.65 38.84 7.65 39.01 7.21 39.27"/>
                        <polygon class="cls-74" points="7.21 39.09 6.38 38.61 6.81 38.36 7.65 38.84 7.21 39.09"/>
                      </g>
                    </g>
                  </g>
                  <path class="cls-19" d="m10.36,32.64s-.02.05-.05.05-.05-.02-.05-.05.02-.05.05-.05.05.02.05.05Z"/>
                </g>
                <path class="cls-16" d="m24.43,37.72c-.07.47-.35.92-.35.92,0,0-.03-.01-.16.08-.12.08-.34.25-.71.63-.6.6-2.64.81-3.79.78-.33,0-.57-.03-.71-.07-.6-.18.15-2.21.15-2.21,0,0,1.56-.67,2.15-.96.37-.19,2.06-.19,2.57-.19h.14c.64.16.76.6.7,1.02Z"/>
                <path class="cls-16" d="m23.02,36.82l-2.3-.5-2.69.25s-.03.69.72.78c.75.08,1.89-.04,1.89.09s2.38-.62,2.38-.62Z"/>
                <path class="cls-16" d="m16.96,33.32s-1.6.46-2.07.46-.4,1.47-.4,1.47c0,0-.01.97.95,1.38.96.41,2.42,1.08,2.42,1.08,0,0,.15-1.7.08-2.2-.07-.5-.33-2.4-.98-2.19Z"/>
                <g>
                  <path class="cls-19" d="m18.02,37.34L2.35,28.29c-.21-.12-.4-.14-.52-.07,0,0-.41.22-.41.22l.28.21v8.97c0,.31.29.74.66.95l15.67,9.05s.07.04.1.05v.28c.1-.06.39-.23.39-.23.1-.04.17-.14.17-.28v-9.14c0-.31-.29-.74-.66-.95Z"/>
                  <path class="cls-21" d="m17.54,47.88L1.87,38.83c-.36-.21-.66-.63-.66-.95v-9.14c0-.31.29-.4.66-.19l15.67,9.05c.36.21.66.63.66.95v9.14c0,.31-.29.4-.66.19Z"/>
                </g>
              </g>
              <path class="cls-16" d="m24.55,10.97l-.87.5c-.36.21-.56.47-.62.76-1,1.67.47,6.92.59,8.36.05.61-3.27,3.85-3.39,4.65-.06.38.71,3.11.19,3.91-.02.03-2.82,4.9-2.82,4.9,0,0,.23.16,0,0-.19-.13-2.73-.28-2.73-.28,0,0,.53-6.29,1.59-9.17,1.06-2.88,1.55-4.48,3.65-10.83,1.22-3.69,4.43-2.82,4.42-2.81Z"/>
            </g>
          </g>
          <path class="cls-16" d="m35.26,24.69s-.23,3.07-.06,4.9c.17,1.83-.92,3.62-.92,3.62,0,0-1,0-3.55.76-2.72.81-3.45,1.11-4.22,1.56-.77.44-3.11,1.15-3.11,1.15,0,0-1.12,1.11.31,1.74,1.43.63,12.02-1.35,13.43-1.85,1.55-.56,2.06-2.44,2.91-4.37.84-1.92,1.62-7.39,1.62-7.95s-6.41.44-6.41.44Z"/>
          <path class="cls-11" d="m38.51,19.22s1.2-1.3,3.07,1.43c1.82,2.66.01,7.04.01,7.04,0,0-.95,2.21-2.86,1.91s-4.05-1.94-4.05-1.94c0,0,.63-8.03,3.82-8.44Z"/>
          <path class="cls-11" d="m25.39,10.67s-1.29-1.52-3.71.57c-2.42,2.09-2.85,6.51-2.85,6.51,0,0,.95,2.08,2.85,2.58,1.9.5,1.97.27,1.97.27,0,0-.59-2.97-.59-4.45,0-4.23,2.32-5.47,2.32-5.47Z"/>
          <path class="cls-11" d="m23.71,12.75s2.09,10.8,3.22,12.12c1.13,1.32,4.14,3.47,5.4,2.73l1.26-.74s-.56,2.52-2.54,1.88c-1.98-.64-3.56-3.28-5.02-3.88-1.47-.6-2.76-.61-3.41-1.96-.65-1.35-2.12-3.86,1.1-10.16Z"/>
          <path class="cls-16" d="m25.45,5.24s-1.77.09-1.83.41.32,3.17,0,3.61c-.62.84.11,2.98.11,2.98,0,0-1.35,2.43,2.97,4.07,1.54.58,2.96-1.56,4.29-3.33,1.33-1.77,1.36-3.94,1.36-3.94,0,0-5.27-5.37-6.9-3.79Z"/>
          <path class="cls-14" d="m33.78,3.51c.19-.37.17-.81-.14-1.23-.51-.69-1.3-.68-2.05-.49-.1-.86-.6-1.65-1.56-1.77-.65-.08-1.22.27-1.48.78-.63-.74-1.66-1.1-2.56-.52-.56.36-.79.95-.71,1.52-.6-.09-1.59-.92-2.09-.49-.62.53-.48.72-.24,1.41-1.85.93-.99,4.54,1.18,4.19.74.92,2.39,2.97,3.85,1.19.2.42.52,1.53,1.82.54.17.64.81,3.71.69,4.38-.09.48.93-2.92,1.12-3.27.29-.52-.01,1.83.42,1.4,1.38.52,2.93-3.51,2.48-5.04,1.17-.85.38-2.09-.74-2.61Z"/>
          <path class="cls-16" d="m31.62,9.75s.42-.8.79-.51c.37.29.6.8.45,1.45-.15.65-.52,1.44-.97,1.39-.46-.05-.63.24-.8-.17-.28-.67.53-2.16.53-2.16Z"/>
          <path class="cls-55" d="m31.97,9.99s.13.41.18.59c.05.18.09.47,0,.6-.1.13-.19.21-.19.21,0,0,.04-.69,0-.96-.05-.27-.06-.5.06-.69.12-.18.23-.42.4-.18.17.24.31.51.26.93-.06.41-.21.84-.41,1.02-.2.17-.46.24-.46.24,0,0,.53-.17.65-.64.12-.47.19-1.2.05-1.34-.14-.14-.16-.17-.18,0-.02.18.07.46-.06.36-.13-.1-.13-.35-.21-.26-.08.09-.06.12-.06.12Z"/>
          <path class="cls-14" d="m23.73,12.24s1.07-.43,2.03,0c1.79.79,1.84,2.2,2.36,2.29.53.09,1.19-.71,1.7-1.29.51-.59.66-1.48.66-1.48l.4-1.08s.21,1.58.27,2.08c.26,2.28-2.5,3.56-2.5,3.56,0,0-.52.18-.99.22-.47.03-.24.51-1.35.43-.41-.03-.38-.53-.63-.51-.25.02-.5.07-.98-.54-1.72-2.18-.97-3.68-.97-3.68Z"/>
          <g>
            <path class="cls-10" d="m29.67,10.54c-.06-.02-.67-.7-1.33-1.11-.66-.41-1.6-.59-1.6-.59l-.29-.16-.35-.2s-.94-.91-1.6-1.26c-.66-.35-1.27-.38-1.33-.43-.06-.05-.28-.16-.28-.16l-.06.2s.28.54.32.81c.04.28.17,2.04,1.54,2.7,1.38.66,1.39-.37,1.43-.5.05-.13.03-.44.16-.39l.13.05.13.1c.13.11.11.39.16.57.05.19.06,1.24,1.43,2.16,1.38.92,1.5-.68,1.54-.92.04-.23.26-.19.26-.19v-.52s-.21-.13-.27-.16Zm-3.92-1.35c-.01.06-.02.12-.02.16,0,.02-.01.06-.02.08-.01.04-.02.09-.04.13-.05.23-.13.67-1.01.25-.04-.02-.08-.04-.11-.06-.33-.19-.79-.6-.94-1.87,0-.03,0-.05,0-.07-.04-.23.07-.37.25-.33.19.05.43.13.67.26.02.01.04.02.06.03.27.16.6.42.87.65.22.2.36.54.3.77Zm3.49,1.88s0,.04,0,.06c-.15,1.1-.61.97-.95.78-.04-.02-.07-.04-.11-.07-.88-.59-.97-1.13-1.02-1.42,0-.05-.02-.11-.04-.17,0-.02,0-.07-.01-.1,0-.05-.01-.11-.03-.19-.05-.29.08-.48.31-.41.27.08.6.19.87.35.02.01.04.02.06.04.23.15.47.33.67.51.18.16.29.42.25.61Z"/>
            <path class="cls-54" d="m29.61,10.74c-.06-.02-.67-.7-1.33-1.11-.66-.41-1.6-.59-1.6-.59l-.29-.16-.35-.2s-.94-.91-1.6-1.26c-.66-.35-1.27-.38-1.33-.43-.06-.05-.27-.16-.27-.16v.52s.23.22.26.49c.04.28.17,2.04,1.54,2.7,1.38.66,1.39-.37,1.43-.5.05-.13.03-.44.16-.39l.13.05.13.1c.13.11.11.39.16.57.05.19.06,1.24,1.43,2.16,1.38.92,1.5-.68,1.54-.92.04-.23.26-.19.26-.19v-.52s-.21-.13-.27-.16Zm-3.92-1.35c-.01.06-.02.12-.02.16,0,.02-.01.06-.02.08-.01.04-.02.09-.04.13-.05.23-.13.67-1.01.25-.04-.02-.08-.04-.11-.06-.33-.19-.79-.6-.94-1.87,0-.03,0-.05,0-.07-.04-.23.07-.37.25-.33.19.05.43.13.67.26.02.01.04.02.06.03.27.16.6.42.87.65.22.2.36.54.3.77Zm3.49,1.88s0,.04,0,.06c-.15,1.1-.61.97-.95.78-.04-.02-.07-.04-.11-.07-.88-.59-.97-1.13-1.02-1.42,0-.05-.02-.11-.04-.17,0-.02,0-.07-.01-.1,0-.05-.01-.11-.03-.19-.05-.29.08-.48.31-.41.27.08.6.19.87.35.02.01.04.02.06.04.23.15.47.33.67.51.18.16.29.42.25.61Z"/>
          </g>
          <polygon class="cls-54" points="31.48 9.99 29.88 10.9 29.88 11.42 31.17 10.46 31.48 9.99"/>
          <polygon class="cls-10" points="31.62 9.75 29.78 10.62 29.88 10.9 31.48 9.99 31.62 9.75"/>
        </g>
      </g>
    </g>
  </g>
</svg>