<?xml version="1.0" encoding="utf-8"?>
<!-- Generator: Adobe Illustrator 28.0.0, SVG Export Plug-In . SVG Version: 6.00 Build 0)  -->
<svg version="1.1" id="Layer_1" xmlns="http://www.w3.org/2000/svg" xmlns:xlink="http://www.w3.org/1999/xlink" x="0px" y="0px"
	 viewBox="0 0 200 200" style="enable-background:new 0 0 200 200;" xml:space="preserve">
<style type="text/css">
	.st0{fill:url(#SVGID_1_);}
	.st1{fill:url(#SVGID_00000017502899619965315200000010249873534505797031_);}
	.st2{fill:url(#SVGID_00000144297917994511257280000015834137936453229503_);}
	.st3{fill:url(#SVGID_00000075874606537584598440000013998902087830822817_);}
	.st4{fill:url(#SVGID_00000111150385009105208920000005177652744035457457_);}
	.st5{fill:url(#SVGID_00000098902535550552513240000000040934058675962280_);}
	.st6{fill:url(#SVGID_00000033358271663888454250000018372641327351662984_);}
	.st7{fill:url(#SVGID_00000164492569804765234190000006534560977932538280_);}
	.st8{fill:url(#SVGID_00000168801481015355090680000006049610729774248329_);}
</style>
<g>
	<g>
		<g>
			
				<linearGradient id="SVGID_1_" gradientUnits="userSpaceOnUse" x1="-946.7192" y1="192.1292" x2="-864.0178" y2="192.1292" gradientTransform="matrix(0.9465 -0.3226 0.3226 0.9465 855.3527 -318.8987)">
				<stop  offset="8.311352e-07" style="stop-color:#0039AD"/>
				<stop  offset="1" style="stop-color:#00BFFF"/>
			</linearGradient>
			<polygon class="st0" points="11.7,140.4 37.8,131.5 109.1,169.7 82.9,178.6 			"/>
			
				<linearGradient id="SVGID_00000016761778547521815760000015919408950572443269_" gradientUnits="userSpaceOnUse" x1="-885.5686" y1="109.7665" x2="-931.0782" y2="163.1646" gradientTransform="matrix(0.9465 -0.3226 0.3226 0.9465 855.3527 -318.8987)">
				<stop  offset="8.311352e-07" style="stop-color:#0039AD"/>
				<stop  offset="1" style="stop-color:#00BFFF"/>
			</linearGradient>
			<polygon style="fill:url(#SVGID_00000016761778547521815760000015919408950572443269_);" points="11.7,140.4 37.8,131.5 
				70.9,57.8 44.7,66.6 			"/>
		</g>
		<g>
			
				<linearGradient id="SVGID_00000085930321197768594910000013506734563877148320_" gradientUnits="userSpaceOnUse" x1="141.4274" y1="728.0735" x2="224.1288" y2="728.0735" gradientTransform="matrix(-0.9465 0.3226 -0.3226 -0.9465 548.3206 674.7189)">
				<stop  offset="8.311352e-07" style="stop-color:#0039AD"/>
				<stop  offset="1" style="stop-color:#00BFFF"/>
			</linearGradient>
			<polygon style="fill:url(#SVGID_00000085930321197768594910000013506734563877148320_);" points="189.1,59.2 163,68.1 91.8,29.9 
				117.9,21 			"/>
			
				<linearGradient id="SVGID_00000115485518784805357340000017222709614471158160_" gradientUnits="userSpaceOnUse" x1="202.578" y1="645.7108" x2="157.0683" y2="699.1089" gradientTransform="matrix(-0.9465 0.3226 -0.3226 -0.9465 548.3206 674.7189)">
				<stop  offset="8.311352e-07" style="stop-color:#0039AD"/>
				<stop  offset="1" style="stop-color:#00BFFF"/>
			</linearGradient>
			<polygon style="fill:url(#SVGID_00000115485518784805357340000017222709614471158160_);" points="189.1,59.2 163,68.1 
				129.9,141.8 156.1,132.9 			"/>
		</g>
	</g>
	<g>
		<g>
			<g>
				
					<linearGradient id="SVGID_00000171709098231969628260000004879658482124448166_" gradientUnits="userSpaceOnUse" x1="115.2133" y1="99.7833" x2="132.0932" y2="99.7833">
					<stop  offset="8.311352e-07" style="stop-color:#0039AD"/>
					<stop  offset="1" style="stop-color:#00BFFF"/>
				</linearGradient>
				<path style="fill:url(#SVGID_00000171709098231969628260000004879658482124448166_);" d="M131.7,100.1c-3,0-6.3,1.1-6.3,6.2v9
					c0,5.2-5.7,5.9-9.7,5.8c-0.3,0-0.5-0.2-0.5-0.4l0,0c0-0.2,0.2-0.4,0.5-0.4c2.9,0,6.2-1.1,6.2-6v-9c0-3.6,2.6-5.1,5.6-5.6
					c-3-0.6-5.6-2-5.6-5.7v-9c0-4.7-3.3-6-6.2-6c-0.3,0-0.5-0.2-0.5-0.4v0c0-0.2,0.2-0.4,0.5-0.4c4-0.1,9.7,0.7,9.7,5.8v10.1
					c0,4,3,5.1,5.8,5.1C132.6,99.4,132,100.1,131.7,100.1z"/>
			</g>
			<g>
				
					<linearGradient id="SVGID_00000170979993263578544990000010353861669718771647_" gradientUnits="userSpaceOnUse" x1="2361.7856" y1="99.7833" x2="2378.6655" y2="99.7833" gradientTransform="matrix(-1 0 0 1 2447.3806 0)">
					<stop  offset="8.311352e-07" style="stop-color:#0039AD"/>
					<stop  offset="1" style="stop-color:#00BFFF"/>
				</linearGradient>
				<path style="fill:url(#SVGID_00000170979993263578544990000010353861669718771647_);" d="M69.6,99.4c2.8,0,5.8-1.1,5.8-5.1V84.2
					c0-5.2,5.7-5.9,9.7-5.8c0.3,0,0.5,0.2,0.5,0.4v0c0,0.2-0.2,0.4-0.5,0.4c-2.9,0-6.2,1.3-6.2,6v9c0,3.6-2.6,5.1-5.6,5.7
					c3,0.6,5.6,2,5.6,5.6v9c0,4.9,3.3,6,6.2,6c0.3,0,0.5,0.2,0.5,0.4l0,0c0,0.2-0.2,0.4-0.5,0.4c-4,0.1-9.7-0.7-9.7-5.8v-9
					c0-5.1-3.3-6.2-6.3-6.2C68.8,100.1,68.2,99.4,69.6,99.4z"/>
			</g>
		</g>
		<g>
			
				<linearGradient id="SVGID_00000139262753093932625970000013133287233864653977_" gradientUnits="userSpaceOnUse" x1="84.9525" y1="99.7833" x2="93.8489" y2="99.7833">
				<stop  offset="8.311352e-07" style="stop-color:#0039AD"/>
				<stop  offset="1" style="stop-color:#00BFFF"/>
			</linearGradient>
			<circle style="fill:url(#SVGID_00000139262753093932625970000013133287233864653977_);" cx="89.4" cy="99.8" r="4.4"/>
			
				<linearGradient id="SVGID_00000045603123875335440140000002389855962950400926_" gradientUnits="userSpaceOnUse" x1="95.9559" y1="99.7833" x2="104.8523" y2="99.7833">
				<stop  offset="8.311352e-07" style="stop-color:#0039AD"/>
				<stop  offset="1" style="stop-color:#00BFFF"/>
			</linearGradient>
			<circle style="fill:url(#SVGID_00000045603123875335440140000002389855962950400926_);" cx="100.4" cy="99.8" r="4.4"/>
			
				<linearGradient id="SVGID_00000088122572118787031830000013266239610010031269_" gradientUnits="userSpaceOnUse" x1="106.9593" y1="99.7833" x2="115.8557" y2="99.7833">
				<stop  offset="8.311352e-07" style="stop-color:#0039AD"/>
				<stop  offset="1" style="stop-color:#00BFFF"/>
			</linearGradient>
			<circle style="fill:url(#SVGID_00000088122572118787031830000013266239610010031269_);" cx="111.4" cy="99.8" r="4.4"/>
		</g>
	</g>
</g>
</svg>
