<?xml version="1.0" encoding="UTF-8"?>
<svg id="Layer_2" data-name="Layer 2" xmlns="http://www.w3.org/2000/svg" xmlns:xlink="http://www.w3.org/1999/xlink" viewBox="0 0 81.51 92.63">
  <defs>
    <style>
      .cls-1 {
        fill: url(#linear-gradient-38);
      }

      .cls-1, .cls-2, .cls-3, .cls-4, .cls-5, .cls-6, .cls-7, .cls-8, .cls-9, .cls-10, .cls-11, .cls-12, .cls-13, .cls-14, .cls-15, .cls-16, .cls-17, .cls-18, .cls-19, .cls-20, .cls-21, .cls-22, .cls-23, .cls-24, .cls-25, .cls-26, .cls-27, .cls-28, .cls-29, .cls-30, .cls-31, .cls-32, .cls-33, .cls-34, .cls-35, .cls-36, .cls-37, .cls-38, .cls-39, .cls-40, .cls-41, .cls-42, .cls-43, .cls-44, .cls-45, .cls-46, .cls-47, .cls-48, .cls-49, .cls-50, .cls-51, .cls-52, .cls-53, .cls-54, .cls-55, .cls-56, .cls-57, .cls-58, .cls-59, .cls-60, .cls-61, .cls-62, .cls-63, .cls-64, .cls-65, .cls-66, .cls-67, .cls-68, .cls-69, .cls-70, .cls-71, .cls-72, .cls-73, .cls-74, .cls-75, .cls-76, .cls-77, .cls-78, .cls-79, .cls-80, .cls-81, .cls-82, .cls-83, .cls-84, .cls-85, .cls-86, .cls-87, .cls-88, .cls-89, .cls-90, .cls-91, .cls-92, .cls-93, .cls-94 {
        stroke-width: 0px;
      }

      .cls-2 {
        fill: url(#linear-gradient-12);
      }

      .cls-3 {
        fill: url(#linear-gradient-17);
      }

      .cls-4 {
        fill: url(#linear-gradient-19);
      }

      .cls-5 {
        fill: url(#linear-gradient-33);
      }

      .cls-6 {
        fill: url(#linear-gradient);
      }

      .cls-7 {
        fill: url(#linear-gradient-62);
      }

      .cls-8 {
        fill: url(#linear-gradient-67);
      }

      .cls-9 {
        fill: url(#linear-gradient-57);
      }

      .cls-10 {
        fill: #7389d9;
      }

      .cls-11 {
        fill: #a2bfef;
      }

      .cls-95 {
        opacity: .31;
      }

      .cls-12 {
        fill: #fc704d;
      }

      .cls-13 {
        fill: url(#linear-gradient-21);
      }

      .cls-14 {
        fill: url(#linear-gradient-6);
      }

      .cls-15, .cls-30 {
        fill: #120a30;
      }

      .cls-16 {
        fill: url(#linear-gradient-42);
      }

      .cls-17 {
        fill: #ffc69c;
      }

      .cls-18 {
        fill: url(#linear-gradient-15);
      }

      .cls-19 {
        fill: url(#linear-gradient-11);
      }

      .cls-20 {
        fill: #879ade;
      }

      .cls-21 {
        fill: url(#linear-gradient-5);
      }

      .cls-22 {
        fill: #99aff0;
      }

      .cls-23 {
        fill: url(#linear-gradient-31);
      }

      .cls-24 {
        fill: url(#linear-gradient-71);
      }

      .cls-25 {
        fill: url(#linear-gradient-58);
      }

      .cls-26 {
        fill: #fb3300;
      }

      .cls-27 {
        fill: url(#linear-gradient-63);
      }

      .cls-28 {
        fill: url(#linear-gradient-34);
      }

      .cls-29 {
        fill: url(#linear-gradient-41);
      }

      .cls-96 {
        opacity: .58;
      }

      .cls-30, .cls-89 {
        fill-rule: evenodd;
      }

      .cls-31 {
        fill: url(#linear-gradient-40);
      }

      .cls-32 {
        fill: url(#linear-gradient-66);
      }

      .cls-33 {
        fill: url(#linear-gradient-13);
      }

      .cls-34 {
        fill: url(#linear-gradient-23);
      }

      .cls-35 {
        fill: url(#linear-gradient-25);
      }

      .cls-36 {
        fill: url(#linear-gradient-43);
      }

      .cls-37 {
        fill: url(#linear-gradient-16);
      }

      .cls-38 {
        fill: url(#linear-gradient-22);
      }

      .cls-39 {
        fill: url(#linear-gradient-54);
      }

      .cls-40 {
        fill: url(#linear-gradient-55);
      }

      .cls-41 {
        fill: #fff;
      }

      .cls-42 {
        fill: url(#linear-gradient-35);
      }

      .cls-43 {
        fill: url(#linear-gradient-50);
      }

      .cls-44 {
        fill: url(#linear-gradient-32);
      }

      .cls-45 {
        fill: url(#linear-gradient-60);
      }

      .cls-46 {
        fill: url(#linear-gradient-59);
      }

      .cls-47 {
        fill: url(#linear-gradient-20);
      }

      .cls-48 {
        fill: url(#linear-gradient-14);
      }

      .cls-49 {
        fill: url(#linear-gradient-2);
      }

      .cls-50 {
        fill: url(#linear-gradient-73);
      }

      .cls-50, .cls-91 {
        opacity: .06;
      }

      .cls-51 {
        fill: url(#linear-gradient-52);
      }

      .cls-52 {
        fill: #24b289;
      }

      .cls-53 {
        fill: url(#linear-gradient-45);
      }

      .cls-54 {
        fill: url(#linear-gradient-7);
      }

      .cls-55 {
        fill: url(#linear-gradient-39);
      }

      .cls-56 {
        fill: url(#linear-gradient-3);
      }

      .cls-57, .cls-89 {
        fill: #2a3463;
      }

      .cls-58 {
        fill: #ffa15c;
      }

      .cls-59 {
        fill: url(#linear-gradient-69);
      }

      .cls-97 {
        opacity: .53;
      }

      .cls-60 {
        fill: url(#linear-gradient-9);
      }

      .cls-61 {
        fill: url(#linear-gradient-27);
      }

      .cls-62 {
        fill: url(#linear-gradient-53);
      }

      .cls-63 {
        fill: url(#linear-gradient-65);
      }

      .cls-64 {
        fill: url(#linear-gradient-36);
      }

      .cls-65 {
        fill: url(#linear-gradient-48);
      }

      .cls-66 {
        fill: url(#linear-gradient-49);
      }

      .cls-67 {
        fill: url(#linear-gradient-8);
      }

      .cls-68 {
        fill: url(#linear-gradient-47);
      }

      .cls-69 {
        fill: url(#linear-gradient-24);
      }

      .cls-70 {
        fill: url(#linear-gradient-26);
      }

      .cls-71 {
        fill: url(#linear-gradient-61);
      }

      .cls-72 {
        fill: #f7991d;
      }

      .cls-73 {
        fill: url(#linear-gradient-18);
      }

      .cls-74 {
        fill: #f6b735;
      }

      .cls-75 {
        fill: #085956;
      }

      .cls-76 {
        fill: url(#linear-gradient-51);
      }

      .cls-77 {
        fill: url(#linear-gradient-30);
      }

      .cls-78 {
        fill: #009664;
      }

      .cls-79 {
        fill: url(#linear-gradient-44);
      }

      .cls-80 {
        fill: #fc5226;
      }

      .cls-81 {
        fill: url(#linear-gradient-68);
      }

      .cls-82 {
        fill: url(#linear-gradient-72);
      }

      .cls-83 {
        fill: url(#linear-gradient-29);
      }

      .cls-84 {
        fill: url(#linear-gradient-46);
      }

      .cls-85 {
        fill: url(#linear-gradient-64);
      }

      .cls-86 {
        fill: url(#linear-gradient-28);
      }

      .cls-87 {
        fill: url(#linear-gradient-56);
      }

      .cls-88 {
        fill: url(#linear-gradient-10);
      }

      .cls-90 {
        fill: url(#linear-gradient-70);
      }

      .cls-91 {
        fill: url(#linear-gradient-74);
      }

      .cls-92 {
        fill: url(#linear-gradient-4);
      }

      .cls-93 {
        fill: #fad445;
      }

      .cls-94 {
        fill: url(#linear-gradient-37);
      }
    </style>
    <linearGradient id="linear-gradient" x1="-.51" y1="29.02" x2=".85" y2="29.02" gradientTransform="translate(54.64) rotate(-180) scale(1 -1)" gradientUnits="userSpaceOnUse">
      <stop offset="0" stop-color="#a2bfef"/>
      <stop offset="1" stop-color="#838bb6"/>
    </linearGradient>
    <linearGradient id="linear-gradient-2" x1=".6" y1="29.67" x2="1.96" y2="29.67" xlink:href="#linear-gradient"/>
    <linearGradient id="linear-gradient-3" x1="13.91" y1="37.41" x2="15.27" y2="37.41" xlink:href="#linear-gradient"/>
    <linearGradient id="linear-gradient-4" x1="-1.45" y1="29.48" x2=".22" y2="29.48" xlink:href="#linear-gradient"/>
    <linearGradient id="linear-gradient-5" x1="-.34" y1="30.12" x2="1.33" y2="30.12" xlink:href="#linear-gradient"/>
    <linearGradient id="linear-gradient-6" x1="10.76" y1="36.58" x2="12.42" y2="36.58" xlink:href="#linear-gradient"/>
    <linearGradient id="linear-gradient-7" x1="9.65" y1="35.93" x2="11.31" y2="35.93" xlink:href="#linear-gradient"/>
    <linearGradient id="linear-gradient-8" x1="8.54" y1="35.29" x2="10.2" y2="35.29" xlink:href="#linear-gradient"/>
    <linearGradient id="linear-gradient-9" x1="7.43" y1="34.64" x2="9.09" y2="34.64" xlink:href="#linear-gradient"/>
    <linearGradient id="linear-gradient-10" x1="6.32" y1="34" x2="7.98" y2="34" xlink:href="#linear-gradient"/>
    <linearGradient id="linear-gradient-11" x1="5.21" y1="33.35" x2="6.87" y2="33.35" xlink:href="#linear-gradient"/>
    <linearGradient id="linear-gradient-12" x1="4.1" y1="32.71" x2="5.76" y2="32.71" xlink:href="#linear-gradient"/>
    <linearGradient id="linear-gradient-13" x1="2.99" y1="32.06" x2="4.66" y2="32.06" xlink:href="#linear-gradient"/>
    <linearGradient id="linear-gradient-14" x1="1.88" y1="31.41" x2="3.55" y2="31.41" xlink:href="#linear-gradient"/>
    <linearGradient id="linear-gradient-15" x1=".77" y1="30.77" x2="2.44" y2="30.77" xlink:href="#linear-gradient"/>
    <linearGradient id="linear-gradient-16" x1="11.87" y1="37.55" x2="14.64" y2="37.55" xlink:href="#linear-gradient"/>
    <linearGradient id="linear-gradient-17" x1="-2.35" y1="30.16" x2="-.14" y2="30.16" xlink:href="#linear-gradient"/>
    <linearGradient id="linear-gradient-18" x1="12.08" y1="38.39" x2="13.74" y2="38.39" xlink:href="#linear-gradient"/>
    <linearGradient id="linear-gradient-19" x1="-3.25" y1="30.76" x2="-.8" y2="30.76" xlink:href="#linear-gradient"/>
    <linearGradient id="linear-gradient-20" x1="8.17" y1="37.17" x2="9.83" y2="37.17" xlink:href="#linear-gradient"/>
    <linearGradient id="linear-gradient-21" x1="6.96" y1="36.48" x2="8.63" y2="36.48" xlink:href="#linear-gradient"/>
    <linearGradient id="linear-gradient-22" x1="5.76" y1="35.8" x2="7.43" y2="35.8" xlink:href="#linear-gradient"/>
    <linearGradient id="linear-gradient-23" x1="4.56" y1="35.11" x2="6.23" y2="35.11" xlink:href="#linear-gradient"/>
    <linearGradient id="linear-gradient-24" x1="3.36" y1="34.42" x2="5.03" y2="34.42" xlink:href="#linear-gradient"/>
    <linearGradient id="linear-gradient-25" x1="2.16" y1="33.73" x2="3.83" y2="33.73" xlink:href="#linear-gradient"/>
    <linearGradient id="linear-gradient-26" x1=".96" y1="33.05" x2="2.62" y2="33.05" xlink:href="#linear-gradient"/>
    <linearGradient id="linear-gradient-27" x1="-.24" y1="32.36" x2="1.42" y2="32.36" xlink:href="#linear-gradient"/>
    <linearGradient id="linear-gradient-28" x1="-1.45" y1="31.67" x2=".22" y2="31.67" xlink:href="#linear-gradient"/>
    <linearGradient id="linear-gradient-29" x1="9.36" y1="37.86" x2="11.02" y2="37.86" xlink:href="#linear-gradient"/>
    <linearGradient id="linear-gradient-30" x1="10.45" y1="38.71" x2="12.84" y2="38.71" xlink:href="#linear-gradient"/>
    <linearGradient id="linear-gradient-31" x1="-4.16" y1="31.38" x2="-1.38" y2="31.38" xlink:href="#linear-gradient"/>
    <linearGradient id="linear-gradient-32" x1="-1.94" y1="32.34" x2="-.27" y2="32.34" xlink:href="#linear-gradient"/>
    <linearGradient id="linear-gradient-33" x1="8.05" y1="38.15" x2="9.72" y2="38.15" xlink:href="#linear-gradient"/>
    <linearGradient id="linear-gradient-34" x1="6.94" y1="37.51" x2="8.61" y2="37.51" xlink:href="#linear-gradient"/>
    <linearGradient id="linear-gradient-35" x1="5.83" y1="36.86" x2="7.5" y2="36.86" xlink:href="#linear-gradient"/>
    <linearGradient id="linear-gradient-36" x1="4.72" y1="36.21" x2="6.39" y2="36.21" xlink:href="#linear-gradient"/>
    <linearGradient id="linear-gradient-37" x1="3.61" y1="35.57" x2="5.28" y2="35.57" xlink:href="#linear-gradient"/>
    <linearGradient id="linear-gradient-38" x1="2.5" y1="34.92" x2="4.17" y2="34.92" xlink:href="#linear-gradient"/>
    <linearGradient id="linear-gradient-39" x1="1.39" y1="34.27" x2="3.06" y2="34.27" xlink:href="#linear-gradient"/>
    <linearGradient id="linear-gradient-40" x1=".28" y1="33.63" x2="1.95" y2="33.63" xlink:href="#linear-gradient"/>
    <linearGradient id="linear-gradient-41" x1="-.83" y1="32.98" x2=".84" y2="32.98" xlink:href="#linear-gradient"/>
    <linearGradient id="linear-gradient-42" x1="9.24" y1="39.14" x2="11.93" y2="39.14" xlink:href="#linear-gradient"/>
    <linearGradient id="linear-gradient-43" x1="-5.06" y1="31.58" x2="-3.39" y2="31.58" xlink:href="#linear-gradient"/>
    <linearGradient id="linear-gradient-44" x1="-3.95" y1="32.22" x2="-2.28" y2="32.22" xlink:href="#linear-gradient"/>
    <linearGradient id="linear-gradient-45" x1="-2.84" y1="32.87" x2="-1.17" y2="32.87" xlink:href="#linear-gradient"/>
    <linearGradient id="linear-gradient-46" x1="-1.75" y1="33.51" x2="-.09" y2="33.51" xlink:href="#linear-gradient"/>
    <linearGradient id="linear-gradient-47" x1="-.62" y1="36.1" x2="7.7" y2="36.1" xlink:href="#linear-gradient"/>
    <linearGradient id="linear-gradient-48" x1="7.15" y1="38.78" x2="8.45" y2="38.78" xlink:href="#linear-gradient"/>
    <linearGradient id="linear-gradient-49" x1="8.26" y1="39.32" x2="9.92" y2="39.32" xlink:href="#linear-gradient"/>
    <linearGradient id="linear-gradient-50" x1="9.37" y1="40.07" x2="10.67" y2="40.07" xlink:href="#linear-gradient"/>
    <linearGradient id="linear-gradient-51" x1="10.91" y1="37.71" x2="12.57" y2="37.71" xlink:href="#linear-gradient"/>
    <linearGradient id="linear-gradient-52" x1="9.74" y1="37.03" x2="11.4" y2="37.03" xlink:href="#linear-gradient"/>
    <linearGradient id="linear-gradient-53" x1="8.57" y1="36.35" x2="10.23" y2="36.35" xlink:href="#linear-gradient"/>
    <linearGradient id="linear-gradient-54" x1="7.4" y1="35.67" x2="9.06" y2="35.67" xlink:href="#linear-gradient"/>
    <linearGradient id="linear-gradient-55" x1="6.23" y1="34.99" x2="7.89" y2="34.99" xlink:href="#linear-gradient"/>
    <linearGradient id="linear-gradient-56" x1="5.06" y1="34.32" x2="6.72" y2="34.32" xlink:href="#linear-gradient"/>
    <linearGradient id="linear-gradient-57" x1="3.89" y1="33.64" x2="5.55" y2="33.64" xlink:href="#linear-gradient"/>
    <linearGradient id="linear-gradient-58" x1="2.72" y1="32.96" x2="4.38" y2="32.96" xlink:href="#linear-gradient"/>
    <linearGradient id="linear-gradient-59" x1="1.55" y1="32.28" x2="3.21" y2="32.28" xlink:href="#linear-gradient"/>
    <linearGradient id="linear-gradient-60" x1=".38" y1="31.6" x2="2.04" y2="31.6" xlink:href="#linear-gradient"/>
    <linearGradient id="linear-gradient-61" x1="-.79" y1="30.92" x2=".87" y2="30.92" xlink:href="#linear-gradient"/>
    <linearGradient id="linear-gradient-62" x1="12.8" y1="36.77" x2="14.16" y2="36.77" xlink:href="#linear-gradient"/>
    <linearGradient id="linear-gradient-63" x1="11.69" y1="36.12" x2="13.06" y2="36.12" xlink:href="#linear-gradient"/>
    <linearGradient id="linear-gradient-64" x1="10.58" y1="35.47" x2="11.95" y2="35.47" xlink:href="#linear-gradient"/>
    <linearGradient id="linear-gradient-65" x1="9.47" y1="34.83" x2="10.84" y2="34.83" xlink:href="#linear-gradient"/>
    <linearGradient id="linear-gradient-66" x1="8.36" y1="34.18" x2="9.73" y2="34.18" xlink:href="#linear-gradient"/>
    <linearGradient id="linear-gradient-67" x1="7.25" y1="33.53" x2="8.62" y2="33.53" xlink:href="#linear-gradient"/>
    <linearGradient id="linear-gradient-68" x1="6.15" y1="32.89" x2="7.51" y2="32.89" xlink:href="#linear-gradient"/>
    <linearGradient id="linear-gradient-69" x1="5.04" y1="32.24" x2="6.4" y2="32.24" xlink:href="#linear-gradient"/>
    <linearGradient id="linear-gradient-70" x1="3.93" y1="31.6" x2="5.29" y2="31.6" xlink:href="#linear-gradient"/>
    <linearGradient id="linear-gradient-71" x1="2.82" y1="30.95" x2="4.18" y2="30.95" xlink:href="#linear-gradient"/>
    <linearGradient id="linear-gradient-72" x1="1.71" y1="30.3" x2="3.07" y2="30.3" xlink:href="#linear-gradient"/>
    <linearGradient id="linear-gradient-73" x1="13.52" y1="12.49" x2="14.66" y2="20.83" gradientTransform="translate(54.64) rotate(-180) scale(1 -1)" gradientUnits="userSpaceOnUse">
      <stop offset="0" stop-color="#fff"/>
      <stop offset=".2" stop-color="#c6d4f1"/>
      <stop offset=".39" stop-color="#98b1e5"/>
      <stop offset=".56" stop-color="#7496dc"/>
      <stop offset=".73" stop-color="#5a82d6"/>
      <stop offset=".88" stop-color="#4a77d2"/>
      <stop offset="1" stop-color="#4573d1"/>
    </linearGradient>
    <linearGradient id="linear-gradient-74" x1="38.23" y1="26.17" x2="39.38" y2="34.51" xlink:href="#linear-gradient-73"/>
  </defs>
  <g id="Layer_1-2" data-name="Layer 1">
    <g>
      <g>
        <g>
          <polygon class="cls-10" points="29.42 88.81 32.18 87.15 32.18 59.04 29.42 60.69 29.42 88.81"/>
          <polygon class="cls-10" points="77.49 60.9 80.25 59.25 80.25 30.12 77.49 31.78 77.49 60.9"/>
          <polygon class="cls-20" points="77.49 60.9 46.4 43.66 61.13 22.72 77.49 31.78 77.49 60.9"/>
          <polygon class="cls-20" points=".91 71.6 29.42 88.81 29.42 60.69 .91 43.48 .91 71.6"/>
          <g>
            <polygon class="cls-22" points="29.48 60.83 81.51 30.37 81.51 28.65 0 41.38 0 43.1 29.48 60.83"/>
            <polygon class="cls-22" points="29.48 59.11 81.51 28.65 51.64 10.43 0 41.38 29.48 59.11"/>
          </g>
        </g>
        <g>
          <path class="cls-11" d="m60.03,32.39l-15.24,8.86c-.23.13-.58.15-.78.03l-6.12-2.93c-.2-.12-.4-2.67-.14-1.84l16.56-6.91c.23-.13.58-.15.78-.03l4.99,1.94c.2.12.18.74-.06.88Z"/>
          <g>
            <path class="cls-11" d="m60.03,31.97l-15.24,8.86c-.23.13-.58.15-.78.03,0,0-6.93-4.13-6.35-4.51l15.33-8.7c.23-.13,1.9.84,2.1.96l4.99,2.9c.2.12.18.32-.06.46Z"/>
            <polygon class="cls-20" points="54.26 29.61 55.15 29.09 54.68 28.81 53.79 29.33 54.26 29.61"/>
            <polygon class="cls-20" points="53.15 30.25 54.04 29.73 53.57 29.46 52.68 29.98 53.15 30.25"/>
            <polygon class="cls-20" points="55.19 30.15 56.09 29.63 55.31 29.18 54.42 29.7 55.19 30.15"/>
            <polygon class="cls-20" points="54.08 30.8 54.98 30.28 54.2 29.83 53.31 30.35 54.08 30.8"/>
            <polygon class="cls-20" points="39.99 38.09 40.77 38.54 42.77 37.38 42.77 37.19 39.99 37.9 39.99 38.09"/>
            <polygon class="cls-20" points="54.78 30.54 55.55 30.99 56.99 30.16 56.21 29.71 54.78 30.54"/>
            <polygon class="cls-20" points="56.21 31.66 57.89 30.68 57.12 30.23 55.44 31.21 56.21 31.66"/>
            <polygon class="cls-20" points="46.77 37.15 47.66 36.63 46.89 36.18 45.99 36.7 46.77 37.15"/>
            <polygon class="cls-20" points="41.8 39.14 42.57 39.59 44.19 38.65 43.42 38.2 41.8 39.14"/>
            <polygon class="cls-20" points="56.79 32.37 58.79 31.21 58.02 30.76 56.02 31.92 56.79 32.37"/>
            <polygon class="cls-20" points="55.68 33.02 56.57 32.5 55.8 32.05 54.91 32.57 55.68 33.02"/>
            <polygon class="cls-20" points="46.8 38.18 47.7 37.66 46.92 37.21 46.03 37.73 46.8 38.18"/>
            <polygon class="cls-20" points="43.47 40.11 45.4 39 45.4 38.81 42.7 39.48 42.7 39.67 43.47 40.11"/>
            <polygon class="cls-20" points="55.47 34.19 56.37 33.67 55.59 33.22 54.7 33.74 55.47 34.19"/>
            <polygon class="cls-20" points="46.93 38.25 47.71 38.7 55.26 34.31 55.26 34.12 46.93 38.07 46.93 38.25"/>
            <polygon class="cls-20" points="46.6 39.35 47.49 38.83 47.49 38.64 46.19 38.92 46.19 39.11 46.6 39.35"/>
            <polygon class="cls-20" points="45.49 39.99 46.38 39.48 46.38 39.29 44.71 39.36 44.71 39.54 45.49 39.99"/>
            <polygon class="cls-20" points="44.38 40.64 45.27 40.12 45.27 39.93 43.97 40.21 43.97 40.4 44.38 40.64"/>
            <rect class="cls-20" x="54.6" y="28.88" width=".55" height=".21"/>
            <rect class="cls-20" x="53.79" y="29.15" width=".36" height=".16"/>
            <rect class="cls-20" x="52.68" y="29.79" width=".6" height=".17"/>
            <rect class="cls-20" x="53.43" y="29.54" width=".61" height=".19"/>
            <rect class="cls-20" x="54.2" y="30.09" width=".78" height=".2"/>
            <rect class="cls-20" x="53.31" y="30.15" width=".56" height=".2"/>
            <rect class="cls-20" x="55.43" y="29.42" width=".64" height=".19"/>
            <rect class="cls-20" x="54.42" y="29.5" width=".84" height=".2"/>
            <rect class="cls-20" x="56.29" y="29.96" width=".7" height=".19"/>
            <rect class="cls-20" x="54.78" y="30.35" width="1.49" height=".19"/>
            <rect class="cls-20" x="57.33" y="30.49" width=".56" height=".18"/>
            <rect class="cls-20" x="55.44" y="31.01" width="1.23" height=".19"/>
            <rect class="cls-20" x="56.02" y="31.74" width="1.66" height=".18"/>
            <rect class="cls-20" x="58.32" y="31.01" width=".47" height=".19"/>
            <rect class="cls-20" x="54.91" y="32.38" width=".98" height=".18"/>
            <rect class="cls-20" x="55.97" y="32.3" width=".6" height=".19"/>
            <polygon class="cls-6" points="54.26 29.42 55.15 28.9 54.68 28.63 53.79 29.15 54.26 29.42"/>
            <polygon class="cls-49" points="53.15 30.06 54.04 29.54 53.57 29.27 52.68 29.79 53.15 30.06"/>
            <g>
              <polygon class="cls-20" points="39.83 38 40.72 37.48 40.72 37.29 39.36 37.53 39.36 37.72 39.83 38"/>
              <polygon class="cls-56" points="39.83 37.81 40.72 37.29 40.25 37.02 39.36 37.53 39.83 37.81"/>
            </g>
            <polygon class="cls-92" points="55.19 29.96 56.09 29.44 55.31 28.99 54.42 29.51 55.19 29.96"/>
            <polygon class="cls-21" points="54.08 30.61 54.98 30.09 54.2 29.64 53.31 30.16 54.08 30.61"/>
            <g>
              <polygon class="cls-20" points="42.99 37.25 43.88 36.73 43.88 36.54 42.21 36.61 42.21 36.8 42.99 37.25"/>
              <polygon class="cls-14" points="42.99 37.06 43.88 36.54 43.11 36.09 42.21 36.61 42.99 37.06"/>
            </g>
            <g>
              <polygon class="cls-20" points="44.1 36.6 44.99 36.09 44.99 35.9 43.32 35.97 43.32 36.16 44.1 36.6"/>
              <polygon class="cls-54" points="44.1 36.42 44.99 35.9 44.22 35.45 43.32 35.97 44.1 36.42"/>
            </g>
            <g>
              <polygon class="cls-20" points="45.21 35.96 46.1 35.44 46.1 35.25 44.43 35.32 44.43 35.51 45.21 35.96"/>
              <polygon class="cls-67" points="45.21 35.77 46.1 35.25 45.33 34.8 44.43 35.32 45.21 35.77"/>
            </g>
            <g>
              <polygon class="cls-20" points="46.32 35.31 47.21 34.79 47.21 34.61 45.54 34.68 45.54 34.86 46.32 35.31"/>
              <polygon class="cls-60" points="46.32 35.13 47.21 34.61 46.44 34.16 45.54 34.68 46.32 35.13"/>
            </g>
            <g>
              <polygon class="cls-20" points="47.43 34.67 48.32 34.15 48.32 33.96 46.65 34.03 46.65 34.22 47.43 34.67"/>
              <polygon class="cls-88" points="47.43 34.48 48.32 33.96 47.55 33.51 46.65 34.03 47.43 34.48"/>
            </g>
            <g>
              <polygon class="cls-20" points="48.54 34.02 49.43 33.5 49.43 33.32 47.76 33.39 47.76 33.57 48.54 34.02"/>
              <polygon class="cls-19" points="48.54 33.84 49.43 33.32 48.65 32.87 47.76 33.39 48.54 33.84"/>
            </g>
            <g>
              <polygon class="cls-20" points="49.64 33.38 50.54 32.86 50.54 32.67 48.87 32.74 48.87 32.93 49.64 33.38"/>
              <polygon class="cls-2" points="49.64 33.19 50.54 32.67 49.76 32.22 48.87 32.74 49.64 33.19"/>
            </g>
            <g>
              <polygon class="cls-20" points="50.75 32.73 51.65 32.21 51.65 32.03 49.98 32.09 49.98 32.28 50.75 32.73"/>
              <polygon class="cls-33" points="50.75 32.54 51.65 32.03 50.87 31.58 49.98 32.09 50.75 32.54"/>
            </g>
            <g>
              <polygon class="cls-20" points="51.86 32.09 52.76 31.57 52.76 31.38 51.09 31.45 51.09 31.64 51.86 32.09"/>
              <polygon class="cls-48" points="51.86 31.9 52.76 31.38 51.98 30.93 51.09 31.45 51.86 31.9"/>
            </g>
            <g>
              <polygon class="cls-20" points="52.97 31.44 53.87 30.92 53.87 30.73 52.2 30.8 52.2 30.99 52.97 31.44"/>
              <polygon class="cls-18" points="52.97 31.25 53.87 30.73 53.09 30.28 52.2 30.8 52.97 31.25"/>
            </g>
            <polygon class="cls-37" points="39.99 37.9 40.77 38.35 42.77 37.19 42 36.74 39.99 37.9"/>
            <polygon class="cls-3" points="54.78 30.35 55.55 30.8 56.99 29.97 56.21 29.52 54.78 30.35"/>
            <g>
              <polygon class="cls-20" points="41.67 38.88 42.56 38.36 42.56 38.55 41.67 39.07 40.9 38.62 40.9 38.43 41.67 38.88"/>
              <path class="cls-73" d="m40.9,38.43l.89-.52.76.45s-.88.52-.88.52l-.77-.45Z"/>
            </g>
            <polygon class="cls-4" points="56.21 31.47 57.89 30.49 57.12 30.04 55.44 31.02 56.21 31.47"/>
            <g>
              <polygon class="cls-20" points="45.58 37.65 46.47 37.14 46.47 37.32 45.58 37.84 44.8 37.39 44.8 37.21 45.58 37.65"/>
              <polygon class="cls-47" points="44.8 37.21 45.7 36.69 46.47 37.14 45.58 37.65 44.8 37.21"/>
            </g>
            <g>
              <polygon class="cls-20" points="46.78 36.97 47.67 36.45 47.67 36.64 46.78 37.16 46 36.71 46 36.52 46.78 36.97"/>
              <polygon class="cls-13" points="46 36.52 46.9 36 47.67 36.45 46.78 36.97 46 36.52"/>
            </g>
            <g>
              <polygon class="cls-20" points="47.98 36.28 48.87 35.76 48.87 35.95 47.98 36.47 47.21 36.02 47.21 35.83 47.98 36.28"/>
              <polygon class="cls-38" points="47.21 35.83 48.1 35.31 48.87 35.76 47.98 36.28 47.21 35.83"/>
            </g>
            <g>
              <polygon class="cls-20" points="49.18 35.59 50.07 35.07 50.07 35.26 49.18 35.78 48.41 35.33 48.41 35.14 49.18 35.59"/>
              <polygon class="cls-34" points="48.41 35.14 49.3 34.62 50.07 35.07 49.18 35.59 48.41 35.14"/>
            </g>
            <g>
              <polygon class="cls-20" points="50.38 34.91 51.28 34.39 51.28 34.57 50.38 35.09 49.61 34.64 49.61 34.46 50.38 34.91"/>
              <polygon class="cls-69" points="49.61 34.46 50.5 33.94 51.28 34.39 50.38 34.91 49.61 34.46"/>
            </g>
            <g>
              <polygon class="cls-20" points="51.58 34.22 52.48 33.7 52.48 33.89 51.58 34.41 50.81 33.96 50.81 33.77 51.58 34.22"/>
              <polygon class="cls-35" points="50.81 33.77 51.7 33.25 52.48 33.7 51.58 34.22 50.81 33.77"/>
            </g>
            <g>
              <polygon class="cls-20" points="52.79 33.53 53.68 33.01 53.68 33.2 52.79 33.72 52.01 33.27 52.01 33.08 52.79 33.53"/>
              <polygon class="cls-70" points="52.01 33.08 52.91 32.56 53.68 33.01 52.79 33.53 52.01 33.08"/>
            </g>
            <g>
              <polygon class="cls-20" points="53.99 32.84 54.88 32.32 54.88 32.51 53.99 33.03 53.21 32.58 53.21 32.39 53.99 32.84"/>
              <polygon class="cls-61" points="53.21 32.39 54.11 31.87 54.88 32.32 53.99 32.84 53.21 32.39"/>
            </g>
            <g>
              <polygon class="cls-20" points="55.19 32.16 56.08 31.64 56.08 31.83 55.19 32.34 54.41 31.9 54.41 31.71 55.19 32.16"/>
              <polygon class="cls-86" points="54.41 31.71 55.31 31.19 56.08 31.64 55.19 32.16 54.41 31.71"/>
            </g>
            <g>
              <polygon class="cls-20" points="44.39 38.35 45.28 37.83 45.28 38.02 44.39 38.54 43.61 38.09 43.61 37.9 44.39 38.35"/>
              <polygon class="cls-83" points="43.61 37.9 44.51 37.38 45.28 37.83 44.39 38.35 43.61 37.9"/>
            </g>
            <polygon class="cls-77" points="41.8 38.95 42.57 39.4 44.19 38.46 43.42 38.01 41.8 38.95"/>
            <polygon class="cls-23" points="56.79 32.18 58.79 31.02 58.02 30.57 56.02 31.73 56.79 32.18"/>
            <polygon class="cls-44" points="55.68 32.83 56.57 32.31 55.8 31.86 54.91 32.38 55.68 32.83"/>
            <g>
              <polygon class="cls-20" points="45.69 38.64 46.59 38.12 46.59 38.31 45.69 38.82 44.92 38.37 44.92 38.19 45.69 38.64"/>
              <polygon class="cls-5" points="44.92 38.19 45.81 37.67 46.59 38.12 45.69 38.64 44.92 38.19"/>
            </g>
            <g>
              <polygon class="cls-20" points="46.8 37.99 47.7 37.47 47.7 37.66 46.8 38.18 46.03 37.73 46.03 37.54 46.8 37.99"/>
              <polygon class="cls-28" points="46.03 37.54 46.92 37.02 47.7 37.47 46.8 37.99 46.03 37.54"/>
            </g>
            <g>
              <polygon class="cls-20" points="47.91 37.34 48.81 36.82 48.81 37.01 47.91 37.53 47.14 37.08 47.14 36.89 47.91 37.34"/>
              <polygon class="cls-42" points="47.14 36.89 48.03 36.37 48.81 36.82 47.91 37.34 47.14 36.89"/>
            </g>
            <g>
              <polygon class="cls-20" points="49.02 36.7 49.92 36.18 49.92 36.37 49.02 36.89 48.25 36.44 48.25 36.25 49.02 36.7"/>
              <polygon class="cls-64" points="48.25 36.25 49.14 35.73 49.92 36.18 49.02 36.7 48.25 36.25"/>
            </g>
            <g>
              <polygon class="cls-20" points="50.13 36.05 51.03 35.53 51.03 35.72 50.13 36.24 49.36 35.79 49.36 35.6 50.13 36.05"/>
              <polygon class="cls-94" points="49.36 35.6 50.25 35.08 51.03 35.53 50.13 36.05 49.36 35.6"/>
            </g>
            <g>
              <polygon class="cls-20" points="51.24 35.41 52.14 34.89 52.14 35.07 51.24 35.59 50.47 35.14 50.47 34.96 51.24 35.41"/>
              <polygon class="cls-1" points="50.47 34.96 51.36 34.44 52.14 34.89 51.24 35.41 50.47 34.96"/>
            </g>
            <g>
              <polygon class="cls-20" points="52.35 34.76 53.24 34.24 53.24 34.43 52.35 34.95 51.58 34.5 51.58 34.31 52.35 34.76"/>
              <polygon class="cls-55" points="51.58 34.31 52.47 33.79 53.24 34.24 52.35 34.76 51.58 34.31"/>
            </g>
            <g>
              <polygon class="cls-20" points="53.46 34.11 54.35 33.59 54.35 33.78 53.46 34.3 52.69 33.85 52.69 33.66 53.46 34.11"/>
              <polygon class="cls-31" points="52.69 33.66 53.58 33.14 54.35 33.59 53.46 34.11 52.69 33.66"/>
            </g>
            <g>
              <polygon class="cls-20" points="54.57 33.47 55.46 32.95 55.46 33.14 54.57 33.66 53.8 33.21 53.8 33.02 54.57 33.47"/>
              <polygon class="cls-29" points="53.8 33.02 54.69 32.5 55.46 32.95 54.57 33.47 53.8 33.02"/>
            </g>
            <polygon class="cls-16" points="43.47 39.93 45.4 38.81 44.62 38.36 42.7 39.48 43.47 39.93"/>
            <g>
              <path class="cls-20" d="m58.8,32.06l.89-.52v.2s-.89.51-.89.51l-.77-.45v-.19l.77.45Z"/>
              <path class="cls-36" d="m58.92,31.09l.77.45-.89.52-.77-.45s.89-.52.89-.52Z"/>
            </g>
            <g>
              <path class="cls-20" d="m57.69,32.71l.89-.52v.18s-.89.52-.89.52l-.77-.45v-.19l.77.45Z"/>
              <path class="cls-79" d="m57.81,31.74l.77.45-.89.52-.77-.45s.89-.52.89-.52Z"/>
            </g>
            <g>
              <path class="cls-20" d="m56.58,33.35l.89-.52v.18s-.89.52-.89.52l-.77-.45v-.19l.77.45Z"/>
              <path class="cls-53" d="m56.7,32.38l.77.45-.89.52-.77-.45s.89-.52.89-.52Z"/>
            </g>
            <g>
              <path class="cls-20" d="m55.49,34l.89-.52v.18s-.89.52-.89.52l-.77-.45v-.19l.77.45Z"/>
              <path class="cls-84" d="m55.61,33.03l.77.45-.89.52-.77-.45s.89-.52.89-.52Z"/>
            </g>
            <polygon class="cls-68" points="46.93 38.07 47.71 38.52 55.26 34.12 54.48 33.67 46.93 38.07"/>
            <polygon class="cls-65" points="46.6 39.16 47.49 38.64 47.08 38.4 46.19 38.92 46.6 39.16"/>
            <polygon class="cls-66" points="45.49 39.81 46.38 39.29 45.61 38.84 44.71 39.36 45.49 39.81"/>
            <polygon class="cls-43" points="44.38 40.45 45.27 39.93 44.86 39.69 43.97 40.21 44.38 40.45"/>
            <g>
              <polygon class="cls-20" points="42.84 38.2 43.73 37.68 43.73 37.87 42.84 38.39 42.07 37.94 42.07 37.75 42.84 38.2"/>
              <path class="cls-76" d="m42.07,37.75l.89-.52.76.44s-.88.52-.88.52l-.77-.45Z"/>
            </g>
            <g>
              <polygon class="cls-20" points="44.01 37.52 44.9 37 44.9 37.19 44.01 37.71 43.24 37.26 43.24 37.07 44.01 37.52"/>
              <path class="cls-51" d="m43.24,37.07l.89-.52.76.44s-.88.52-.88.52l-.77-.45Z"/>
            </g>
            <g>
              <polygon class="cls-20" points="45.18 36.84 46.07 36.32 46.07 36.51 45.18 37.03 44.41 36.58 44.41 36.39 45.18 36.84"/>
              <path class="cls-62" d="m44.41,36.39l.89-.52.76.44s-.88.52-.88.52l-.77-.45Z"/>
            </g>
            <g>
              <polygon class="cls-20" points="46.35 36.16 47.24 35.64 47.24 35.83 46.35 36.35 45.58 35.9 45.58 35.71 46.35 36.16"/>
              <path class="cls-39" d="m45.58,35.71l.89-.52.76.45s-.88.52-.88.52l-.77-.45Z"/>
            </g>
            <g>
              <polygon class="cls-20" points="47.52 35.48 48.41 34.96 48.41 35.15 47.52 35.67 46.75 35.22 46.75 35.03 47.52 35.48"/>
              <path class="cls-40" d="m46.75,35.03l.89-.52.76.44s-.88.52-.88.52l-.77-.45Z"/>
            </g>
            <g>
              <polygon class="cls-20" points="48.69 34.8 49.58 34.28 49.58 34.47 48.69 34.99 47.92 34.54 47.92 34.35 48.69 34.8"/>
              <path class="cls-87" d="m47.92,34.35l.89-.52.76.44s-.88.52-.88.52l-.77-.45Z"/>
            </g>
            <g>
              <polygon class="cls-20" points="49.86 34.12 50.75 33.6 50.75 33.79 49.86 34.31 49.09 33.86 49.09 33.67 49.86 34.12"/>
              <path class="cls-9" d="m49.09,33.67l.89-.52.76.44s-.88.52-.88.52l-.77-.45Z"/>
            </g>
            <g>
              <polygon class="cls-20" points="51.03 33.44 51.92 32.92 51.92 33.11 51.03 33.63 50.26 33.18 50.26 32.99 51.03 33.44"/>
              <path class="cls-25" d="m50.26,32.99l.89-.52.76.44s-.88.52-.88.52l-.77-.45Z"/>
            </g>
            <g>
              <polygon class="cls-20" points="52.2 32.76 53.09 32.24 53.09 32.43 52.2 32.95 51.43 32.5 51.43 32.31 52.2 32.76"/>
              <path class="cls-46" d="m51.43,32.31l.89-.52.76.44s-.88.52-.88.52l-.77-.45Z"/>
            </g>
            <g>
              <polygon class="cls-20" points="53.37 32.08 54.26 31.56 54.26 31.75 53.37 32.27 52.6 31.82 52.6 31.63 53.37 32.08"/>
              <path class="cls-45" d="m52.6,31.63l.89-.52.76.44s-.88.52-.88.52l-.77-.45Z"/>
            </g>
            <g>
              <polygon class="cls-20" points="54.54 31.4 55.43 30.88 55.43 31.07 54.54 31.59 53.77 31.14 53.77 30.95 54.54 31.4"/>
              <path class="cls-71" d="m53.77,30.95l.89-.52.76.44s-.88.52-.88.52l-.77-.45Z"/>
            </g>
            <g>
              <polygon class="cls-20" points="40.94 37.35 41.83 36.83 41.83 36.64 40.47 36.89 40.47 37.08 40.94 37.35"/>
              <polygon class="cls-7" points="40.94 37.16 41.83 36.64 41.36 36.37 40.47 36.89 40.94 37.16"/>
            </g>
            <g>
              <polygon class="cls-20" points="42.05 36.7 42.94 36.18 42.94 36 41.58 36.24 41.58 36.43 42.05 36.7"/>
              <polygon class="cls-27" points="42.05 36.51 42.94 36 42.47 35.72 41.58 36.24 42.05 36.51"/>
            </g>
            <g>
              <polygon class="cls-20" points="43.16 36.06 44.05 35.54 44.05 35.35 42.69 35.6 42.69 35.78 43.16 36.06"/>
              <polygon class="cls-85" points="43.16 35.87 44.05 35.35 43.58 35.08 42.69 35.6 43.16 35.87"/>
            </g>
            <g>
              <polygon class="cls-20" points="44.27 35.41 45.16 34.89 45.16 34.7 43.8 34.95 43.8 35.14 44.27 35.41"/>
              <polygon class="cls-63" points="44.27 35.22 45.16 34.7 44.69 34.43 43.8 34.95 44.27 35.22"/>
            </g>
            <g>
              <polygon class="cls-20" points="45.38 34.76 46.27 34.25 46.27 34.06 44.91 34.3 44.91 34.49 45.38 34.76"/>
              <polygon class="cls-32" points="45.38 34.58 46.27 34.06 45.8 33.78 44.91 34.3 45.38 34.58"/>
            </g>
            <g>
              <polygon class="cls-20" points="46.49 34.12 47.38 33.6 47.38 33.41 46.02 33.66 46.02 33.85 46.49 34.12"/>
              <polygon class="cls-8" points="46.49 33.93 47.38 33.41 46.91 33.14 46.02 33.66 46.49 33.93"/>
            </g>
            <g>
              <polygon class="cls-20" points="47.6 33.47 48.49 32.95 48.49 32.76 47.13 33.01 47.13 33.2 47.6 33.47"/>
              <polygon class="cls-81" points="47.6 33.28 48.49 32.76 48.02 32.49 47.13 33.01 47.6 33.28"/>
            </g>
            <g>
              <polygon class="cls-20" points="48.71 32.83 49.6 32.31 49.6 32.12 48.24 32.37 48.24 32.55 48.71 32.83"/>
              <polygon class="cls-59" points="48.71 32.64 49.6 32.12 49.13 31.85 48.24 32.37 48.71 32.64"/>
            </g>
            <g>
              <polygon class="cls-20" points="49.82 32.18 50.71 31.66 50.71 31.47 49.35 31.72 49.35 31.91 49.82 32.18"/>
              <polygon class="cls-90" points="49.82 31.99 50.71 31.47 50.24 31.2 49.35 31.72 49.82 31.99"/>
            </g>
            <g>
              <polygon class="cls-20" points="50.93 31.53 51.82 31.01 51.82 30.83 50.46 31.07 50.46 31.26 50.93 31.53"/>
              <polygon class="cls-24" points="50.93 31.35 51.82 30.83 51.35 30.55 50.46 31.07 50.93 31.35"/>
            </g>
            <g>
              <polygon class="cls-20" points="52.04 30.89 52.93 30.37 52.93 30.18 51.57 30.43 51.57 30.62 52.04 30.89"/>
              <polygon class="cls-82" points="52.04 30.7 52.93 30.18 52.46 29.91 51.57 30.43 52.04 30.7"/>
            </g>
          </g>
        </g>
        <polygon class="cls-20" points="59.53 30.35 49.09 24.32 55.39 20.69 65.83 26.71 59.53 30.35"/>
        <g>
          <g>
            <g>
              <g>
                <path class="cls-22" d="m46.26,24.01l-11.56,6.72s-2.61-1.99-4.17-2.44l12.29-7.14c1.38.55,2.78,1.36,4.16,2.41.02.02-.71.45-.71.45h0Z"/>
                <g class="cls-95">
                  <path class="cls-41" d="m46.25,24c-.98.52-1.97,1.04-2.94,1.59l-1.46.81-1.45.83c-.97.55-1.93,1.11-2.89,1.68l-1.44.85c-.48.28-.95.58-1.43.87l.18.11c-.06-.07-.13-.14-.2-.2-.04-.03-.08-.06-.11-.09l-.09-.06-.36-.25c-.24-.17-.49-.32-.74-.47l-.38-.23c-.12-.08-.26-.14-.39-.21l-.77-.41s.75.46.75.46c.12.08.25.14.38.22l.37.24c.24.16.49.32.72.49l.7.5s11.58-6.71,11.58-6.71v-.02Z"/>
                </g>
                <path class="cls-57" d="m30.53,28.29c1.38.55,2.79,1.37,4.17,2.43v.86c-1.39-.81-2.79-1.62-4.19-2.43v-.86s.01,0,.02,0Z"/>
                <path class="cls-22" d="m46.26,24.01l.74-.43c0,.29,0,.57,0,.86,0,0-12.31,7.15-12.31,7.15v-.86l11.56-6.72Z"/>
              </g>
              <path class="cls-57" d="m39.6,20.54v5.08c0,.13-.08.25-.25.35-.33.19-.86.19-1.19,0-.16-.1-.25-.22-.25-.35v-5.08h1.69Z"/>
            </g>
            <g>
              <polygon class="cls-22" points="34.75 25.72 35.53 25.27 35.53 25.07 34.75 25.53 34.75 25.72"/>
              <polygon class="cls-22" points="33.75 26.31 34.53 25.85 34.53 25.65 33.75 26.11 33.75 26.31"/>
              <polygon class="cls-22" points="32.75 26.89 33.53 26.43 33.53 26.23 32.75 26.69 32.75 26.89"/>
              <g>
                <path class="cls-11" d="m29.87,12.42L51.09.08c.12-.07.23-.09.32-.07.03-.03.61.34.61.34l-.35.65v13.97c0,.38-.26.84-.59,1.03l-20.95,12.19-.11.51-.46-.28c-.17-.02-.28-.17-.28-.42v-14.54c0-.38.26-.84.59-1.03Z"/>
                <path class="cls-41" d="m30.36,28.61l21.22-12.34c.32-.19.59-.65.59-1.03V.71c0-.17-.06-.3-.15-.37-.11-.08-.27-.08-.44.03l-21.22,12.34c-.32.19-.59.65-.59,1.03v14.54c0,.38.26.53.59.34Z"/>
                <path class="cls-22" d="m30.02,13.59v13.99c0,.21.16.29.34.18l21.21-12.34c.19-.11.34-.38.34-.6V.85c0-.12-.05-.2-.12-.23-.06-.03-.13-.02-.22.03l-21.21,12.34c-.19.11-.34.38-.34.6Z"/>
                <path class="cls-57" d="m30.02,13.58v13.99c.06.02.14.01.22-.04l21.21-12.34c.19-.11.34-.38.34-.6V.62c-.06-.03-.13-.02-.22.03l-21.21,12.34c-.19.11-.34.38-.34.6Z"/>
              </g>
              <polygon class="cls-22" points="31.75 27.47 32.53 27.01 32.53 26.82 31.75 27.27 31.75 27.47"/>
              <polygon class="cls-22" points="32.65 26.93 33.43 26.48 33.43 26.28 32.65 26.74 32.65 26.93"/>
              <g>
                <path class="cls-75" d="m30.7,28.01c0,.19.13.27.3.17.17-.1.3-.33.3-.52s-.13-.27-.3-.17c-.17.1-.3.33-.3.52Z"/>
                <path class="cls-22" d="m30.51,28.01c0-.26.17-.56.4-.69.29-.17.59.02.59.35,0,.26-.17.56-.4.69-.08.05-.15.07-.23.07-.21,0-.36-.17-.36-.41Zm.59-.35c-.11.06-.2.23-.2.35.11-.06.21-.23.21-.35,0,0,0,0,0,0Z"/>
              </g>
            </g>
            <g>
              <polygon class="cls-11" points="38.63 20.28 31.06 24.65 31.06 25.41 38.63 21.03 38.63 20.28"/>
              <polygon class="cls-11" points="44.7 16.77 41.1 18.85 41.1 19.61 44.7 17.53 44.7 16.77"/>
              <polygon class="cls-11" points="34.59 19.62 31.06 21.66 31.06 22.41 34.59 20.38 34.59 19.62"/>
              <polygon class="cls-11" points="36.76 18.36 35.24 19.24 35.24 20 36.76 19.12 36.76 18.36"/>
              <polygon class="cls-11" points="38.67 17.26 37.25 18.08 37.25 18.84 38.67 18.02 38.67 17.26"/>
              <polygon class="cls-11" points="35.24 17.57 31.06 19.99 31.06 20.75 35.24 18.33 35.24 17.57"/>
              <polygon class="cls-26" points="37.21 16.43 35.78 17.26 35.78 18.02 37.21 17.19 37.21 16.43"/>
              <polygon class="cls-26" points="37.18 14.78 31.06 18.32 31.06 19.08 37.18 15.54 37.18 14.78"/>
              <polygon class="cls-11" points="38.98 13.74 36.94 14.92 36.94 15.68 38.98 14.5 38.98 13.74"/>
              <polygon class="cls-11" points="41.17 12.48 39.5 13.44 39.5 14.2 41.17 13.24 41.17 12.48"/>
              <polygon class="cls-11" points="35.11 14.31 31.06 16.65 31.06 17.41 35.11 15.07 35.11 14.31"/>
              <polygon class="cls-11" points="37.07 13.18 35.67 13.99 35.67 14.75 37.07 13.94 37.07 13.18"/>
              <polygon class="cls-11" points="35.42 12.46 31.06 14.98 31.06 15.74 35.42 13.22 35.42 12.46"/>
              <polygon class="cls-11" points="36.96 11.57 35.78 12.26 35.78 13.01 36.96 12.33 36.96 11.57"/>
              <polygon class="cls-26" points="39.48 10.11 37.46 11.28 37.46 12.04 39.48 10.87 39.48 10.11"/>
              <polygon class="cls-11" points="35.21 10.91 31.06 13.31 31.06 14.07 35.21 11.67 35.21 10.91"/>
              <polygon class="cls-26" points="37.3 9.7 35.43 10.78 35.43 11.54 37.3 10.46 37.3 9.7"/>
              <polygon class="cls-11" points="41.3 17.51 31.06 23.43 31.06 24.18 41.3 18.27 41.3 17.51"/>
              <polygon class="cls-11" points="47.81 13.76 42.25 16.96 42.25 17.72 47.81 14.51 47.81 13.76"/>
            </g>
          </g>
          <path class="cls-50" d="m30.02,13.52v13.9c.06.02.14.01.22-.04l21.21-12.34c.19-.11.34-.37.34-.6v-.78c-1.6-.74-5.41-1.94-9.03-1.94-8.37,0-11.66,1.55-12.75,1.79Z"/>
        </g>
        <g>
          <g>
            <g>
              <g>
                <path class="cls-22" d="m21.55,37.68l-11.56,6.72s-2.61-1.99-4.17-2.44l12.29-7.14c1.38.55,2.78,1.36,4.16,2.41.02.02-.71.45-.71.45h0Z"/>
                <g class="cls-95">
                  <path class="cls-41" d="m21.54,37.67c-.98.52-1.97,1.04-2.94,1.59l-1.46.81-1.45.83c-.97.55-1.93,1.11-2.89,1.68l-1.44.85c-.48.28-.95.58-1.43.87l.18.11c-.06-.07-.13-.14-.2-.2-.04-.03-.08-.06-.11-.09l-.09-.06-.36-.25c-.24-.17-.49-.32-.74-.47l-.38-.23c-.12-.08-.26-.14-.39-.21l-.77-.41s.75.46.75.46c.12.08.25.14.38.22l.37.24c.24.16.49.32.72.49l.7.5s11.58-6.71,11.58-6.71v-.02Z"/>
                </g>
                <path class="cls-57" d="m5.82,41.97c1.38.55,2.79,1.37,4.17,2.43v.86c-1.39-.81-2.79-1.62-4.19-2.43v-.86s.01,0,.02,0Z"/>
                <path class="cls-22" d="m21.55,37.68l.74-.43c0,.29,0,.57,0,.86,0,0-12.31,7.15-12.31,7.15v-.86l11.56-6.72Z"/>
              </g>
              <path class="cls-57" d="m14.89,34.22v5.08c0,.13-.08.25-.25.35-.33.19-.86.19-1.19,0-.16-.1-.25-.22-.25-.35v-5.08h1.69Z"/>
            </g>
            <g>
              <polygon class="cls-22" points="10.04 39.4 10.82 38.94 10.82 38.75 10.04 39.2 10.04 39.4"/>
              <polygon class="cls-22" points="9.04 39.98 9.82 39.52 9.82 39.33 9.04 39.78 9.04 39.98"/>
              <polygon class="cls-22" points="8.04 40.56 8.82 40.11 8.82 39.91 8.04 40.37 8.04 40.56"/>
              <g>
                <path class="cls-11" d="m5.16,26.09l21.22-12.34c.12-.07.23-.09.32-.07.03-.03.61.34.61.34l-.35.65v13.97c0,.38-.26.84-.59,1.03l-20.95,12.19-.11.51-.46-.28c-.17-.02-.28-.17-.28-.42v-14.54c0-.38.26-.84.59-1.03Z"/>
                <path class="cls-41" d="m5.65,42.29l21.22-12.34c.32-.19.59-.65.59-1.03v-14.54c0-.17-.06-.3-.15-.37-.11-.08-.27-.08-.44.03L5.65,26.38c-.32.19-.59.65-.59,1.03v14.54c0,.38.26.53.59.34Z"/>
                <path class="cls-22" d="m5.31,27.26v13.99c0,.21.16.29.34.18l21.21-12.34c.19-.11.34-.38.34-.6v-13.97c0-.12-.05-.2-.12-.23-.06-.03-.13-.02-.22.03L5.65,26.67c-.19.11-.34.38-.34.6Z"/>
                <path class="cls-57" d="m5.31,27.26v13.99c.06.02.14.01.22-.04l21.21-12.34c.19-.11.34-.37.34-.6v-13.98c-.06-.03-.13-.02-.22.03L5.65,26.66c-.19.11-.34.38-.34.6Z"/>
              </g>
              <polygon class="cls-22" points="7.04 41.14 7.82 40.69 7.82 40.49 7.04 40.95 7.04 41.14"/>
              <polygon class="cls-22" points="7.94 40.61 8.72 40.15 8.72 39.95 7.94 40.41 7.94 40.61"/>
              <g>
                <path class="cls-75" d="m5.99,41.68c0,.19.13.27.3.17.17-.1.3-.33.3-.52s-.13-.27-.3-.17c-.17.1-.3.33-.3.52Z"/>
                <path class="cls-22" d="m5.8,41.68c0-.26.17-.56.4-.69.29-.17.59.02.59.35,0,.26-.17.56-.4.69-.08.05-.15.07-.23.07-.21,0-.36-.17-.36-.41Zm.59-.35c-.11.06-.2.23-.2.35.11-.06.21-.23.21-.35,0,0,0,0,0,0Z"/>
              </g>
            </g>
          </g>
          <path class="cls-91" d="m5.31,27.2v13.9c.06.02.14.01.22-.04l21.21-12.34c.19-.11.34-.37.34-.6v-.78c-1.6-.74-5.41-1.94-9.03-1.94-8.37,0-11.66,1.55-12.75,1.79Z"/>
        </g>
        <g>
          <g>
            <path class="cls-22" d="m66.21,42.55l2.05,8.42s.72.66.93.64c.06-.02.07-.08.04-.19-.19-.61-.69-.94-.81-1.73-.09-.58-1.18-4.75-1.76-6.98-.18-.68.19-1.08.72-.79.24.13.51.28.81.45,2.63,1.46,7.13,3.99,7.66,4.55.75.79,2.37,2.81,2.37,2.81,0,0,.29.2.33.07.02-.06-.02-.19-.17-.45,0,0-1.15-1.57-2.07-2.48l-.06-.06c-.05-.05-.11-.1-.16-.14-.03-.02-.05-.04-.08-.07-.02-.02-.05-.04-.07-.06-.07-.05-.1-.08-.13-.1-.07-.05-.11-.08-.15-.1l-7.58-4.37-.82-.48c-.08-.05-.16-.08-.23-.1-.1-.04-.2-.04-.29-.05-.59-.01-.95.44-.53,1.21Z"/>
            <path class="cls-22" d="m66.66,42.71c.58,2.22,1.67,6.4,1.76,6.98.12.79.62,1.12.81,1.73.03.11.02.17-.01.18.2-.05,1.59-.42,1.42-.99-.19-.61-.69-.94-.81-1.73-.08-.54-1.04-4.22-1.64-6.51-.3-.16-.57-.31-.81-.45-.53-.29-.9.11-.72.79Z"/>
            <path class="cls-75" d="m66.74,41.34c.09,0,.19.01.29.05.07.02.15.06.23.1l.82.48,7.58,4.37s.07.04.11.07c.07.05.1.07.13.1.06.05.08.07.11.09.02.02.05.04.08.07.05.05.1.09.16.14.02.02.04.04.06.06.92.91,2.07,2.48,2.07,2.48.15.26.19.39.17.45,0,0,1.31-.77,1.31-.77.11.02.18-.06-.07-.49,0,0-1.81-2.49-2.71-3.01l-8.4-4.85c-.17-.1-.4-.09-.63-.01,0,0-.47.25-.47.25l-.82.43Z"/>
          </g>
          <polygon class="cls-11" points="61.91 57.69 62.01 63.81 62.58 63.2 61.91 57.69"/>
          <g>
            <g>
              <g>
                <path class="cls-75" d="m50.89,81.81s.08.06.12.07l-.12-.07Z"/>
                <path class="cls-22" d="m51.86,82.34c0,.26.08.43.2.52.16.13.4.14.68-.02.48-.28.87-.95.87-1.51,0-.14-.03-.26-.07-.36-.06-.12-.15-.2-.26-.24-.15-.05-.34-.02-.54.09-.09.05-.18.12-.26.19-.28.26-.49.63-.58,1-.02.09-.03.17-.04.26,0,.02,0,.04,0,.06Z"/>
                <path class="cls-22" d="m51.79,81.92c0,.14.03.26.07.36,0-.08.02-.17.04-.26.08-.37.3-.74.58-1,.08-.08.17-.14.26-.19.2-.12.39-.15.54-.1.11.04.2.12.26.24,0-.02,0-.04,0-.06,0-.32-.13-.53-.33-.6-.14-.05-.32-.02-.52.08-.11.07-.2.13-.28.21-.28.26-.49.63-.58,1-.03.11-.04.22-.04.32Z"/>
                <path class="cls-22" d="m50.69,81.29c0,.14.03.26.07.36.03.07.07.12.12.16,0,0,.12.07.12.07l.84.49c0-.05,0-.07,0-.09-.05-.1-.07-.22-.07-.36,0-.1.01-.21.04-.32.08-.37.3-.74.58-1,.08-.08.17-.14.26-.19.22-.12.4-.14.54-.1l-.95-.55c-.16-.14-.41-.15-.68.01-.48.28-.87.96-.87,1.51Z"/>
                <path class="cls-22" d="m50.77,81.71c0,.24.07.42.2.52,0,0,.12.07.12.07l.97.56c-.12-.1-.19-.27-.2-.49l-.84-.49-.12-.07c-.05-.04-.09-.1-.13-.16,0,.02,0,.04,0,.06Z"/>
              </g>
              <g>
                <path class="cls-75" d="m71.76,69.76s.08.06.12.07l-.12-.07Z"/>
                <path class="cls-22" d="m72.73,70.29c0,.26.08.43.2.52.16.13.4.14.68-.02.48-.28.87-.95.87-1.51,0-.14-.03-.26-.07-.36-.06-.12-.15-.2-.26-.24-.15-.05-.34-.02-.54.09-.09.05-.18.12-.26.19-.28.26-.49.63-.58,1-.02.09-.03.17-.04.26,0,.02,0,.04,0,.06Z"/>
                <path class="cls-22" d="m72.66,69.87c0,.14.03.26.07.36,0-.08.02-.17.04-.26.08-.37.3-.74.58-1,.08-.08.17-.14.26-.19.2-.12.39-.15.54-.1.11.04.2.12.26.24,0-.02,0-.04,0-.06,0-.32-.13-.53-.33-.6-.14-.05-.32-.02-.52.08-.11.07-.2.13-.28.21-.28.26-.49.63-.58,1-.03.11-.04.22-.04.32Z"/>
                <path class="cls-22" d="m71.57,69.24c0,.14.03.26.07.36.03.07.07.12.12.16,0,0,.12.07.12.07l.84.49c0-.05,0-.07,0-.09-.05-.1-.07-.22-.07-.36,0-.1.01-.21.04-.32.08-.37.3-.74.58-1,.08-.08.17-.14.26-.19.22-.12.4-.14.54-.1l-.95-.55c-.16-.14-.41-.15-.68.01-.48.28-.87.96-.87,1.51Z"/>
                <path class="cls-22" d="m71.64,69.66c0,.24.07.42.2.52,0,0,.12.07.12.07l.97.56c-.12-.1-.19-.27-.2-.49l-.84-.49-.12-.07c-.05-.04-.09-.1-.13-.16,0,.02,0,.04,0,.06Z"/>
              </g>
              <g>
                <path class="cls-75" d="m71.76,81.81s.08.06.12.07l-.12-.07Z"/>
                <path class="cls-22" d="m72.73,82.34c0,.26.08.43.2.52.16.13.4.14.68-.02.48-.28.87-.95.87-1.51,0-.14-.03-.26-.07-.36-.06-.12-.15-.2-.26-.24-.15-.05-.34-.02-.54.09-.09.05-.18.12-.26.19-.28.26-.49.63-.58,1-.02.09-.03.17-.04.26,0,.02,0,.04,0,.06Z"/>
                <path class="cls-22" d="m72.66,81.92c0,.14.03.26.07.36,0-.08.02-.17.04-.26.08-.37.3-.74.58-1,.08-.08.17-.14.26-.19.2-.12.39-.15.54-.1.11.04.2.12.26.24,0-.02,0-.04,0-.06,0-.32-.13-.53-.33-.6-.14-.05-.32-.02-.52.08-.11.07-.2.13-.28.21-.28.26-.49.63-.58,1-.03.11-.04.22-.04.32Z"/>
                <path class="cls-22" d="m71.57,81.29c0,.14.03.26.07.36.03.07.07.12.12.16,0,0,.12.07.12.07l.84.49c0-.05,0-.07,0-.09-.05-.1-.07-.22-.07-.36,0-.1.01-.21.04-.32.08-.37.3-.74.58-1,.08-.08.17-.14.26-.19.22-.12.4-.14.54-.1l-.95-.55c-.16-.14-.41-.15-.68.01-.48.28-.87.96-.87,1.51Z"/>
                <path class="cls-22" d="m71.64,81.71c0,.24.07.42.2.52,0,0,.12.07.12.07l.97.56c-.12-.1-.19-.27-.2-.49l-.84-.49-.12-.07c-.05-.04-.09-.1-.13-.16,0,.02,0,.04,0,.06Z"/>
              </g>
              <g>
                <path class="cls-75" d="m50.89,69.76s.08.06.12.07l-.12-.07Z"/>
                <path class="cls-22" d="m51.86,70.29c0,.26.08.43.2.52.16.13.4.14.68-.02.48-.28.87-.95.87-1.51,0-.14-.03-.26-.07-.36-.06-.12-.15-.2-.26-.24-.15-.05-.34-.02-.54.09-.09.05-.18.12-.26.19-.28.26-.49.63-.58,1-.02.09-.03.17-.04.26,0,.02,0,.04,0,.06Z"/>
                <path class="cls-22" d="m51.79,69.87c0,.14.03.26.07.36,0-.08.02-.17.04-.26.08-.37.3-.74.58-1,.08-.08.17-.14.26-.19.2-.12.39-.15.54-.1.11.04.2.12.26.24,0-.02,0-.04,0-.06,0-.32-.13-.53-.33-.6-.14-.05-.32-.02-.52.08-.11.07-.2.13-.28.21-.28.26-.49.63-.58,1-.03.11-.04.22-.04.32Z"/>
                <path class="cls-22" d="m50.69,69.24c0,.14.03.26.07.36.03.07.07.12.12.16,0,0,.12.07.12.07l.84.49c0-.05,0-.07,0-.09-.05-.1-.07-.22-.07-.36,0-.1.01-.21.04-.32.08-.37.3-.74.58-1,.08-.08.17-.14.26-.19.22-.12.4-.14.54-.1l-.95-.55c-.16-.14-.41-.15-.68.01-.48.28-.87.96-.87,1.51Z"/>
                <path class="cls-22" d="m50.77,69.66c0,.24.07.42.2.52,0,0,.12.07.12.07l.97.56c-.12-.1-.19-.27-.2-.49l-.84-.49-.12-.07c-.05-.04-.09-.1-.13-.16,0,.02,0,.04,0,.06Z"/>
              </g>
              <path class="cls-22" d="m51.33,67.34c.1-.02.43-.3.56-.32,3.23-.68,6.97.21,10.72,2.36,3.76,2.16,7.52,5.61,10.76,10.04.26.36.34.79.18.95-.12.12-.48.25-.56.32-.17.17-.49.02-.74-.32-3.07-4.2-6.64-7.46-10.2-9.51-3.55-2.04-7.09-2.88-10.16-2.24-.25.05-.57-.18-.74-.52-.17-.36-.09-.7.17-.75Z"/>
              <path class="cls-22" d="m51.33,79.74c3.23-4.41,6.97-7.85,10.72-10.01,3.76-2.17,7.52-3.07,10.76-2.39.13.03.46.3.56.32.26.06.34.39.18.74-.17.36-.5.59-.74.54-3.07-.65-6.64.2-10.2,2.26-3.55,2.05-7.09,5.31-10.16,9.49-.25.34-.57.49-.74.33-.08-.08-.45-.21-.56-.32-.17-.17-.09-.59.17-.95Z"/>
            </g>
            <path class="cls-22" d="m62.2,70.42c.29.17.76.17,1.05,0,.22-.12.27-.31.17-.46v-12.7l-1.4.81v11.92c-.07.14-.01.31.19.42Z"/>
          </g>
          <g>
            <path class="cls-89" d="m59.54,49.31l-.74,14.29c.01.12-.03.22-.14.28-.48.28-2.06-.19-3.54-1.04-.61-.35-1.15-10.71-1.49-11.04-.18-.12-.24-4.36-.24-4.36l6.15,1.87Z"/>
            <path class="cls-17" d="m65.58,31.29l-1.1-2.64s1.7-2.46,1.1-4.47c-.59-2.01-1.91-3.03-5-3.05-3.09-.02-3.77,2.03-3.9,2.46-.13.42-.51,1.7-.25,2.31.25.61.68.72.66,1.1-.02.38-.38.23-.02.95.36.72.51,2.18,1.48,2.52.97.34,1.53.01,1.65.79.13.78.36,2.6.42,2.72.06.11,4.98.42,4.96-2.69Z"/>
            <path class="cls-58" d="m63.4,33.88s-1.64.29-2.18.15c-.54-.15-2.04-.4-2.54-.4s-.63-.07-.63-.07l-3.04-1.43-2.36-.91s-1.22.14-1.67,0c-.44-.14-.8-.23-.62.13.18.36.66.6,1.07.62.41.03.62.15.62.15l-1.78.09s-.15.71.36.71c.51,0,1.86.1,1.86.1,0,0,.66.3,1.2.89.54.59.81,1.17.81,1.17,0,0-.29.53-1.11.36s-1.17.34-1.17.61.6.64.95.58c.35-.06.67-.26.77-.26.1,0,.38.12,1.37-.05.99-.17,2.05-.62,2.48-.63s1.33.12,1.33.12c0,0,5.77.76,6.9.69,1.14-.06,2.73-.1,2.35-2.26-.38-2.16-4.97-.38-4.97-.38Z"/>
            <g>
              <g>
                <g>
                  <path class="cls-22" d="m65.68,46.28h1.09v.31c.01.09-.04.18-.16.25-.21.12-.56.12-.77,0-.12-.07-.17-.16-.16-.25,0,0,0-.31,0-.31Z"/>
                  <path class="cls-22" d="m65.84,46.51c.21.12.56.12.77,0,.21-.12.21-.32,0-.44-.21-.12-.56-.12-.77,0-.21.12-.21.32,0,.44Z"/>
                </g>
                <g>
                  <path class="cls-22" d="m61.96,52.57h1.09v.31c.01.09-.04.18-.16.25-.21.12-.56.12-.77,0-.12-.07-.17-.16-.16-.25,0,0,0-.31,0-.31Z"/>
                  <path class="cls-22" d="m62.12,52.79c.21.12.56.12.77,0,.21-.12.21-.32,0-.44-.21-.12-.56-.12-.77,0-.21.12-.21.32,0,.44Z"/>
                </g>
              </g>
              <g>
                <path class="cls-89" d="m51.61,46.06c2.54-.87,6.88,1.4,10.2,3.03-.2,2.81-.82,5.56-1.31,8.33-2.47-.86-4.49-3.51-7.45-5.62l-2.81-1.44c-.19-2.91.03-3.84,1.37-4.31Z"/>
                <g>
                  <path class="cls-30" d="m57.49,60.77l2.03,1.55c-.02,1.87-.02,2.79-.74,3.28-.88.59-2.37.11-3.27-.3l-.24-.72c-.86-.12-.67.14-1.61-.38-1.57-.87-3.87-2.21-4.18-3.77-.08-.4.23-1.11.63-1.05l3.69,1.28,3.69.1Z"/>
                  <g>
                    <path class="cls-30" d="m50.4,68.17l2.09,1.47c.05,1.87.1,2.79-.61,3.3-.86.63-2.36.22-3.28-.16l-.27-.71c-1.23-.12-.89.07-2.15-.58-1.52-.78-3.36-1.89-3.69-3.27-.1-.39.18-1.12.58-1.07l2.61,1.16,4.71-.14Z"/>
                    <path class="cls-89" d="m45.64,49.16c.25,1.27,6.19,6.82,6.5,8.08l.37,12.96c.18,1.25-2.66,1.38-4.62-1.24-1.58-.41-5.59-16.87-5.59-16.87-.91-3.04,2.53-5.63,3.34-2.93Z"/>
                  </g>
                  <path class="cls-22" d="m45.57,58.02l6.85,2.11,4.19,3.21,4.43,1.49.97-1.03.57-.61-.68-5.52-.22-1.76,1.13-4.26.6-3.28c-.59-.05-1.1,0-1.35.17-.03,0-16.51,9.46-16.51,9.46Z"/>
                </g>
                <path class="cls-89" d="m65.02,49.56l5.26-.2c.63,2.86.28,6.25-1.04,7.63-1.9,1.99-5.58,4.69-9.26,3.84-2.73-.63-7.43-3.42-10.61-5.69l-6.94-3.04c-1.31-2.61-1.86-5.03,1.79-5.81,2.62-.56,9.44,3.04,12.76,4.66l8.05-1.39Z"/>
                <path class="cls-74" d="m58.28,57.48c.49.2,1.14.19,1.87.06,2.78-.5,10.19-2.96,10.05-7.73-.06-2-1.47-2.32.45-7.48,3.7-9.95-2.67-13.68-3.67-13.68s-2.16.9-2.16.9c0,0,1.68,2.81-.16,3.95-3,1.85-4.13.8-4.13.8,0,0-3.02,1.66-4.05,2.71-1.97,2.01.89,8.15.07,9.77-.81,1.63-1.47,5.45-1.47,5.45,0,0-.81,3.6,3.2,5.23Z"/>
                <path class="cls-72" d="m58.28,57.48c.49.2,1.14.19,1.87.06.95-1.74.71-5.38,1.64-8.46,1.38-4.56,0-10.77-2.08-11.34-.21-.06-.41-.08-.6-.06-.62.49-1.14.9-1.29,1.05-.32.32-.46.98-.49,1.82,0,.29,0,.6,0,.94.04.93.03,3.68-.79,5.3-.81,1.63-1.47,5.45-1.47,5.45,0,0-.81,3.6,3.2,5.23Z"/>
              </g>
            </g>
            <path class="cls-17" d="m54.25,46.01s-2.18-2.85-2.44-3.39c-.26-.54-2.2-3.42-2.2-3.42l.74-.58s.13-.56.35-.7c.21-.13.92-.55.57-.8s-.94-.14-1.25.26c-.31.4-.5.61-.5.61l-.75-1.8v-1.78s.03-.8-.3-.85c-.32-.04-.7-.03-.5.46.2.49-.05.68-.05.68l-.2,1.59-.43-1.53s-.42-.67-.49-.91-.54-.21-.56.12.05,1.24.05,1.24l.41,1.29-.84-1.39-.92-.81s-.62-.05-.4.38c.22.43.65.94.65.94l.67,1.49-1.1-.28-1.11.03s-.02.61.34.64c.37.03.62.09.62.09l.8.4s.24,1.33.74,1.75.98.71.98.71c0,0,4.28,9.84,5.71,10.67s2.18-3.53,1.39-5.11Z"/>
            <path class="cls-74" d="m60.76,40.26c-.02,2.7-3.5,13.16-7.19,11.3-3.7-1.86-.53-5.96,0-7.39.53-1.43.89-7.29,3.46-7.48,2.57-.18,3.75.86,3.73,3.57Z"/>
            <path class="cls-93" d="m65.68,30.01l-1.06-.99s.77,1.98.53,2.79c-.24.82-2.33,2.31-3.21,1.8-.88-.51-1.68.36-1.68.36,0,0-.62.44-.44.72.18.28.38.47,2.06.61,1.68.15,5.8-1.12,3.79-5.3Z"/>
            <path class="cls-17" d="m59.03,28.06c.06,0-.2-.62.31-.39.51.23.81.53.81.97s.11,1.49-.19,1.27c-.3-.21-.62-.83-.62-.83h.36c.19,0,.05-.81-.11-.89s-.56-.14-.56-.14Z"/>
            <path class="cls-15" d="m60.53,29.77s.33-2.25-1.57-2.31c-1.26-.04-4.71-3.78-2.34-5.76.41-.34,1.37-1.61,2.93-1.84s3.4-.19,4.37.83c.97,1.02,1.9.61,2.1,3.75.28,4.32-4.61,7.18-5.5,5.34Z"/>
          </g>
          <g>
            <path class="cls-11" d="m61.91,57.69l.68,5.52-.57.61.02,1.03,15.79-9.04.04-.1c.08-.03.16-.06.23-.1,2.51-1.45.5-4.78.5-7.45s1.68-7.25,1.75-8.22c.06-.97-.27-1.72-.41-1.64l-16.38,9.46-.12.65-.6,3.28-.93,5.07.02.95Z"/>
            <path class="cls-11" d="m63.55,47.75s-2.75,7.31-2.65,8.92c.09,1.6,1.86,6.31.12,7.31-1.73,1-9.58-4.52-10.86-5.26-1.28-.74-4.65-1.35-4.65-.38s1.68-.07,3,.68c1.31.76,10.69,7.48,13.2,6.03,2.51-1.45.5-4.78.5-7.45s1.68-7.25,1.75-8.22c.06-.97-.27-1.72-.41-1.64Z"/>
            <g>
              <path class="cls-22" d="m48.43,52.82l2.05,8.42s.72.66.93.64c.06-.02.07-.08.04-.19-.19-.61-.69-.94-.81-1.73-.09-.58-1.18-4.75-1.76-6.98-.18-.68.19-1.08.72-.79.24.13.51.28.81.45,2.63,1.46,7.13,3.99,7.66,4.55.75.79,2.37,2.81,2.37,2.81,0,0,.29.2.33.07.02-.06-.02-.19-.17-.45,0,0-1.15-1.57-2.07-2.48l-.06-.06c-.05-.05-.11-.1-.16-.14-.03-.02-.05-.04-.08-.07s-.05-.04-.07-.06c-.07-.05-.1-.08-.13-.1-.07-.05-.11-.08-.15-.1l-7.58-4.37-.82-.48c-.08-.05-.16-.08-.23-.1-.1-.04-.2-.05-.29-.05-.45.02-.7.5-.53,1.21Z"/>
              <path class="cls-22" d="m48.88,52.98c.58,2.22,1.67,6.4,1.76,6.98.12.79.62,1.12.81,1.73.03.11.02.17-.01.18.19-.05,1.59-.42,1.42-.99-.19-.61-.69-.94-.81-1.73-.08-.54-1.04-4.22-1.64-6.51-.3-.16-.57-.31-.81-.45-.53-.29-.9.11-.72.79Z"/>
              <path class="cls-22" d="m48.95,51.61c.09,0,.19.01.29.05.07.02.15.06.23.1l.82.48,7.58,4.37s.07.04.11.07c.07.05.1.07.13.1.06.05.08.07.11.09s.05.04.08.07c.05.05.1.09.16.14.02.02.04.04.06.06.92.91,2.07,2.48,2.07,2.48.15.26.19.39.17.45,0,0,1.31-.77,1.31-.77.11.02.18-.06-.07-.49,0,0-1.81-2.49-2.71-3.01l-8.4-4.85c-.17-.1-.4-.09-.63-.01,0,0-.47.25-.47.25l-.82.43Z"/>
            </g>
          </g>
        </g>
      </g>
      <g>
        <path class="cls-41" d="m20.69,24.69c0,2.81-1.99,6.23-4.43,7.65-2.45,1.41-4.43.28-4.43-2.53s1.99-6.23,4.43-7.65c2.45-1.41,4.43-.28,4.43,2.53Z"/>
        <g>
          <g>
            <path class="cls-75" d="m16.85,25.55l-.44.25v-.66c.26-.15.44-.02.44.28v.12Z"/>
            <path class="cls-75" d="m17.14,25.96l-.73.64v-1.04l.4-.23c.17-.1.33-.04.38.15l.05.17c.03.09-.02.24-.11.31Z"/>
            <path class="cls-75" d="m17.17,23.03l-.61,2.14.52-1.59c.09-.25.15-.31.17-.55.02-.2.07-.55-.09,0Z"/>
            <path class="cls-75" d="m16.63,25.13l.14-.21s.04-.01.03.02l-.07.27-.1-.07Z"/>
            <path class="cls-75" d="m17.17,25.82l.21-.36.25-.92s-.07-.17-.14.08c-.07.26-.13.76-.15.82s-.17.38-.17.38Z"/>
            <path class="cls-75" d="m17.57,24.53l.13-.22s.07-.05.07-.01c0,.03,0,.08-.04.1l-.17.13Z"/>
            <path class="cls-75" d="m17.74,24.32l.2-.46s.06-.05.06-.02c0,.02,0,.04-.01.06l-.25.43Z"/>
            <path class="cls-75" d="m17.59,26.31s.22-.33.61-.35c.39-.02.51.16.45.25-.06.08-.47-.13-.68-.07-.2.06-.38.17-.38.17Z"/>
            <path class="cls-75" d="m17.81,27.24s.36-.29.45.26c.09.54.13.92,0,.96-.13.04.01-1.1-.18-1.2s-.26-.02-.26-.02Z"/>
            <path class="cls-75" d="m18.27,28.33s.38-.15.27.07c-.11.21-.27-.07-.27-.07Z"/>
            <path class="cls-80" d="m16.43,30.18s-.02-3.97-.02-3.97l.44-.25c.46-.31.92-.03.98.55l.08.54c.12,1.14-.58,2.61-1.49,3.13Z"/>
          </g>
          <g>
            <path class="cls-75" d="m15.97,26.06l.44-.25v-.66c-.26.15-.44.49-.44.79v.12Z"/>
            <path class="cls-75" d="m15.69,26.8l.73-.2v-1.04l-.4.23c-.17.1-.33.34-.38.59l-.05.23c-.03.13.02.21.11.19Z"/>
            <path class="cls-75" d="m15.65,23.9l.61,1.43-.52-.99c-.09-.15-.15-.14-.17-.35-.02-.17-.07-.47.09-.09Z"/>
            <path class="cls-75" d="m16.19,25.38l-.14-.05s-.04.03-.03.05l.07.18.1-.18Z"/>
            <path class="cls-75" d="m15.65,26.7l-.21-.11-.25-.63s.07-.25.14-.07c.07.18.13.61.15.64.02.04.17.18.17.18Z"/>
            <path class="cls-75" d="m15.26,25.86l-.13-.07s-.07.02-.07.07c0,.04,0,.07.04.06l.16-.06Z"/>
            <path class="cls-75" d="m15.08,25.85l-.2-.24s-.06,0-.06.05c.01.04.26.18.26.18Z"/>
            <path class="cls-75" d="m15.24,27.66s-.22-.09-.61.35-.51.75-.45.76c.06.02.47-.68.68-.85.2-.18.38-.26.38-.26Z"/>
            <path class="cls-75" d="m15.01,28.85s-.36.13-.45.77c-.09.64-.13,1.07,0,.96.13-.11-.01-1.08.18-1.41.19-.32.26-.33.26-.33Z"/>
            <path class="cls-75" d="m14.55,30.48s-.38.29-.27.38c.11.09.27-.38.27-.38Z"/>
            <path class="cls-26" d="m16.39,30.2s.02-3.99.02-3.99l-.44.26c-.46.22-.92,1.03-.98,1.68l-.08.64c-.12,1.27.58,1.93,1.49,1.41Z"/>
          </g>
        </g>
      </g>
      <g>
        <g>
          <path class="cls-58" d="m47.11,36s1.85-1.86,3.25-.26c1.39,1.6,8.61,7.91,7.07,10.63-1.54,2.71-7.55,9.26-7.54,9.59.01.33-.62,1.02-.98.37-.36-.65-1.06-1.61-.1-2.31.96-.7,3.08-5.43,3.08-5.43l2.53-2.76s-8.15-7.35-7.31-9.83Z"/>
          <path class="cls-52" d="m46.73,36.23s.91-2.02,2.93-1.12c2.02.91,6.22,6.52,6.76,7.41.54.89-.68,3.26-1.66,3.63-.98.37-1.65.07-1.65.07,0,0-3.79-3.48-4.52-5.11s-1.86-4.89-1.86-4.89Z"/>
          <g>
            <g>
              <g>
                <path class="cls-58" d="m44.26,85.88c.07.34,1.15.76,1.55,1.05.28.2.66.34,1.06.44.94.23,2.01.22,2.21.24.03,0,.05-.02.07-.06.09-.21.07-.96.03-1.6,0-.09-.01-.18-.02-.27-.03-.42-.06-.74-.06-.74,0,0-.84-.47-1.61-.82-.64-.29-1.22-.51-1.24-.3-.04.45-.2.75-.2.75l-.21.12-.18.11-1.93.02s.46.6.55,1.06Z"/>
                <path class="cls-57" d="m42.6,61.09c.43,3.42-.38,8.28,0,9.87.53,2.13,3.94,10.1,3.43,13.14,0,.05-.02.09-.02.13-.06.28.41.76.91,1.11.11.08.22.15.32.21.1.06.21.12.29.16.05.02,1.21.15,1.61-.03.22-.09-.17-1.81-.22-2.94-.05-1.12.89-3.97-.54-7.37-.63-1.51-.82-11.92.42-15.01.12-.31.23-.61.33-.89.69-2.03.64-3.35.33-4.2-.49-1.31-1.6-1.52-1.65-1.55l-1.95.74-2.12,3.88s-1.29-2.25-1.36-.09c-.02.57.07,1.59.23,2.83Z"/>
                <g class="cls-96">
                  <path class="cls-57" d="m42.61,70.96c.53,2.13,3.94,10.1,3.43,13.14.51.37,3.13-5.99-.2-14.32-1.37-3.43,5.51-13.38-2.14-10.7l-.87.32c-.02.1-.12.74-.23,1.69.43,3.42-.38,8.28,0,9.87Z"/>
                </g>
                <path class="cls-12" d="m41.28,85.55c.75.94,3.81,1.73,4.12,1.76.31.03,1.13.68,1.13.68l-.04.4c.5.46,1.02.96,1.46,1.12.23.09.48.09.71.04.62-.12,1.14-.59,1.15-.68,0-.05-.04-.3-.09-.56-.06-.3-.12-.6-.12-.6l-.47-.15-2.2-.72-.88-.29s-.39-.28-.9-.62c-.83-.55-3.39-1.82-3.81-1.8-.16.02,0,.08-.08.17-.04.06-.53.59,0,1.25Z"/>
                <path class="cls-12" d="m41.09,85c.19.77,2.74,1.82,4.01,2.1.76.17,1.28.65,1.78,1.08.02.02.05.04.07.06.3.26.6.49.96.61.13.05.26.07.39.08.63.05,1.22-.29,1.44-.63.07-.11.1-.21.09-.3-.06-.46-.29-1.72-.5-1.97-.06-.07-.11-.09-.15-.08-.13.02-.2.25-.2.25-.36.17-1.02.23-1.92.06-.9-.17-1.92-.7-2.05-1.15-.01-.06.66-.28.65-.32-.12-.24-.25-.05-.57-.03-.37.02-2.49-.94-3.22-.83-.22.04-.4.1-.52.19-.28.2-.32.51-.24.87Z"/>
              </g>
              <path class="cls-58" d="m40.57,88.09s.28,2.69,0,2.67c-.29-.03-2.32,0-3.26-.67-.94-.68-1.69-2.57-1.69-2.57l1.91.2,3.05.37Z"/>
              <path class="cls-12" d="m34.75,89.37c.52.43,3.3,2.12,3.3,2.12,0,0-.09.37.07.43.03.01,1.32.65,1.35.65.89.24,1.55-.43,1.55-.43l.26-.59v-.08c-.06-.08-.49-.28-1.07-.34-.21-.02-.63-.21-1.12-.48-.11-.06-.22-.12-.33-.19-.79-.46-1.66-1.07-2.08-1.5-.11-.11-.18-.21-.22-.29-.31-.66-5.66-2.52-1.72.7Z"/>
              <path class="cls-12" d="m34.83,89.27c.62.5,2.88,2.16,4.34,2.59.13.04.24.08.33.11.83.22,1.57-.08,1.78-.42.05-.1.06-.14.06-.18.04-.46,0-2.25-.54-2.19-.05,0-.1.03-.13.06-.19.16-.2.56-1.07.43-.27-.04-.56-.09-.85-.15-.8-.18-2.39-.93-2.62-1.58-.14-.41.85-.15,1.05-.21.03-.01.06-.02.1-.03-.51-.18-3.48-1.24-3.79-1-1,.78.62,1.97,1.35,2.57Z"/>
              <path class="cls-57" d="m36.62,63.14c-1.01,4.84-.82,8.36-.55,10.2.43,2.95,1.77,13.13,1.78,13.14.19.2.28.99.61,1.56.09.15.19.29.32.4.05.05.12.09.18.13.04.02,1.7-.07,1.71-.5.13-4.92.88-4.97.97-6.89.1-1.92-1.02-5.44-1.06-6.41-.03-.74,3.27-12.59,3.27-12.59,0,0,2.31-.1,2.85-3.1.35-1.93-.88-5.26-.88-5.26l-8.19,2s-.24,3.59-1.01,7.33Z"/>
              <path class="cls-58" d="m41.64,40.19c.15-.1,3.16,2.91,5.49,1.23l1.23-4.84c-.14.03-1.97,1.12-2.16-.73-.06-.63-.45-.81-.96-.77-.36.03-.78.17-1.18.35-.89.4-1.72.99-1.72.99,0,0,.04.33.08.74.04.57.06,1.3-.09,1.48-.14.15-.34.56-.5.92-.16.36-.26.68-.18.63Z"/>
              <path class="cls-78" d="m37.64,55.82c.41.75.97,1.2,1.61,1.43,1.3.47,2.95.08,4.46-.44.25-.08.49-.17.73-.26.03-.01.08-.04.16-.08.62-.32,2.72-1.52,3.51-2.24.18-.16.17-.13.36-.2.2-1.37,1.04-3.47,1.97-8.77.18-1.01.27-1.91.29-2.69.01-.55,0-1.05-.04-1.49l-4.42-3.84c-.15.19-.72.46-1.04.68-.53.37-.89.29-1.25.41l-.03,1.14-5.05,10.02c.27.62.36,1.02.07,1.84-.05.14-.11.3-.19.47-.43.99-.87,2.78-1.15,4.02Z"/>
              <path class="cls-52" d="m46.27,36.31s.28.38,0,.92l4.42,3.84c-.2-2.16-.94-3.25-1.27-3.89-1.29-2.46-3.15-.87-3.15-.87Z"/>
              <path class="cls-52" d="m38.43,48.44c.19.43.35.76.48,1.04,0,0,3.94-4.76,5.05-10.02.06-.28.03-1.14.03-1.14-1.56.49-1.55-.06-1.55-.06,0,0-3.64,2.59-7.86,1.85-.42-.07,3.65,2.42,3.65,3.23,0,.29.02.6.05.92.08.9-.11,3.54.16,4.18Z"/>
              <path class="cls-17" d="m40,33.14c-.21,1.37.04,2.59.4,2.93.25.24-.18,1.58,1.26,1.26.29-.06.54-.11.75-.16.69-.13,1.06-.21,1.54-.53.12-.08.25-.17.39-.3.22-.18.54-.65.89-1.26,1.03-1.84,2.27-5.02,1.57-6.08-.52-.79-2.55-.58-4.24-.26-1.34.26-2.46.61-2.46.61l-.12-.07s-.47.99-.12,2.22c.35,1.23.35.27.13,1.63Z"/>
              <path class="cls-74" d="m40.08,27.75c.94-1.21,3.16-3.62,7.34-.95.15.1,1.48,1.28,1.69,3.38.2,2.1-.86,4.13-1.78,5.16-.93,1.03-2.41,1.04-2.73,1.05-.32.01-2.14-1.32-2.14-1.32,0,0,.71-2.48.45-2.52-.31-.05-.38.71-1.34.83,0,0-.53-1.12-1.43-1.6-.91-.48-.95-2.88-.05-4.03Z"/>
              <g>
                <path class="cls-17" d="m42.08,32.48s.21-.81.58-.64c.37.17.66.57.65,1.18,0,.62-.18,1.4-.58,1.47-.4.06-.51.14-.78-.13-.27-.28-.21-.66-.21-.66l.33-1.21Z"/>
                <path class="cls-17" d="m41.92,32.57s.21-.81.58-.64c.37.17.66.57.65,1.18,0,.62-.18,1.4-.58,1.47-.4.06-.51.14-.78-.13-.27-.28-.21-.66-.21-.66l.33-1.21Z"/>
                <path class="cls-58" d="m42.27,32.69s.19.33.26.48c.07.15.16.39.1.53-.06.14-.12.23-.12.23,0,0-.09-.63-.18-.86-.09-.23-.15-.43-.07-.63.07-.19.12-.43.31-.25.19.18.36.38.39.76.03.38-.02.8-.16,1-.14.2-.35.32-.35.32,0,0,.42-.27.43-.72.01-.44-.06-1.12-.21-1.21-.15-.09-.17-.11-.15.05.01.16.14.39.02.33-.13-.06-.18-.28-.23-.18-.05.1-.03.12-.03.12Z"/>
                <path class="cls-58" d="m42.3,33.42s-.12-.34-.19-.32c-.07.02-.08.03-.11.15-.03.13-.03.17-.14.16s-.2-.1-.08.05.12-.03.29.05c.18.08.15.24.26.23.11,0,0-.24-.04-.3v-.03Z"/>
              </g>
            </g>
            <path class="cls-72" d="m40.09,27.9s-.54,2.13.46,2.96c1,.83,1.6,2.23,1.44,2.98-.16.74-1.4,1.62-1.4,1.62,0,0,2.07-1.71-.63-2.92-2.07-.93-2.51-4.53.13-4.64Z"/>
            <g>
              <path class="cls-58" d="m23.52,33.51c.2-.34.34-.69.45-1.04.23.03.27.24.46.18l.4.51s.98,1.2,1.62,2.17c.43.64,1.97,1.46,3.07,1.96.55.25.99.42,1.15.45,0,0,.01.24.03.61.02,1.03-.01,3.04-.66,3.16-.1.02-.19.03-.27.03-.65.05-.81-.28-1.33-.74-.51-.44-3.42-4.26-4.2-5.27-.12-.16-.19-.25-.19-.25-.07-.02-.65.01-1.12-.25-.9-.51-1.3-1.44-1.37-1.5.3-.45,1.68.43,1.95-.03Z"/>
              <path class="cls-52" d="m27.46,38.21c-.03.18-.03.39-.02.63.05,1.24.32,2.96,1.9,3.48,1.87.62.42,2.58,5.17,3.84.63.17,3.46,2.34,3.92,2.27,2.23-.32,2.34-3.83,2.34-3.83-.05-2.58-6.38-3.86-9.06-6.6-.52-.53-1.52-.56-2.46-.62-.19-.01-.36-.02-.51-.02-.85,0-1.19.24-1.28.85Z"/>
            </g>
            <g class="cls-97">
              <path class="cls-57" d="m36.68,72.61c.26,1.72.09,3.22.32,4.6.61,3.75,1.21,5.7,1.33,7.05.13,1.45.16,3.11.14,3.78.09.15.19.29.32.4,0-.45.14-2.83-.17-4.43-.27-1.37-.67-3.06-1.29-6.84-.22-1.38.03-2.87-.23-4.59-.97-6.42,1.68-14.59,2.15-15.32l-.39-.26c-.6.91-3.12,9.38-2.18,15.62Z"/>
            </g>
          </g>
          <path class="cls-93" d="m47.05,27.94s.59-1.68,2.57-1.76c1.98-.08,3.39,1.84,3.46,3.5.11,2.64-2.81,4.09-2.75,5.41.06,1.32,1.75,2.24,1.75,2.24,0,0-4.35-1.14-3.78-3.15.46-1.59,1.22-2.37-.15-3.64-.73-.67-1.69-.92-1.1-2.6Z"/>
          <path class="cls-93" d="m49.81,32.78s-.8,1.4-.77,2.04c.04.86,1.24,2.24,1.24,2.24,0,0-1.79-.89-1.83-2.13-.04-1.24,1.36-2.16,1.36-2.16Z"/>
          <path class="cls-72" d="m40.09,27.9s-.36-.65-1.34-.27c-.98.37-1.24,2.04-1.24,2.04,0,0,.6-1.37,1.27-1.39.66-.02,1.31-.38,1.31-.38Z"/>
        </g>
        <path class="cls-58" d="m23.81,34.81s-.21.08-.49.02c-.28-.06-.65-.43-.94-.76-.3-.33-.84-.69-.94-.75-.1-.05-.64.05-.64.05,0,0,.2.26.02.47-.18.22-.34.14-.34.14l-.41-.79.29-.56.8-.32s-.16-.21.16-.27c.32-.06.55-.4.55-.4,0,0,.04-.13.32-.12.28.01,1.03-.17,1.53.32.38.37.94.69,1.04,1.32.1.63-.95,1.64-.95,1.64Z"/>
        <path class="cls-58" d="m23.72,31.85l-1.11-1.01-2.25-1.03s-.52.04,0,.42c.52.39,1.34.86,1.34.86,0,0,.71.78.96.71.25-.07,1.05.04,1.05.04Z"/>
      </g>
    </g>
  </g>
</svg>