<?xml version="1.0" encoding="utf-8"?>
<!-- Generator: Adobe Illustrator 28.0.0, SVG Export Plug-In . SVG Version: 6.00 Build 0)  -->
<svg version="1.1" id="Layer_1" xmlns="http://www.w3.org/2000/svg" xmlns:xlink="http://www.w3.org/1999/xlink" x="0px" y="0px"
	 viewBox="0 0 1100 1100" style="enable-background:new 0 0 1100 1100;" xml:space="preserve">
<style type="text/css">
	.st0{fill:url(#SVGID_1_);}
	.st1{fill:url(#SVGID_00000045579767277971482000000005316203210137425591_);}
	.st2{fill:url(#SVGID_00000012437658210182990140000013213349806006877350_);}
	.st3{fill:url(#SVGID_00000127045478603477966650000010249585130921157561_);}
	.st4{fill:url(#SVGID_00000137104130996471937380000018201185717155480988_);}
	.st5{fill:url(#SVGID_00000148626987113925195600000015078230310611657896_);}
	.st6{fill:url(#SVGID_00000042697677898353552730000016559000441562477471_);}
	.st7{fill:url(#SVGID_00000114037135306334072660000008630191607885508275_);}
	.st8{fill:url(#SVGID_00000053520883076024987940000001339504320823710860_);}
	.st9{fill:url(#SVGID_00000013183865397938369690000007415797634384856464_);}
	.st10{fill:url(#SVGID_00000104705646584549108440000009308481965381810337_);}
	.st11{fill:url(#SVGID_00000150074708705651356180000002311919704912403080_);}
	.st12{fill:url(#SVGID_00000109734285223962964580000015700982926190331055_);}
	.st13{fill:url(#SVGID_00000055682212971361972740000010778707456322299327_);}
	.st14{fill:url(#SVGID_00000002384809237173100270000016544241665388316830_);}
	.st15{fill:url(#SVGID_00000176762909558868963570000002005484489128174783_);}
	.st16{fill:url(#SVGID_00000129202520109768075340000010454008864134895257_);}
	.st17{fill:url(#SVGID_00000135692371821869804870000010860654963096748709_);}
	.st18{fill:url(#SVGID_00000073687892745841192700000009558353181493510033_);}
	.st19{fill:url(#SVGID_00000181787539950907585590000007785043062145496505_);}
	.st20{fill:url(#SVGID_00000125562646176900654440000009477045871686647179_);}
	.st21{fill:url(#SVGID_00000080911829808399702260000017193654383667704721_);}
	.st22{fill:url(#SVGID_00000015315946783179583280000008770554299573948036_);}
	.st23{fill:url(#SVGID_00000060026369727403761510000002338256693654678962_);}
	.st24{fill:url(#SVGID_00000128465216509952608940000017610834014409665173_);}
	.st25{fill:url(#SVGID_00000011709719683339264110000001591247607072892322_);}
	.st26{fill:url(#SVGID_00000169523844156722833550000010032356168837875370_);}
	.st27{fill:url(#SVGID_00000180365672994879619200000010404928046172772494_);}
	.st28{fill:url(#SVGID_00000013891398389238358010000006072924085418988190_);}
	.st29{fill:url(#SVGID_00000112615844166390613680000003632626047543752126_);}
	.st30{fill:url(#SVGID_00000018230764814119291450000008402053831645953940_);}
	.st31{fill:url(#SVGID_00000077295637128235579720000003499121863032157619_);}
	.st32{fill:url(#SVGID_00000041986843643458341100000012022113881046102711_);}
	.st33{fill:url(#SVGID_00000109728989914965617440000012835419719585411725_);}
</style>
<g>
	<g>
		<g>
			<g>
				
					<linearGradient id="SVGID_1_" gradientUnits="userSpaceOnUse" x1="-719.5149" y1="537.1531" x2="-502.2036" y2="537.1531" gradientTransform="matrix(0.9465 -0.3226 0.3226 0.9465 849.7191 -215.7305)">
					<stop  offset="8.311352e-07" style="stop-color:#0039AD"/>
					<stop  offset="1" style="stop-color:#00BFFF"/>
				</linearGradient>
				<polygon class="st0" points="316.9,451.2 385.6,427.9 572.7,528.3 504,551.6 				"/>
				
					<linearGradient id="SVGID_00000139976875571496539560000007095438066602776760_" gradientUnits="userSpaceOnUse" x1="-558.8317" y1="320.7319" x2="-678.4158" y2="461.044" gradientTransform="matrix(0.9465 -0.3226 0.3226 0.9465 849.7191 -215.7305)">
					<stop  offset="8.311352e-07" style="stop-color:#0039AD"/>
					<stop  offset="1" style="stop-color:#00BFFF"/>
				</linearGradient>
				<polygon style="fill:url(#SVGID_00000139976875571496539560000007095438066602776760_);" points="316.9,451.2 385.6,427.9 
					472.5,234.2 403.8,257.5 				"/>
			</g>
			<g>
				
					<linearGradient id="SVGID_00000096053366171616211280000009710139782827954059_" gradientUnits="userSpaceOnUse" x1="215.1115" y1="648.4006" x2="432.4229" y2="648.4006" gradientTransform="matrix(-0.9465 0.3226 -0.3226 -0.9465 1170.8263 708.7114)">
					<stop  offset="8.311352e-07" style="stop-color:#0039AD"/>
					<stop  offset="1" style="stop-color:#00BFFF"/>
				</linearGradient>
				<polygon style="fill:url(#SVGID_00000096053366171616211280000009710139782827954059_);" points="783.1,238 714.4,261.3 
					527.3,160.9 596,137.6 				"/>
				
					<linearGradient id="SVGID_00000158739522963599186170000017561910021477637798_" gradientUnits="userSpaceOnUse" x1="375.7947" y1="431.9793" x2="256.2107" y2="572.2914" gradientTransform="matrix(-0.9465 0.3226 -0.3226 -0.9465 1170.8263 708.7114)">
					<stop  offset="8.311352e-07" style="stop-color:#0039AD"/>
					<stop  offset="1" style="stop-color:#00BFFF"/>
				</linearGradient>
				<polygon style="fill:url(#SVGID_00000158739522963599186170000017561910021477637798_);" points="783.1,238 714.4,261.3 
					627.5,455 696.2,431.7 				"/>
			</g>
		</g>
		<g>
			<g>
				<g>
					
						<linearGradient id="SVGID_00000028296290055104980200000007371643216050888337_" gradientUnits="userSpaceOnUse" x1="588.9136" y1="344.5962" x2="633.2683" y2="344.5962">
						<stop  offset="8.311352e-07" style="stop-color:#0039AD"/>
						<stop  offset="1" style="stop-color:#00BFFF"/>
					</linearGradient>
					<path style="fill:url(#SVGID_00000028296290055104980200000007371643216050888337_);" d="M632.3,345.6
						c-7.9,0-16.6,2.9-16.6,16.3v23.7c0,13.5-14.9,15.5-25.6,15.3c-0.7,0-1.3-0.5-1.3-1l0,0c0-0.5,0.6-1,1.3-1
						c7.7-0.1,16.4-2.9,16.4-15.8v-23.7c0-9.5,6.9-13.3,14.6-14.8c-7.8-1.6-14.6-5.3-14.6-14.9v-23.7c0-12.4-8.8-15.7-16.4-15.8
						c-0.7,0-1.3-0.5-1.3-1v0c0-0.5,0.6-1,1.3-1c10.5-0.3,25.6,1.7,25.6,15.3v26.5c0,10.5,8,13.5,15.2,13.5
						C634.5,343.6,633.1,345.6,632.3,345.6z"/>
				</g>
				<g>
					
						<linearGradient id="SVGID_00000145045607258414777980000005708718969600243344_" gradientUnits="userSpaceOnUse" x1="2553.1663" y1="344.5962" x2="2597.521" y2="344.5962" gradientTransform="matrix(-1 0 0 1 3064.2527 0)">
						<stop  offset="8.311352e-07" style="stop-color:#0039AD"/>
						<stop  offset="1" style="stop-color:#00BFFF"/>
					</linearGradient>
					<path style="fill:url(#SVGID_00000145045607258414777980000005708718969600243344_);" d="M469,343.6c7.3,0,15.2-2.9,15.2-13.5
						v-26.5c0-13.5,15.1-15.5,25.6-15.3c0.7,0,1.3,0.5,1.3,1v0c0,0.5-0.6,1-1.3,1c-7.7,0.1-16.4,3.4-16.4,15.8v23.7
						c0,9.6-6.9,13.3-14.6,14.9c7.8,1.5,14.6,5.3,14.6,14.8v23.7c0,12.9,8.7,15.7,16.4,15.8c0.7,0,1.3,0.4,1.3,1l0,0
						c0,0.5-0.6,1-1.3,1c-10.6,0.3-25.6-1.7-25.6-15.3v-23.7c0-13.4-8.7-16.3-16.6-16.3C466.9,345.6,465.5,343.6,469,343.6z"/>
				</g>
			</g>
			<g>
				
					<linearGradient id="SVGID_00000075125275995116967400000013072076197439377077_" gradientUnits="userSpaceOnUse" x1="509.3985" y1="344.5962" x2="532.7751" y2="344.5962">
					<stop  offset="8.311352e-07" style="stop-color:#0039AD"/>
					<stop  offset="1" style="stop-color:#00BFFF"/>
				</linearGradient>
				<circle style="fill:url(#SVGID_00000075125275995116967400000013072076197439377077_);" cx="521.1" cy="344.6" r="11.7"/>
				
					<linearGradient id="SVGID_00000163770180001600250140000001387497623885099401_" gradientUnits="userSpaceOnUse" x1="538.3117" y1="344.5962" x2="561.6883" y2="344.5962">
					<stop  offset="8.311352e-07" style="stop-color:#0039AD"/>
					<stop  offset="1" style="stop-color:#00BFFF"/>
				</linearGradient>
				<circle style="fill:url(#SVGID_00000163770180001600250140000001387497623885099401_);" cx="550" cy="344.6" r="11.7"/>
				
					<linearGradient id="SVGID_00000111188008344210539720000000824407067298265741_" gradientUnits="userSpaceOnUse" x1="567.2249" y1="344.5962" x2="590.6015" y2="344.5962">
					<stop  offset="8.311352e-07" style="stop-color:#0039AD"/>
					<stop  offset="1" style="stop-color:#00BFFF"/>
				</linearGradient>
				<circle style="fill:url(#SVGID_00000111188008344210539720000000824407067298265741_);" cx="578.9" cy="344.6" r="11.7"/>
			</g>
		</g>
	</g>
	<g>
		<g>
			
				<linearGradient id="SVGID_00000121992868411459930870000012399189704526433182_" gradientUnits="userSpaceOnUse" x1="76.3513" y1="703.8581" x2="237.2363" y2="703.8581">
				<stop  offset="8.311352e-07" style="stop-color:#0039AD"/>
				<stop  offset="1" style="stop-color:#00BFFF"/>
			</linearGradient>
			<path style="fill:url(#SVGID_00000121992868411459930870000012399189704526433182_);" d="M139.6,777.9l-5.3,26.9h-58l39.9-174.8
				l-6.4-27.2h83.8l43.6,201.9h-57.4l-5.3-26.9H139.6z M145.1,734.9h23.6l-11.7-72.7L145.1,734.9z"/>
			
				<linearGradient id="SVGID_00000001655162122626318080000014175201406041125815_" gradientUnits="userSpaceOnUse" x1="249.7173" y1="700.1133" x2="378.1483" y2="700.1133">
				<stop  offset="8.311352e-07" style="stop-color:#0039AD"/>
				<stop  offset="1" style="stop-color:#00BFFF"/>
			</linearGradient>
			<path style="fill:url(#SVGID_00000001655162122626318080000014175201406041125815_);" d="M299.6,714.7l26.6-69.3h51.9l-31.3,77.9
				l31.3,81.6h-53l-25.5-71.6v71.6h-49.9V602.1l49.9-6.7V714.7z"/>
			
				<linearGradient id="SVGID_00000139974318664938443930000011275963446531789487_" gradientUnits="userSpaceOnUse" x1="390.0724" y1="700.1133" x2="442.7765" y2="700.1133">
				<stop  offset="8.311352e-07" style="stop-color:#0039AD"/>
				<stop  offset="1" style="stop-color:#00BFFF"/>
			</linearGradient>
			<path style="fill:url(#SVGID_00000139974318664938443930000011275963446531789487_);" d="M390.1,595.4h52.7v37.7h-52.7V595.4z
				 M391.5,645.3h49.9v159.5h-49.9V645.3z"/>
			
				<linearGradient id="SVGID_00000051352759691081973530000009245907660283561656_" gradientUnits="userSpaceOnUse" x1="463.5782" y1="723.8917" x2="556.2263" y2="723.8917">
				<stop  offset="8.311352e-07" style="stop-color:#0039AD"/>
				<stop  offset="1" style="stop-color:#00BFFF"/>
			</linearGradient>
			<path style="fill:url(#SVGID_00000051352759691081973530000009245907660283561656_);" d="M463.6,804.8V645.3H506l5.5,22.2h0.6
				c3-9.2,8.2-16,15.7-20.2c7.5-4.3,17-5.4,28.4-3.3v47.2c-7.2,0-14.7,0.5-22.3,1.4c-7.7,0.9-14.5,2.2-20.4,3.9v108.5H463.6z"/>
			
				<linearGradient id="SVGID_00000018951194700903786000000009866796763596071067_" gradientUnits="userSpaceOnUse" x1="557.6119" y1="725.3556" x2="679.6622" y2="725.3556">
				<stop  offset="8.311352e-07" style="stop-color:#0039AD"/>
				<stop  offset="1" style="stop-color:#00BFFF"/>
			</linearGradient>
			<path style="fill:url(#SVGID_00000018951194700903786000000009866796763596071067_);" d="M600.3,807.6c-7.4,0-14.3-1.9-20.8-5.7
				c-6.5-3.8-11.7-9.3-15.8-16.5c-4.1-7.2-6.1-15.9-6.1-26.1c0-15.9,5.6-27.9,16.8-36.1c11.2-8.1,25.7-12.2,43.4-12.2h11.9v-15.3
				c0-5.4-1.9-9-5.5-11c-3.7-1.9-8.4-2.9-14.1-2.9c-7,0-13.8,0.7-20.2,1.9c-6.5,1.3-12.9,3.1-19.4,5.5v-38.8
				c8.3-1.8,17-3.6,25.9-5.1c9-1.6,18-2.4,27-2.4c10.2,0,19.5,1.2,28,3.7c8.5,2.5,15.3,7,20.5,13.5c5.2,6.5,7.8,15.7,7.8,27.7v116.8
				h-43.3l-3.3-11.9c-4.6,5-9.8,8.7-15.5,11.1C611.8,806.4,606.1,807.6,600.3,807.6z M619.7,771c3.7,0,7-1.7,10-5v-27.5h-3.6
				c-5.5,0-10.3,1.3-14.1,4c-3.9,2.7-5.8,6.7-5.8,12.1c0,5.2,1.4,9.2,4.2,12.1C613.1,769.6,616.2,771,619.7,771z"/>
			
				<linearGradient id="SVGID_00000099653340341483893510000015052982744551910065_" gradientUnits="userSpaceOnUse" x1="771.199" y1="704.9676" x2="907.1193" y2="704.9676">
				<stop  offset="8.311352e-07" style="stop-color:#0039AD"/>
				<stop  offset="1" style="stop-color:#00BFFF"/>
			</linearGradient>
			<path style="fill:url(#SVGID_00000099653340341483893510000015052982744551910065_);" d="M771.2,804.8V605.1h54.1v76.8H853v-76.8
				h54.1v199.7H853v-78.5h-27.7v78.5H771.2z"/>
			
				<linearGradient id="SVGID_00000108268138413527626040000013247552268743752071_" gradientUnits="userSpaceOnUse" x1="922.3717" y1="708.9897" x2="1023.3411" y2="708.9897">
				<stop  offset="8.311352e-07" style="stop-color:#0039AD"/>
				<stop  offset="1" style="stop-color:#00BFFF"/>
			</linearGradient>
			<path style="fill:url(#SVGID_00000108268138413527626040000013247552268743752071_);" d="M993.1,645.3h30.2v37.4h-30.2v69.1
				c0,5.2,1.3,9,4,11.4c2.7,2.4,7,3.6,12.9,3.6c3,0,5.5-0.1,7.8-0.4c2.2-0.3,4.1-0.6,5.5-1v36.9c-4.4,1.5-9.1,2.7-14,3.7
				c-4.9,1-9.8,1.5-14.8,1.5c-17,0-29.8-3.6-38.4-11c-8.6-7.3-12.9-20.4-12.9-39.3v-74.6h-20.8v-37.4h20.8v-35h49.9V645.3z"/>
		</g>
		<g>
			
				<linearGradient id="SVGID_00000121965821997513966670000000900306790657225399_" gradientUnits="userSpaceOnUse" x1="76.3513" y1="905.3134" x2="114.4571" y2="905.3134">
				<stop  offset="8.311352e-07" style="stop-color:#0039AD"/>
				<stop  offset="1" style="stop-color:#00BFFF"/>
			</linearGradient>
			<path style="fill:url(#SVGID_00000121965821997513966670000000900306790657225399_);" d="M83.4,877.6v24.2h20.9v7.1H83.4v31.2h-7
				v-69.6h38.1v7.1H83.4z"/>
			
				<linearGradient id="SVGID_00000039823935034551088700000014842336970759120554_" gradientUnits="userSpaceOnUse" x1="118.6454" y1="913.7404" x2="149.7375" y2="913.7404">
				<stop  offset="8.311352e-07" style="stop-color:#0039AD"/>
				<stop  offset="1" style="stop-color:#00BFFF"/>
			</linearGradient>
			<path style="fill:url(#SVGID_00000039823935034551088700000014842336970759120554_);" d="M137.8,894.5c-3.3,0-6.1,1.2-8.5,3.6
				c-2.4,2.4-3.6,5.2-3.6,8.5v33.6h-7.1v-33.6c0-3.8,1-7.2,3-10.3c2-3.1,4.6-5.4,7.8-7l0.2-0.1c2.6-1.2,5.3-1.8,8.2-1.8
				c4.5,0,8.4,1.4,11.9,4.1l-7.1,4.1C141,894.8,139.4,894.5,137.8,894.5z"/>
			
				<linearGradient id="SVGID_00000167373318910566882660000001371660356212704663_" gradientUnits="userSpaceOnUse" x1="148.6898" y1="914.0547" x2="201.8701" y2="914.0547">
				<stop  offset="8.311352e-07" style="stop-color:#0039AD"/>
				<stop  offset="1" style="stop-color:#00BFFF"/>
			</linearGradient>
			<path style="fill:url(#SVGID_00000167373318910566882660000001371660356212704663_);" d="M161.9,937.1c-4.1-2.4-7.3-5.6-9.7-9.7
				c-2.4-4.1-3.6-8.5-3.6-13.2c0-4.8,1.2-9.3,3.6-13.3c2.4-4.1,5.6-7.3,9.7-9.7c4.1-2.4,8.5-3.6,13.2-3.6c4.8,0,9.3,1.2,13.3,3.6
				c4.1,2.4,7.3,5.7,9.7,9.7c2.4,4.1,3.6,8.5,3.6,13.3c0,4.7-1.2,9.2-3.6,13.2c-2.4,4.1-5.7,7.3-9.7,9.7c-4.1,2.4-8.5,3.6-13.3,3.6
				C170.4,940.6,166,939.5,161.9,937.1z M185,931c3-1.7,5.3-4.1,7.1-7.1c1.7-3,2.6-6.2,2.6-9.7c0-3.6-0.9-6.8-2.6-9.8
				c-1.7-3-4.1-5.4-7.1-7.1c-3-1.7-6.2-2.6-9.8-2.6c-3.5,0-6.7,0.9-9.7,2.6c-3,1.7-5.3,4.1-7.1,7.1c-1.7,3-2.6,6.3-2.6,9.8
				c0,3.5,0.9,6.7,2.6,9.7c1.7,3,4.1,5.4,7.1,7.1c3,1.7,6.2,2.6,9.7,2.6C178.7,933.6,182,932.8,185,931z"/>
			
				<linearGradient id="SVGID_00000123410270776077285170000002097107445547397798_" gradientUnits="userSpaceOnUse" x1="211.2913" y1="913.95" x2="252.8517" y2="913.95">
				<stop  offset="8.311352e-07" style="stop-color:#0039AD"/>
				<stop  offset="1" style="stop-color:#00BFFF"/>
			</linearGradient>
			<path style="fill:url(#SVGID_00000123410270776077285170000002097107445547397798_);" d="M242.4,890.6c3.2,1.9,5.7,4.4,7.6,7.5
				c1.9,3.2,2.8,6.6,2.8,10.4v31.6h-7.2v-31.6c0-2.4-0.6-4.7-1.8-6.8c-1.2-2.1-2.9-3.7-5-4.9c-2.1-1.2-4.4-1.8-6.8-1.8
				c-2.4,0-4.7,0.6-6.8,1.8c-2.1,1.2-3.8,2.9-5,4.9c-1.2,2.1-1.8,4.3-1.8,6.8v31.6h-7.1v-51h7.1v4.6c1.7-2,3.8-3.4,6.1-4.4
				c2.3-1,4.8-1.5,7.5-1.5C235.8,887.8,239.3,888.7,242.4,890.6z"/>
			
				<linearGradient id="SVGID_00000165229318824745801900000005724832463752307846_" gradientUnits="userSpaceOnUse" x1="261.2271" y1="905.3134" x2="285.8279" y2="905.3134">
				<stop  offset="8.311352e-07" style="stop-color:#0039AD"/>
				<stop  offset="1" style="stop-color:#00BFFF"/>
			</linearGradient>
			<path style="fill:url(#SVGID_00000165229318824745801900000005724832463752307846_);" d="M285.8,894.9h-8.7v45.2h-7.2v-45.2h-8.7
				v-7.1h8.7v-17.3h7.2v17.3h8.7V894.9z"/>
			
				<linearGradient id="SVGID_00000023979395581695224750000013111729090185296306_" gradientUnits="userSpaceOnUse" x1="294.2014" y1="910.8094" x2="331.0506" y2="910.8094">
				<stop  offset="8.311352e-07" style="stop-color:#0039AD"/>
				<stop  offset="1" style="stop-color:#00BFFF"/>
			</linearGradient>
			<path style="fill:url(#SVGID_00000023979395581695224750000013111729090185296306_);" d="M294.2,914.4v-7.1h36.8v7.1H294.2z"/>
			
				<linearGradient id="SVGID_00000147920874418042773660000003473913115217594781_" gradientUnits="userSpaceOnUse" x1="339.4247" y1="914.264" x2="392.1859" y2="914.264">
				<stop  offset="8.311352e-07" style="stop-color:#0039AD"/>
				<stop  offset="1" style="stop-color:#00BFFF"/>
			</linearGradient>
			<path style="fill:url(#SVGID_00000147920874418042773660000003473913115217594781_);" d="M347,917.8c0.8,4.5,3,8.2,6.6,11.1
				c3.6,3,7.6,4.4,12.2,4.4c3.4,0,6.6-0.8,9.4-2.4c2.9-1.6,5.2-3.8,6.9-6.6l6.2,3.6c-2.4,3.8-5.5,6.9-9.5,9.2c-4,2.3-8.3,3.5-13,3.5
				c-4.7,0-9.1-1.2-13.2-3.6c-4-2.4-7.3-5.6-9.6-9.6c-2.4-4-3.6-8.4-3.6-13.2c0-4.8,1.2-9.2,3.6-13.2c2.4-4,5.6-7.2,9.6-9.6
				c4-2.4,8.4-3.6,13.2-3.6c4.7,0,9.1,1.2,13.2,3.6c4,2.4,7.3,5.6,9.6,9.6c2.4,4,3.6,8.4,3.6,13.2c0,0.8-0.1,2-0.2,3.6H347z
				 M356.8,897.1c-2.9,1.4-5.3,3.4-7.1,5.9c-1.8,2.5-2.7,5.1-2.7,8h37.7c0-2.9-0.9-5.5-2.7-8c-1.8-2.5-4.2-4.4-7.1-5.9
				c-2.9-1.4-5.9-2.1-9.1-2.1C362.7,895,359.7,895.7,356.8,897.1z"/>
			
				<linearGradient id="SVGID_00000099627740833988903760000016937099688297389757_" gradientUnits="userSpaceOnUse" x1="401.6078" y1="913.95" x2="443.1682" y2="913.95">
				<stop  offset="8.311352e-07" style="stop-color:#0039AD"/>
				<stop  offset="1" style="stop-color:#00BFFF"/>
			</linearGradient>
			<path style="fill:url(#SVGID_00000099627740833988903760000016937099688297389757_);" d="M432.8,890.6c3.2,1.9,5.7,4.4,7.6,7.5
				c1.9,3.2,2.8,6.6,2.8,10.4v31.6h-7.2v-31.6c0-2.4-0.6-4.7-1.8-6.8c-1.2-2.1-2.9-3.7-5-4.9c-2.1-1.2-4.4-1.8-6.8-1.8
				c-2.4,0-4.7,0.6-6.8,1.8c-2.1,1.2-3.8,2.9-5,4.9c-1.2,2.1-1.8,4.3-1.8,6.8v31.6h-7.1v-51h7.1v4.6c1.7-2,3.8-3.4,6.1-4.4
				c2.3-1,4.8-1.5,7.5-1.5C426.1,887.8,429.6,888.7,432.8,890.6z"/>
			
				<linearGradient id="SVGID_00000178890222544576057560000010058055194931996572_" gradientUnits="userSpaceOnUse" x1="451.5435" y1="905.6274" x2="504.6187" y2="905.6274">
				<stop  offset="8.311352e-07" style="stop-color:#0039AD"/>
				<stop  offset="1" style="stop-color:#00BFFF"/>
			</linearGradient>
			<path style="fill:url(#SVGID_00000178890222544576057560000010058055194931996572_);" d="M504.6,940.1h-7v-9.7
				c-5.1,6.8-11.6,10.3-19.6,10.3c-4.8,0-9.2-1.2-13.3-3.6c-4-2.4-7.3-5.6-9.6-9.7c-2.4-4.1-3.6-8.5-3.6-13.2
				c0-4.7,1.2-9.2,3.6-13.2c2.4-4.1,5.6-7.3,9.6-9.7c4-2.4,8.5-3.6,13.3-3.6c8.2,0,14.8,3.2,19.6,9.7v-26.8h7V940.1z M494.8,904.5
				c-1.7-2.9-4.1-5.3-7.1-7c-3-1.7-6.2-2.6-9.7-2.6c-3.5,0-6.7,0.9-9.6,2.6c-2.9,1.7-5.3,4.1-7,7c-1.7,2.9-2.6,6.1-2.6,9.6
				c0,3.5,0.9,6.7,2.6,9.7c1.7,3,4.1,5.3,7,7.1c2.9,1.7,6.1,2.6,9.6,2.6c3.5,0,6.7-0.9,9.7-2.6c3-1.7,5.3-4.1,7.1-7.1
				c1.7-3,2.6-6.2,2.6-9.7C497.4,910.7,496.5,907.5,494.8,904.5z"/>
			
				<linearGradient id="SVGID_00000140004240043588556730000017494290076144979621_" gradientUnits="userSpaceOnUse" x1="562.1938" y1="905.2609" x2="614.6416" y2="905.2609">
				<stop  offset="8.311352e-07" style="stop-color:#0039AD"/>
				<stop  offset="1" style="stop-color:#00BFFF"/>
			</linearGradient>
			<path style="fill:url(#SVGID_00000140004240043588556730000017494290076144979621_);" d="M562.2,940.1v-69.7h17.6
				c6.4,0,12.2,1.6,17.5,4.7c5.3,3.1,9.5,7.4,12.7,12.7c3.1,5.3,4.7,11.1,4.7,17.5c0,6.4-1.6,12.2-4.7,17.5
				c-3.1,5.3-7.4,9.5-12.7,12.7c-5.3,3.1-11.1,4.7-17.5,4.7H562.2z M579.8,933c5,0,9.7-1.2,13.9-3.7c4.3-2.5,7.6-5.8,10.1-10.1
				c2.5-4.3,3.7-8.9,3.7-13.9c0-5-1.2-9.7-3.7-13.9c-2.5-4.3-5.8-7.6-10.1-10.1c-4.3-2.5-8.9-3.7-13.9-3.7h-10.4V933H579.8z"/>
			
				<linearGradient id="SVGID_00000085228380225036551900000011237765333103327676_" gradientUnits="userSpaceOnUse" x1="620.9228" y1="914.264" x2="673.684" y2="914.264">
				<stop  offset="8.311352e-07" style="stop-color:#0039AD"/>
				<stop  offset="1" style="stop-color:#00BFFF"/>
			</linearGradient>
			<path style="fill:url(#SVGID_00000085228380225036551900000011237765333103327676_);" d="M628.5,917.8c0.8,4.5,3,8.2,6.6,11.1
				c3.6,3,7.6,4.4,12.2,4.4c3.4,0,6.6-0.8,9.4-2.4c2.9-1.6,5.2-3.8,6.9-6.6l6.2,3.6c-2.4,3.8-5.5,6.9-9.5,9.2c-4,2.3-8.3,3.5-13,3.5
				c-4.7,0-9.1-1.2-13.2-3.6c-4-2.4-7.3-5.6-9.6-9.6c-2.4-4-3.6-8.4-3.6-13.2c0-4.8,1.2-9.2,3.6-13.2c2.4-4,5.6-7.2,9.6-9.6
				c4-2.4,8.4-3.6,13.2-3.6c4.7,0,9.1,1.2,13.2,3.6c4,2.4,7.3,5.6,9.6,9.6c2.4,4,3.6,8.4,3.6,13.2c0,0.8-0.1,2-0.2,3.6H628.5z
				 M638.3,897.1c-2.9,1.4-5.3,3.4-7.1,5.9c-1.8,2.5-2.7,5.1-2.7,8h37.7c0-2.9-0.9-5.5-2.7-8c-1.8-2.5-4.2-4.4-7.1-5.9
				c-2.9-1.4-5.9-2.1-9.1-2.1C644.2,895,641.2,895.7,638.3,897.1z"/>
			
				<linearGradient id="SVGID_00000011745247523097257870000011783463245451950524_" gradientUnits="userSpaceOnUse" x1="676.8264" y1="914.0544" x2="725.7145" y2="914.0544">
				<stop  offset="8.311352e-07" style="stop-color:#0039AD"/>
				<stop  offset="1" style="stop-color:#00BFFF"/>
			</linearGradient>
			<path style="fill:url(#SVGID_00000011745247523097257870000011783463245451950524_);" d="M725.7,888l-20.6,52.1h-7.6L676.8,888
				h7.6l16.9,42.2l16.7-42.2H725.7z"/>
			
				<linearGradient id="SVGID_00000093176197929135365900000007669495481266947723_" gradientUnits="userSpaceOnUse" x1="727.8087" y1="914.264" x2="780.5698" y2="914.264">
				<stop  offset="8.311352e-07" style="stop-color:#0039AD"/>
				<stop  offset="1" style="stop-color:#00BFFF"/>
			</linearGradient>
			<path style="fill:url(#SVGID_00000093176197929135365900000007669495481266947723_);" d="M735.3,917.8c0.8,4.5,3,8.2,6.6,11.1
				c3.6,3,7.6,4.4,12.2,4.4c3.4,0,6.6-0.8,9.4-2.4c2.9-1.6,5.2-3.8,6.9-6.6l6.2,3.6c-2.4,3.8-5.5,6.9-9.5,9.2c-4,2.3-8.3,3.5-13,3.5
				c-4.7,0-9.1-1.2-13.2-3.6c-4-2.4-7.3-5.6-9.6-9.6c-2.4-4-3.6-8.4-3.6-13.2c0-4.8,1.2-9.2,3.6-13.2c2.4-4,5.6-7.2,9.6-9.6
				c4-2.4,8.4-3.6,13.2-3.6c4.7,0,9.1,1.2,13.2,3.6c4,2.4,7.3,5.6,9.6,9.6c2.4,4,3.6,8.4,3.6,13.2c0,0.8-0.1,2-0.2,3.6H735.3z
				 M745.2,897.1c-2.9,1.4-5.3,3.4-7.1,5.9c-1.8,2.5-2.7,5.1-2.7,8H773c0-2.9-0.9-5.5-2.7-8c-1.8-2.5-4.2-4.4-7.1-5.9
				c-2.9-1.4-5.9-2.1-9.1-2.1C751.1,895,748.1,895.7,745.2,897.1z"/>
			
				<linearGradient id="SVGID_00000114769940399115405420000008882466837105981854_" gradientUnits="userSpaceOnUse" x1="789.9917" y1="905.3134" x2="797.1105" y2="905.3134">
				<stop  offset="8.311352e-07" style="stop-color:#0039AD"/>
				<stop  offset="1" style="stop-color:#00BFFF"/>
			</linearGradient>
			<path style="fill:url(#SVGID_00000114769940399115405420000008882466837105981854_);" d="M797.1,870.5v69.6H790v-69.6H797.1z"/>
			
				<linearGradient id="SVGID_00000029744193549284601230000003929304290108950416_" gradientUnits="userSpaceOnUse" x1="806.5323" y1="914.0547" x2="859.7125" y2="914.0547">
				<stop  offset="8.311352e-07" style="stop-color:#0039AD"/>
				<stop  offset="1" style="stop-color:#00BFFF"/>
			</linearGradient>
			<path style="fill:url(#SVGID_00000029744193549284601230000003929304290108950416_);" d="M819.8,937.1c-4.1-2.4-7.3-5.6-9.7-9.7
				c-2.4-4.1-3.6-8.5-3.6-13.2c0-4.8,1.2-9.3,3.6-13.3c2.4-4.1,5.6-7.3,9.7-9.7c4.1-2.4,8.5-3.6,13.2-3.6c4.8,0,9.3,1.2,13.3,3.6
				c4.1,2.4,7.3,5.7,9.7,9.7c2.4,4.1,3.6,8.5,3.6,13.3c0,4.7-1.2,9.2-3.6,13.2c-2.4,4.1-5.7,7.3-9.7,9.7c-4.1,2.4-8.5,3.6-13.3,3.6
				C828.3,940.6,823.9,939.5,819.8,937.1z M842.8,931c3-1.7,5.3-4.1,7.1-7.1c1.7-3,2.6-6.2,2.6-9.7c0-3.6-0.9-6.8-2.6-9.8
				c-1.7-3-4.1-5.4-7.1-7.1c-3-1.7-6.2-2.6-9.8-2.6c-3.5,0-6.7,0.9-9.7,2.6c-3,1.7-5.3,4.1-7.1,7.1c-1.7,3-2.6,6.3-2.6,9.8
				c0,3.5,0.9,6.7,2.6,9.7c1.7,3,4.1,5.4,7.1,7.1c3,1.7,6.2,2.6,9.7,2.6C836.6,933.6,839.8,932.8,842.8,931z"/>
			
				<linearGradient id="SVGID_00000042707694833491143730000013621737335723548034_" gradientUnits="userSpaceOnUse" x1="869.1332" y1="924.9943" x2="921.9994" y2="924.9943">
				<stop  offset="8.311352e-07" style="stop-color:#0039AD"/>
				<stop  offset="1" style="stop-color:#00BFFF"/>
			</linearGradient>
			<path style="fill:url(#SVGID_00000042707694833491143730000013621737335723548034_);" d="M869.1,962.4v-73.3h7.1v8.7
				c2.4-3.4,5.3-6,8.6-7.7c3.3-1.7,6.9-2.6,10.8-2.6c4.7,0,9.1,1.2,13.2,3.6c4,2.4,7.3,5.6,9.6,9.6c2.4,4,3.6,8.4,3.6,13.2
				c0,4.7-1.2,9.1-3.6,13.2c-2.4,4-5.6,7.3-9.6,9.6c-4,2.4-8.4,3.6-13.2,3.6c-5,0-9-1-12.2-3.1c-3.2-2.1-5.6-4.3-7.1-6.6v31.8H869.1
				z M886,897.4c-2.9,1.7-5.3,4-7,7c-1.7,2.9-2.6,6.1-2.6,9.6c0,3.5,0.9,6.7,2.6,9.6c1.7,2.9,4.1,5.3,7,7c2.9,1.7,6.1,2.6,9.6,2.6
				c3.5,0,6.7-0.9,9.6-2.6c2.9-1.7,5.3-4.1,7-7c1.7-2.9,2.6-6.1,2.6-9.6c0-3.5-0.9-6.7-2.6-9.6c-1.7-2.9-4-5.3-7-7
				c-2.9-1.7-6.1-2.6-9.6-2.6C892.1,894.8,888.9,895.6,886,897.4z"/>
			
				<linearGradient id="SVGID_00000128484810073085946900000004283121168807434632_" gradientUnits="userSpaceOnUse" x1="930.3736" y1="914.264" x2="983.1348" y2="914.264">
				<stop  offset="8.311352e-07" style="stop-color:#0039AD"/>
				<stop  offset="1" style="stop-color:#00BFFF"/>
			</linearGradient>
			<path style="fill:url(#SVGID_00000128484810073085946900000004283121168807434632_);" d="M937.9,917.8c0.8,4.5,3,8.2,6.6,11.1
				c3.6,3,7.6,4.4,12.2,4.4c3.4,0,6.6-0.8,9.4-2.4c2.9-1.6,5.2-3.8,6.9-6.6l6.2,3.6c-2.4,3.8-5.5,6.9-9.5,9.2c-4,2.3-8.3,3.5-13,3.5
				c-4.7,0-9.1-1.2-13.2-3.6c-4-2.4-7.3-5.6-9.6-9.6c-2.4-4-3.6-8.4-3.6-13.2c0-4.8,1.2-9.2,3.6-13.2c2.4-4,5.6-7.2,9.6-9.6
				c4-2.4,8.4-3.6,13.2-3.6c4.7,0,9.1,1.2,13.2,3.6c4,2.4,7.3,5.6,9.6,9.6c2.4,4,3.6,8.4,3.6,13.2c0,0.8-0.1,2-0.2,3.6H937.9z
				 M947.8,897.1c-2.9,1.4-5.3,3.4-7.1,5.9c-1.8,2.5-2.7,5.1-2.7,8h37.7c0-2.9-0.9-5.5-2.7-8c-1.8-2.5-4.2-4.4-7.1-5.9
				c-2.9-1.4-5.9-2.1-9.1-2.1C953.7,895,950.7,895.7,947.8,897.1z"/>
			
				<linearGradient id="SVGID_00000133516245231037939970000013362063930318261935_" gradientUnits="userSpaceOnUse" x1="992.5566" y1="913.7404" x2="1023.6487" y2="913.7404">
				<stop  offset="8.311352e-07" style="stop-color:#0039AD"/>
				<stop  offset="1" style="stop-color:#00BFFF"/>
			</linearGradient>
			<path style="fill:url(#SVGID_00000133516245231037939970000013362063930318261935_);" d="M1011.7,894.5c-3.3,0-6.1,1.2-8.5,3.6
				c-2.4,2.4-3.6,5.2-3.6,8.5v33.6h-7.1v-33.6c0-3.8,1-7.2,3-10.3c2-3.1,4.6-5.4,7.8-7l0.2-0.1c2.6-1.2,5.3-1.8,8.2-1.8
				c4.5,0,8.4,1.4,11.9,4.1l-7.1,4.1C1014.9,894.8,1013.3,894.5,1011.7,894.5z"/>
		</g>
	</g>
</g>
</svg>
