<?xml version="1.0" encoding="utf-8"?>
<!-- Generator: Adobe Illustrator 28.0.0, SVG Export Plug-In . SVG Version: 6.00 Build 0)  -->
<svg version="1.1" id="Layer_1" xmlns="http://www.w3.org/2000/svg" xmlns:xlink="http://www.w3.org/1999/xlink" x="0px" y="0px"
	 viewBox="0 0 1200 630" style="enable-background:new 0 0 1200 630;" xml:space="preserve">
<style type="text/css">
	.st0{fill:#FFFFFF;}
	.st1{fill:url(#SVGID_1_);}
	.st2{fill:url(#SVGID_00000073000514542042532210000004685988836502630062_);}
	.st3{fill:url(#SVGID_00000064343500799865205600000013281828704459976124_);}
	.st4{fill:url(#SVGID_00000165197788672493385320000017872034200191330747_);}
	.st5{fill:url(#SVGID_00000042703159673896196720000004642939437322865852_);}
	.st6{fill:url(#SVGID_00000178168281287996492160000013192862661273983895_);}
	.st7{fill:url(#SVGID_00000082351211583291640680000010048865361443220136_);}
	.st8{fill:url(#SVGID_00000031183933643159690270000004499635681658271123_);}
	.st9{fill:url(#SVGID_00000029018276672042828770000001831698500933301171_);}
	.st10{fill:url(#SVGID_00000071522168746205564710000014631138639562810300_);}
	.st11{fill:url(#SVGID_00000001637710106707816200000004226663141328805776_);}
	.st12{fill:url(#SVGID_00000050646564253333485120000002264471476298314375_);}
	.st13{fill:url(#SVGID_00000083089929333790724450000004576894393473765517_);}
	.st14{fill:url(#SVGID_00000122715219452679402290000007321265641307908525_);}
	.st15{fill:url(#SVGID_00000119102224235020087850000009656316600481821852_);}
	.st16{fill:url(#SVGID_00000004518977079575319830000002848580833922445231_);}
	.st17{fill:url(#SVGID_00000015323299912329317890000014066767019406974376_);}
	.st18{fill:url(#SVGID_00000023992296800695899740000002485905301632738487_);}
	.st19{fill:url(#SVGID_00000090296264757294856830000000657801800542526092_);}
	.st20{fill:url(#SVGID_00000052068256698576320960000009065678607946242197_);}
	.st21{fill:url(#SVGID_00000008108153446368787110000001959315408510333836_);}
	.st22{fill:url(#SVGID_00000134970094896014567620000013524992347698981008_);}
	.st23{fill:url(#SVGID_00000130635898354359616730000014055060593111414146_);}
	.st24{fill:url(#SVGID_00000065793674714989352120000005300105478581901199_);}
	.st25{fill:url(#SVGID_00000098925533984940651740000011947972693712842883_);}
	.st26{fill:url(#SVGID_00000155132532849833363130000010530615199546145680_);}
	.st27{fill:url(#SVGID_00000071556174907809911220000014926889703039232700_);}
	.st28{fill:url(#SVGID_00000105386170252601601740000011940750136683541420_);}
	.st29{fill:url(#SVGID_00000160889501775071682550000017640038059784731312_);}
	.st30{fill:url(#SVGID_00000153692011453760886450000017448232050575812268_);}
	.st31{fill:url(#SVGID_00000166652566904917776040000007454906851872824963_);}
	.st32{fill:url(#SVGID_00000105401827319238600180000009557567740199844506_);}
	.st33{fill:url(#SVGID_00000153695921948222006510000004434567102724900528_);}
	.st34{fill:url(#SVGID_00000001646602186069114400000004462066989931822215_);}
</style>
<g>
	<rect y="118.5" class="st0" width="1200" height="392.9"/>
	<g>
		<g>
			<g>
				
					<linearGradient id="SVGID_1_" gradientUnits="userSpaceOnUse" x1="-764.4326" y1="374.3317" x2="-601.2053" y2="374.3317" gradientTransform="matrix(0.9465 -0.3226 -0.3226 -0.9465 900.1605 561.3473)">
					<stop  offset="8.311352e-07" style="stop-color:#0039AD"/>
					<stop  offset="1" style="stop-color:#00BFFF"/>
				</linearGradient>
				<polygon class="st1" points="37,398.4 88.7,380.8 229.2,456.3 177.6,473.8 				"/>
				
					<linearGradient id="SVGID_00000031899291797625549570000002402835592849148806_" gradientUnits="userSpaceOnUse" x1="-643.681" y1="536.9489" x2="-733.5383" y2="431.516" gradientTransform="matrix(0.9465 -0.3226 -0.3226 -0.9465 900.1605 561.3473)">
					<stop  offset="8.311352e-07" style="stop-color:#0039AD"/>
					<stop  offset="1" style="stop-color:#00BFFF"/>
				</linearGradient>
				<polygon style="fill:url(#SVGID_00000031899291797625549570000002402835592849148806_);" points="37,398.4 88.7,380.8 
					154,235.3 102.3,252.8 				"/>
			</g>
			<g>
				
					<linearGradient id="SVGID_00000001648107112054265650000006139739263871583668_" gradientUnits="userSpaceOnUse" x1="1330.1936" y1="-1352.213" x2="1493.5347" y2="-1352.213" gradientTransform="matrix(-0.9465 0.3226 0.3226 0.9465 2063.7793 1033.573)">
					<stop  offset="8.311352e-07" style="stop-color:#0039AD"/>
					<stop  offset="1" style="stop-color:#00BFFF"/>
				</linearGradient>
				<polygon style="fill:url(#SVGID_00000001648107112054265650000006139739263871583668_);" points="387.4,238.1 335.7,255.7 
					195.1,180.2 246.8,162.7 				"/>
				
					<linearGradient id="SVGID_00000111897665352044162440000009158106576219938965_" gradientUnits="userSpaceOnUse" x1="1450.9696" y1="-1189.5479" x2="1361.1123" y2="-1294.9807" gradientTransform="matrix(-0.9465 0.3226 0.3226 0.9465 2063.7793 1033.573)">
					<stop  offset="8.311352e-07" style="stop-color:#0039AD"/>
					<stop  offset="1" style="stop-color:#00BFFF"/>
				</linearGradient>
				<polygon style="fill:url(#SVGID_00000111897665352044162440000009158106576219938965_);" points="387.4,238.1 335.7,255.7 
					270.4,401.2 322.1,383.7 				"/>
			</g>
		</g>
		<g>
			<g>
				<g>
					
						<linearGradient id="SVGID_00000139266931973920361000000009095490150566503048_" gradientUnits="userSpaceOnUse" x1="241.4142" y1="310.9744" x2="274.7429" y2="310.9744" gradientTransform="matrix(1 0 0 -1 0 629.1)">
						<stop  offset="8.311352e-07" style="stop-color:#0039AD"/>
						<stop  offset="1" style="stop-color:#00BFFF"/>
					</linearGradient>
					<path style="fill:url(#SVGID_00000139266931973920361000000009095490150566503048_);" d="M274,318.9c-5.9,0-12.5,2.2-12.5,12.3
						V349c0,10.2-11.2,11.7-19.2,11.4c-0.5,0-1-0.4-1-0.7l0,0c0-0.4,0.5-0.7,1-0.7c5.8,0,12.4-2.2,12.4-11.9v-17.8
						c0-7.1,5.2-10,10.9-11.1c-5.9-1.2-10.9-4-10.9-11.2v-17.8c0-9.3-6.6-11.8-12.4-11.9c-0.5,0-1-0.4-1-0.7l0,0
						c0-0.4,0.4-0.7,1-0.7c7.9-0.2,19.2,1.3,19.2,11.4v20c0,7.9,6,10.1,11.4,10.1C275.7,317.5,274.6,318.9,274,318.9z"/>
				</g>
				<g>
					
						<linearGradient id="SVGID_00000096059240431927188970000000933688877762330303_" gradientUnits="userSpaceOnUse" x1="3824.7144" y1="310.8554" x2="3858.0378" y2="310.8554" gradientTransform="matrix(-1 0 0 -1 4007.647 629.1)">
						<stop  offset="8.311352e-07" style="stop-color:#0039AD"/>
						<stop  offset="1" style="stop-color:#00BFFF"/>
					</linearGradient>
					<path style="fill:url(#SVGID_00000096059240431927188970000000933688877762330303_);" d="M151.3,317.5
						c5.4,0,11.4-2.2,11.4-10.1v-20c0-10.2,11.3-11.7,19.2-11.4c0.5,0,1,0.4,1,0.7l0,0c0,0.4-0.4,0.7-1,0.7
						c-5.8,0.1-12.4,2.5-12.4,11.9v17.8c0,7.2-5.2,10-10.9,11.2c5.9,1.1,10.9,4,10.9,11.1v17.8c0,9.7,6.6,11.8,12.4,11.9
						c0.5,0,1,0.4,1,0.7l0,0c0,0.4-0.4,0.7-1,0.7c-7.9,0.2-19.2-1.3-19.2-11.4v-17.8c0-10.1-6.5-12.3-12.5-12.3
						C149.8,318.9,148.7,317.5,151.3,317.5z"/>
				</g>
			</g>
			<g>
				
					<linearGradient id="SVGID_00000152242004455256870200000004541008881812369843_" gradientUnits="userSpaceOnUse" x1="181.6651" y1="310.9149" x2="199.2132" y2="310.9149" gradientTransform="matrix(1 0 0 -1 0 629.1)">
					<stop  offset="8.311352e-07" style="stop-color:#0039AD"/>
					<stop  offset="1" style="stop-color:#00BFFF"/>
				</linearGradient>
				<circle style="fill:url(#SVGID_00000152242004455256870200000004541008881812369843_);" cx="190.5" cy="318.2" r="8.8"/>
				
					<linearGradient id="SVGID_00000154412355139164620440000017213722274244311960_" gradientUnits="userSpaceOnUse" x1="203.391" y1="310.9149" x2="220.9566" y2="310.9149" gradientTransform="matrix(1 0 0 -1 0 629.1)">
					<stop  offset="8.311352e-07" style="stop-color:#0039AD"/>
					<stop  offset="1" style="stop-color:#00BFFF"/>
				</linearGradient>
				<circle style="fill:url(#SVGID_00000154412355139164620440000017213722274244311960_);" cx="212.1" cy="318.2" r="8.8"/>
				
					<linearGradient id="SVGID_00000141453637227038266150000011024675349589065345_" gradientUnits="userSpaceOnUse" x1="225.1202" y1="310.9149" x2="242.6858" y2="310.9149" gradientTransform="matrix(1 0 0 -1 0 629.1)">
					<stop  offset="8.311352e-07" style="stop-color:#0039AD"/>
					<stop  offset="1" style="stop-color:#00BFFF"/>
				</linearGradient>
				<circle style="fill:url(#SVGID_00000141453637227038266150000011024675349589065345_);" cx="233.9" cy="318.2" r="8.8"/>
			</g>
		</g>
	</g>
	<g>
		<g>
			
				<linearGradient id="SVGID_00000093898765037876521790000003148869612921310603_" gradientUnits="userSpaceOnUse" x1="426.3221" y1="367.3452" x2="547.1154" y2="367.3452" gradientTransform="matrix(1 0 0 -1 0 629.1)">
				<stop  offset="8.311352e-07" style="stop-color:#0039AD"/>
				<stop  offset="1" style="stop-color:#00BFFF"/>
			</linearGradient>
			<path style="fill:url(#SVGID_00000093898765037876521790000003148869612921310603_);" d="M473.8,317.5l-4,20.2h-43.5l30-131.4
				l-4.8-20.4h62.9l32.7,151.7H504l-4-20.2h-26.2V317.5z M477.9,285.1h17.7l-8.8-54.6L477.9,285.1z"/>
			
				<linearGradient id="SVGID_00000036953504740756498650000004466194958552608142_" gradientUnits="userSpaceOnUse" x1="556.4904" y1="370.1096" x2="652.9954" y2="370.1096" gradientTransform="matrix(1 0 0 -1 0 629.1)">
				<stop  offset="8.311352e-07" style="stop-color:#0039AD"/>
				<stop  offset="1" style="stop-color:#00BFFF"/>
			</linearGradient>
			<path style="fill:url(#SVGID_00000036953504740756498650000004466194958552608142_);" d="M594,270l20-52.2h38.9l-23.6,58.5
				l23.6,61.3h-39.8l-19.2-53.7v53.7h-37.4V185.4l37.5-5V270z"/>
			
				<linearGradient id="SVGID_00000115483258750830371310000013890596836291785374_" gradientUnits="userSpaceOnUse" x1="662.0192" y1="370.1096" x2="701.6218" y2="370.1096" gradientTransform="matrix(1 0 0 -1 0 629.1)">
				<stop  offset="8.311352e-07" style="stop-color:#0039AD"/>
				<stop  offset="1" style="stop-color:#00BFFF"/>
			</linearGradient>
			<path style="fill:url(#SVGID_00000115483258750830371310000013890596836291785374_);" d="M662,180.3h39.5v28.4H662V180.3z
				 M663,217.8h37.5v119.8H663V217.8z"/>
			
				<linearGradient id="SVGID_00000026158892823490504830000001687225779499889795_" gradientUnits="userSpaceOnUse" x1="717.1875" y1="352.2813" x2="786.7788" y2="352.2813" gradientTransform="matrix(1 0 0 -1 0 629.1)">
				<stop  offset="8.311352e-07" style="stop-color:#0039AD"/>
				<stop  offset="1" style="stop-color:#00BFFF"/>
			</linearGradient>
			<path style="fill:url(#SVGID_00000026158892823490504830000001687225779499889795_);" d="M717.2,337.7V217.8H749l4.2,16.7h0.4
				c2.2-7,6.1-12,11.8-15.3c5.6-3.2,12.7-4.1,21.4-2.5v35.5c-5.4,0-11.1,0.4-16.8,1.1c-5.8,0.7-10.8,1.7-15.3,2.9v81.5L717.2,337.7
				L717.2,337.7z"/>
			
				<linearGradient id="SVGID_00000098203589793578479100000013507250650226938787_" gradientUnits="userSpaceOnUse" x1="787.8605" y1="351.1192" x2="879.5673" y2="351.1192" gradientTransform="matrix(1 0 0 -1 0 629.1)">
				<stop  offset="8.311352e-07" style="stop-color:#0039AD"/>
				<stop  offset="1" style="stop-color:#00BFFF"/>
			</linearGradient>
			<path style="fill:url(#SVGID_00000098203589793578479100000013507250650226938787_);" d="M820,339.8c-5.5,0-10.8-1.4-15.6-4.3
				s-8.8-7-11.9-12.4c-3-5.4-4.6-11.9-4.6-19.6c0-11.9,4.2-21,12.6-27c8.4-6.1,19.2-9.1,32.6-9.1h9v-11.4c0-4.1-1.4-6.7-4.2-8.2
				c-2.8-1.4-6.4-2.2-10.6-2.2c-5.3,0-10.3,0.5-15.3,1.4c-4.8,1-9.7,2.4-14.5,4.2v-29.4c6.2-1.4,12.7-2.6,19.5-3.8
				c6.7-1.2,13.5-1.8,20.3-1.8c7.7,0,14.7,1,21,2.8c6.4,1.9,11.5,5.3,15.4,10.1c3.8,4.8,5.9,11.8,5.9,20.8v87.7H847l-2.5-9
				c-3.5,3.7-7.3,6.5-11.7,8.3C828.6,338.9,824.3,339.8,820,339.8z M834.6,312.3c2.8,0,5.3-1.2,7.5-3.7v-20.7h-2.8
				c-4.2,0-7.7,1-10.6,3c-2.9,2-4.3,5-4.3,9c0,3.8,1.1,7,3.1,9C829.6,311.2,832,312.3,834.6,312.3z"/>
			
				<linearGradient id="SVGID_00000121963040799169478340000012606917667293488514_" gradientUnits="userSpaceOnUse" x1="948.3173" y1="366.3837" x2="1050.4807" y2="366.3837" gradientTransform="matrix(1 0 0 -1 0 629.1)">
				<stop  offset="8.311352e-07" style="stop-color:#0039AD"/>
				<stop  offset="1" style="stop-color:#00BFFF"/>
			</linearGradient>
			<path style="fill:url(#SVGID_00000121963040799169478340000012606917667293488514_);" d="M948.3,337.7v-150h40.6v57.7h20.8v-57.7
				h40.7v150.1h-40.6v-59h-20.8v59h-40.7V337.7z"/>
			
				<linearGradient id="SVGID_00000029758520871557727990000009754791793853317822_" gradientUnits="userSpaceOnUse" x1="1062.0193" y1="363.3788" x2="1137.8893" y2="363.3788" gradientTransform="matrix(1 0 0 -1 0 629.1)">
				<stop  offset="8.311352e-07" style="stop-color:#0039AD"/>
				<stop  offset="1" style="stop-color:#00BFFF"/>
			</linearGradient>
			<path style="fill:url(#SVGID_00000029758520871557727990000009754791793853317822_);" d="M1115.1,217.8h22.7v28.1h-22.7v51.9
				c0,3.8,1,6.7,3,8.5c2,1.8,5.3,2.8,9.7,2.8c2.2,0,4.2-0.1,5.9-0.4c1.7-0.2,3-0.5,4.2-0.7v27.8c-3.4,1.1-6.9,2-10.6,2.8
				s-7.5,1.2-11.2,1.2c-12.7,0-22.4-2.8-28.8-8.3c-6.5-5.5-9.7-15.3-9.7-29.4v-56.1H1062v-28.1h15.6v-26.2h37.5L1115.1,217.8
				L1115.1,217.8z"/>
		</g>
		<g>
			
				<linearGradient id="SVGID_00000005987906142424560360000014802973569206277774_" gradientUnits="userSpaceOnUse" x1="426.2502" y1="215.7827" x2="454.856" y2="215.7827" gradientTransform="matrix(1 0 0 -1 0 629.1)">
				<stop  offset="8.311352e-07" style="stop-color:#0039AD"/>
				<stop  offset="1" style="stop-color:#00BFFF"/>
			</linearGradient>
			<path style="fill:url(#SVGID_00000005987906142424560360000014802973569206277774_);" d="M431.5,392.5v18.1h15.7v5.4h-15.7v23.4
				h-5.3v-52.3h28.6v5.4h-23.3V392.5z"/>
			
				<linearGradient id="SVGID_00000100372086528471862500000015931138290223747981_" gradientUnits="userSpaceOnUse" x1="458.0529" y1="209.5928" x2="481.416" y2="209.5928" gradientTransform="matrix(1 0 0 -1 0 629.1)">
				<stop  offset="8.311352e-07" style="stop-color:#0039AD"/>
				<stop  offset="1" style="stop-color:#00BFFF"/>
			</linearGradient>
			<path style="fill:url(#SVGID_00000100372086528471862500000015931138290223747981_);" d="M472.5,405.1c-2.5,0-4.6,0.8-6.4,2.6
				s-2.6,4-2.6,6.4v25.2h-5.4v-25.2c0-2.9,0.7-5.4,2.3-7.7c1.4-2.3,3.5-4.1,5.9-5.3l0.1-0.1c1.9-0.8,4-1.3,6.1-1.3
				c3.4,0,6.4,1.1,9,3.1l-5.4,3.1C474.9,405.3,473.7,405.1,472.5,405.1z"/>
			
				<linearGradient id="SVGID_00000113351229360166289610000009739634171231690639_" gradientUnits="userSpaceOnUse" x1="480.6066" y1="209.4075" x2="520.567" y2="209.4075" gradientTransform="matrix(1 0 0 -1 0 629.1)">
				<stop  offset="8.311352e-07" style="stop-color:#0039AD"/>
				<stop  offset="1" style="stop-color:#00BFFF"/>
			</linearGradient>
			<path style="fill:url(#SVGID_00000113351229360166289610000009739634171231690639_);" d="M490.5,437.1c-3.1-1.8-5.5-4.2-7.3-7.3
				c-1.8-3.1-2.6-6.4-2.6-10s0.8-7,2.6-10c1.8-3.1,4.2-5.5,7.3-7.3c3.1-1.8,6.4-2.8,10-2.8s7,1,10,2.8c3.1,1.8,5.5,4.2,7.3,7.3
				c1.8,3.1,2.8,6.4,2.8,10s-1,6.9-2.8,10c-1.8,3.1-4.2,5.5-7.3,7.3c-3.1,1.8-6.4,2.6-10,2.6C497,439.8,493.6,438.9,490.5,437.1z
				 M507.8,432.5c2.3-1.3,4-3.1,5.3-5.4c1.3-2.3,1.9-4.7,1.9-7.3c0-2.6-0.6-5.2-1.9-7.5c-1.3-2.3-3.1-4.1-5.3-5.4
				c-2.3-1.3-4.7-1.9-7.3-1.9c-2.6,0-5,0.6-7.3,1.9c-2.3,1.3-4,3.1-5.3,5.4c-1.3,2.3-1.9,4.7-1.9,7.5c0,2.6,0.6,5,1.9,7.3
				c1.3,2.3,3.1,4.1,5.3,5.4c2.3,1.3,4.7,1.9,7.3,1.9C503.1,434.5,505.6,433.8,507.8,432.5z"/>
			
				<linearGradient id="SVGID_00000145023621056731529030000006900069586737719997_" gradientUnits="userSpaceOnUse" x1="527.6442" y1="209.4125" x2="558.8942" y2="209.4125" gradientTransform="matrix(1 0 0 -1 0 629.1)">
				<stop  offset="8.311352e-07" style="stop-color:#0039AD"/>
				<stop  offset="1" style="stop-color:#00BFFF"/>
			</linearGradient>
			<path style="fill:url(#SVGID_00000145023621056731529030000006900069586737719997_);" d="M551.1,402.1c2.4,1.4,4.3,3.2,5.6,5.6
				c1.4,2.4,2.2,5,2.2,7.8v23.8h-5.4v-23.8c0-1.8-0.5-3.5-1.3-5c-1-1.6-2.2-2.8-3.7-3.7s-3.2-1.3-5.2-1.3c-1.8,0-3.5,0.5-5.2,1.3
				c-1.6,1-2.8,2.2-3.7,3.7c-1,1.6-1.3,3.2-1.3,5v23.8h-5.4V401h5.4v3.5c1.3-1.4,2.9-2.5,4.6-3.4c1.8-0.7,3.6-1.1,5.6-1.1
				C546,400,548.7,400.8,551.1,402.1z"/>
			
				<linearGradient id="SVGID_00000031202708960297175830000002281083710624455555_" gradientUnits="userSpaceOnUse" x1="565.169" y1="215.8428" x2="583.6543" y2="215.8428" gradientTransform="matrix(1 0 0 -1 0 629.1)">
				<stop  offset="8.311352e-07" style="stop-color:#0039AD"/>
				<stop  offset="1" style="stop-color:#00BFFF"/>
			</linearGradient>
			<path style="fill:url(#SVGID_00000031202708960297175830000002281083710624455555_);" d="M583.7,405.4h-6.5v34h-5.4v-34h-6.5V400
				h6.5v-13h5.4v13h6.5V405.4z"/>
			
				<linearGradient id="SVGID_00000160166891147324568590000000343901223787058611_" gradientUnits="userSpaceOnUse" x1="589.9464" y1="211.8163" x2="617.6354" y2="211.8163" gradientTransform="matrix(1 0 0 -1 0 629.1)">
				<stop  offset="8.311352e-07" style="stop-color:#0039AD"/>
				<stop  offset="1" style="stop-color:#00BFFF"/>
			</linearGradient>
			<path style="fill:url(#SVGID_00000160166891147324568590000000343901223787058611_);" d="M589.9,420v-5.4h27.6v5.4H589.9z"/>
			
				<linearGradient id="SVGID_00000102529071164229990310000010258027823353505717_" gradientUnits="userSpaceOnUse" x1="623.9279" y1="208.9317" x2="663.5735" y2="208.9317" gradientTransform="matrix(1 0 0 -1 0 629.1)">
				<stop  offset="8.311352e-07" style="stop-color:#0039AD"/>
				<stop  offset="1" style="stop-color:#00BFFF"/>
			</linearGradient>
			<path style="fill:url(#SVGID_00000102529071164229990310000010258027823353505717_);" d="M629.6,422.6c0.6,3.4,2.3,6.1,4.9,8.4
				c2.6,2.3,5.8,3.4,9.3,3.4c2.5,0,4.9-0.6,7.1-1.8c2.2-1.2,3.8-2.9,5.2-4.9l4.7,2.6c-1.8,2.9-4.2,5.2-7.2,7c-3,1.7-6.3,2.6-9.7,2.6
				c-3.6,0-6.9-0.8-9.9-2.6c-3-1.8-5.4-4.2-7.2-7.2c-1.8-3-2.6-6.4-2.6-9.9c0-3.6,0.8-7,2.6-10c1.8-3,4.2-5.4,7.2-7.2
				c3-1.8,6.4-2.6,9.9-2.6c3.6,0,6.9,0.8,9.9,2.6c3,1.8,5.4,4.2,7.2,7.2c1.8,3,2.6,6.4,2.6,10c0,0.6,0,1.6-0.1,2.6h-33.8V422.6z
				 M637,407.1c-2.2,1.1-4,2.5-5.4,4.4c-1.3,1.8-2,3.8-2,6h28.4c0-2.2-0.7-4.2-2-6c-1.3-1.8-3.1-3.4-5.3-4.4
				c-2.2-1.1-4.4-1.6-6.9-1.6C641.5,405.4,639.2,406,637,407.1z"/>
			
				<linearGradient id="SVGID_00000021107673540542633000000006633396097261624239_" gradientUnits="userSpaceOnUse" x1="670.673" y1="209.4125" x2="701.923" y2="209.4125" gradientTransform="matrix(1 0 0 -1 0 629.1)">
				<stop  offset="8.311352e-07" style="stop-color:#0039AD"/>
				<stop  offset="1" style="stop-color:#00BFFF"/>
			</linearGradient>
			<path style="fill:url(#SVGID_00000021107673540542633000000006633396097261624239_);" d="M694.1,402.1c2.4,1.4,4.3,3.2,5.6,5.6
				c1.4,2.4,2.2,5,2.2,7.8v23.8h-5.4v-23.8c0-1.8-0.5-3.5-1.3-5c-1-1.6-2.2-2.8-3.7-3.7c-1.6-1-3.2-1.3-5.2-1.3
				c-1.8,0-3.5,0.5-5.2,1.3c-1.6,1-2.8,2.2-3.7,3.7c-1,1.6-1.3,3.2-1.3,5v23.8h-5.4V401h5.4v3.5c1.3-1.4,2.9-2.5,4.6-3.4
				c1.8-0.7,3.6-1.1,5.6-1.1C689.1,400,691.7,400.8,694.1,402.1z"/>
			
				<linearGradient id="SVGID_00000055698182174890134950000013688461488278070409_" gradientUnits="userSpaceOnUse" x1="708.1758" y1="215.7827" x2="748.0574" y2="215.7827" gradientTransform="matrix(1 0 0 -1 0 629.1)">
				<stop  offset="8.311352e-07" style="stop-color:#0039AD"/>
				<stop  offset="1" style="stop-color:#00BFFF"/>
			</linearGradient>
			<path style="fill:url(#SVGID_00000055698182174890134950000013688461488278070409_);" d="M748.1,439.3h-5.3V432
				c-3.8,5.2-8.8,7.7-14.7,7.7c-3.6,0-7-0.8-10-2.6c-3-1.8-5.4-4.2-7.2-7.3c-1.8-3.1-2.6-6.4-2.6-10s0.8-6.9,2.6-10
				c1.8-3.1,4.2-5.5,7.2-7.3c3-1.8,6.4-2.6,10-2.6c6.1,0,11.1,2.4,14.7,7.3v-20.2h5.3V439.3z M740.6,412.7c-1.3-2.2-3.1-4-5.3-5.3
				c-2.3-1.3-4.7-1.9-7.3-1.9c-2.6,0-5,0.6-7.2,1.9s-4,3.1-5.3,5.3c-1.3,2.2-1.9,4.6-1.9,7.2s0.6,5,1.9,7.3c1.3,2.3,3.1,4,5.3,5.3
				c2.2,1.3,4.6,1.9,7.2,1.9c2.6,0,5-0.6,7.3-1.9c2.3-1.3,4-3.1,5.3-5.3c1.3-2.3,1.9-4.7,1.9-7.3
				C742.7,417.2,741.9,414.8,740.6,412.7z"/>
			
				<linearGradient id="SVGID_00000129182286141421568990000007857705304048445580_" gradientUnits="userSpaceOnUse" x1="791.3462" y1="215.963" x2="830.7564" y2="215.963" gradientTransform="matrix(1 0 0 -1 0 629.1)">
				<stop  offset="8.311352e-07" style="stop-color:#0039AD"/>
				<stop  offset="1" style="stop-color:#00BFFF"/>
			</linearGradient>
			<path style="fill:url(#SVGID_00000129182286141421568990000007857705304048445580_);" d="M791.3,439.3v-52.4h13.2
				c4.8,0,9.1,1.2,13.1,3.5c4,2.4,7.2,5.5,9.5,9.5c2.4,4,3.5,8.4,3.5,13.1c0,4.8-1.2,9.1-3.5,13.1c-2.4,4-5.5,7.2-9.5,9.5
				c-4,2.4-8.4,3.5-13.1,3.5h-13.2V439.3z M804.6,434.1c3.7,0,7.2-1,10.5-2.8c3.2-1.8,5.8-4.4,7.6-7.6c1.8-3.2,2.8-6.7,2.8-10.5
				c0-3.7-1-7.2-2.8-10.5c-1.8-3.2-4.4-5.8-7.6-7.6c-3.2-1.8-6.7-2.8-10.5-2.8h-7.8v41.7h7.8V434.1z"/>
			
				<linearGradient id="SVGID_00000183211247541217411580000014904322639885899450_" gradientUnits="userSpaceOnUse" x1="835.4501" y1="208.9317" x2="875.0958" y2="208.9317" gradientTransform="matrix(1 0 0 -1 0 629.1)">
				<stop  offset="8.311352e-07" style="stop-color:#0039AD"/>
				<stop  offset="1" style="stop-color:#00BFFF"/>
			</linearGradient>
			<path style="fill:url(#SVGID_00000183211247541217411580000014904322639885899450_);" d="M841.1,422.6c0.6,3.4,2.3,6.1,4.9,8.4
				c2.6,2.3,5.8,3.4,9.3,3.4c2.5,0,4.9-0.6,7.1-1.8c2.2-1.2,3.8-2.9,5.2-4.9l4.7,2.6c-1.8,2.9-4.2,5.2-7.2,7c-3,1.7-6.2,2.6-9.7,2.6
				c-3.6,0-6.9-0.8-9.9-2.6c-3-1.8-5.4-4.2-7.2-7.2c-1.8-3-2.6-6.4-2.6-9.9c0-3.6,0.8-7,2.6-10c1.8-3,4.2-5.4,7.2-7.2
				c3-1.8,6.4-2.6,9.9-2.6c3.6,0,6.9,0.8,9.9,2.6c3,1.8,5.4,4.2,7.2,7.2c1.8,3,2.6,6.4,2.6,10c0,0.6,0,1.6-0.1,2.6h-33.8V422.6z
				 M848.6,407.1c-2.2,1.1-4,2.5-5.4,4.4c-1.3,1.8-2,3.8-2,6h28.4c0-2.2-0.7-4.2-2-6c-1.3-1.8-3.1-3.4-5.3-4.4
				c-2.2-1.1-4.4-1.6-6.9-1.6C853,405.4,850.7,406,848.6,407.1z"/>
			
				<linearGradient id="SVGID_00000036933151748207239710000005738546256033255298_" gradientUnits="userSpaceOnUse" x1="877.4571" y1="209.3524" x2="914.1923" y2="209.3524" gradientTransform="matrix(1 0 0 -1 0 629.1)">
				<stop  offset="8.311352e-07" style="stop-color:#0039AD"/>
				<stop  offset="1" style="stop-color:#00BFFF"/>
			</linearGradient>
			<path style="fill:url(#SVGID_00000036933151748207239710000005738546256033255298_);" d="M914.2,400.2l-15.5,39.2h-5.8
				l-15.5-39.2h5.8l12.6,31.7l12.6-31.7L914.2,400.2L914.2,400.2z"/>
			
				<linearGradient id="SVGID_00000097465864007360445400000006083540023974660791_" gradientUnits="userSpaceOnUse" x1="915.7658" y1="208.9317" x2="955.4115" y2="208.9317" gradientTransform="matrix(1 0 0 -1 0 629.1)">
				<stop  offset="8.311352e-07" style="stop-color:#0039AD"/>
				<stop  offset="1" style="stop-color:#00BFFF"/>
			</linearGradient>
			<path style="fill:url(#SVGID_00000097465864007360445400000006083540023974660791_);" d="M921.4,422.6c0.6,3.4,2.3,6.1,4.9,8.4
				c2.6,2.3,5.8,3.4,9.3,3.4c2.5,0,4.9-0.6,7.1-1.8c2.2-1.2,3.8-2.9,5.2-4.9l4.7,2.6c-1.8,2.9-4.2,5.2-7.2,7c-3,1.7-6.3,2.6-9.7,2.6
				c-3.6,0-6.9-0.8-9.9-2.6s-5.4-4.2-7.2-7.2c-1.8-3-2.6-6.4-2.6-9.9c0-3.6,0.8-7,2.6-10c1.8-3,4.2-5.4,7.2-7.2s6.4-2.6,9.9-2.6
				c3.6,0,6.9,0.8,9.9,2.6c3,1.8,5.4,4.2,7.2,7.2c1.8,3,2.6,6.4,2.6,10c0,0.6,0,1.6-0.1,2.6h-33.8V422.6z M928.8,407.1
				c-2.2,1.1-4,2.5-5.4,4.4c-1.3,1.8-2,3.8-2,6h28.4c0-2.2-0.7-4.2-2-6c-1.3-1.8-3.1-3.4-5.3-4.4c-2.2-1.1-4.4-1.6-6.9-1.6
				C933.3,405.4,931,406,928.8,407.1z"/>
			
				<linearGradient id="SVGID_00000054265418617369736230000014235319140262899627_" gradientUnits="userSpaceOnUse" x1="962.4912" y1="215.9029" x2="967.8404" y2="215.9029" gradientTransform="matrix(1 0 0 -1 0 629.1)">
				<stop  offset="8.311352e-07" style="stop-color:#0039AD"/>
				<stop  offset="1" style="stop-color:#00BFFF"/>
			</linearGradient>
			<path style="fill:url(#SVGID_00000054265418617369736230000014235319140262899627_);" d="M967.8,387.1v52.3h-5.4v-52.3H967.8z"/>
			
				<linearGradient id="SVGID_00000035494230980658692420000000890417649298040209_" gradientUnits="userSpaceOnUse" x1="974.92" y1="209.4075" x2="1014.8806" y2="209.4075" gradientTransform="matrix(1 0 0 -1 0 629.1)">
				<stop  offset="8.311352e-07" style="stop-color:#0039AD"/>
				<stop  offset="1" style="stop-color:#00BFFF"/>
			</linearGradient>
			<path style="fill:url(#SVGID_00000035494230980658692420000000890417649298040209_);" d="M984.9,437.1c-3.1-1.8-5.5-4.2-7.3-7.3
				c-1.8-3.1-2.6-6.4-2.6-10s0.8-7,2.6-10c1.8-3.1,4.2-5.5,7.3-7.3s6.4-2.8,10-2.8s7,1,10,2.8c3.1,1.8,5.5,4.2,7.3,7.3
				c1.8,3.1,2.8,6.4,2.8,10s-1,6.9-2.8,10c-1.8,3.1-4.2,5.5-7.3,7.3c-3.1,1.8-6.4,2.6-10,2.6C991.2,439.8,988,438.9,984.9,437.1z
				 M1002.2,432.5c2.3-1.3,4-3.1,5.3-5.4c1.3-2.3,1.9-4.7,1.9-7.3c0-2.6-0.6-5.2-1.9-7.5s-3.1-4.1-5.3-5.4c-2.3-1.3-4.7-1.9-7.3-1.9
				c-2.6,0-5,0.6-7.3,1.9c-2.3,1.3-4,3.1-5.3,5.4c-1.3,2.3-1.9,4.7-1.9,7.5c0,2.6,0.6,5,1.9,7.3c1.3,2.3,3.1,4.1,5.3,5.4
				c2.3,1.3,4.7,1.9,7.3,1.9C997.5,434.5,1000,433.8,1002.2,432.5z"/>
			
				<linearGradient id="SVGID_00000071554139150406866090000000672051802757257625_" gradientUnits="userSpaceOnUse" x1="1021.9952" y1="201.0592" x2="1061.7196" y2="201.0592" gradientTransform="matrix(1 0 0 -1 0 629.1)">
				<stop  offset="8.311352e-07" style="stop-color:#0039AD"/>
				<stop  offset="1" style="stop-color:#00BFFF"/>
			</linearGradient>
			<path style="fill:url(#SVGID_00000071554139150406866090000000672051802757257625_);" d="M1022,456.2v-55h5.4v6.5
				c1.8-2.5,4-4.4,6.5-5.8c2.5-1.3,5.2-1.9,8.1-1.9c3.6,0,6.9,0.8,9.9,2.6c3,1.8,5.4,4.2,7.2,7.2c1.8,3,2.6,6.4,2.6,9.9
				c0,3.6-0.8,6.9-2.6,9.9c-1.8,3-4.2,5.4-7.2,7.2c-3,1.8-6.4,2.6-9.9,2.6c-3.7,0-6.9-0.7-9.3-2.3c-2.4-1.6-4.2-3.2-5.4-5v23.9h-5.3
				V456.2z M1034.6,407.2c-2.2,1.3-4,3-5.3,5.3c-1.3,2.2-1.9,4.6-1.9,7.2s0.6,5,1.9,7.2c1.3,2.2,3.1,4,5.3,5.3
				c2.2,1.3,4.6,1.9,7.2,1.9c2.6,0,5-0.6,7.2-1.9s4-3.1,5.3-5.3s1.9-4.6,1.9-7.2s-0.6-5-1.9-7.2c-1.3-2.2-3-4-5.3-5.3
				c-2.2-1.3-4.6-1.9-7.2-1.9C1039.2,405.3,1036.8,405.9,1034.6,407.2z"/>
			
				<linearGradient id="SVGID_00000066478766735917611780000015911305601903955351_" gradientUnits="userSpaceOnUse" x1="1067.9766" y1="208.9317" x2="1107.6221" y2="208.9317" gradientTransform="matrix(1 0 0 -1 0 629.1)">
				<stop  offset="8.311352e-07" style="stop-color:#0039AD"/>
				<stop  offset="1" style="stop-color:#00BFFF"/>
			</linearGradient>
			<path style="fill:url(#SVGID_00000066478766735917611780000015911305601903955351_);" d="M1073.7,422.6c0.6,3.4,2.3,6.1,4.9,8.4
				c2.6,2.3,5.8,3.4,9.3,3.4c2.5,0,4.9-0.6,7.1-1.8c2.2-1.2,3.8-2.9,5.2-4.9l4.7,2.6c-1.8,2.9-4.2,5.2-7.2,7c-3,1.7-6.3,2.6-9.7,2.6
				c-3.6,0-6.9-0.8-9.9-2.6c-3-1.8-5.4-4.2-7.2-7.2c-1.8-3-2.6-6.4-2.6-9.9c0-3.6,0.8-7,2.6-10c1.8-3,4.2-5.4,7.2-7.2
				c3-1.8,6.4-2.6,9.9-2.6c3.6,0,6.9,0.8,9.9,2.6c3,1.8,5.4,4.2,7.2,7.2c1.8,3,2.6,6.4,2.6,10c0,0.6,0,1.6-0.1,2.6h-33.8V422.6z
				 M1081,407.1c-2.2,1.1-4,2.5-5.4,4.4c-1.3,1.8-2,3.8-2,6h28.4c0-2.2-0.7-4.2-2-6s-3.1-3.4-5.3-4.4s-4.4-1.6-6.9-1.6
				C1085.5,405.4,1083.3,406,1081,407.1z"/>
			
				<linearGradient id="SVGID_00000140716051446509762250000002803437886700429701_" gradientUnits="userSpaceOnUse" x1="1114.7018" y1="209.5928" x2="1138.0651" y2="209.5928" gradientTransform="matrix(1 0 0 -1 0 629.1)">
				<stop  offset="8.311352e-07" style="stop-color:#0039AD"/>
				<stop  offset="1" style="stop-color:#00BFFF"/>
			</linearGradient>
			<path style="fill:url(#SVGID_00000140716051446509762250000002803437886700429701_);" d="M1129.1,405.1c-2.5,0-4.6,0.8-6.4,2.6
				c-1.8,1.8-2.6,4-2.6,6.4v25.2h-5.4v-25.2c0-2.9,0.7-5.4,2.3-7.7c1.4-2.3,3.5-4.1,5.9-5.3l0.1-0.1c1.9-0.8,4-1.3,6.1-1.3
				c3.4,0,6.4,1.1,9,3.1l-5.4,3.1C1131.5,405.3,1130.3,405.1,1129.1,405.1z"/>
		</g>
	</g>
</g>
</svg>
