<?xml version="1.0" encoding="UTF-8"?>
<svg id="Layer_2" data-name="Layer 2" xmlns="http://www.w3.org/2000/svg" xmlns:xlink="http://www.w3.org/1999/xlink" viewBox="0 0 91.56 90.62">
  <defs>
    <style>
      .cls-1 {
        fill: url(#linear-gradient-38);
      }

      .cls-1, .cls-2, .cls-3, .cls-4, .cls-5, .cls-6, .cls-7, .cls-8, .cls-9, .cls-10, .cls-11, .cls-12, .cls-13, .cls-14, .cls-15, .cls-16, .cls-17, .cls-18, .cls-19, .cls-20, .cls-21, .cls-22, .cls-23, .cls-24, .cls-25, .cls-26, .cls-27, .cls-28, .cls-29, .cls-30, .cls-31, .cls-32, .cls-33, .cls-34, .cls-35, .cls-36, .cls-37, .cls-38, .cls-39, .cls-40, .cls-41, .cls-42, .cls-43, .cls-44, .cls-45, .cls-46, .cls-47, .cls-48, .cls-49, .cls-50, .cls-51, .cls-52, .cls-53, .cls-54, .cls-55, .cls-56, .cls-57, .cls-58, .cls-59, .cls-60, .cls-61, .cls-62, .cls-63, .cls-64, .cls-65, .cls-66, .cls-67, .cls-68, .cls-69, .cls-70, .cls-71, .cls-72, .cls-73, .cls-74, .cls-75, .cls-76, .cls-77, .cls-78, .cls-79, .cls-80, .cls-81, .cls-82, .cls-83, .cls-84, .cls-85, .cls-86, .cls-87, .cls-88, .cls-89, .cls-90, .cls-91, .cls-92, .cls-93, .cls-94, .cls-95, .cls-96 {
        stroke-width: 0px;
      }

      .cls-2 {
        fill: url(#linear-gradient-12);
      }

      .cls-3 {
        fill: url(#linear-gradient-17);
      }

      .cls-4 {
        fill: url(#linear-gradient-19);
      }

      .cls-5 {
        fill: url(#linear-gradient-33);
      }

      .cls-6 {
        fill: url(#linear-gradient);
      }

      .cls-7 {
        fill: url(#linear-gradient-62);
      }

      .cls-8 {
        fill: url(#linear-gradient-67);
      }

      .cls-9 {
        fill: url(#linear-gradient-57);
      }

      .cls-10 {
        fill: #7389d9;
      }

      .cls-11 {
        fill: #a2bfef;
      }

      .cls-97 {
        opacity: .31;
      }

      .cls-12 {
        fill: url(#linear-gradient-21);
      }

      .cls-13 {
        fill: #44b8ac;
      }

      .cls-14 {
        fill: url(#linear-gradient-6);
      }

      .cls-15, .cls-32, .cls-71 {
        fill: #120a30;
      }

      .cls-16 {
        fill: url(#linear-gradient-42);
      }

      .cls-17 {
        fill: #ffc69c;
      }

      .cls-18 {
        fill: url(#linear-gradient-15);
      }

      .cls-19 {
        fill: url(#linear-gradient-11);
      }

      .cls-20 {
        fill: #879ade;
      }

      .cls-21 {
        fill: url(#linear-gradient-5);
      }

      .cls-22 {
        fill: #99aff0;
      }

      .cls-23 {
        fill: none;
      }

      .cls-24 {
        fill: url(#linear-gradient-31);
      }

      .cls-25 {
        fill: url(#linear-gradient-71);
      }

      .cls-26 {
        fill: #d3e2f7;
      }

      .cls-27 {
        fill: url(#linear-gradient-58);
      }

      .cls-28 {
        fill: #fb3300;
      }

      .cls-29 {
        fill: url(#linear-gradient-63);
      }

      .cls-30 {
        fill: url(#linear-gradient-34);
      }

      .cls-31 {
        fill: url(#linear-gradient-41);
      }

      .cls-32, .cls-87, .cls-91 {
        fill-rule: evenodd;
      }

      .cls-33 {
        fill: url(#linear-gradient-40);
      }

      .cls-34 {
        fill: url(#linear-gradient-66);
      }

      .cls-35 {
        fill: url(#linear-gradient-13);
      }

      .cls-36 {
        fill: url(#linear-gradient-23);
      }

      .cls-37 {
        fill: url(#linear-gradient-25);
      }

      .cls-38 {
        fill: url(#linear-gradient-43);
      }

      .cls-39 {
        fill: url(#linear-gradient-16);
      }

      .cls-40 {
        fill: url(#linear-gradient-22);
      }

      .cls-41 {
        fill: url(#linear-gradient-54);
      }

      .cls-42 {
        fill: url(#linear-gradient-55);
      }

      .cls-43 {
        fill: #fff;
      }

      .cls-44 {
        fill: url(#linear-gradient-35);
      }

      .cls-45 {
        fill: url(#linear-gradient-50);
      }

      .cls-46 {
        fill: url(#linear-gradient-32);
      }

      .cls-47 {
        fill: url(#linear-gradient-60);
      }

      .cls-48 {
        fill: url(#linear-gradient-59);
      }

      .cls-49 {
        fill: url(#linear-gradient-20);
      }

      .cls-50 {
        fill: url(#linear-gradient-14);
      }

      .cls-51 {
        fill: url(#linear-gradient-2);
      }

      .cls-52 {
        fill: url(#linear-gradient-73);
      }

      .cls-52, .cls-93 {
        opacity: .06;
      }

      .cls-53 {
        fill: url(#linear-gradient-52);
      }

      .cls-54 {
        fill: #24b289;
      }

      .cls-55 {
        fill: url(#linear-gradient-45);
      }

      .cls-56 {
        fill: url(#linear-gradient-7);
      }

      .cls-57 {
        fill: url(#linear-gradient-39);
      }

      .cls-58 {
        fill: url(#linear-gradient-3);
      }

      .cls-59, .cls-91 {
        fill: #2a3463;
      }

      .cls-60 {
        fill: url(#linear-gradient-69);
      }

      .cls-98 {
        clip-path: url(#clippath);
      }

      .cls-61 {
        fill: url(#linear-gradient-9);
      }

      .cls-62 {
        fill: url(#linear-gradient-27);
      }

      .cls-63 {
        fill: #e7ebfa;
      }

      .cls-64 {
        fill: url(#linear-gradient-53);
      }

      .cls-65 {
        fill: url(#linear-gradient-65);
      }

      .cls-66 {
        fill: url(#linear-gradient-36);
      }

      .cls-67 {
        fill: url(#linear-gradient-48);
      }

      .cls-68 {
        fill: url(#linear-gradient-49);
      }

      .cls-69 {
        fill: url(#linear-gradient-8);
      }

      .cls-70 {
        fill: url(#linear-gradient-47);
      }

      .cls-71 {
        opacity: .25;
      }

      .cls-72 {
        fill: url(#linear-gradient-24);
      }

      .cls-73 {
        fill: url(#linear-gradient-26);
      }

      .cls-74 {
        fill: url(#linear-gradient-61);
      }

      .cls-75 {
        fill: #f7991d;
      }

      .cls-76 {
        fill: url(#linear-gradient-18);
      }

      .cls-77 {
        fill: #f6b735;
      }

      .cls-78, .cls-87 {
        fill: #085956;
      }

      .cls-79 {
        fill: url(#linear-gradient-51);
      }

      .cls-80 {
        fill: url(#linear-gradient-30);
      }

      .cls-81 {
        fill: url(#linear-gradient-44);
      }

      .cls-82 {
        fill: url(#linear-gradient-68);
      }

      .cls-83 {
        fill: url(#linear-gradient-72);
      }

      .cls-84 {
        fill: url(#linear-gradient-29);
      }

      .cls-85 {
        fill: url(#linear-gradient-46);
      }

      .cls-86 {
        fill: url(#linear-gradient-64);
      }

      .cls-88 {
        fill: url(#linear-gradient-28);
      }

      .cls-89 {
        fill: url(#linear-gradient-56);
      }

      .cls-90 {
        fill: url(#linear-gradient-10);
      }

      .cls-92 {
        fill: url(#linear-gradient-70);
      }

      .cls-93 {
        fill: url(#linear-gradient-74);
      }

      .cls-94 {
        fill: url(#linear-gradient-4);
      }

      .cls-95 {
        fill: #fad445;
      }

      .cls-96 {
        fill: url(#linear-gradient-37);
      }
    </style>
    <linearGradient id="linear-gradient" x1="-19.64" y1="28.53" x2="-18.3" y2="28.53" gradientTransform="translate(56.98)" gradientUnits="userSpaceOnUse">
      <stop offset="0" stop-color="#d3e2f7"/>
      <stop offset="1" stop-color="#a2bfef"/>
    </linearGradient>
    <linearGradient id="linear-gradient-2" x1="-18.55" y1="29.17" x2="-17.21" y2="29.17" xlink:href="#linear-gradient"/>
    <linearGradient id="linear-gradient-3" x1="-5.46" y1="36.78" x2="-4.12" y2="36.78" xlink:href="#linear-gradient"/>
    <linearGradient id="linear-gradient-4" x1="-20.56" y1="28.98" x2="-18.92" y2="28.98" xlink:href="#linear-gradient"/>
    <linearGradient id="linear-gradient-5" x1="-19.47" y1="29.61" x2="-17.83" y2="29.61" xlink:href="#linear-gradient"/>
    <linearGradient id="linear-gradient-6" x1="-8.56" y1="35.96" x2="-6.92" y2="35.96" xlink:href="#linear-gradient"/>
    <linearGradient id="linear-gradient-7" x1="-9.65" y1="35.32" x2="-8.01" y2="35.32" xlink:href="#linear-gradient"/>
    <linearGradient id="linear-gradient-8" x1="-10.74" y1="34.69" x2="-9.11" y2="34.69" xlink:href="#linear-gradient"/>
    <linearGradient id="linear-gradient-9" x1="-11.83" y1="34.06" x2="-10.2" y2="34.06" xlink:href="#linear-gradient"/>
    <linearGradient id="linear-gradient-10" x1="-12.93" y1="33.42" x2="-11.29" y2="33.42" xlink:href="#linear-gradient"/>
    <linearGradient id="linear-gradient-11" x1="-14.02" y1="32.79" x2="-12.38" y2="32.79" xlink:href="#linear-gradient"/>
    <linearGradient id="linear-gradient-12" x1="-15.11" y1="32.15" x2="-13.47" y2="32.15" xlink:href="#linear-gradient"/>
    <linearGradient id="linear-gradient-13" x1="-16.2" y1="31.52" x2="-14.56" y2="31.52" xlink:href="#linear-gradient"/>
    <linearGradient id="linear-gradient-14" x1="-17.29" y1="30.88" x2="-15.65" y2="30.88" xlink:href="#linear-gradient"/>
    <linearGradient id="linear-gradient-15" x1="-18.38" y1="30.25" x2="-16.74" y2="30.25" xlink:href="#linear-gradient"/>
    <linearGradient id="linear-gradient-16" x1="-7.47" y1="36.91" x2="-4.74" y2="36.91" xlink:href="#linear-gradient"/>
    <linearGradient id="linear-gradient-17" x1="-21.45" y1="29.65" x2="-19.28" y2="29.65" xlink:href="#linear-gradient"/>
    <linearGradient id="linear-gradient-18" x1="-7.26" y1="37.74" x2="-5.63" y2="37.74" xlink:href="#linear-gradient"/>
    <linearGradient id="linear-gradient-19" x1="-22.34" y1="30.24" x2="-19.93" y2="30.24" xlink:href="#linear-gradient"/>
    <linearGradient id="linear-gradient-20" x1="-11.11" y1="36.54" x2="-9.47" y2="36.54" xlink:href="#linear-gradient"/>
    <linearGradient id="linear-gradient-21" x1="-12.29" y1="35.87" x2="-10.65" y2="35.87" xlink:href="#linear-gradient"/>
    <linearGradient id="linear-gradient-22" x1="-13.47" y1="35.19" x2="-11.83" y2="35.19" xlink:href="#linear-gradient"/>
    <linearGradient id="linear-gradient-23" x1="-14.65" y1="34.51" x2="-13.01" y2="34.51" xlink:href="#linear-gradient"/>
    <linearGradient id="linear-gradient-24" x1="-15.83" y1="33.84" x2="-14.19" y2="33.84" xlink:href="#linear-gradient"/>
    <linearGradient id="linear-gradient-25" x1="-17.01" y1="33.16" x2="-15.38" y2="33.16" xlink:href="#linear-gradient"/>
    <linearGradient id="linear-gradient-26" x1="-18.19" y1="32.49" x2="-16.56" y2="32.49" xlink:href="#linear-gradient"/>
    <linearGradient id="linear-gradient-27" x1="-19.38" y1="31.81" x2="-17.74" y2="31.81" xlink:href="#linear-gradient"/>
    <linearGradient id="linear-gradient-28" x1="-20.56" y1="31.14" x2="-18.92" y2="31.14" xlink:href="#linear-gradient"/>
    <linearGradient id="linear-gradient-29" x1="-9.94" y1="37.22" x2="-8.3" y2="37.22" xlink:href="#linear-gradient"/>
    <linearGradient id="linear-gradient-30" x1="-8.87" y1="38.05" x2="-6.52" y2="38.05" xlink:href="#linear-gradient"/>
    <linearGradient id="linear-gradient-31" x1="-23.22" y1="30.85" x2="-20.49" y2="30.85" xlink:href="#linear-gradient"/>
    <linearGradient id="linear-gradient-32" x1="-21.04" y1="31.8" x2="-19.4" y2="31.8" xlink:href="#linear-gradient"/>
    <linearGradient id="linear-gradient-33" x1="-11.22" y1="37.51" x2="-9.59" y2="37.51" xlink:href="#linear-gradient"/>
    <linearGradient id="linear-gradient-34" x1="-12.31" y1="36.87" x2="-10.68" y2="36.87" xlink:href="#linear-gradient"/>
    <linearGradient id="linear-gradient-35" x1="-13.41" y1="36.24" x2="-11.77" y2="36.24" xlink:href="#linear-gradient"/>
    <linearGradient id="linear-gradient-36" x1="-14.5" y1="35.6" x2="-12.86" y2="35.6" xlink:href="#linear-gradient"/>
    <linearGradient id="linear-gradient-37" x1="-15.59" y1="34.97" x2="-13.95" y2="34.97" xlink:href="#linear-gradient"/>
    <linearGradient id="linear-gradient-38" x1="-16.68" y1="34.33" x2="-15.04" y2="34.33" xlink:href="#linear-gradient"/>
    <linearGradient id="linear-gradient-39" x1="-17.77" y1="33.7" x2="-16.13" y2="33.7" xlink:href="#linear-gradient"/>
    <linearGradient id="linear-gradient-40" x1="-18.86" y1="33.06" x2="-17.22" y2="33.06" xlink:href="#linear-gradient"/>
    <linearGradient id="linear-gradient-41" x1="-19.95" y1="32.42" x2="-18.31" y2="32.42" xlink:href="#linear-gradient"/>
    <linearGradient id="linear-gradient-42" x1="-10.05" y1="38.48" x2="-7.4" y2="38.48" xlink:href="#linear-gradient"/>
    <linearGradient id="linear-gradient-43" x1="-24.11" y1="31.04" x2="-22.47" y2="31.04" xlink:href="#linear-gradient"/>
    <linearGradient id="linear-gradient-44" x1="-23.02" y1="31.68" x2="-21.38" y2="31.68" xlink:href="#linear-gradient"/>
    <linearGradient id="linear-gradient-45" x1="-21.93" y1="32.31" x2="-20.29" y2="32.31" xlink:href="#linear-gradient"/>
    <linearGradient id="linear-gradient-46" x1="-20.86" y1="32.94" x2="-19.22" y2="32.94" xlink:href="#linear-gradient"/>
    <linearGradient id="linear-gradient-47" x1="-19.75" y1="35.48" x2="-11.56" y2="35.48" xlink:href="#linear-gradient"/>
    <linearGradient id="linear-gradient-48" x1="-12.11" y1="38.13" x2="-10.83" y2="38.13" xlink:href="#linear-gradient"/>
    <linearGradient id="linear-gradient-49" x1="-11.02" y1="38.66" x2="-9.38" y2="38.66" xlink:href="#linear-gradient"/>
    <linearGradient id="linear-gradient-50" x1="-9.93" y1="39.4" x2="-8.65" y2="39.4" xlink:href="#linear-gradient"/>
    <linearGradient id="linear-gradient-51" x1="-8.41" y1="37.08" x2="-6.78" y2="37.08" xlink:href="#linear-gradient"/>
    <linearGradient id="linear-gradient-52" x1="-9.56" y1="36.41" x2="-7.93" y2="36.41" xlink:href="#linear-gradient"/>
    <linearGradient id="linear-gradient-53" x1="-10.71" y1="35.74" x2="-9.08" y2="35.74" xlink:href="#linear-gradient"/>
    <linearGradient id="linear-gradient-54" x1="-11.86" y1="35.07" x2="-10.23" y2="35.07" xlink:href="#linear-gradient"/>
    <linearGradient id="linear-gradient-55" x1="-13.01" y1="34.4" x2="-11.38" y2="34.4" xlink:href="#linear-gradient"/>
    <linearGradient id="linear-gradient-56" x1="-14.16" y1="33.74" x2="-12.53" y2="33.74" xlink:href="#linear-gradient"/>
    <linearGradient id="linear-gradient-57" x1="-15.31" y1="33.07" x2="-13.68" y2="33.07" xlink:href="#linear-gradient"/>
    <linearGradient id="linear-gradient-58" x1="-16.46" y1="32.4" x2="-14.83" y2="32.4" xlink:href="#linear-gradient"/>
    <linearGradient id="linear-gradient-59" x1="-17.61" y1="31.73" x2="-15.98" y2="31.73" xlink:href="#linear-gradient"/>
    <linearGradient id="linear-gradient-60" x1="-18.76" y1="31.06" x2="-17.13" y2="31.06" xlink:href="#linear-gradient"/>
    <linearGradient id="linear-gradient-61" x1="-19.91" y1="30.39" x2="-18.28" y2="30.39" xlink:href="#linear-gradient"/>
    <linearGradient id="linear-gradient-62" x1="-6.55" y1="36.14" x2="-5.21" y2="36.14" xlink:href="#linear-gradient"/>
    <linearGradient id="linear-gradient-63" x1="-7.64" y1="35.51" x2="-6.3" y2="35.51" xlink:href="#linear-gradient"/>
    <linearGradient id="linear-gradient-64" x1="-8.73" y1="34.87" x2="-7.39" y2="34.87" xlink:href="#linear-gradient"/>
    <linearGradient id="linear-gradient-65" x1="-9.82" y1="34.24" x2="-8.48" y2="34.24" xlink:href="#linear-gradient"/>
    <linearGradient id="linear-gradient-66" x1="-10.91" y1="33.6" x2="-9.57" y2="33.6" xlink:href="#linear-gradient"/>
    <linearGradient id="linear-gradient-67" x1="-12" y1="32.97" x2="-10.66" y2="32.97" xlink:href="#linear-gradient"/>
    <linearGradient id="linear-gradient-68" x1="-13.09" y1="32.33" x2="-11.76" y2="32.33" xlink:href="#linear-gradient"/>
    <linearGradient id="linear-gradient-69" x1="-14.19" y1="31.7" x2="-12.85" y2="31.7" xlink:href="#linear-gradient"/>
    <linearGradient id="linear-gradient-70" x1="-15.28" y1="31.06" x2="-13.94" y2="31.06" xlink:href="#linear-gradient"/>
    <linearGradient id="linear-gradient-71" x1="-16.37" y1="30.43" x2="-15.03" y2="30.43" xlink:href="#linear-gradient"/>
    <linearGradient id="linear-gradient-72" x1="-17.46" y1="29.79" x2="-16.12" y2="29.79" xlink:href="#linear-gradient"/>
    <linearGradient id="linear-gradient-73" x1="-5.85" y1="12.28" x2="-4.72" y2="20.48" gradientTransform="translate(56.98)" gradientUnits="userSpaceOnUse">
      <stop offset="0" stop-color="#fff"/>
      <stop offset=".2" stop-color="#c6d4f1"/>
      <stop offset=".39" stop-color="#98b1e5"/>
      <stop offset=".56" stop-color="#7496dc"/>
      <stop offset=".73" stop-color="#5a82d6"/>
      <stop offset=".88" stop-color="#4a77d2"/>
      <stop offset="1" stop-color="#4573d1"/>
    </linearGradient>
    <linearGradient id="linear-gradient-74" x1="18.21" y1="26.22" x2="19.33" y2="34.42" xlink:href="#linear-gradient-73"/>
    <clipPath id="clippath">
      <polygon class="cls-23" points="61.12 58.95 40.19 46.71 52.2 31.61 26.08 11.15 16.67 10.25 0 73.04 35.2 90.62 61.12 58.95"/>
    </clipPath>
  </defs>
  <g id="Layer_1-2" data-name="Layer 1">
    <g>
      <g>
        <g>
          <polygon class="cls-10" points="62.64 87.31 59.92 85.68 59.92 58.04 62.64 59.67 62.64 87.31"/>
          <polygon class="cls-10" points="15.38 59.87 12.66 58.24 12.66 29.62 15.38 31.24 15.38 59.87"/>
          <polygon class="cls-20" points="15.38 59.87 45.95 42.92 31.47 22.34 15.38 31.24 15.38 59.87"/>
          <polygon class="cls-20" points="90.66 70.39 62.64 87.31 62.64 59.67 90.66 42.75 90.66 70.39"/>
          <g>
            <polygon class="cls-22" points="62.58 59.8 11.43 29.86 11.43 28.16 91.56 40.68 91.56 42.38 62.58 59.8"/>
            <polygon class="cls-22" points="62.58 58.11 11.43 28.16 40.8 10.25 91.56 40.68 62.58 58.11"/>
            <polygon class="cls-22" points="62.58 58.11 11.43 28.16 40.8 10.25 91.56 40.68 62.58 58.11"/>
          </g>
        </g>
        <g>
          <path class="cls-10" d="m32.55,31.85l14.98,8.71c.23.13.57.15.77.03l6.01-2.88c.2-.11.4-2.63.14-1.81l-16.28-6.79c-.23-.13-.57-.15-.77-.03l-4.91,1.91c-.2.11-.17.73.06.86Z"/>
          <g>
            <path class="cls-11" d="m32.55,31.43l14.98,8.71c.23.13.57.15.77.03,0,0,6.82-4.06,6.24-4.44l-15.07-8.55c-.23-.13-1.87.83-2.07.94l-4.91,2.85c-.2.11-.17.31.06.45Z"/>
            <polygon class="cls-20" points="38.22 29.11 37.34 28.6 37.81 28.33 38.68 28.84 38.22 29.11"/>
            <polygon class="cls-20" points="39.31 29.74 38.44 29.23 38.9 28.96 39.77 29.47 39.31 29.74"/>
            <polygon class="cls-20" points="37.3 29.64 36.42 29.13 37.18 28.69 38.06 29.2 37.3 29.64"/>
            <polygon class="cls-20" points="38.39 30.28 37.51 29.77 38.27 29.32 39.15 29.83 38.39 30.28"/>
            <polygon class="cls-20" points="52.24 37.45 51.48 37.89 49.51 36.74 49.51 36.56 52.24 37.26 52.24 37.45"/>
            <polygon class="cls-20" points="37.71 30.02 36.95 30.47 35.54 29.65 36.3 29.21 37.71 30.02"/>
            <polygon class="cls-20" points="36.3 31.12 34.65 30.16 35.41 29.72 37.06 30.68 36.3 31.12"/>
            <polygon class="cls-20" points="45.58 36.52 44.71 36.01 45.47 35.57 46.34 36.08 45.58 36.52"/>
            <polygon class="cls-20" points="50.47 38.48 49.71 38.92 48.12 38 48.88 37.55 50.47 38.48"/>
            <polygon class="cls-20" points="35.73 31.82 33.76 30.68 34.52 30.24 36.49 31.38 35.73 31.82"/>
            <polygon class="cls-20" points="36.82 32.46 35.94 31.95 36.7 31.51 37.58 32.02 36.82 32.46"/>
            <polygon class="cls-20" points="45.55 37.53 44.67 37.02 45.43 36.58 46.31 37.09 45.55 37.53"/>
            <polygon class="cls-20" points="48.82 39.44 46.93 38.34 46.93 38.15 49.58 38.81 49.58 38.99 48.82 39.44"/>
            <polygon class="cls-20" points="37.03 33.61 36.15 33.1 36.91 32.66 37.79 33.17 37.03 33.61"/>
            <polygon class="cls-20" points="45.42 37.61 44.66 38.05 37.24 33.73 37.24 33.55 45.42 37.42 45.42 37.61"/>
            <polygon class="cls-20" points="45.75 38.68 44.87 38.17 44.87 37.99 46.16 38.26 46.16 38.45 45.75 38.68"/>
            <polygon class="cls-20" points="46.84 39.32 45.97 38.81 45.97 38.62 47.6 38.69 47.6 38.88 46.84 39.32"/>
            <polygon class="cls-20" points="47.93 39.95 47.06 39.44 47.06 39.26 48.34 39.53 48.34 39.72 47.93 39.95"/>
            <rect class="cls-20" x="37.34" y="28.39" width=".54" height=".2"/>
            <rect class="cls-20" x="38.33" y="28.65" width=".35" height=".15"/>
            <rect class="cls-20" x="39.19" y="29.29" width=".59" height=".17"/>
            <rect class="cls-20" x="38.44" y="29.04" width=".6" height=".19"/>
            <rect class="cls-20" x="37.51" y="29.58" width=".76" height=".19"/>
            <rect class="cls-20" x="38.61" y="29.64" width=".55" height=".19"/>
            <rect class="cls-20" x="36.44" y="28.92" width=".62" height=".19"/>
            <rect class="cls-20" x="37.24" y="29.01" width=".82" height=".19"/>
            <rect class="cls-20" x="35.54" y="29.46" width=".69" height=".18"/>
            <rect class="cls-20" x="36.24" y="29.84" width="1.47" height=".19"/>
            <rect class="cls-20" x="34.65" y="29.98" width=".55" height=".18"/>
            <rect class="cls-20" x="35.85" y="30.49" width="1.21" height=".19"/>
            <rect class="cls-20" x="34.86" y="31.2" width="1.63" height=".18"/>
            <rect class="cls-20" x="33.76" y="30.49" width=".47" height=".19"/>
            <rect class="cls-20" x="36.62" y="31.84" width=".96" height=".18"/>
            <rect class="cls-20" x="35.94" y="31.76" width=".59" height=".19"/>
            <polygon class="cls-6" points="38.22 28.92 37.34 28.41 37.81 28.14 38.68 28.65 38.22 28.92"/>
            <polygon class="cls-51" points="39.31 29.56 38.44 29.04 38.9 28.78 39.77 29.29 39.31 29.56"/>
            <g>
              <polygon class="cls-20" points="52.4 37.35 51.53 36.84 51.53 36.66 52.86 36.9 52.86 37.09 52.4 37.35"/>
              <polygon class="cls-58" points="52.4 37.17 51.53 36.66 51.99 36.39 52.86 36.9 52.4 37.17"/>
            </g>
            <polygon class="cls-94" points="37.3 29.46 36.42 28.95 37.18 28.5 38.06 29.01 37.3 29.46"/>
            <polygon class="cls-21" points="38.39 30.09 37.51 29.58 38.27 29.14 39.15 29.65 38.39 30.09"/>
            <g>
              <polygon class="cls-20" points="49.3 36.62 48.42 36.11 48.42 35.92 50.06 35.99 50.06 36.18 49.3 36.62"/>
              <polygon class="cls-14" points="49.3 36.44 48.42 35.92 49.18 35.48 50.06 35.99 49.3 36.44"/>
            </g>
            <g>
              <polygon class="cls-20" points="48.21 35.99 47.33 35.48 47.33 35.29 48.97 35.36 48.97 35.54 48.21 35.99"/>
              <polygon class="cls-56" points="48.21 35.8 47.33 35.29 48.09 34.85 48.97 35.36 48.21 35.8"/>
            </g>
            <g>
              <polygon class="cls-20" points="47.12 35.35 46.24 34.84 46.24 34.66 47.88 34.72 47.88 34.91 47.12 35.35"/>
              <polygon class="cls-69" points="47.12 35.17 46.24 34.66 47 34.21 47.88 34.72 47.12 35.17"/>
            </g>
            <g>
              <polygon class="cls-20" points="46.03 34.72 45.15 34.21 45.15 34.02 46.79 34.09 46.79 34.27 46.03 34.72"/>
              <polygon class="cls-61" points="46.03 34.53 45.15 34.02 45.91 33.58 46.79 34.09 46.03 34.53"/>
            </g>
            <g>
              <polygon class="cls-20" points="44.94 34.08 44.06 33.57 44.06 33.39 45.7 33.46 45.7 33.64 44.94 34.08"/>
              <polygon class="cls-90" points="44.94 33.9 44.06 33.39 44.82 32.94 45.7 33.46 44.94 33.9"/>
            </g>
            <g>
              <polygon class="cls-20" points="43.85 33.45 42.97 32.94 42.97 32.75 44.61 32.82 44.61 33.01 43.85 33.45"/>
              <polygon class="cls-19" points="43.85 33.26 42.97 32.75 43.73 32.31 44.61 32.82 43.85 33.26"/>
            </g>
            <g>
              <polygon class="cls-20" points="42.76 32.81 41.88 32.3 41.88 32.12 43.52 32.19 43.52 32.37 42.76 32.81"/>
              <polygon class="cls-2" points="42.76 32.63 41.88 32.12 42.64 31.68 43.52 32.19 42.76 32.63"/>
            </g>
            <g>
              <polygon class="cls-20" points="41.66 32.18 40.79 31.67 40.79 31.48 42.43 31.55 42.43 31.74 41.66 32.18"/>
              <polygon class="cls-35" points="41.66 31.99 40.79 31.48 41.55 31.04 42.43 31.55 41.66 31.99"/>
            </g>
            <g>
              <polygon class="cls-20" points="40.57 31.55 39.7 31.03 39.7 30.85 41.33 30.92 41.33 31.1 40.57 31.55"/>
              <polygon class="cls-50" points="40.57 31.36 39.7 30.85 40.46 30.41 41.33 30.92 40.57 31.36"/>
            </g>
            <g>
              <polygon class="cls-20" points="39.48 30.91 38.61 30.4 38.61 30.21 40.24 30.28 40.24 30.47 39.48 30.91"/>
              <polygon class="cls-18" points="39.48 30.73 38.61 30.21 39.37 29.77 40.24 30.28 39.48 30.73"/>
            </g>
            <polygon class="cls-39" points="52.24 37.26 51.48 37.7 49.51 36.56 50.27 36.12 52.24 37.26"/>
            <polygon class="cls-3" points="37.71 29.84 36.95 30.28 35.54 29.46 36.3 29.02 37.71 29.84"/>
            <g>
              <polygon class="cls-20" points="50.6 38.22 49.72 37.71 49.72 37.89 50.6 38.41 51.36 37.96 51.36 37.78 50.6 38.22"/>
              <path class="cls-76" d="m51.36,37.78l-.88-.51-.75.44s.87.52.87.52l.76-.44Z"/>
            </g>
            <polygon class="cls-4" points="36.3 30.94 34.65 29.98 35.41 29.54 37.06 30.5 36.3 30.94"/>
            <g>
              <polygon class="cls-20" points="46.75 37.02 45.88 36.51 45.88 36.69 46.75 37.2 47.52 36.76 47.52 36.58 46.75 37.02"/>
              <polygon class="cls-49" points="47.52 36.58 46.64 36.07 45.88 36.51 46.75 37.02 47.52 36.58"/>
            </g>
            <g>
              <polygon class="cls-20" points="45.57 36.34 44.7 35.83 44.7 36.02 45.57 36.53 46.33 36.09 46.33 35.9 45.57 36.34"/>
              <polygon class="cls-12" points="46.33 35.9 45.46 35.39 44.7 35.83 45.57 36.34 46.33 35.9"/>
            </g>
            <g>
              <polygon class="cls-20" points="44.39 35.67 43.51 35.16 43.51 35.34 44.39 35.85 45.15 35.41 45.15 35.22 44.39 35.67"/>
              <polygon class="cls-40" points="45.15 35.22 44.27 34.71 43.51 35.16 44.39 35.67 45.15 35.22"/>
            </g>
            <g>
              <polygon class="cls-20" points="43.21 34.99 42.33 34.48 42.33 34.67 43.21 35.18 43.97 34.73 43.97 34.55 43.21 34.99"/>
              <polygon class="cls-36" points="43.97 34.55 43.09 34.04 42.33 34.48 43.21 34.99 43.97 34.55"/>
            </g>
            <g>
              <polygon class="cls-20" points="42.03 34.32 41.15 33.81 41.15 33.99 42.03 34.5 42.79 34.06 42.79 33.87 42.03 34.32"/>
              <polygon class="cls-72" points="42.79 33.87 41.91 33.36 41.15 33.81 42.03 34.32 42.79 33.87"/>
            </g>
            <g>
              <polygon class="cls-20" points="40.85 33.64 39.97 33.13 39.97 33.31 40.85 33.83 41.61 33.38 41.61 33.2 40.85 33.64"/>
              <polygon class="cls-37" points="41.61 33.2 40.73 32.69 39.97 33.13 40.85 33.64 41.61 33.2"/>
            </g>
            <g>
              <polygon class="cls-20" points="39.67 32.96 38.79 32.45 38.79 32.64 39.67 33.15 40.43 32.71 40.43 32.52 39.67 32.96"/>
              <polygon class="cls-73" points="40.43 32.52 39.55 32.01 38.79 32.45 39.67 32.96 40.43 32.52"/>
            </g>
            <g>
              <polygon class="cls-20" points="38.49 32.29 37.61 31.78 37.61 31.96 38.49 32.47 39.25 32.03 39.25 31.85 38.49 32.29"/>
              <polygon class="cls-62" points="39.25 31.85 38.37 31.34 37.61 31.78 38.49 32.29 39.25 31.85"/>
            </g>
            <g>
              <polygon class="cls-20" points="37.31 31.61 36.43 31.1 36.43 31.29 37.31 31.8 38.07 31.36 38.07 31.17 37.31 31.61"/>
              <polygon class="cls-88" points="38.07 31.17 37.19 30.66 36.43 31.1 37.31 31.61 38.07 31.17"/>
            </g>
            <g>
              <polygon class="cls-20" points="47.93 37.7 47.05 37.19 47.05 37.37 47.93 37.88 48.69 37.44 48.69 37.26 47.93 37.7"/>
              <polygon class="cls-84" points="48.69 37.26 47.81 36.75 47.05 37.19 47.93 37.7 48.69 37.26"/>
            </g>
            <polygon class="cls-80" points="50.47 38.29 49.71 38.74 48.12 37.81 48.88 37.37 50.47 38.29"/>
            <polygon class="cls-24" points="35.73 31.64 33.76 30.49 34.52 30.05 36.49 31.2 35.73 31.64"/>
            <polygon class="cls-46" points="36.82 32.27 35.94 31.76 36.7 31.32 37.58 31.83 36.82 32.27"/>
            <g>
              <polygon class="cls-20" points="46.64 37.98 45.76 37.47 45.76 37.66 46.64 38.17 47.4 37.73 47.4 37.54 46.64 37.98"/>
              <polygon class="cls-5" points="47.4 37.54 46.52 37.03 45.76 37.47 46.64 37.98 47.4 37.54"/>
            </g>
            <g>
              <polygon class="cls-20" points="45.55 37.35 44.67 36.84 44.67 37.02 45.55 37.53 46.31 37.09 46.31 36.91 45.55 37.35"/>
              <polygon class="cls-30" points="46.31 36.91 45.43 36.39 44.67 36.84 45.55 37.35 46.31 36.91"/>
            </g>
            <g>
              <polygon class="cls-20" points="44.46 36.71 43.58 36.2 43.58 36.39 44.46 36.9 45.22 36.46 45.22 36.27 44.46 36.71"/>
              <polygon class="cls-44" points="45.22 36.27 44.34 35.76 43.58 36.2 44.46 36.71 45.22 36.27"/>
            </g>
            <g>
              <polygon class="cls-20" points="43.37 36.08 42.49 35.57 42.49 35.75 43.37 36.26 44.13 35.82 44.13 35.64 43.37 36.08"/>
              <polygon class="cls-66" points="44.13 35.64 43.25 35.12 42.49 35.57 43.37 36.08 44.13 35.64"/>
            </g>
            <g>
              <polygon class="cls-20" points="42.28 35.44 41.4 34.93 41.4 35.12 42.28 35.63 43.04 35.19 43.04 35 42.28 35.44"/>
              <polygon class="cls-96" points="43.04 35 42.16 34.49 41.4 34.93 42.28 35.44 43.04 35"/>
            </g>
            <g>
              <polygon class="cls-20" points="41.19 34.81 40.31 34.3 40.31 34.48 41.19 34.99 41.95 34.55 41.95 34.36 41.19 34.81"/>
              <polygon class="cls-1" points="41.95 34.36 41.07 33.85 40.31 34.3 41.19 34.81 41.95 34.36"/>
            </g>
            <g>
              <polygon class="cls-20" points="40.09 34.17 39.22 33.66 39.22 33.85 40.09 34.36 40.85 33.91 40.85 33.73 40.09 34.17"/>
              <polygon class="cls-57" points="40.85 33.73 39.98 33.22 39.22 33.66 40.09 34.17 40.85 33.73"/>
            </g>
            <g>
              <polygon class="cls-20" points="39 33.54 38.13 33.03 38.13 33.21 39 33.72 39.76 33.28 39.76 33.09 39 33.54"/>
              <polygon class="cls-33" points="39.76 33.09 38.89 32.58 38.13 33.03 39 33.54 39.76 33.09"/>
            </g>
            <g>
              <polygon class="cls-20" points="37.91 32.9 37.03 32.39 37.03 32.58 37.91 33.09 38.67 32.64 38.67 32.46 37.91 32.9"/>
              <polygon class="cls-31" points="38.67 32.46 37.79 31.95 37.03 32.39 37.91 32.9 38.67 32.46"/>
            </g>
            <polygon class="cls-16" points="48.82 39.25 46.93 38.15 47.69 37.71 49.58 38.81 48.82 39.25"/>
            <g>
              <path class="cls-20" d="m33.75,31.52l-.88-.51v.19s.88.5.88.5l.76-.44v-.18l-.76.44Z"/>
              <path class="cls-38" d="m33.64,30.57l-.76.44.88.51.76-.44s-.88-.51-.88-.51Z"/>
            </g>
            <g>
              <path class="cls-20" d="m34.84,32.15l-.88-.51v.18s.88.52.88.52l.76-.44v-.19l-.76.44Z"/>
              <path class="cls-81" d="m34.73,31.2l-.76.44.88.51.76-.44s-.88-.51-.88-.51Z"/>
            </g>
            <g>
              <path class="cls-20" d="m35.93,32.79l-.88-.51v.18s.88.52.88.52l.76-.44v-.19l-.76.44Z"/>
              <path class="cls-55" d="m35.82,31.84l-.76.44.88.51.76-.44s-.88-.51-.88-.51Z"/>
            </g>
            <g>
              <path class="cls-20" d="m37,33.42l-.88-.51v.18s.88.52.88.52l.76-.44v-.19l-.76.44Z"/>
              <path class="cls-85" d="m36.89,32.47l-.76.44.88.51.76-.44s-.88-.51-.88-.51Z"/>
            </g>
            <polygon class="cls-70" points="45.42 37.42 44.66 37.86 37.24 33.55 38 33.11 45.42 37.42"/>
            <polygon class="cls-67" points="45.75 38.5 44.87 37.99 45.28 37.75 46.16 38.26 45.75 38.5"/>
            <polygon class="cls-68" points="46.84 39.13 45.97 38.62 46.73 38.18 47.6 38.69 46.84 39.13"/>
            <polygon class="cls-45" points="47.93 39.77 47.06 39.26 47.46 39.02 48.34 39.53 47.93 39.77"/>
            <g>
              <polygon class="cls-20" points="49.45 37.55 48.57 37.04 48.57 37.23 49.45 37.74 50.21 37.3 50.21 37.11 49.45 37.55"/>
              <path class="cls-79" d="m50.21,37.11l-.88-.51-.75.44s.87.52.87.52l.76-.44Z"/>
            </g>
            <g>
              <polygon class="cls-20" points="48.3 36.88 47.42 36.37 47.42 36.56 48.3 37.07 49.06 36.63 49.06 36.44 48.3 36.88"/>
              <path class="cls-53" d="m49.06,36.44l-.88-.51-.75.44s.87.52.87.52l.76-.44Z"/>
            </g>
            <g>
              <polygon class="cls-20" points="47.14 36.22 46.27 35.71 46.27 35.89 47.14 36.4 47.91 35.96 47.91 35.77 47.14 36.22"/>
              <path class="cls-64" d="m47.91,35.77l-.88-.51-.75.44s.87.52.87.52l.76-.44Z"/>
            </g>
            <g>
              <polygon class="cls-20" points="45.99 35.55 45.12 35.04 45.12 35.22 45.99 35.73 46.76 35.29 46.76 35.11 45.99 35.55"/>
              <path class="cls-41" d="m46.76,35.11l-.88-.51-.75.44s.87.52.87.52l.76-.44Z"/>
            </g>
            <g>
              <polygon class="cls-20" points="44.84 34.88 43.97 34.37 43.97 34.55 44.84 35.06 45.6 34.62 45.6 34.44 44.84 34.88"/>
              <path class="cls-42" d="m45.6,34.44l-.88-.51-.75.44s.87.52.87.52l.76-.44Z"/>
            </g>
            <g>
              <polygon class="cls-20" points="43.69 34.21 42.82 33.7 42.82 33.89 43.69 34.4 44.45 33.95 44.45 33.77 43.69 34.21"/>
              <path class="cls-89" d="m44.45,33.77l-.88-.51-.75.44s.87.52.87.52l.76-.44Z"/>
            </g>
            <g>
              <polygon class="cls-20" points="42.54 33.54 41.67 33.03 41.67 33.22 42.54 33.73 43.3 33.29 43.3 33.1 42.54 33.54"/>
              <path class="cls-9" d="m43.3,33.1l-.88-.51-.75.44s.87.52.87.52l.76-.44Z"/>
            </g>
            <g>
              <polygon class="cls-20" points="41.39 32.88 40.52 32.36 40.52 32.55 41.39 33.06 42.15 32.62 42.15 32.43 41.39 32.88"/>
              <path class="cls-27" d="m42.15,32.43l-.88-.51-.75.44s.87.52.87.52l.76-.44Z"/>
            </g>
            <g>
              <polygon class="cls-20" points="40.24 32.21 39.37 31.7 39.37 31.88 40.24 32.39 41 31.95 41 31.77 40.24 32.21"/>
              <path class="cls-48" d="m41,31.77l-.88-.51-.75.44s.87.52.87.52l.76-.44Z"/>
            </g>
            <g>
              <polygon class="cls-20" points="39.09 31.54 38.22 31.03 38.22 31.21 39.09 31.72 39.85 31.28 39.85 31.1 39.09 31.54"/>
              <path class="cls-47" d="m39.85,31.1l-.88-.51-.75.44s.87.52.87.52l.76-.44Z"/>
            </g>
            <g>
              <polygon class="cls-20" points="37.94 30.87 37.07 30.36 37.07 30.55 37.94 31.06 38.7 30.61 38.7 30.43 37.94 30.87"/>
              <path class="cls-74" d="m38.7,30.43l-.88-.51-.75.44s.87.52.87.52l.76-.44Z"/>
            </g>
            <g>
              <polygon class="cls-20" points="51.31 36.72 50.44 36.21 50.44 36.02 51.77 36.26 51.77 36.45 51.31 36.72"/>
              <polygon class="cls-7" points="51.31 36.53 50.44 36.02 50.9 35.75 51.77 36.26 51.31 36.53"/>
            </g>
            <g>
              <polygon class="cls-20" points="50.22 36.08 49.34 35.57 49.34 35.39 50.68 35.63 50.68 35.81 50.22 36.08"/>
              <polygon class="cls-29" points="50.22 35.9 49.34 35.39 49.81 35.12 50.68 35.63 50.22 35.9"/>
            </g>
            <g>
              <polygon class="cls-20" points="49.13 35.45 48.25 34.94 48.25 34.75 49.59 34.99 49.59 35.18 49.13 35.45"/>
              <polygon class="cls-86" points="49.13 35.26 48.25 34.75 48.71 34.48 49.59 34.99 49.13 35.26"/>
            </g>
            <g>
              <polygon class="cls-20" points="48.04 34.81 47.16 34.3 47.16 34.12 48.5 34.36 48.5 34.54 48.04 34.81"/>
              <polygon class="cls-65" points="48.04 34.63 47.16 34.12 47.62 33.85 48.5 34.36 48.04 34.63"/>
            </g>
            <g>
              <polygon class="cls-20" points="46.95 34.18 46.07 33.67 46.07 33.48 47.41 33.72 47.41 33.91 46.95 34.18"/>
              <polygon class="cls-34" points="46.95 33.99 46.07 33.48 46.53 33.21 47.41 33.72 46.95 33.99"/>
            </g>
            <g>
              <polygon class="cls-20" points="45.86 33.54 44.98 33.03 44.98 32.85 46.32 33.09 46.32 33.27 45.86 33.54"/>
              <polygon class="cls-8" points="45.86 33.36 44.98 32.85 45.44 32.58 46.32 33.09 45.86 33.36"/>
            </g>
            <g>
              <polygon class="cls-20" points="44.77 32.91 43.89 32.4 43.89 32.21 45.23 32.45 45.23 32.64 44.77 32.91"/>
              <polygon class="cls-82" points="44.77 32.72 43.89 32.21 44.35 31.94 45.23 32.45 44.77 32.72"/>
            </g>
            <g>
              <polygon class="cls-20" points="43.68 32.27 42.8 31.76 42.8 31.58 44.14 31.82 44.14 32 43.68 32.27"/>
              <polygon class="cls-60" points="43.68 32.09 42.8 31.58 43.26 31.31 44.14 31.82 43.68 32.09"/>
            </g>
            <g>
              <polygon class="cls-20" points="42.59 31.64 41.71 31.13 41.71 30.94 43.05 31.18 43.05 31.37 42.59 31.64"/>
              <polygon class="cls-92" points="42.59 31.45 41.71 30.94 42.17 30.67 43.05 31.18 42.59 31.45"/>
            </g>
            <g>
              <polygon class="cls-20" points="41.5 31 40.62 30.49 40.62 30.31 41.96 30.55 41.96 30.73 41.5 31"/>
              <polygon class="cls-25" points="41.5 30.82 40.62 30.31 41.08 30.04 41.96 30.55 41.5 30.82"/>
            </g>
            <g>
              <polygon class="cls-20" points="40.4 30.37 39.53 29.86 39.53 29.67 40.87 29.91 40.87 30.1 40.4 30.37"/>
              <polygon class="cls-83" points="40.4 30.18 39.53 29.67 39.99 29.4 40.87 29.91 40.4 30.18"/>
            </g>
          </g>
        </g>
        <polygon class="cls-63" points="33.04 29.84 43.3 23.91 37.11 20.34 26.85 26.26 33.04 29.84"/>
        <g>
          <g>
            <g>
              <g>
                <path class="cls-11" d="m46.09,23.6l11.37,6.61s2.56-1.96,4.1-2.4l-12.08-7.02c-1.35.54-2.73,1.34-4.09,2.37-.02.02.7.44.7.44h0Z"/>
                <g class="cls-97">
                  <path class="cls-22" d="m46.09,23.59c.97.51,1.94,1.02,2.9,1.56l1.44.8,1.43.82c.95.54,1.9,1.09,2.84,1.65l1.42.84c.47.28.94.57,1.41.85l-.18.1c.06-.06.13-.14.2-.2.04-.03.08-.06.11-.09l.09-.06.36-.24c.24-.17.48-.31.73-.46l.37-.22c.12-.08.25-.14.38-.21l.76-.4s-.73.45-.73.45c-.12.07-.25.14-.37.22l-.36.24c-.24.16-.48.31-.71.48l-.69.49s-11.39-6.6-11.39-6.6v-.02Z"/>
                </g>
                <path class="cls-10" d="m61.55,27.82c-1.36.54-2.74,1.35-4.1,2.38v.84c1.37-.8,2.74-1.59,4.11-2.39v-.84s-.01,0-.02,0Z"/>
                <path class="cls-20" d="m46.09,23.6l-.73-.42c0,.28,0,.56,0,.84,0,0,12.1,7.03,12.1,7.03v-.84l-11.37-6.61Z"/>
              </g>
              <path class="cls-22" d="m52.63,20.19v4.99c0,.12.08.25.24.34.32.19.85.19,1.17,0,.16-.09.24-.22.24-.34v-4.99h-1.66Z"/>
            </g>
            <g>
              <polygon class="cls-11" points="57.4 25.29 56.63 24.84 56.63 24.65 57.4 25.1 57.4 25.29"/>
              <polygon class="cls-11" points="58.38 25.86 57.61 25.41 57.61 25.22 58.38 25.67 58.38 25.86"/>
              <polygon class="cls-11" points="59.37 26.43 58.59 25.98 58.59 25.79 59.37 26.24 59.37 26.43"/>
              <g>
                <path class="cls-11" d="m62.2,12.21L41.34.08c-.12-.07-.23-.09-.32-.07-.03-.03-.6.33-.6.33l.34.64v13.74c0,.37.26.82.58,1.01l20.6,11.98.11.5.45-.28c.16-.02.27-.17.27-.41v-14.3c0-.37-.26-.82-.58-1.01Z"/>
                <path class="cls-11" d="m61.71,28.13l-20.86-12.13c-.32-.19-.58-.64-.58-1.01V.7c0-.17.05-.29.14-.36.11-.08.26-.08.43.02l20.86,12.13c.32.19.58.64.58,1.01v14.3c0,.37-.26.52-.58.34Z"/>
                <path class="cls-11" d="m62.05,13.36v13.75c0,.21-.15.28-.34.18l-20.86-12.13c-.18-.11-.34-.37-.34-.59V.84c0-.12.04-.2.12-.23.06-.03.13-.02.22.03l20.86,12.13c.19.11.34.37.34.59Z"/>
                <path class="cls-59" d="m62.05,13.36v13.75c-.06.02-.13.01-.22-.04l-20.86-12.13c-.18-.11-.34-.37-.34-.59V.61c.06-.03.13-.02.22.03l20.86,12.13c.19.11.34.37.34.59Z"/>
                <g>
                  <polygon class="cls-11" points="48.73 6.81 41.28 2.51 41.28 1.77 48.73 6.06 48.73 6.81"/>
                  <polygon class="cls-11" points="54.69 10.25 51.15 8.21 51.15 7.47 54.69 9.51 54.69 10.25"/>
                  <polygon class="cls-11" points="44.75 7.46 41.28 5.45 41.28 4.71 44.75 6.71 44.75 7.46"/>
                  <polygon class="cls-11" points="46.89 8.69 45.39 7.82 45.39 7.08 46.89 7.95 46.89 8.69"/>
                  <polygon class="cls-11" points="48.77 9.77 47.37 8.97 47.37 8.22 48.77 9.03 48.77 9.77"/>
                  <polygon class="cls-11" points="45.39 9.47 41.28 7.09 41.28 6.35 45.39 8.72 45.39 9.47"/>
                  <polygon class="cls-28" points="47.33 10.59 45.92 9.77 45.92 9.03 47.33 9.84 47.33 10.59"/>
                  <polygon class="cls-28" points="47.3 12.21 41.28 8.74 41.28 7.99 47.3 11.47 47.3 12.21"/>
                  <polygon class="cls-11" points="49.07 13.23 47.07 12.08 47.07 11.33 49.07 12.49 49.07 13.23"/>
                  <polygon class="cls-11" points="51.22 14.47 49.58 13.53 49.58 12.78 51.22 13.73 51.22 14.47"/>
                  <polygon class="cls-11" points="45.26 12.68 41.28 10.38 41.28 9.63 45.26 11.93 45.26 12.68"/>
                  <polygon class="cls-11" points="47.19 13.79 45.81 12.99 45.81 12.25 47.19 13.04 47.19 13.79"/>
                  <polygon class="cls-11" points="45.56 14.49 41.28 12.02 41.28 11.27 45.56 13.75 45.56 14.49"/>
                  <polygon class="cls-11" points="47.08 15.37 45.92 14.7 45.92 13.95 47.08 14.62 47.08 15.37"/>
                  <polygon class="cls-28" points="49.56 16.8 47.57 15.65 47.57 14.9 49.56 16.05 49.56 16.8"/>
                  <polygon class="cls-11" points="45.36 16.01 41.28 13.66 41.28 12.91 45.36 15.27 45.36 16.01"/>
                  <polygon class="cls-28" points="47.42 17.2 45.58 16.14 45.58 15.4 47.42 16.46 47.42 17.2"/>
                  <polygon class="cls-11" points="51.35 9.53 41.28 3.71 41.28 2.97 51.35 8.78 51.35 9.53"/>
                  <polygon class="cls-11" points="57.75 13.22 52.28 10.07 52.28 9.32 57.75 12.47 57.75 13.22"/>
                </g>
              </g>
              <polygon class="cls-11" points="60.35 27 59.58 26.56 59.58 26.36 60.35 26.81 60.35 27"/>
              <polygon class="cls-11" points="59.46 26.48 58.69 26.03 58.69 25.84 59.46 26.28 59.46 26.48"/>
              <g>
                <path class="cls-22" d="m61.38,27.53c0,.19-.13.27-.3.17-.16-.09-.3-.33-.3-.51s.13-.27.3-.17c.16.09.3.33.3.51Z"/>
                <path class="cls-11" d="m61.21,27.94c-.08,0-.15-.02-.23-.07-.22-.13-.39-.42-.39-.68,0-.32.3-.51.58-.34.22.13.39.42.39.68,0,.24-.15.41-.36.41Zm-.23-.76c0,.13.09.29.2.35,0-.12-.09-.29-.19-.35,0,0,0,0,0,0Z"/>
              </g>
            </g>
          </g>
          <path class="cls-52" d="m62.05,13.29v13.67c-.06.02-.13.01-.22-.04l-20.86-12.13c-.18-.11-.34-.37-.34-.59v-.77c1.57-.73,5.32-1.91,8.87-1.91,8.23,0,11.46,1.52,12.53,1.76Z"/>
        </g>
        <g>
          <g>
            <g>
              <g>
                <path class="cls-11" d="m70.14,37.54l11.37,6.61s2.56-1.96,4.1-2.4l-12.08-7.02c-1.35.54-2.73,1.34-4.09,2.37-.02.02.7.44.7.44h0Z"/>
                <g class="cls-97">
                  <path class="cls-22" d="m70.14,37.53c.97.51,1.94,1.02,2.9,1.56l1.44.8,1.43.82c.95.54,1.9,1.09,2.84,1.65l1.42.84c.47.28.94.57,1.41.85l-.18.1c.06-.06.13-.14.2-.2.04-.03.08-.06.11-.09l.09-.06.36-.24c.23-.17.48-.31.73-.46l.37-.22c.12-.08.25-.14.38-.21l.76-.4s-.73.45-.73.45c-.12.07-.25.14-.37.22l-.36.24c-.24.16-.48.31-.71.48l-.69.49s-11.39-6.6-11.39-6.6v-.02Z"/>
                </g>
                <path class="cls-10" d="m85.6,41.76c-1.36.54-2.74,1.35-4.1,2.38v.84c1.37-.8,2.74-1.59,4.11-2.39v-.84s-.01,0-.02,0Z"/>
                <path class="cls-20" d="m70.14,37.54l-.73-.42c0,.28,0,.56,0,.84,0,0,12.1,7.03,12.1,7.03v-.84l-11.37-6.61Z"/>
              </g>
              <path class="cls-22" d="m76.68,34.13v4.99c0,.12.08.25.24.34.32.19.85.19,1.17,0,.16-.09.24-.22.24-.34v-4.99h-1.66Z"/>
            </g>
            <g>
              <polygon class="cls-11" points="81.45 39.23 80.68 38.78 80.68 38.59 81.45 39.04 81.45 39.23"/>
              <polygon class="cls-11" points="82.44 39.8 81.66 39.35 81.66 39.16 82.44 39.61 82.44 39.8"/>
              <polygon class="cls-11" points="83.42 40.37 82.65 39.92 82.65 39.73 83.42 40.18 83.42 40.37"/>
              <g>
                <path class="cls-11" d="m86.25,26.15l-20.86-12.13c-.12-.07-.23-.09-.32-.07-.03-.03-.6.33-.6.33l.34.64v13.74c0,.37.26.82.58,1.01l20.6,11.98.11.5.45-.28c.16-.02.27-.17.27-.41v-14.3c0-.37-.26-.82-.58-1.01Z"/>
                <path class="cls-11" d="m85.76,42.07l-20.86-12.13c-.32-.19-.58-.64-.58-1.01v-14.3c0-.17.05-.29.14-.36.11-.08.26-.08.43.02l20.86,12.13c.32.19.58.64.58,1.01v14.3c0,.37-.26.52-.58.34Z"/>
                <path class="cls-11" d="m86.1,27.3v13.75c0,.21-.15.28-.34.18l-20.86-12.13c-.18-.11-.34-.37-.34-.59v-13.73c0-.12.04-.2.12-.22.06-.03.13-.02.22.03l20.86,12.13c.19.11.34.37.34.59Z"/>
                <path class="cls-59" d="m86.1,27.3v13.75c-.06.02-.13.01-.21-.04l-20.86-12.13c-.18-.11-.34-.37-.34-.59v-13.74c.06-.03.13-.02.22.03l20.86,12.13c.19.11.34.37.34.59Z"/>
                <g>
                  <path class="cls-26" d="m70.71,29.81s-.09-.01-.12-.03l-4.16-2.4c-.08-.04-.12-.13-.12-.22s.05-.17.12-.22l4.13-2.38c.08-.04.17-.04.25,0l4.16,2.4c.08.04.12.13.12.22s-.05.17-.12.22l-4.13,2.38s-.08.03-.12.03Zm-3.66-2.65l3.66,2.11,3.63-2.1-3.66-2.11-3.63,2.1Z"/>
                  <path class="cls-26" d="m70.71,26.48s-.09-.01-.12-.03l-4.16-2.4c-.08-.04-.12-.13-.12-.22s.05-.17.12-.22l4.13-2.39c.08-.04.17-.04.25,0l4.16,2.4c.08.04.12.13.12.22s-.05.17-.12.22l-4.13,2.38s-.08.03-.12.03Zm-3.66-2.65l3.66,2.11,3.63-2.1-3.66-2.11-3.63,2.1Z"/>
                  <path class="cls-26" d="m70.71,29.81s-.09-.01-.12-.03l-4.16-2.4c-.08-.04-.12-.13-.12-.22v-3.33c-.01-.09.03-.17.11-.22.08-.04.17-.04.25,0l4.16,2.4c.08.04.12.13.12.22v3.33c.01.09-.03.17-.11.22-.04.02-.08.03-.13.03Zm-3.91-2.79l3.66,2.11v-2.75s-3.67-2.11-3.67-2.11v2.75Z"/>
                  <path class="cls-26" d="m74.84,27.42s-.09-.01-.12-.03l-4.16-2.4c-.08-.04-.12-.13-.12-.22v-3.33c-.01-.09.03-.17.11-.22.08-.04.17-.05.25,0l4.16,2.4c.08.04.12.13.12.22v3.33c.01.09-.03.17-.11.22-.04.02-.08.03-.13.03Zm-3.91-2.79l3.66,2.11v-2.75s-3.67-2.11-3.67-2.11v2.75Z"/>
                  <path class="cls-26" d="m70.73,29.81s-.09-.01-.13-.03c-.08-.04-.12-.13-.12-.22v-3.33c.01-.09.06-.17.14-.22l4.16-2.4c.08-.04.17-.04.25,0,.08.05.12.13.12.22v3.33c-.01.09-.06.17-.14.22l-4.16,2.4s-.08.03-.12.03Zm.26-3.44v2.75s3.65-2.11,3.65-2.11v-2.75s-3.65,2.11-3.65,2.11Z"/>
                </g>
                <g>
                  <path class="cls-26" d="m79.07,34.53s-.09-.01-.12-.03l-4.16-2.4c-.08-.04-.12-.13-.12-.22s.05-.17.12-.22l4.13-2.38c.08-.05.17-.05.25,0l4.16,2.4c.08.04.12.13.12.22s-.05.17-.12.22l-4.13,2.38s-.08.03-.12.03Zm-3.66-2.65l3.66,2.11,3.63-2.1-3.66-2.11-3.63,2.1Z"/>
                  <path class="cls-26" d="m79.07,34.53s-.09-.01-.12-.03l-4.16-2.4c-.06-.04-.1-.09-.12-.16-.01-.07,0-.14.04-.2l4.13-5.72c.06-.09.18-.13.28-.09.1.03.17.13.17.24l.03,8.12c0,.09-.05.17-.12.22-.04.02-.08.03-.13.03Zm-3.79-2.73l3.54,2.04-.02-6.91-3.52,4.87Z"/>
                  <path class="cls-26" d="m83.2,32.15s-.09-.01-.12-.03l-4.16-2.4c-.08-.04-.12-.13-.12-.22v-3.33c-.01-.11.06-.2.16-.24.1-.03.22,0,.28.09l4.17,5.73c.07.1.06.23-.02.31-.05.05-.12.08-.19.08Zm-3.91-2.79l3.01,1.74-3.02-4.15v2.41Z"/>
                </g>
              </g>
              <polygon class="cls-11" points="84.4 40.94 83.63 40.5 83.63 40.3 84.4 40.75 84.4 40.94"/>
              <polygon class="cls-11" points="83.52 40.42 82.75 39.97 82.75 39.78 83.52 40.22 83.52 40.42"/>
              <g>
                <path class="cls-22" d="m85.43,41.47c0,.19-.13.27-.3.17s-.29-.33-.29-.51.13-.27.29-.17c.16.09.3.32.3.51Z"/>
                <path class="cls-11" d="m85.27,41.88c-.08,0-.15-.02-.23-.07-.22-.13-.39-.42-.39-.68,0-.32.3-.51.58-.34.22.13.39.42.39.68,0,.24-.15.41-.36.41Zm-.23-.76c0,.13.09.29.2.35,0-.12-.09-.29-.19-.35,0,0,0,0,0,0Z"/>
              </g>
            </g>
          </g>
          <path class="cls-93" d="m86.1,27.23v13.67c-.06.02-.13.01-.21-.04l-20.86-12.13c-.18-.11-.34-.37-.34-.59v-.77c1.57-.73,5.32-1.91,8.87-1.91,8.23,0,11.46,1.52,12.53,1.76Z"/>
        </g>
        <g>
          <g>
            <path class="cls-11" d="m24.4,41.27l-2.02,8.27s-.71.65-.91.63c-.06-.02-.07-.08-.04-.19.18-.6.67-.92.8-1.7.09-.57,1.16-4.67,1.73-6.86.18-.67-.18-1.06-.7-.78-.24.13-.5.28-.8.44-2.59,1.43-7.01,3.92-7.53,4.47-.74.78-2.33,2.76-2.33,2.76,0,0-.28.2-.32.07-.02-.06.02-.19.17-.44,0,0,1.13-1.55,2.04-2.44l.06-.06c.05-.05.1-.1.15-.14.02-.02.05-.04.07-.06.02-.02.05-.04.07-.06.07-.05.1-.07.13-.1.07-.05.11-.07.14-.09l7.45-4.3.81-.47c.08-.04.15-.08.22-.1.1-.03.2-.04.29-.04.58-.01.93.44.52,1.19Z"/>
            <path class="cls-20" d="m23.96,41.43c-.57,2.18-1.64,6.29-1.73,6.86-.12.78-.61,1.1-.8,1.7-.03.11-.02.16.01.18-.19-.05-1.57-.42-1.39-.98.18-.6.67-.92.8-1.7.08-.53,1.02-4.14,1.61-6.4.29-.16.56-.31.8-.44.52-.29.88.11.7.78Z"/>
            <path class="cls-11" d="m23.89,40.08c-.09,0-.18.01-.29.04-.07.02-.15.06-.22.1l-.81.47-7.45,4.3s-.07.04-.11.07c-.07.05-.1.07-.13.09-.06.05-.08.07-.11.09-.02.02-.05.04-.07.06-.05.04-.1.09-.15.14-.02.02-.04.04-.06.06-.91.89-2.04,2.44-2.04,2.44-.15.26-.18.39-.17.44,0,0-1.29-.76-1.29-.76-.11.02-.17-.05.07-.48,0,0,1.78-2.44,2.67-2.96l8.26-4.77c.17-.1.39-.09.62-.01,0,0,.46.24.46.24l.81.42Z"/>
          </g>
          <polygon class="cls-22" points="28.63 56.15 28.53 62.18 27.97 61.58 28.63 56.15"/>
          <g class="cls-98">
            <g>
              <g>
                <g>
                  <g>
                    <path class="cls-78" d="m39.46,79.87s-.08.05-.12.07l.12-.07Z"/>
                    <path class="cls-22" d="m38.51,80.39c0,.25-.08.42-.19.51-.16.13-.4.14-.66-.02-.47-.27-.86-.94-.86-1.49,0-.14.03-.26.07-.35.06-.12.14-.2.26-.24.15-.05.33-.02.53.09.09.05.17.12.25.19.27.25.48.62.57.98.02.09.03.17.04.25,0,.02,0,.04,0,.06Z"/>
                    <path class="cls-11" d="m38.58,79.97c0,.14-.03.26-.07.35,0-.08-.02-.17-.04-.25-.08-.36-.3-.73-.57-.98-.08-.07-.16-.14-.25-.19-.2-.12-.39-.14-.53-.09-.11.04-.2.12-.26.24,0-.02,0-.04,0-.06,0-.31.13-.52.33-.59.14-.05.32-.02.51.08.11.06.2.13.28.2.27.25.48.62.57.98.02.11.04.21.04.31Z"/>
                    <path class="cls-11" d="m39.66,79.35c0,.14-.03.26-.07.35-.03.07-.07.12-.12.16,0,0-.12.07-.12.07l-.83.48c0-.05,0-.07,0-.09.05-.09.07-.21.07-.35,0-.1-.01-.21-.04-.31-.08-.36-.3-.73-.57-.98-.08-.07-.16-.14-.25-.19-.22-.12-.39-.14-.53-.09l.93-.54c.16-.14.4-.14.67.01.47.27.86.94.86,1.49Z"/>
                    <path class="cls-20" d="m39.59,79.77c0,.24-.07.41-.19.51,0,0-.12.07-.12.07l-.95.55c.12-.1.19-.26.19-.48l.83-.48.12-.07c.05-.04.09-.1.12-.16,0,.02,0,.04,0,.06Z"/>
                  </g>
                  <g>
                    <path class="cls-78" d="m18.94,68.02s-.08.05-.12.07l.12-.07Z"/>
                    <path class="cls-22" d="m18,68.54c0,.25-.08.42-.19.51-.16.13-.4.14-.66-.02-.47-.27-.86-.94-.86-1.49,0-.14.03-.26.07-.35.06-.12.15-.2.26-.24.15-.05.33-.02.53.09.09.05.17.12.25.19.27.25.48.62.57.98.02.09.03.17.04.25,0,.02,0,.04,0,.06Z"/>
                    <path class="cls-11" d="m18.06,68.13c0,.14-.03.26-.07.35,0-.08-.02-.17-.04-.25-.08-.36-.3-.73-.57-.98-.08-.07-.16-.14-.25-.19-.2-.12-.39-.14-.53-.09-.11.04-.2.12-.26.24,0-.02,0-.04,0-.06,0-.31.13-.52.33-.59.14-.05.32-.02.51.08.11.06.2.13.28.2.27.25.48.62.57.98.02.11.04.21.04.31Z"/>
                    <path class="cls-11" d="m19.14,67.51c0,.14-.03.26-.07.35-.03.07-.07.12-.12.16,0,0-.12.07-.12.07l-.83.48c0-.05,0-.07,0-.09.05-.09.07-.21.07-.35,0-.1-.01-.21-.04-.31-.08-.36-.3-.73-.57-.98-.08-.07-.16-.14-.25-.19-.22-.12-.39-.14-.53-.09l.93-.54c.16-.14.4-.14.67.01.47.27.86.94.86,1.49Z"/>
                    <path class="cls-20" d="m19.07,67.92c0,.24-.07.41-.19.51,0,0-.12.07-.12.07l-.95.55c.12-.1.19-.26.19-.48l.83-.48.12-.07c.05-.04.09-.1.12-.16,0,.02,0,.04,0,.06Z"/>
                  </g>
                  <g>
                    <path class="cls-78" d="m18.94,79.87s-.08.05-.12.07l.12-.07Z"/>
                    <path class="cls-22" d="m18,80.39c0,.25-.08.42-.19.51-.16.13-.4.14-.66-.02-.47-.27-.86-.94-.86-1.49,0-.14.03-.26.07-.35.06-.12.15-.2.26-.24.15-.05.33-.02.53.09.09.05.17.12.25.19.27.25.48.62.57.98.02.09.03.17.04.25,0,.02,0,.04,0,.06Z"/>
                    <path class="cls-11" d="m18.06,79.97c0,.14-.03.26-.07.35,0-.08-.02-.17-.04-.25-.08-.36-.3-.73-.57-.98-.08-.07-.16-.14-.25-.19-.2-.12-.39-.14-.53-.09-.11.04-.2.12-.26.24,0-.02,0-.04,0-.06,0-.31.13-.52.33-.59.14-.05.32-.02.51.08.11.06.2.13.28.2.27.25.48.62.57.98.02.11.04.21.04.31Z"/>
                    <path class="cls-11" d="m19.14,79.35c0,.14-.03.26-.07.35-.03.07-.07.12-.12.16,0,0-.12.07-.12.07l-.83.48c0-.05,0-.07,0-.09.05-.09.07-.21.07-.35,0-.1-.01-.21-.04-.31-.08-.36-.3-.73-.57-.98-.08-.07-.16-.14-.25-.19-.22-.12-.39-.14-.53-.09l.93-.54c.16-.14.4-.14.67.01.47.27.86.94.86,1.49Z"/>
                    <path class="cls-20" d="m19.07,79.77c0,.24-.07.41-.19.51,0,0-.12.07-.12.07l-.95.55c.12-.1.19-.26.19-.48l.83-.48.12-.07c.05-.04.09-.1.12-.16,0,.02,0,.04,0,.06Z"/>
                  </g>
                  <g>
                    <path class="cls-78" d="m39.46,68.02s-.08.05-.12.07l.12-.07Z"/>
                    <path class="cls-22" d="m38.51,68.54c0,.25-.08.42-.19.51-.16.13-.4.14-.66-.02-.47-.27-.86-.94-.86-1.49,0-.14.03-.26.07-.35.06-.12.14-.2.26-.24.15-.05.33-.02.53.09.09.05.17.12.25.19.27.25.48.62.57.98.02.09.03.17.04.25,0,.02,0,.04,0,.06Z"/>
                    <path class="cls-11" d="m38.58,68.13c0,.14-.03.26-.07.35,0-.08-.02-.17-.04-.25-.08-.36-.3-.73-.57-.98-.08-.07-.16-.14-.25-.19-.2-.12-.39-.14-.53-.09-.11.04-.2.12-.26.24,0-.02,0-.04,0-.06,0-.31.13-.52.33-.59.14-.05.32-.02.51.08.11.06.2.13.28.2.27.25.48.62.57.98.02.11.04.21.04.31Z"/>
                    <path class="cls-11" d="m39.66,67.51c0,.14-.03.26-.07.35-.03.07-.07.12-.12.16,0,0-.12.07-.12.07l-.83.48c0-.05,0-.07,0-.09.05-.09.07-.21.07-.35,0-.1-.01-.21-.04-.31-.08-.36-.3-.73-.57-.98-.08-.07-.16-.14-.25-.19-.22-.12-.39-.14-.53-.09l.93-.54c.16-.14.4-.14.67.01.47.27.86.94.86,1.49Z"/>
                    <path class="cls-20" d="m39.59,67.92c0,.24-.07.41-.19.51,0,0-.12.07-.12.07l-.95.55c.12-.1.19-.26.19-.48l.83-.48.12-.07c.05-.04.09-.1.12-.16,0,.02,0,.04,0,.06Z"/>
                  </g>
                  <path class="cls-22" d="m39.03,65.65c-.1-.02-.42-.29-.55-.32-3.18-.67-6.86.2-10.54,2.32-3.69,2.13-7.39,5.51-10.58,9.87-.26.35-.34.77-.18.93.11.11.48.24.55.32.16.16.49.02.73-.31,3.02-4.12,6.52-7.33,10.03-9.35,3.49-2.01,6.97-2.83,9.99-2.2.24.05.56-.17.72-.52.16-.35.09-.69-.17-.74Z"/>
                  <path class="cls-22" d="m39.03,77.84c-3.18-4.34-6.86-7.71-10.54-9.84-3.69-2.14-7.39-3.02-10.58-2.35-.13.03-.45.3-.55.32-.26.05-.34.39-.18.73.16.35.49.58.73.53,3.02-.63,6.52.2,10.03,2.23,3.49,2.02,6.97,5.22,9.99,9.33.24.33.56.48.72.32.08-.08.44-.21.55-.32.16-.16.09-.58-.17-.94Z"/>
                </g>
                <path class="cls-20" d="m28.34,68.67c-.29.16-.75.16-1.03,0-.21-.12-.27-.3-.16-.45v-12.48l1.38.8v11.72c.07.14.01.3-.18.42Z"/>
              </g>
              <g>
                <path class="cls-17" d="m27.16,32.75s1.61.29,2.14.14c.53-.14,2-.39,2.5-.4.5,0,.62-.07.62-.07l2.99-1.41,2.32-.89s1.2.13,1.64,0c.44-.13.79-.22.61.13s-.65.59-1.06.61c-.4.03-.61.15-.61.15l1.75.09s.15.7-.35.7c-.5,0-1.82.1-1.82.1,0,0-.65.3-1.18.88-.53.58-.8,1.15-.8,1.15,0,0,.28.52,1.09.35.8-.17,1.15.34,1.15.6s-.59.63-.93.57c-.35-.06-.66-.26-.75-.25-.09,0-.38.12-1.34-.05-.97-.17-2.02-.61-2.44-.62-.42,0-1.31.11-1.31.11,0,0-5.67.74-6.79.68s-2.68-.1-2.31-2.22,4.89-.37,4.89-.37Z"/>
                <path class="cls-91" d="m30.96,47.92l.73,14.05c-.01.12.03.22.14.28.47.27,2.03-.18,3.48-1.02.6-.35,1.14-10.53,1.47-10.85.17-.12.24-4.29.24-4.29l-6.05,1.83Z"/>
                <path class="cls-17" d="m25.03,30.2l1.08-2.6s-1.67-2.42-1.08-4.39c.58-1.98,1.88-2.98,4.92-3,3.04-.02,3.71,2,3.83,2.42.12.42.5,1.67.25,2.27-.25.6-.67.71-.65,1.08s.38.23.02.94c-.35.71-.5,2.15-1.46,2.48s-1.5.01-1.62.78-.51,2.58-.42,2.67c8.07,8.26-9.22.96-4.88-2.64Z"/>
                <g>
                  <g>
                    <g>
                      <path class="cls-20" d="m24.92,44.94h-1.07v.3c-.01.09.04.18.16.25.21.12.55.12.76,0,.12-.07.17-.16.15-.25,0,0,0-.3,0-.3Z"/>
                      <path class="cls-22" d="m24.77,45.16c-.21.12-.55.12-.76,0-.21-.12-.21-.32,0-.44.21-.12.55-.12.76,0,.21.12.21.32,0,.44Z"/>
                    </g>
                    <g>
                      <path class="cls-20" d="m28.58,51.12h-1.07v.3c-.01.09.04.18.16.25.21.12.55.12.76,0,.12-.07.17-.16.15-.25,0,0,0-.3,0-.3Z"/>
                      <path class="cls-22" d="m28.42,51.34c-.21.12-.55.12-.76,0-.21-.12-.21-.32,0-.44.21-.12.55-.12.76,0,.21.12.21.32,0,.44Z"/>
                    </g>
                  </g>
                  <g>
                    <path class="cls-91" d="m38.76,44.72c-2.5-.86-6.77,1.38-10.03,2.98.2,2.76.81,5.46,1.29,8.19,2.43-.84,4.42-3.45,7.33-5.52l2.76-1.41c.19-2.86-.03-3.78-1.35-4.23Z"/>
                    <g>
                      <path class="cls-32" d="m32.97,59.19l-2,1.53c.02,1.84.02,2.74.73,3.22.87.58,2.33.11,3.21-.29l.24-.71c.85-.12.66.14,1.58-.37,1.54-.85,3.8-2.17,4.11-3.7.08-.39-.22-1.1-.62-1.03l-3.63,1.26-3.63.1Z"/>
                      <g>
                        <path class="cls-87" d="m41.58,65.5l-2.06,1.44c-.05,1.84-.1,2.74.59,3.25.84.62,2.32.21,3.22-.16l.27-.7c1.21-.12.88.07,2.11-.57,1.49-.77,3.3-1.86,3.63-3.21.09-.39-.18-1.1-.57-1.05l-2.56,1.14-4.63-.14Z"/>
                        <path class="cls-91" d="m44.62,48.08c-.25,1.24-3.3,3.81-3.6,5.04,0,0-1.44,14.31-1.37,14.38.38.39,4.09,1.06,4.61-1.93,1.55-.4,3.64-14.61,3.64-14.61.9-2.99-2.49-5.54-3.28-2.88Z"/>
                      </g>
                      <path class="cls-22" d="m44.7,56.48l-6.74,2.08-4.12,3.16-4.36,1.47-.95-1.01-.56-.6.66-5.42.21-1.73-1.11-4.18-.59-3.22c.58-.05,1.08,0,1.33.16.03,0,16.23,9.3,16.23,9.3Z"/>
                    </g>
                    <path class="cls-91" d="m25.58,48.16l-5.17-.2c-.62,2.82-.27,6.14,1.02,7.5,1.87,1.96,5.49,4.61,9.1,3.78,2.68-.62,7.31-3.37,10.43-5.59l6.82-2.99c1.29-2.57,1.96-4.18-1.63-4.95-2.58-.55-9.41,2.22-12.67,3.82l-7.91-1.37Z"/>
                    <path class="cls-13" d="m32.2,55.95c-.48.2-1.12.19-1.84.06-2.73-.49-10.02-2.91-9.88-7.6.06-1.97,1.44-2.28-.44-7.35-3.64-9.79,1.55-12.45,2.54-12.45s2.78.81,2.78.81c0,0-1.23,1.84.58,2.96,2.95,1.82,3.04.91,4.06.79,1.19-.15,2.97,1.64,3.98,2.67,1.94,1.97-.87,8.01-.07,9.61.8,1.6,1.44,5.36,1.44,5.36,0,0,.8,3.54-3.15,5.15Z"/>
                    <path class="cls-54" d="m32.2,55.95c-.48.2-1.12.19-1.84.06-.93-1.71-.7-5.29-1.61-8.32-1.36-4.49,0-10.59,2.05-11.15.21-.06.41-.08.59-.06.61.48,1.12.89,1.27,1.04.31.31.45.96.48,1.79,0,.28,0,.59,0,.92-.04.91-.03,3.62.77,5.21.8,1.6,1.44,5.36,1.44,5.36,0,0,.8,3.54-3.15,5.15Z"/>
                  </g>
                </g>
                <path class="cls-17" d="m36.16,44.67s2.14-2.81,2.39-3.34c.25-.53,2.16-3.36,2.16-3.36l-.73-.57s-.13-.55-.34-.68-.9-.54-.56-.79c.35-.25.92-.14,1.23.26.31.4.49.6.49.6l.74-1.77v-1.75s-.03-.79.29-.83c.32-.04.69-.03.49.45s.05.67.05.67l.19,1.56.42-1.5s.42-.66.48-.89.53-.21.55.12c.01.33-.05,1.22-.05,1.22l-.4,1.27.82-1.37.9-.8s.61-.05.39.37-.63.92-.63.92l-.66,1.46,1.09-.28,1.1.03s.02.6-.34.62c-.36.03-.61.09-.61.09l-.79.39s-.24,1.31-.72,1.73c-.49.42-.97.69-.97.69,0,0-4.21,9.68-5.62,10.49-1.41.81-2.14-3.47-1.36-5.02Z"/>
                <path class="cls-54" d="m35.58,43.35s.81-1.26,2.2-.87c1.4.39,2.77,2.37,2.57,3.61-.2,1.24-1.7,3.81-3.27,3.71-1.57-.1-3.19-4.57-1.5-6.44Z"/>
                <path class="cls-13" d="m29.76,39.02c.02,2.66,3.44,12.94,7.07,11.11,3.63-1.83.52-5.86,0-7.27-.52-1.41-.87-7.17-3.4-7.35s-3.69.85-3.67,3.51Z"/>
                <path class="cls-17" d="m31.46,27.03c-.06,0,.2-.61-.31-.38-.5.23-.8.52-.8.96s-.1,1.46.19,1.25c.29-.21.61-.81.61-.81h-.36c-.19,0-.05-.79.11-.88.16-.08.55-.14.55-.14Z"/>
                <path class="cls-71" d="m28.71,28.65s.5-1.18,2.82-2.21c1.13-.51,3.81-3.17,1.48-5.12-.4-.34-.97-.85-2.5-1.08-1.53-.23-5.06.76-5.26,3.84-.27,4.24,2.59,6.38,3.46,4.57Z"/>
              </g>
              <g>
                <path class="cls-11" d="m28.63,56.15l-.66,5.42.56.6-.02,1.01-15.53-8.89-.04-.1c-.08-.03-.16-.06-.23-.1-2.47-1.43-.49-4.7-.49-7.32s-1.66-7.12-1.72-8.08c-.06-.96.26-1.69.4-1.61l16.1,9.3.12.64.59,3.22.92,4.98-.02.93Z"/>
                <path class="cls-11" d="m27.02,46.38s2.7,7.19,2.61,8.77-1.82,6.21-.12,7.19c1.7.98,9.42-4.44,10.67-5.17,1.26-.73,4.57-1.33,4.57-.37s-1.66-.07-2.94.67c-1.29.74-10.5,7.36-12.97,5.93-2.47-1.43-.49-4.7-.49-7.32s-1.66-7.12-1.72-8.08c-.06-.96.26-1.69.4-1.61Z"/>
                <g>
                  <path class="cls-22" d="m41.89,51.37l-2.02,8.27s-.71.65-.91.63c-.06-.02-.07-.08-.04-.19.18-.6.67-.92.8-1.7.09-.57,1.16-4.67,1.73-6.86.18-.67-.18-1.06-.71-.78-.24.13-.5.28-.8.44-2.59,1.43-7.01,3.92-7.53,4.47-.74.78-2.33,2.76-2.33,2.76,0,0-.28.2-.32.07-.02-.06.02-.19.17-.44,0,0,1.13-1.55,2.04-2.44l.06-.06c.05-.05.1-.1.15-.14.02-.02.05-.04.07-.06.02-.02.05-.04.07-.06.07-.05.1-.07.13-.1.07-.05.11-.07.14-.09l7.45-4.3.81-.47c.08-.04.15-.08.22-.1.1-.03.2-.05.29-.04.44.02.69.49.52,1.19Z"/>
                  <path class="cls-11" d="m41.44,51.53c-.57,2.18-1.64,6.29-1.73,6.86-.12.78-.61,1.1-.8,1.7-.03.11-.02.16.01.18-.19-.05-1.57-.42-1.39-.98.18-.6.67-.92.8-1.7.08-.53,1.02-4.14,1.61-6.4.29-.16.56-.31.8-.44.52-.29.88.11.71.78Z"/>
                  <path class="cls-11" d="m41.37,50.17c-.09,0-.18.01-.29.04-.07.02-.15.06-.22.1l-.81.47-7.45,4.3s-.07.04-.11.07c-.07.05-.1.07-.13.09-.06.05-.08.07-.11.09-.02.02-.05.04-.07.06-.05.04-.1.09-.15.14-.02.02-.04.04-.06.06-.91.89-2.04,2.44-2.04,2.44-.15.26-.18.39-.17.44,0,0-1.29-.76-1.29-.76-.11.02-.17-.05.07-.48,0,0,1.78-2.44,2.67-2.96l8.26-4.77c.17-.1.39-.09.62-.01,0,0,.46.24.46.24l.81.42Z"/>
                </g>
              </g>
              <path class="cls-15" d="m28.05,29.42s-.07-4.29,2.24-5.33c1.13-.51,4.72-.63,3.64-4.31-.15-.5-1.21-2.48-5.74-.79-1.3.48-3.41,1.39-3.61,4.48-.27,4.24.2,5.7,3.46,5.96Z"/>
            </g>
          </g>
        </g>
      </g>
      <g>
        <g>
          <polygon class="cls-75" points="62.79 51.12 73.87 45.22 73.87 44.45 73.87 43.91 54.79 45.67 54.79 46.98 62.79 51.12"/>
          <polygon class="cls-77" points="62.79 49.81 73.87 43.91 65.88 39.77 54.79 45.67 62.79 49.81"/>
          <polygon class="cls-95" points="68.48 45.22 70.96 43.93 66.39 41.56 63.91 42.85 68.48 45.22"/>
          <polygon class="cls-43" points="62.91 50.14 62.91 50.84 55.1 46.88 55.1 46.1 62.91 50.14"/>
        </g>
        <polygon class="cls-26" points="62.91 50.14 73.87 44.35 73.87 44.96 62.91 50.84 62.91 50.14"/>
      </g>
    </g>
  </g>
</svg>