<?xml version="1.0" encoding="UTF-8"?>
<svg id="Layer_2" data-name="Layer 2" xmlns="http://www.w3.org/2000/svg" viewBox="0 0 43.29 68.03">
  <defs>
    <style>
      .cls-1 {
        fill: #7389d9;
      }

      .cls-1, .cls-2, .cls-3, .cls-4, .cls-5, .cls-6, .cls-7, .cls-8, .cls-9, .cls-10 {
        stroke-width: 0px;
      }

      .cls-2 {
        fill: #fc704d;
      }

      .cls-3 {
        fill: #44b8ac;
      }

      .cls-4 {
        fill: #879ade;
      }

      .cls-5 {
        fill: #fb3300;
      }

      .cls-6 {
        fill: #24b289;
      }

      .cls-7 {
        fill: #f7991d;
      }

      .cls-8 {
        fill: #f6b735;
      }

      .cls-9 {
        fill: #fc5226;
      }

      .cls-10 {
        fill: #fad445;
      }
    </style>
  </defs>
  <g id="Layer_1-2" data-name="Layer 1">
    <g>
      <g>
        <g>
          <polygon class="cls-5" points="18.7 50.13 8.24 44.09 8.24 23.76 16.62 28.6 16.62 29.3 8.84 24.81 8.84 43.74 18.7 49.43 18.7 50.13"/>
          <polygon class="cls-5" points="18.01 50.55 21.83 51.58 18.01 48.2 18.01 50.55"/>
        </g>
        <g>
          <polygon class="cls-5" points="36.15 40.58 28.18 35.98 28.18 35.28 35.55 39.53 35.55 23.15 26.1 17.7 26.1 17 36.15 22.81 36.15 40.58"/>
          <polygon class="cls-5" points="26.8 16.58 22.98 15.55 26.8 18.93 26.8 16.58"/>
        </g>
        <polygon class="cls-5" points="22.8 58.05 21.83 57.49 21.83 9.46 22.8 10.03 22.8 58.05"/>
        <polygon class="cls-4" points="17.47 45.64 2.02 36.72 2.02 28.86 17.47 37.78 17.47 45.64"/>
        <g>
          <polygon class="cls-2" points="41.26 32.64 25.82 23.73 27.84 22.56 43.29 31.48 41.26 32.64"/>
          <polygon class="cls-2" points="43.29 39.34 41.26 40.51 41.26 32.64 43.29 31.48 43.29 39.34"/>
        </g>
        <g>
          <polygon class="cls-3" points="15.45 38.88 0 29.96 2.02 28.79 17.47 37.71 15.45 38.88"/>
          <polygon class="cls-3" points="17.47 45.57 15.45 46.74 15.45 38.88 17.47 37.71 17.47 45.57"/>
        </g>
        <g>
          <polygon class="cls-7" points="33.16 38.5 31.14 39.67 20.29 27.11 22.31 25.94 33.16 38.5"/>
          <polygon class="cls-10" points="20.29 27.11 9.44 27.14 11.46 25.98 22.31 25.94 20.29 27.11"/>
        </g>
      </g>
      <g>
        <polygon class="cls-6" points="15.45 46.81 0 37.89 0 30.03 15.45 38.95 15.45 46.81"/>
        <polygon class="cls-9" points="41.26 40.51 25.82 31.59 25.82 23.73 41.26 32.64 41.26 40.51"/>
        <polygon class="cls-8" points="31.14 39.67 20.29 39.71 9.44 27.14 20.29 27.11 31.14 39.67"/>
      </g>
      <g>
        <polygon class="cls-1" points="27.51 67.77 12.69 55.55 14.92 54.27 29.73 66.48 27.51 67.77"/>
        <path class="cls-1" d="m30.38,65.03c0,2.5-3.61,2.43-8.07-.14-4.46-2.57-8.07-6.68-8.07-9.18s3.61-2.43,8.07.14c4.46,2.57,8.07,6.68,8.07,9.18Z"/>
        <path class="cls-4" d="m28.36,66.19c0,2.5-3.61,2.43-8.07-.14-4.46-2.57-8.07-6.68-8.07-9.18s3.61-2.43,8.07.14c4.46,2.57,8.07,6.68,8.07,9.18Z"/>
      </g>
      <g>
        <polygon class="cls-1" points="27.51 13.89 12.69 1.68 14.92 .39 29.73 12.61 27.51 13.89"/>
        <ellipse class="cls-1" cx="22.31" cy="6.49" rx="3.78" ry="9.64" transform="translate(3.83 20.57) rotate(-53.51)"/>
        <path class="cls-4" d="m28.36,12.32c0,2.49-3.61,2.43-8.07-.14-4.46-2.57-8.07-6.68-8.07-9.18s3.61-2.43,8.07.14c4.46,2.57,8.07,6.68,8.07,9.18Z"/>
      </g>
    </g>
  </g>
</svg>