<?xml version="1.0" encoding="UTF-8"?>
<svg id="Layer_2" data-name="Layer 2" xmlns="http://www.w3.org/2000/svg" xmlns:xlink="http://www.w3.org/1999/xlink" viewBox="0 0 92.26 124.89">
  <defs>
    <style>
      .cls-1 {
        fill: url(#linear-gradient-38);
      }

      .cls-1, .cls-2, .cls-3, .cls-4, .cls-5, .cls-6, .cls-7, .cls-8, .cls-9, .cls-10, .cls-11, .cls-12, .cls-13, .cls-14, .cls-15, .cls-16, .cls-17, .cls-18, .cls-19, .cls-20, .cls-21, .cls-22, .cls-23, .cls-24, .cls-25, .cls-26, .cls-27, .cls-28, .cls-29, .cls-30, .cls-31, .cls-32, .cls-33, .cls-34, .cls-35, .cls-36, .cls-37, .cls-38, .cls-39, .cls-40, .cls-41, .cls-42, .cls-43, .cls-44, .cls-45, .cls-46, .cls-47, .cls-48, .cls-49, .cls-50, .cls-51, .cls-52, .cls-53, .cls-54, .cls-55, .cls-56, .cls-57, .cls-58, .cls-59, .cls-60, .cls-61, .cls-62, .cls-63, .cls-64, .cls-65, .cls-66, .cls-67, .cls-68, .cls-69, .cls-70, .cls-71, .cls-72, .cls-73, .cls-74, .cls-75, .cls-76, .cls-77, .cls-78, .cls-79, .cls-80, .cls-81, .cls-82, .cls-83, .cls-84, .cls-85, .cls-86, .cls-87, .cls-88 {
        stroke-width: 0px;
      }

      .cls-2 {
        fill: url(#linear-gradient-12);
      }

      .cls-3 {
        fill: url(#linear-gradient-17);
      }

      .cls-4 {
        fill: url(#linear-gradient-19);
      }

      .cls-5 {
        fill: url(#linear-gradient-33);
      }

      .cls-6 {
        fill: url(#linear-gradient);
      }

      .cls-7 {
        fill: url(#linear-gradient-62);
      }

      .cls-8 {
        fill: url(#linear-gradient-67);
      }

      .cls-9 {
        fill: url(#linear-gradient-57);
      }

      .cls-10 {
        fill: #7389d9;
      }

      .cls-11 {
        fill: #a2bfef;
      }

      .cls-12 {
        fill: #f4b082;
      }

      .cls-13 {
        fill: url(#linear-gradient-21);
      }

      .cls-14 {
        fill: #44b8ac;
      }

      .cls-15 {
        fill: url(#linear-gradient-6);
      }

      .cls-16 {
        fill: #120a30;
      }

      .cls-17 {
        fill: url(#linear-gradient-42);
      }

      .cls-18 {
        fill: #ffc69c;
      }

      .cls-19 {
        fill: url(#linear-gradient-15);
      }

      .cls-20 {
        fill: url(#linear-gradient-11);
      }

      .cls-21 {
        fill: #879ade;
      }

      .cls-22 {
        fill: url(#linear-gradient-5);
      }

      .cls-23 {
        fill: #99aff0;
      }

      .cls-24 {
        fill: url(#linear-gradient-31);
      }

      .cls-25 {
        fill: url(#linear-gradient-71);
      }

      .cls-26 {
        fill: url(#linear-gradient-58);
      }

      .cls-27 {
        fill: url(#linear-gradient-63);
      }

      .cls-28 {
        fill: url(#linear-gradient-34);
      }

      .cls-29 {
        fill: url(#linear-gradient-41);
      }

      .cls-30 {
        fill: url(#linear-gradient-40);
      }

      .cls-31 {
        fill: url(#linear-gradient-66);
      }

      .cls-32 {
        fill: url(#linear-gradient-13);
      }

      .cls-33 {
        fill: url(#linear-gradient-23);
      }

      .cls-34 {
        fill: url(#linear-gradient-25);
      }

      .cls-35 {
        fill: url(#linear-gradient-43);
      }

      .cls-36 {
        fill: url(#linear-gradient-16);
      }

      .cls-37 {
        fill: url(#linear-gradient-22);
      }

      .cls-38 {
        fill: url(#linear-gradient-54);
      }

      .cls-39 {
        fill: url(#linear-gradient-55);
      }

      .cls-40 {
        fill: #fff;
      }

      .cls-41 {
        fill: url(#linear-gradient-35);
      }

      .cls-42 {
        fill: url(#linear-gradient-50);
      }

      .cls-43 {
        fill: url(#linear-gradient-32);
      }

      .cls-44 {
        fill: url(#linear-gradient-60);
      }

      .cls-45 {
        fill: url(#linear-gradient-59);
      }

      .cls-46 {
        fill: url(#linear-gradient-20);
      }

      .cls-47 {
        fill: url(#linear-gradient-14);
      }

      .cls-48 {
        fill: url(#linear-gradient-2);
      }

      .cls-49 {
        fill: url(#linear-gradient-52);
      }

      .cls-50 {
        fill: #24b289;
      }

      .cls-51 {
        fill: url(#linear-gradient-45);
      }

      .cls-52 {
        fill: url(#linear-gradient-7);
      }

      .cls-53 {
        fill: url(#linear-gradient-39);
      }

      .cls-54 {
        fill: url(#linear-gradient-3);
      }

      .cls-55 {
        fill: #2a3463;
      }

      .cls-56 {
        fill: #ffa15c;
      }

      .cls-57 {
        fill: url(#linear-gradient-69);
      }

      .cls-58 {
        fill: url(#linear-gradient-9);
      }

      .cls-59 {
        fill: url(#linear-gradient-27);
      }

      .cls-60 {
        fill: url(#linear-gradient-53);
      }

      .cls-61 {
        fill: url(#linear-gradient-65);
      }

      .cls-62 {
        fill: url(#linear-gradient-36);
      }

      .cls-63 {
        fill: url(#linear-gradient-48);
      }

      .cls-64 {
        fill: url(#linear-gradient-49);
      }

      .cls-65 {
        fill: url(#linear-gradient-8);
      }

      .cls-66 {
        fill: url(#linear-gradient-47);
      }

      .cls-67 {
        fill: url(#linear-gradient-24);
      }

      .cls-68 {
        fill: url(#linear-gradient-26);
      }

      .cls-69 {
        fill: url(#linear-gradient-61);
      }

      .cls-70 {
        fill: #f7991d;
      }

      .cls-71 {
        fill: url(#linear-gradient-18);
      }

      .cls-72 {
        fill: #f6b735;
      }

      .cls-73 {
        fill: #085956;
      }

      .cls-74 {
        fill: url(#linear-gradient-51);
      }

      .cls-75 {
        fill: url(#linear-gradient-30);
      }

      .cls-76 {
        fill: url(#linear-gradient-44);
      }

      .cls-77 {
        fill: url(#linear-gradient-68);
      }

      .cls-78 {
        fill: url(#linear-gradient-72);
      }

      .cls-79 {
        fill: url(#linear-gradient-29);
      }

      .cls-80 {
        fill: url(#linear-gradient-46);
      }

      .cls-81 {
        fill: url(#linear-gradient-64);
      }

      .cls-82 {
        fill: url(#linear-gradient-28);
      }

      .cls-83 {
        fill: url(#linear-gradient-56);
      }

      .cls-84 {
        fill: url(#linear-gradient-10);
      }

      .cls-85 {
        fill: url(#linear-gradient-70);
      }

      .cls-86 {
        fill: url(#linear-gradient-4);
      }

      .cls-87 {
        fill: #fad445;
      }

      .cls-88 {
        fill: url(#linear-gradient-37);
      }
    </style>
    <linearGradient id="linear-gradient" x1="-5043.39" y1="-1955.79" x2="-5041.85" y2="-1955.79" gradientTransform="translate(-4988.04 -1887.35) rotate(-180)" gradientUnits="userSpaceOnUse">
      <stop offset="0" stop-color="#7389d9"/>
      <stop offset="1" stop-color="#34355d"/>
    </linearGradient>
    <linearGradient id="linear-gradient-2" x1="-5042.13" y1="-1955.06" x2="-5040.59" y2="-1955.06" xlink:href="#linear-gradient"/>
    <linearGradient id="linear-gradient-3" x1="-5027.02" y1="-1946.33" x2="-5025.47" y2="-1946.33" xlink:href="#linear-gradient"/>
    <linearGradient id="linear-gradient-4" x1="-5044.46" y1="-1955.27" x2="-5042.57" y2="-1955.27" xlink:href="#linear-gradient"/>
    <linearGradient id="linear-gradient-5" x1="-5043.2" y1="-1954.54" x2="-5041.31" y2="-1954.54" xlink:href="#linear-gradient"/>
    <linearGradient id="linear-gradient-6" x1="-5030.6" y1="-1947.27" x2="-5028.71" y2="-1947.27" xlink:href="#linear-gradient"/>
    <linearGradient id="linear-gradient-7" x1="-5031.86" y1="-1948" x2="-5029.97" y2="-1948" xlink:href="#linear-gradient"/>
    <linearGradient id="linear-gradient-8" x1="-5033.12" y1="-1948.73" x2="-5031.23" y2="-1948.73" xlink:href="#linear-gradient"/>
    <linearGradient id="linear-gradient-9" x1="-5034.38" y1="-1949.45" x2="-5032.49" y2="-1949.45" xlink:href="#linear-gradient"/>
    <linearGradient id="linear-gradient-10" x1="-5035.64" y1="-1950.18" x2="-5033.75" y2="-1950.18" xlink:href="#linear-gradient"/>
    <linearGradient id="linear-gradient-11" x1="-5036.9" y1="-1950.91" x2="-5035.01" y2="-1950.91" xlink:href="#linear-gradient"/>
    <linearGradient id="linear-gradient-12" x1="-5038.16" y1="-1951.64" x2="-5036.27" y2="-1951.64" xlink:href="#linear-gradient"/>
    <linearGradient id="linear-gradient-13" x1="-5039.42" y1="-1952.36" x2="-5037.53" y2="-1952.36" xlink:href="#linear-gradient"/>
    <linearGradient id="linear-gradient-14" x1="-5040.68" y1="-1953.09" x2="-5038.79" y2="-1953.09" xlink:href="#linear-gradient"/>
    <linearGradient id="linear-gradient-15" x1="-5041.94" y1="-1953.82" x2="-5040.05" y2="-1953.82" xlink:href="#linear-gradient"/>
    <linearGradient id="linear-gradient-16" x1="-5029.34" y1="-1946.18" x2="-5026.19" y2="-1946.18" xlink:href="#linear-gradient"/>
    <linearGradient id="linear-gradient-17" x1="-5045.48" y1="-1954.5" x2="-5042.98" y2="-1954.5" xlink:href="#linear-gradient"/>
    <linearGradient id="linear-gradient-18" x1="-5029.09" y1="-1945.22" x2="-5027.21" y2="-1945.22" xlink:href="#linear-gradient"/>
    <linearGradient id="linear-gradient-19" x1="-5046.51" y1="-1953.83" x2="-5043.72" y2="-1953.83" xlink:href="#linear-gradient"/>
    <linearGradient id="linear-gradient-20" x1="-5033.54" y1="-1946.6" x2="-5031.65" y2="-1946.6" xlink:href="#linear-gradient"/>
    <linearGradient id="linear-gradient-21" x1="-5034.9" y1="-1947.38" x2="-5033.01" y2="-1947.38" xlink:href="#linear-gradient"/>
    <linearGradient id="linear-gradient-22" x1="-5036.27" y1="-1948.15" x2="-5034.38" y2="-1948.15" xlink:href="#linear-gradient"/>
    <linearGradient id="linear-gradient-23" x1="-5037.63" y1="-1948.93" x2="-5035.74" y2="-1948.93" xlink:href="#linear-gradient"/>
    <linearGradient id="linear-gradient-24" x1="-5039" y1="-1949.7" x2="-5037.1" y2="-1949.7" xlink:href="#linear-gradient"/>
    <linearGradient id="linear-gradient-25" x1="-5040.36" y1="-1950.48" x2="-5038.47" y2="-1950.48" xlink:href="#linear-gradient"/>
    <linearGradient id="linear-gradient-26" x1="-5041.72" y1="-1951.25" x2="-5039.83" y2="-1951.25" xlink:href="#linear-gradient"/>
    <linearGradient id="linear-gradient-27" x1="-5043.09" y1="-1952.03" x2="-5041.2" y2="-1952.03" xlink:href="#linear-gradient"/>
    <linearGradient id="linear-gradient-28" x1="-5044.45" y1="-1952.8" x2="-5042.56" y2="-1952.8" xlink:href="#linear-gradient"/>
    <linearGradient id="linear-gradient-29" x1="-5032.19" y1="-1945.82" x2="-5030.3" y2="-1945.82" xlink:href="#linear-gradient"/>
    <linearGradient id="linear-gradient-30" x1="-5030.95" y1="-1944.87" x2="-5028.24" y2="-1944.87" xlink:href="#linear-gradient"/>
    <linearGradient id="linear-gradient-31" x1="-5047.53" y1="-1953.13" x2="-5044.38" y2="-1953.13" xlink:href="#linear-gradient"/>
    <linearGradient id="linear-gradient-32" x1="-5045.01" y1="-1952.04" x2="-5043.12" y2="-1952.04" xlink:href="#linear-gradient"/>
    <linearGradient id="linear-gradient-33" x1="-5033.67" y1="-1945.5" x2="-5031.78" y2="-1945.5" xlink:href="#linear-gradient"/>
    <linearGradient id="linear-gradient-34" x1="-5034.93" y1="-1946.23" x2="-5033.04" y2="-1946.23" xlink:href="#linear-gradient"/>
    <linearGradient id="linear-gradient-35" x1="-5036.19" y1="-1946.95" x2="-5034.3" y2="-1946.95" xlink:href="#linear-gradient"/>
    <linearGradient id="linear-gradient-36" x1="-5037.45" y1="-1947.68" x2="-5035.56" y2="-1947.68" xlink:href="#linear-gradient"/>
    <linearGradient id="linear-gradient-37" x1="-5038.71" y1="-1948.41" x2="-5036.82" y2="-1948.41" xlink:href="#linear-gradient"/>
    <linearGradient id="linear-gradient-38" x1="-5039.97" y1="-1949.14" x2="-5038.08" y2="-1949.14" xlink:href="#linear-gradient"/>
    <linearGradient id="linear-gradient-39" x1="-5041.23" y1="-1949.87" x2="-5039.34" y2="-1949.87" xlink:href="#linear-gradient"/>
    <linearGradient id="linear-gradient-40" x1="-5042.49" y1="-1950.59" x2="-5040.6" y2="-1950.59" xlink:href="#linear-gradient"/>
    <linearGradient id="linear-gradient-41" x1="-5043.75" y1="-1951.32" x2="-5041.86" y2="-1951.32" xlink:href="#linear-gradient"/>
    <linearGradient id="linear-gradient-42" x1="-5032.32" y1="-1944.38" x2="-5029.26" y2="-1944.38" xlink:href="#linear-gradient"/>
    <linearGradient id="linear-gradient-43" x1="-5048.56" y1="-1952.91" x2="-5046.66" y2="-1952.91" xlink:href="#linear-gradient"/>
    <linearGradient id="linear-gradient-44" x1="-5047.3" y1="-1952.18" x2="-5045.4" y2="-1952.18" xlink:href="#linear-gradient"/>
    <linearGradient id="linear-gradient-45" x1="-5046.04" y1="-1951.45" x2="-5044.14" y2="-1951.45" xlink:href="#linear-gradient"/>
    <linearGradient id="linear-gradient-46" x1="-5044.8" y1="-1950.73" x2="-5042.91" y2="-1950.73" xlink:href="#linear-gradient"/>
    <linearGradient id="linear-gradient-47" x1="-5043.52" y1="-1947.81" x2="-5034.06" y2="-1947.81" xlink:href="#linear-gradient"/>
    <linearGradient id="linear-gradient-48" x1="-5034.7" y1="-1944.79" x2="-5033.22" y2="-1944.79" xlink:href="#linear-gradient"/>
    <linearGradient id="linear-gradient-49" x1="-5033.44" y1="-1944.18" x2="-5031.55" y2="-1944.18" xlink:href="#linear-gradient"/>
    <linearGradient id="linear-gradient-50" x1="-5032.18" y1="-1943.33" x2="-5030.7" y2="-1943.33" xlink:href="#linear-gradient"/>
    <linearGradient id="linear-gradient-51" x1="-5030.42" y1="-1945.99" x2="-5028.54" y2="-1945.99" xlink:href="#linear-gradient"/>
    <linearGradient id="linear-gradient-52" x1="-5031.75" y1="-1946.76" x2="-5029.87" y2="-1946.76" xlink:href="#linear-gradient"/>
    <linearGradient id="linear-gradient-53" x1="-5033.08" y1="-1947.52" x2="-5031.2" y2="-1947.52" xlink:href="#linear-gradient"/>
    <linearGradient id="linear-gradient-54" x1="-5034.41" y1="-1948.29" x2="-5032.52" y2="-1948.29" xlink:href="#linear-gradient"/>
    <linearGradient id="linear-gradient-55" x1="-5035.74" y1="-1949.05" x2="-5033.85" y2="-1949.05" xlink:href="#linear-gradient"/>
    <linearGradient id="linear-gradient-56" x1="-5037.06" y1="-1949.82" x2="-5035.18" y2="-1949.82" xlink:href="#linear-gradient"/>
    <linearGradient id="linear-gradient-57" x1="-5038.39" y1="-1950.59" x2="-5036.51" y2="-1950.59" xlink:href="#linear-gradient"/>
    <linearGradient id="linear-gradient-58" x1="-5039.72" y1="-1951.35" x2="-5037.84" y2="-1951.35" xlink:href="#linear-gradient"/>
    <linearGradient id="linear-gradient-59" x1="-5041.05" y1="-1952.12" x2="-5039.17" y2="-1952.12" xlink:href="#linear-gradient"/>
    <linearGradient id="linear-gradient-60" x1="-5042.38" y1="-1952.88" x2="-5040.49" y2="-1952.88" xlink:href="#linear-gradient"/>
    <linearGradient id="linear-gradient-61" x1="-5043.71" y1="-1953.65" x2="-5041.82" y2="-1953.65" xlink:href="#linear-gradient"/>
    <linearGradient id="linear-gradient-62" x1="-5028.27" y1="-1947.06" x2="-5026.73" y2="-1947.06" xlink:href="#linear-gradient"/>
    <linearGradient id="linear-gradient-63" x1="-5029.53" y1="-1947.79" x2="-5027.99" y2="-1947.79" xlink:href="#linear-gradient"/>
    <linearGradient id="linear-gradient-64" x1="-5030.79" y1="-1948.52" x2="-5029.25" y2="-1948.52" xlink:href="#linear-gradient"/>
    <linearGradient id="linear-gradient-65" x1="-5032.05" y1="-1949.24" x2="-5030.51" y2="-1949.24" xlink:href="#linear-gradient"/>
    <linearGradient id="linear-gradient-66" x1="-5033.31" y1="-1949.97" x2="-5031.77" y2="-1949.97" xlink:href="#linear-gradient"/>
    <linearGradient id="linear-gradient-67" x1="-5034.57" y1="-1950.7" x2="-5033.03" y2="-1950.7" xlink:href="#linear-gradient"/>
    <linearGradient id="linear-gradient-68" x1="-5035.83" y1="-1951.43" x2="-5034.29" y2="-1951.43" xlink:href="#linear-gradient"/>
    <linearGradient id="linear-gradient-69" x1="-5037.09" y1="-1952.16" x2="-5035.55" y2="-1952.16" xlink:href="#linear-gradient"/>
    <linearGradient id="linear-gradient-70" x1="-5038.35" y1="-1952.89" x2="-5036.81" y2="-1952.89" xlink:href="#linear-gradient"/>
    <linearGradient id="linear-gradient-71" x1="-5039.61" y1="-1953.61" x2="-5038.07" y2="-1953.61" xlink:href="#linear-gradient"/>
    <linearGradient id="linear-gradient-72" x1="-5040.87" y1="-1954.34" x2="-5039.33" y2="-1954.34" xlink:href="#linear-gradient"/>
  </defs>
  <g id="Layer_1-2" data-name="Layer 1">
    <g>
      <g>
        <g>
          <g>
            <g>
              <g>
                <g>
                  <path class="cls-73" d="m50.98,90.46s.08.06.13.07l-.13-.07Z"/>
                  <path class="cls-23" d="m51.97,91c0,.26.08.44.2.54.16.14.41.14.69-.02.49-.28.9-.98.9-1.55,0-.15-.03-.27-.07-.37-.06-.12-.15-.21-.27-.25-.15-.05-.35-.02-.56.1-.09.05-.18.12-.26.2-.28.26-.51.65-.59,1.03-.02.09-.03.18-.04.26,0,.02,0,.04,0,.06Z"/>
                  <path class="cls-23" d="m51.9,90.57c0,.15.03.27.07.37,0-.09.02-.17.04-.26.09-.38.31-.76.59-1.03.08-.08.17-.15.26-.2.21-.12.4-.15.55-.1.12.04.21.12.27.25,0-.02,0-.04,0-.06,0-.33-.13-.54-.34-.61-.15-.05-.33-.03-.53.08-.12.07-.21.13-.29.21-.28.26-.51.65-.59,1.03-.03.11-.04.22-.04.33Z"/>
                  <path class="cls-23" d="m50.78,89.92c0,.15.03.27.07.37.03.07.08.13.13.17,0,0,.13.07.13.07l.86.5c0-.05,0-.07,0-.09-.05-.1-.07-.22-.07-.37,0-.11.01-.22.04-.33.09-.38.31-.76.59-1.03.08-.08.17-.15.26-.2.22-.12.41-.15.55-.1l-.97-.56c-.16-.14-.42-.15-.7.01-.49.29-.89.98-.89,1.55Z"/>
                  <path class="cls-23" d="m50.85,90.35c0,.25.08.43.2.54,0,0,.13.07.13.07l.99.57c-.12-.1-.19-.27-.2-.51l-.86-.5-.13-.07c-.05-.04-.1-.1-.13-.17,0,.02,0,.04,0,.06Z"/>
                </g>
                <g>
                  <path class="cls-73" d="m72.38,78.1s.08.06.13.07l-.13-.07Z"/>
                  <path class="cls-23" d="m73.37,78.64c0,.26.08.44.2.54.16.14.41.14.69-.02.49-.29.9-.98.9-1.55,0-.15-.03-.27-.07-.37-.06-.12-.15-.21-.27-.25-.15-.05-.35-.02-.56.1-.09.05-.18.12-.26.2-.28.26-.51.65-.59,1.03-.02.09-.03.18-.04.26,0,.02,0,.04,0,.06Z"/>
                  <path class="cls-23" d="m73.3,78.21c0,.15.03.27.07.37,0-.09.02-.17.04-.26.09-.38.31-.76.59-1.03.08-.08.17-.15.26-.2.21-.12.4-.15.55-.1.12.04.21.12.27.25,0-.02,0-.04,0-.06,0-.33-.13-.54-.34-.61-.15-.05-.33-.03-.53.08-.12.07-.21.13-.29.21-.28.26-.51.65-.59,1.03-.03.11-.04.22-.04.33Z"/>
                  <path class="cls-23" d="m72.18,77.57c0,.15.03.27.07.37.03.07.08.13.13.17,0,0,.13.07.13.07l.86.5c0-.05,0-.07,0-.09-.05-.1-.07-.22-.07-.37,0-.11.01-.22.04-.33.09-.38.31-.76.59-1.03.08-.08.17-.15.26-.2.22-.12.41-.15.55-.1l-.97-.56c-.16-.14-.42-.15-.7.01-.49.29-.89.98-.89,1.55Z"/>
                  <path class="cls-23" d="m72.25,78c0,.25.08.43.2.54,0,0,.13.07.13.07l.99.57c-.12-.1-.2-.27-.2-.51l-.86-.5-.13-.07c-.05-.04-.1-.1-.13-.17,0,.02,0,.04,0,.06Z"/>
                </g>
                <g>
                  <path class="cls-73" d="m72.38,90.46s.08.06.13.07l-.13-.07Z"/>
                  <path class="cls-23" d="m73.37,91c0,.26.08.44.2.54.16.14.41.14.69-.02.49-.28.9-.98.9-1.55,0-.15-.03-.27-.07-.37-.06-.12-.15-.21-.27-.25-.15-.05-.35-.02-.56.1-.09.05-.18.12-.26.2-.28.26-.51.65-.59,1.03-.02.09-.03.18-.04.26,0,.02,0,.04,0,.06Z"/>
                  <path class="cls-23" d="m73.3,90.57c0,.15.03.27.07.37,0-.09.02-.17.04-.26.09-.38.31-.76.59-1.03.08-.08.17-.15.26-.2.21-.12.4-.15.55-.1.12.04.21.12.27.25,0-.02,0-.04,0-.06,0-.33-.13-.54-.34-.61-.15-.05-.33-.03-.53.08-.12.07-.21.13-.29.21-.28.26-.51.65-.59,1.03-.03.11-.04.22-.04.33Z"/>
                  <path class="cls-23" d="m72.18,89.92c0,.15.03.27.07.37.03.07.08.13.13.17,0,0,.13.07.13.07l.86.5c0-.05,0-.07,0-.09-.05-.1-.07-.22-.07-.37,0-.11.01-.22.04-.33.09-.38.31-.76.59-1.03.08-.08.17-.15.26-.2.22-.12.41-.15.55-.1l-.97-.56c-.16-.14-.42-.15-.7.01-.49.29-.89.98-.89,1.55Z"/>
                  <path class="cls-23" d="m72.25,90.35c0,.25.08.43.2.54,0,0,.13.07.13.07l.99.57c-.12-.1-.2-.27-.2-.51l-.86-.5-.13-.07c-.05-.04-.1-.1-.13-.17,0,.02,0,.04,0,.06Z"/>
                </g>
                <g>
                  <path class="cls-73" d="m50.98,78.1s.08.06.13.07l-.13-.07Z"/>
                  <path class="cls-23" d="m51.97,78.64c0,.26.08.44.2.54.16.14.41.14.69-.02.49-.29.9-.98.9-1.55,0-.15-.03-.27-.07-.37-.06-.12-.15-.21-.27-.25-.15-.05-.35-.02-.56.1-.09.05-.18.12-.26.2-.28.26-.51.65-.59,1.03-.02.09-.03.18-.04.26,0,.02,0,.04,0,.06Z"/>
                  <path class="cls-23" d="m51.9,78.21c0,.15.03.27.07.37,0-.09.02-.17.04-.26.09-.38.31-.76.59-1.03.08-.08.17-.15.26-.2.21-.12.4-.15.55-.1.12.04.21.12.27.25,0-.02,0-.04,0-.06,0-.33-.13-.54-.34-.61-.15-.05-.33-.03-.53.08-.12.07-.21.13-.29.21-.28.26-.51.65-.59,1.03-.03.11-.04.22-.04.33Z"/>
                  <path class="cls-23" d="m50.78,77.57c0,.15.03.27.07.37.03.07.08.13.13.17,0,0,.13.07.13.07l.86.5c0-.05,0-.07,0-.09-.05-.1-.07-.22-.07-.37,0-.11.01-.22.04-.33.09-.38.31-.76.59-1.03.08-.08.17-.15.26-.2.22-.12.41-.15.55-.1l-.97-.56c-.16-.14-.42-.15-.7.01-.49.29-.89.98-.89,1.55Z"/>
                  <path class="cls-23" d="m50.85,78c0,.25.08.43.2.54,0,0,.13.07.13.07l.99.57c-.12-.1-.19-.27-.2-.51l-.86-.5-.13-.07c-.05-.04-.1-.1-.13-.17,0,.02,0,.04,0,.06Z"/>
                </g>
                <path class="cls-23" d="m51.43,75.63c.11-.02.44-.3.58-.33,3.31-.7,7.15.21,10.99,2.42,3.85,2.22,7.71,5.75,11.03,10.29.27.37.35.81.18.97-.12.12-.5.25-.58.33-.17.17-.51.02-.76-.33-3.15-4.3-6.8-7.65-10.46-9.75-3.64-2.1-7.27-2.96-10.41-2.3-.25.05-.59-.18-.75-.54-.17-.37-.09-.72.18-.77Z"/>
                <path class="cls-23" d="m51.43,88.34c3.31-4.52,7.15-8.04,10.99-10.26,3.85-2.23,7.71-3.15,11.03-2.45.14.03.47.31.58.33.27.06.35.4.18.76-.17.37-.51.6-.76.55-3.15-.66-6.8.21-10.46,2.32-3.64,2.1-7.27,5.44-10.41,9.73-.25.35-.59.5-.75.33-.09-.09-.46-.22-.58-.33-.17-.17-.09-.61.18-.98Z"/>
              </g>
              <path class="cls-23" d="m62.58,78.78c.3.17.78.17,1.08,0,.22-.13.28-.31.17-.47v-13.02l-1.44.83v12.22c-.08.15-.01.32.19.43Z"/>
            </g>
            <g>
              <g>
                <path class="cls-11" d="m58.62,50.15s-1.78-.39-2.67.12l-8.26,4.77c-.74.43-1.26,1.56-1.03,2.23l2.02,5.95s1.59,1.13,1.4.74c-.18-.39-.46-1.72-.58-2.36-.09-.46-.65-2.37-1.22-3.9-.18-.47.2-1.38.72-1.69,2.33-1.41,7.97-4.72,8.54-4.78.74-.07,2.58-.21,2.58-.21,0,0-1.04-.63-1.5-.89Z"/>
                <path class="cls-23" d="m60,50.95s-1.78-.39-2.67.12l-8.26,4.77c-.74.43-1.26,1.56-1.03,2.23l2.02,5.95s1.14-.27.95-.66c-.18-.39-.67-.14-.8-.78-.09-.47-1.16-3.34-1.73-4.86-.18-.47.18-1.27.71-1.59,2.33-1.41,7.75-4.65,8.33-4.71.74-.07,2.33.07,2.33.07,0,0,.61-.28.15-.55Z"/>
              </g>
              <path class="cls-21" d="m43.82,69.34s16.09,9.15,16.09,9.15l3.04-3.2,11.32-7.18,2.01-2.95-.58-6.14,2.15-11.49-16.18-9.31s-.22.38-.22.38c-.45,1.72-2.61,10.15-2.53,11.47.09,1.47,1.83,4.1.12,7.05-1.7,2.95-9.42,6.43-10.68,7.16-.78.45-2.33,1.84-3.41,3.07-.67.77-1.16,1.47-1.16,1.83,0,.07,0,.12.02.15Z"/>
              <path class="cls-10" d="m77.65,47.6s-2.7,10.31-2.61,11.78c.09,1.47,1.83,4.1.12,7.05-1.7,2.95-9.42,6.43-10.68,7.16-1.26.73-4.57,3.95-4.57,4.91s1.66-1.98,2.95-2.73c1.29-.74,10.51-4.77,12.98-9.05s.49-5.27.49-7.9,1.66-9.04,1.72-10.07c.06-1.03-.26-1.39-.4-1.15Z"/>
            </g>
          </g>
          <g>
            <g>
              <g>
                <g>
                  <path class="cls-23" d="m56.24,87.85s-.1,0-.15,0c-.74-.08-1.27-.75-1.19-1.49l2.63-23.32c.08-.74.72-1.28,1.49-1.19.74.08,1.27.75,1.19,1.49l-2.63,23.32c-.08.69-.66,1.2-1.34,1.2Z"/>
                  <path class="cls-23" d="m68.18,84.86c-.7,0-1.29-.54-1.34-1.25l-1.54-22.27c-.05-.74.51-1.39,1.25-1.44.73-.04,1.39.51,1.44,1.25l1.54,22.27c.05.74-.51,1.39-1.25,1.44-.03,0-.06,0-.09,0Z"/>
                  <path class="cls-23" d="m65.1,91.28c-2.65,0-5.17-.61-7.08-1.71-2.15-1.24-3.33-2.97-3.33-4.87s1.18-3.63,3.33-4.86c1.91-1.1,4.43-1.71,7.08-1.71s5.17.61,7.08,1.71c2.14,1.24,3.33,2.97,3.33,4.86s-1.18,3.63-3.33,4.86c-1.91,1.1-4.43,1.71-7.08,1.71Zm0-10.46c-2.15,0-4.24.49-5.73,1.35-1.26.73-1.98,1.65-1.98,2.53s.72,1.8,1.98,2.53c1.49.86,3.58,1.35,5.73,1.35s4.24-.49,5.73-1.35c1.26-.73,1.98-1.65,1.98-2.53s-.72-1.81-1.98-2.53c-1.49-.86-3.58-1.35-5.73-1.35Z"/>
                  <path class="cls-23" d="m63.2,96.1c-.7,0-1.29-.54-1.34-1.25l-1.82-25.42c-.05-.74.51-1.39,1.25-1.44.74-.04,1.39.51,1.44,1.25l1.82,25.42c.05.74-.51,1.39-1.25,1.44-.03,0-.07,0-.1,0Z"/>
                </g>
                <g>
                  <path class="cls-73" d="m56.21,41.9c-2.78,1.77-8.08,6.12-8.08,6.12,0,0,1.7-.51,2.43.95.74,1.46.11,2.39.11,2.39,0,0,7.03-4.3,7.81-5.86.78-1.56.5-5.36-2.27-3.59Z"/>
                  <path class="cls-16" d="m62.61,33.71s.25.14.86-.09c.61-.23,2.19-.08,2.89.98.71,1.06.62,3.17-1,4.62-1.62,1.44-2.9-5.63-2.9-5.63l.14.13Z"/>
                  <path class="cls-40" d="m62.89,42.02s1.2,1.2,3.1,2.1c2.02.96,2.35.95,2,4.8-.35,3.85,1.06,5.49,1.06,8.15,0,.53,1.15,2.48,1.85,3.63.7,1.15-.55,3.82-.55,3.82,0,0,2.5,2.75-2.1,1.65-4.6-1.1-12.34-3.04-9.95-7.2.66-1.15.19-3.24-.11-4.84-.3-1.6-3.16-12.05-1.6-12.95,1.56-.9,2.74.5,3.87.85,1.13.35,2.43,0,2.43,0Z"/>
                  <path class="cls-21" d="m67.25,50.52c0,2.45-1.94,4.07-3.32,4.07s-2.5-1.12-2.5-2.5,1.12-2.5,2.5-2.5,3.32-.46,3.32.92Z"/>
                  <path class="cls-11" d="m64.9,62.61c-.6-1.92-6.45-3.15-6.45-3.15,0,0,1.51,1.62-3.69,4.14-5.51,2.67-8.58,7.14-7.61,8.11.97.97,1.55,5.6,1.55,7.67s-.25,3.99-1.05,5.03c-.8,1.04-2.07,2.47-2.35,2.75-.28.28-.3,2.1.25,2.42.54.31,2.8-.99,3.5-1.68.7-.7,1.76-2.76,2.36-2.76s-.11-1.58-.11-3.08,1.55-5.45,1.13-7.35c-.43-1.9-.98-1.95-1.18-4.43-.2-2.48,11.98-3.38,11.98-3.38l1.67-4.29Z"/>
                  <path class="cls-11" d="m54.55,86.31s-.87,1.93-2.05,3.1-1.74,2.37-1.24,2.66c1.05.61.41.36,1.76.36s2.68-1.49,3.08-2.29c.22-.44.85-1.07,1.37-1.55.45-.41.6-1.05.4-1.63-.19-.54-.39-1.22-.39-1.79,0-.67-.21-2.12.49-4.06.7-1.94,2.38-2.3.57-6.97-1.3-3.35,13.04-6.6,12.87-8.83-.96-12.75-8.84-6.35-8.55-1.35,0,0-10.9,6.18-9.75,8.62,1.15,2.45,1.23,3.68,1.33,5.03.1,1.35.12,8.69.12,8.69Z"/>
                  <path class="cls-73" d="m57.98,87.36s.18.75.18,1.24-.29.96-.29.96l-.76.44-.21-.13s-1.94,2.56-2.91,2.94c-.97.37-2.59.78-3.58.21-.99-.57.35-1.71.57-1.83.22-.13,3.13-.19,3.13-.19l3.88-3.64Z"/>
                  <path class="cls-73" d="m51.96,83.91s.18.75.18,1.24-.29.96-.29.96l-.76.44-.21-.13s-1.65,2.26-2.54,2.79c-.87.51-2.63,1-3.61.43-.99-.57.23-1.9.45-2.03.22-.13,2.91-.06,2.91-.06l3.88-3.64Z"/>
                  <path class="cls-11" d="m52.12,89.82s-.48.48.53.84c1.97.7,4.13-2.8,4.61-3.71.34-.64.39-.85.39-.85,0,0,.71.9.44,2.01-.27,1.1-.99,1.17-1.76,2.25-.93,1.31-2.44,2.98-5.27,2.61-1.47-.19-.3-1.63.04-1.98.35-.35,1.02-1.17,1.02-1.17Z"/>
                  <path class="cls-11" d="m46.36,85.99s-.87,1.1.18,1.33c1.05.22,3.68-2.05,4.16-2.96.34-.64.66-1.41.66-1.41,0,0,1,.98.73,2.09-.27,1.1-.99.64-1.76,1.72-.93,1.31-2.19,3.2-5.02,2.83-1.47-.19-1.05-1.1.11-2.53.31-.38.94-1.06.94-1.06Z"/>
                  <path class="cls-55" d="m58.19,56.3c-.33,1.06.71,2.39,2.73,3.55,2.7,1.56,9.56.15,9.15-.73,0,0,2.23,1.94,1.99,3.75-1.21,8.84-11.65,7.87-11.89,9.14,0,0-1.58,5.62-7,3.9-5.41-1.72-6.28-4.94-6.87-6.15-2.07-4.3,8.77-10.23,10.45-12.53.99-1.35,1.43-.95,1.43-.95Z"/>
                  <path class="cls-73" d="m58.77,55.35c-.41,2.02.38,3.21-.19,5.2-.84-.25-.84-.03-1.41-.48-.46-.37-3.58-1.5-2.44-3.04,1.46-1.97,3.86-3.6,3.27-4.12-.6-.53-3.39-1.86-1.96-4.52,1.25-2.34-1.24-6.72.56-7.22,1.8-.49,2.89,1.8,2.89,1.8,0,0-2.29,1.85-2.05,4.56.11,1.23,1.68,6.11,1.33,7.82Z"/>
                  <path class="cls-73" d="m69.83,57.63c.87.87,1.75,2.48,2.18,4.86-1.05.49-2.07,1.07-3.22,1.28-2.43.43-8.54-2.01-8.54-2.01,0,0,1.51-.27,1.77-1.07.81-2.45-.47-4.27-.47-4.27,0,0-2.29-5.57.92-10.36,1.41-2.09,1.67-3.41,1.67-3.41l3.86,2.38s.56,3.58-.42,5.91c-.98,2.33,1.02,5.47,2.25,6.71Z"/>
                  <path class="cls-50" d="m56.49,45.23l1.34-.39-1.06-.54,2.44-3.2,1.65.95s-3.48,2.31-3.13,4.95c.97,7.26,1.09,7.84,1.09,7.84,0,0-1.98-4.24-2.33-5.75-.21-.91,0-3.86,0-3.86Z"/>
                  <g>
                    <path class="cls-12" d="m57.24,42.38s1.29,1.79,1.29,2.32-.5.64-.25,1.39c.25.75,2.87.17,4.06-1.45,1.19-1.62.83-1.83.83-1.83,0,0-.89-1.26-.89-2.4s-5.04,1.96-5.04,1.96Z"/>
                    <path class="cls-18" d="m65.03,36.52c0-2.45-1.98-4.43-4.43-4.43-1.78,0-3.32,1.05-4.02,2.57,0,0-.81,1.45-.81,2.21s.33.4.17,1.13c-.17.73-.66,1.06-.03,2.32s.81,2.33.94,2.46c.13.13-.14.6,2.01.2,2.16-.4,3.65-1.46,4.32-2.12.33-.33.64-.98.88-1.55.62-.76.98-1.73.98-2.78Z"/>
                  </g>
                  <path class="cls-50" d="m61.86,57.01s-.56-4.03-.29-5.34c.24-1.16,2.1-4.25,2.1-4.25l-.89-1.17,1.43.81s1.25-2.68.81-3.72c-.44-1.04-2.5-1.75-2.5-1.75,0,0,.71,1.96.19,2.93-4.09,7.53-.85,12.49-.85,12.49Z"/>
                  <path class="cls-16" d="m58.8,35.82c1.52.88,1.38.47,1.96,1.37.58.9.28,3.13.28,3.13,0,0,.78-2.43,1.78-1.83,1,.6-.3,3.11-.3,3.11,0,0,3.2-2.1,2.79-5.02-.41-2.92-.99-3.39-2.09-4.03-1.1-.63-4.04-1.58-5.79.18-2.07,2.07-1.35,3.21-1.35,3.21,0,0,1.21-.99,2.73-.12Z"/>
                  <g>
                    <path class="cls-12" d="m62.46,38.11s.36-.76.7-.52c.34.24.55.68.44,1.29-.12.6-.44,1.35-.85,1.34-.41-.01-.54.04-.76-.28-.22-.32-.08-.69-.08-.69l.56-1.13Z"/>
                    <path class="cls-18" d="m62.29,38.16s.36-.76.7-.52c.34.24.55.68.44,1.29-.12.6-.44,1.35-.85,1.34-.41-.01-.54.04-.76-.28-.22-.32-.08-.69-.08-.69l.56-1.13Z"/>
                    <path class="cls-12" d="m62.61,38.35s.12.36.17.52c.05.16.09.42,0,.54-.09.12-.17.21-.17.21,0,0,.03-.64-.02-.88-.05-.24-.07-.45.04-.63.11-.18.2-.4.36-.19.16.21.29.44.25.83-.04.38-.17.78-.35.96-.18.17-.41.25-.41.25,0,0,.47-.19.57-.63.1-.43.15-1.11.02-1.23-.13-.12-.15-.14-.16.02-.02.16.07.41-.04.33-.12-.08-.13-.31-.2-.22-.07.09-.05.12-.05.12Z"/>
                    <path class="cls-12" d="m62.51,39.08s-.05-.36-.13-.35c-.07,0-.09.01-.14.13-.05.12-.06.17-.17.13-.11-.04-.19-.13-.09.03.09.16.12,0,.29.11.16.11.1.27.21.28.11.01.05-.23.02-.3l.02-.02Z"/>
                  </g>
                </g>
                <g>
                  <path class="cls-11" d="m76.11,60.25s-1.78-.39-2.67.12l-8.26,4.77c-.74.43-1.26,1.56-1.03,2.23l2.02,5.95s1.59,1.13,1.4.74c-.18-.39-.46-1.72-.58-2.36-.09-.46-.65-2.37-1.22-3.9-.18-.47.2-1.38.72-1.69,2.33-1.41,7.97-4.72,8.54-4.78.74-.07,2.58-.21,2.58-.21,0,0-1.04-.63-1.5-.89Z"/>
                  <path class="cls-23" d="m77.49,61.05s-1.78-.39-2.67.12l-8.26,4.77c-.74.43-1.26,1.56-1.03,2.23l2.02,5.95s1.14-.27.95-.66c-.18-.39-.68-.14-.8-.78-.09-.46-1.16-3.34-1.73-4.86-.18-.47.18-1.27.71-1.59,2.33-1.41,7.75-4.65,8.33-4.71.74-.07,2.33.07,2.33.07,0,0,.61-.28.15-.55Z"/>
                </g>
              </g>
              <g>
                <polygon class="cls-10" points="53.39 124.89 50.57 123.2 50.57 94.5 53.39 96.19 53.39 124.89"/>
                <polygon class="cls-10" points="4.32 95.38 1.5 93.69 1.5 64.99 4.32 66.68 4.32 95.38"/>
                <polygon class="cls-21" points="4.32 95.38 21.02 86.13 21.02 57.43 4.32 66.68 4.32 95.38"/>
                <polygon class="cls-21" points="82.48 107.32 53.39 124.89 53.39 96.19 82.48 78.62 82.48 107.32"/>
                <g>
                  <polygon class="cls-23" points="53.32 96.33 .62 64.73 .62 62.98 83.13 75.67 83.07 78.45 53.32 96.33"/>
                  <polygon class="cls-23" points="52.7 94.21 0 62.61 30.09 44.53 83.59 75.79 52.7 94.21"/>
                </g>
                <polygon class="cls-10" points="53.39 107.31 1.5 76.21 1.5 65.09 53.39 96.19 53.39 107.31"/>
              </g>
              <g>
                <polygon class="cls-40" points="38.75 79.87 32.28 76.13 41.42 70.86 47.89 74.59 38.75 79.87"/>
                <polygon class="cls-73" points="46.14 74.81 40.92 71.8 41.38 71.54 46.6 74.55 46.14 74.81"/>
                <polygon class="cls-73" points="41.14 77.7 35.93 74.69 36.19 74.54 41.4 77.55 41.14 77.7"/>
                <polygon class="cls-73" points="40.58 78.02 35.36 75.01 35.62 74.86 40.84 77.87 40.58 78.02"/>
                <polygon class="cls-73" points="40.02 78.35 34.8 75.34 35.06 75.19 40.28 78.2 40.02 78.35"/>
                <polygon class="cls-73" points="39.46 78.67 34.24 75.66 34.5 75.51 39.72 78.52 39.46 78.67"/>
                <polygon class="cls-73" points="38.89 79 33.68 75.99 33.94 75.83 39.15 78.85 38.89 79"/>
                <polygon class="cls-73" points="43.72 76.21 38.5 73.2 39.87 72.41 45.09 75.42 43.72 76.21"/>
                <polygon class="cls-73" points="39.19 75.63 36.74 74.22 38.11 73.43 40.56 74.84 39.19 75.63"/>
                <polygon class="cls-55" points="41.95 77.23 39.5 75.82 40.87 75.02 43.32 76.44 41.95 77.23"/>
                <polygon class="cls-40" points="33.3 74.35 33.58 69.1 45.01 69.07 44.73 74.33 33.3 74.35"/>
                <polygon class="cls-73" points="37.17 73.79 37.4 69.56 37.73 69.56 37.5 73.79 37.17 73.79"/>
                <polygon class="cls-73" points="36.47 73.79 36.7 69.56 37.02 69.56 36.79 73.79 36.47 73.79"/>
                <polygon class="cls-73" points="35.76 73.79 35.99 69.56 36.32 69.56 36.09 73.79 35.76 73.79"/>
                <polygon class="cls-73" points="35.06 73.79 35.29 69.56 35.62 69.56 35.39 73.79 35.06 73.79"/>
                <polygon class="cls-73" points="34.36 73.8 34.59 69.56 34.92 69.56 34.69 73.8 34.36 73.8"/>
                <polygon class="cls-55" points="40.39 73.78 40.62 69.55 42.34 69.54 42.11 73.78 40.39 73.78"/>
                <polygon class="cls-73" points="38.19 73.79 38.29 71.8 40.01 71.79 39.9 73.78 38.19 73.79"/>
              </g>
              <g>
                <g>
                  <polygon class="cls-23" points="54.79 70.22 35.58 59.22 43.17 54.84 62.37 65.84 54.79 70.22"/>
                  <polygon class="cls-56" points="54.79 71.1 35.58 60.11 35.58 59.22 54.79 70.22 54.79 71.1"/>
                  <polygon class="cls-21" points="54.79 71.1 62.37 66.73 62.37 65.84 54.79 70.22 54.79 71.1"/>
                  <polygon class="cls-23" points="54.79 70.22 35.58 59.22 43.17 54.84 62.37 65.84 54.79 70.22"/>
                  <polygon class="cls-21" points="54.79 71.1 35.58 60.11 35.58 59.22 54.79 70.22 54.79 71.1"/>
                  <polygon class="cls-21" points="54.79 71.1 62.37 66.73 62.37 65.84 54.79 70.22 54.79 71.1"/>
                </g>
                <g>
                  <g>
                    <g>
                      <polygon class="cls-55" points="53.81 68.3 55.36 68.93 54.82 69.23 53.81 68.65 53.81 68.3"/>
                      <polygon class="cls-55" points="52.55 67.57 54.1 68.2 53.56 68.51 52.55 67.92 52.55 67.57"/>
                      <polygon class="cls-55" points="37.43 58.84 38.98 59.47 38.45 59.78 37.43 59.19 37.43 58.84"/>
                      <polygon class="cls-55" points="54.53 67.89 56.42 68.31 55.54 68.82 54.53 68.23 54.53 67.89"/>
                      <polygon class="cls-55" points="53.27 67.16 55.16 67.58 54.28 68.09 53.27 67.51 53.27 67.16"/>
                      <polygon class="cls-55" points="40.67 59.88 42.56 60.31 41.68 60.82 40.67 60.23 40.67 59.88"/>
                      <polygon class="cls-55" points="42.81 60.45 43.82 61.04 42.94 61.54 41.93 60.96 42.81 60.45"/>
                      <polygon class="cls-55" points="44.07 61.18 45.08 61.77 44.2 62.27 43.19 61.69 44.07 61.18"/>
                      <polygon class="cls-55" points="45.33 61.91 46.34 62.49 45.46 63 44.45 62.41 45.33 61.91"/>
                      <polygon class="cls-55" points="46.59 62.63 47.6 63.22 46.72 63.73 45.71 63.14 46.59 62.63"/>
                      <polygon class="cls-55" points="47.85 63.36 48.86 63.95 47.98 64.45 46.97 63.87 47.85 63.36"/>
                      <polygon class="cls-55" points="49.11 64.09 50.12 64.67 49.24 65.18 48.23 64.6 49.11 64.09"/>
                      <polygon class="cls-55" points="50.37 64.82 51.38 65.4 50.5 65.91 49.49 65.32 50.37 64.82"/>
                      <polygon class="cls-55" points="51.63 65.54 52.64 66.13 51.76 66.64 50.75 66.05 51.63 65.54"/>
                      <polygon class="cls-55" points="52.01 66.43 53.9 66.86 53.02 67.36 52.01 66.78 52.01 66.43"/>
                      <polygon class="cls-55" points="38.15 58.78 38.14 58.42 41.3 59.58 40.42 60.09 38.15 58.78"/>
                      <polygon class="cls-55" points="54.94 67.29 54.94 66.94 57.44 67.72 56.57 68.23 54.94 67.29"/>
                      <path class="cls-55" d="m39.18,58.19l1.01.59.87-.5s-1.88-.43-1.88-.43v.35Z"/>
                      <polygon class="cls-55" points="55.69 66.19 58.47 67.13 57.59 67.64 55.69 66.54 55.69 66.19"/>
                      <polygon class="cls-55" points="43.61 59.56 44.62 60.15 45.5 59.64 43.61 59.22 43.61 59.56"/>
                      <polygon class="cls-55" points="44.97 60.34 45.99 60.92 46.87 60.42 45 60.01 44.97 60.34"/>
                      <polygon class="cls-55" points="46.34 61.11 47.35 61.7 48.23 61.19 46.34 60.77 46.34 61.11"/>
                      <polygon class="cls-55" points="47.7 61.89 48.72 62.47 49.59 61.97 47.7 61.54 47.7 61.89"/>
                      <polygon class="cls-55" points="49.07 62.66 50.08 63.25 50.96 62.74 49.07 62.31 49.07 62.66"/>
                      <polygon class="cls-55" points="50.43 63.44 51.44 64.02 52.32 63.52 50.43 63.09 50.43 63.44"/>
                      <polygon class="cls-55" points="51.8 64.21 52.81 64.8 53.69 64.29 51.8 63.86 51.8 64.21"/>
                      <polygon class="cls-55" points="53.16 64.99 54.17 65.57 55.05 65.06 53.16 64.64 53.16 64.99"/>
                      <polygon class="cls-55" points="54.52 65.76 55.54 66.35 56.42 65.84 54.52 65.41 54.52 65.76"/>
                      <polygon class="cls-55" points="42.26 58.78 43.27 59.37 44.15 58.86 42.26 58.44 42.26 58.78"/>
                      <polygon class="cls-55" points="40.2 57.59 40.2 57.25 42.91 58.15 42.03 58.65 40.2 57.59"/>
                      <polygon class="cls-55" points="56.34 65.38 59.49 66.54 58.62 67.04 56.34 65.73 56.34 65.38"/>
                      <polygon class="cls-55" points="55.08 64.57 56.97 65.08 56.1 65.59 55.08 65 55.08 64.57"/>
                      <polygon class="cls-55" points="43.74 58.46 44.76 59.04 45.64 58.54 43.74 58.11 43.74 58.46"/>
                      <polygon class="cls-55" points="45 59.19 46.02 59.77 46.9 59.26 45 58.84 45 59.19"/>
                      <polygon class="cls-55" points="46.26 59.91 47.28 60.5 48.16 59.99 46.26 59.57 46.26 59.91"/>
                      <polygon class="cls-55" points="47.52 60.64 48.54 61.23 49.42 60.72 47.52 60.29 47.52 60.64"/>
                      <polygon class="cls-55" points="48.78 61.37 49.8 61.96 50.68 61.45 48.78 61.02 48.78 61.37"/>
                      <polygon class="cls-55" points="50.04 62.1 51.06 62.68 51.93 62.18 50.04 61.75 50.04 62.1"/>
                      <polygon class="cls-55" points="51.3 62.83 52.32 63.41 53.19 62.91 51.3 62.48 51.3 62.83"/>
                      <polygon class="cls-55" points="52.56 63.56 53.58 64.14 54.45 63.63 52.56 63.21 52.56 63.56"/>
                      <polygon class="cls-55" points="53.82 64.28 54.84 64.87 55.71 64.36 53.82 63.94 53.82 64.28"/>
                      <polygon class="cls-55" points="41.22 56.65 44.28 57.76 43.41 58.26 41.22 57 41.22 56.65"/>
                      <path class="cls-55" d="m59.64,66.45l.88-.51-1.89-.43v.35s1.01.59,1.01.59Z"/>
                      <path class="cls-55" d="m58.38,65.72l.88-.51-1.89-.43v.35s1.01.59,1.01.59Z"/>
                      <path class="cls-55" d="m57.12,65l.88-.51-1.89-.43v.35s1.01.59,1.01.59Z"/>
                      <path class="cls-55" d="m55.88,64.27l.88-.51-1.89-.43v.35s1.01.59,1.01.59Z"/>
                      <polygon class="cls-55" points="46.03 58.59 46.03 58.25 55.48 63.04 54.6 63.54 46.03 58.59"/>
                      <polygon class="cls-55" points="45.18 57.28 46.66 57.94 46.19 58.21 45.18 57.63 45.18 57.28"/>
                      <polygon class="cls-55" points="43.51 56.79 45.4 56.87 45.4 57.22 44.52 57.72 43.51 57.14 43.51 56.79"/>
                      <polygon class="cls-55" points="42.66 55.84 44.14 56.14 44.14 56.49 43.67 56.76 42.66 56.17 42.66 55.84"/>
                      <path class="cls-55" d="m40.5,58.95l1.01.59.87-.5s-1.88-.43-1.88-.43v.35Z"/>
                      <path class="cls-55" d="m41.83,59.72l1.01.59.87-.5s-1.88-.43-1.88-.43v.35Z"/>
                      <path class="cls-55" d="m43.16,60.48l1.01.59.87-.5s-1.88-.43-1.88-.43v.35Z"/>
                      <path class="cls-55" d="m44.49,61.25l1.01.59.87-.5s-1.88-.43-1.88-.43v.35Z"/>
                      <path class="cls-55" d="m45.82,62.02l1.01.59.87-.5s-1.88-.43-1.88-.43v.35Z"/>
                      <path class="cls-55" d="m47.14,62.78l1.01.59.87-.5s-1.88-.43-1.88-.43v.35Z"/>
                      <path class="cls-55" d="m48.47,63.55l1.01.59.87-.5s-1.88-.43-1.88-.43v.35Z"/>
                      <path class="cls-55" d="m49.8,64.31l1.01.59.87-.5s-1.88-.43-1.88-.43v.35Z"/>
                      <path class="cls-55" d="m51.13,65.08l1.01.59.87-.5s-1.88-.43-1.88-.43v.35Z"/>
                      <path class="cls-55" d="m52.46,65.85l1.01.59.87-.5s-1.88-.43-1.88-.43v.35Z"/>
                      <path class="cls-55" d="m53.79,66.61l1.01.59.87-.5s-1.88-.43-1.88-.43v.35Z"/>
                      <polygon class="cls-55" points="38.69 59.57 40.24 60.2 39.71 60.51 38.69 59.92 38.69 59.57"/>
                      <polygon class="cls-55" points="39.95 60.3 41.5 60.93 40.97 61.23 39.95 60.65 39.95 60.3"/>
                      <polygon class="cls-55" points="41.21 61.03 42.76 61.65 42.23 61.96 41.21 61.38 41.21 61.03"/>
                      <polygon class="cls-55" points="42.47 61.76 44.02 62.38 43.49 62.69 42.47 62.11 42.47 61.76"/>
                      <polygon class="cls-55" points="43.73 62.49 45.28 63.11 44.74 63.42 43.73 62.83 43.73 62.49"/>
                      <polygon class="cls-55" points="44.99 63.21 46.54 63.84 46 64.15 44.99 63.56 44.99 63.21"/>
                      <polygon class="cls-55" points="46.25 63.94 47.8 64.57 47.26 64.88 46.25 64.29 46.25 63.94"/>
                      <polygon class="cls-55" points="47.51 64.67 49.06 65.3 48.52 65.6 47.51 65.02 47.51 64.67"/>
                      <polygon class="cls-55" points="48.77 65.4 50.32 66.02 49.78 66.33 48.77 65.75 48.77 65.4"/>
                      <polygon class="cls-55" points="50.03 66.13 51.58 66.75 51.04 67.06 50.03 66.47 50.03 66.13"/>
                      <polygon class="cls-55" points="51.29 66.86 52.84 67.48 52.3 67.79 51.29 67.2 51.29 66.86"/>
                    </g>
                    <rect class="cls-55" x="54.92" y="62.7" width=".55" height=".35"/>
                    <rect class="cls-55" x="56.21" y="63.43" width=".55" height=".35"/>
                    <rect class="cls-55" x="57.45" y="64.14" width=".55" height=".35"/>
                    <rect class="cls-55" x="58.71" y="64.87" width=".55" height=".35"/>
                    <rect class="cls-55" x="59.97" y="65.6" width=".55" height=".35"/>
                    <rect class="cls-55" x="58.94" y="66.19" width=".55" height=".35"/>
                    <rect class="cls-55" x="56.42" y="64.73" width=".55" height=".35"/>
                    <rect class="cls-55" x="55.16" y="64.02" width=".55" height=".35"/>
                    <rect class="cls-55" x="53.9" y="63.29" width=".55" height=".35"/>
                    <rect class="cls-55" x="52.64" y="62.56" width=".55" height=".35"/>
                    <rect class="cls-55" x="51.38" y="61.83" width=".55" height=".35"/>
                    <rect class="cls-55" x="50.12" y="61.1" width=".55" height=".35"/>
                    <rect class="cls-55" x="48.86" y="60.38" width=".55" height=".35"/>
                    <rect class="cls-55" x="47.6" y="59.65" width=".55" height=".35"/>
                    <rect class="cls-55" x="46.34" y="58.92" width=".55" height=".35"/>
                    <rect class="cls-55" x="45.08" y="58.19" width=".55" height=".35"/>
                    <rect class="cls-55" x="43.73" y="57.41" width=".55" height=".35"/>
                    <rect class="cls-55" x="42.36" y="57.8" width=".55" height=".35"/>
                    <rect class="cls-55" x="40.51" y="57.92" width=".55" height=".35"/>
                    <rect class="cls-55" x="41.84" y="58.69" width=".55" height=".35"/>
                    <rect class="cls-55" x="43.17" y="59.45" width=".55" height=".35"/>
                    <rect class="cls-55" x="44.5" y="60.22" width=".55" height=".35"/>
                    <rect class="cls-55" x="45.83" y="60.98" width=".55" height=".35"/>
                    <rect class="cls-55" x="47.15" y="61.75" width=".55" height=".35"/>
                    <rect class="cls-55" x="48.48" y="62.51" width=".55" height=".35"/>
                    <rect class="cls-55" x="49.81" y="63.28" width=".55" height=".35"/>
                    <rect class="cls-55" x="51.14" y="64.04" width=".55" height=".35"/>
                    <rect class="cls-55" x="52.47" y="64.81" width=".55" height=".35"/>
                    <rect class="cls-55" x="53.8" y="65.58" width=".55" height=".35"/>
                    <rect class="cls-55" x="55.13" y="66.35" width=".55" height=".35"/>
                    <rect class="cls-55" x="56.89" y="67.37" width=".55" height=".35"/>
                    <rect class="cls-55" x="55.87" y="67.96" width=".55" height=".35"/>
                    <rect class="cls-55" x="54.61" y="67.24" width=".55" height=".35"/>
                    <rect class="cls-55" x="53.35" y="66.51" width=".55" height=".35"/>
                    <rect class="cls-55" x="52.09" y="65.78" width=".55" height=".35"/>
                    <rect class="cls-55" x="50.83" y="65.05" width=".55" height=".35"/>
                    <rect class="cls-55" x="49.57" y="64.32" width=".55" height=".35"/>
                    <rect class="cls-55" x="48.31" y="63.6" width=".55" height=".35"/>
                    <rect class="cls-55" x="47.05" y="62.87" width=".55" height=".35"/>
                    <rect class="cls-55" x="45.79" y="62.15" width=".55" height=".35"/>
                    <rect class="cls-55" x="44.53" y="61.41" width=".55" height=".35"/>
                    <rect class="cls-55" x="43.28" y="60.7" width=".55" height=".35"/>
                    <rect class="cls-55" x="42.01" y="59.96" width=".55" height=".35"/>
                    <rect class="cls-55" x="40.75" y="59.24" width=".55" height=".35"/>
                    <rect class="cls-55" x="38.43" y="59.13" width=".55" height=".35"/>
                    <rect class="cls-55" x="39.69" y="59.85" width=".55" height=".35"/>
                    <rect class="cls-55" x="40.95" y="60.58" width=".55" height=".35"/>
                    <rect class="cls-55" x="42.21" y="61.31" width=".55" height=".35"/>
                    <rect class="cls-55" x="43.46" y="62.03" width=".55" height=".35"/>
                    <rect class="cls-55" x="44.72" y="62.77" width=".55" height=".35"/>
                    <rect class="cls-55" x="45.98" y="63.49" width=".55" height=".35"/>
                    <rect class="cls-55" x="47.24" y="64.22" width=".55" height=".35"/>
                    <rect class="cls-55" x="48.5" y="64.95" width=".55" height=".35"/>
                    <rect class="cls-55" x="49.76" y="65.68" width=".55" height=".35"/>
                    <rect class="cls-55" x="51.02" y="66.41" width=".55" height=".35"/>
                    <rect class="cls-55" x="52.28" y="67.14" width=".55" height=".35"/>
                    <rect class="cls-55" x="53.54" y="67.85" width=".55" height=".35"/>
                    <rect class="cls-55" x="54.8" y="68.58" width=".55" height=".35"/>
                    <rect class="cls-55" x="43.59" y="58.52" width=".55" height=".35"/>
                    <rect class="cls-55" x="44.95" y="59.3" width=".55" height=".35"/>
                    <rect class="cls-55" x="46.31" y="60.07" width=".55" height=".35"/>
                    <rect class="cls-55" x="47.68" y="60.85" width=".55" height=".35"/>
                    <rect class="cls-55" x="49.04" y="61.62" width=".55" height=".35"/>
                    <rect class="cls-55" x="50.41" y="62.4" width=".55" height=".35"/>
                    <rect class="cls-55" x="51.77" y="63.17" width=".55" height=".35"/>
                    <rect class="cls-55" x="53.13" y="63.94" width=".55" height=".35"/>
                    <rect class="cls-55" x="54.5" y="64.73" width=".55" height=".35"/>
                    <rect class="cls-55" x="55.86" y="65.49" width=".55" height=".35"/>
                    <rect class="cls-55" x="57.92" y="66.78" width=".55" height=".35"/>
                    <rect class="cls-55" x="46.1" y="57.61" width=".55" height=".35"/>
                  </g>
                  <g>
                    <polygon class="cls-6" points="54.34 67.99 55.36 68.58 54.82 68.89 53.81 68.3 54.34 67.99"/>
                    <polygon class="cls-48" points="53.08 67.27 54.1 67.85 53.56 68.16 52.55 67.57 53.08 67.27"/>
                    <polygon class="cls-54" points="37.96 58.54 38.98 59.12 38.45 59.43 37.43 58.84 37.96 58.54"/>
                    <polygon class="cls-86" points="55.41 67.38 56.42 67.96 55.54 68.47 54.53 67.89 55.41 67.38"/>
                    <polygon class="cls-22" points="54.15 66.65 55.16 67.24 54.28 67.74 53.27 67.16 54.15 66.65"/>
                    <polygon class="cls-15" points="41.55 59.38 42.56 59.96 41.68 60.47 40.67 59.88 41.55 59.38"/>
                    <polygon class="cls-52" points="42.81 60.1 43.82 60.69 42.94 61.2 41.93 60.61 42.81 60.1"/>
                    <polygon class="cls-65" points="44.07 60.83 45.08 61.42 44.2 61.92 43.19 61.34 44.07 60.83"/>
                    <polygon class="cls-58" points="45.33 61.56 46.34 62.14 45.46 62.65 44.45 62.07 45.33 61.56"/>
                    <polygon class="cls-84" points="46.59 62.29 47.6 62.87 46.72 63.38 45.71 62.79 46.59 62.29"/>
                    <polygon class="cls-20" points="47.85 63.01 48.86 63.6 47.98 64.11 46.97 63.52 47.85 63.01"/>
                    <polygon class="cls-2" points="49.11 63.74 50.12 64.33 49.24 64.83 48.23 64.25 49.11 63.74"/>
                    <polygon class="cls-32" points="50.37 64.47 51.38 65.05 50.5 65.56 49.49 64.98 50.37 64.47"/>
                    <polygon class="cls-47" points="51.63 65.2 52.64 65.78 51.76 66.29 50.75 65.7 51.63 65.2"/>
                    <polygon class="cls-19" points="52.89 65.92 53.9 66.51 53.02 67.02 52.01 66.43 52.89 65.92"/>
                    <polygon class="cls-36" points="38.15 58.43 39.03 57.92 41.3 59.24 40.42 59.74 38.15 58.43"/>
                    <polygon class="cls-3" points="54.94 66.94 55.82 66.43 57.44 67.37 56.57 67.88 54.94 66.94"/>
                    <path class="cls-71" d="m39.18,57.84l1.01.59.87-.5s-1-.59-1-.59l-.88.51Z"/>
                    <polygon class="cls-4" points="56.56 65.68 58.47 66.78 57.59 67.29 55.69 66.19 56.56 65.68"/>
                    <polygon class="cls-46" points="43.61 59.22 44.62 59.8 45.5 59.29 44.49 58.71 43.61 59.22"/>
                    <polygon class="cls-13" points="44.97 59.99 45.99 60.58 46.87 60.07 45.85 59.48 44.97 59.99"/>
                    <polygon class="cls-37" points="46.34 60.77 47.35 61.35 48.23 60.84 47.22 60.26 46.34 60.77"/>
                    <polygon class="cls-33" points="47.7 61.54 48.72 62.13 49.59 61.62 48.58 61.03 47.7 61.54"/>
                    <polygon class="cls-67" points="49.07 62.31 50.08 62.9 50.96 62.39 49.94 61.81 49.07 62.31"/>
                    <polygon class="cls-34" points="50.43 63.09 51.44 63.67 52.32 63.17 51.31 62.58 50.43 63.09"/>
                    <polygon class="cls-68" points="51.8 63.86 52.81 64.45 53.69 63.94 52.67 63.36 51.8 63.86"/>
                    <polygon class="cls-59" points="53.16 64.64 54.17 65.22 55.05 64.72 54.04 64.13 53.16 64.64"/>
                    <polygon class="cls-82" points="54.52 65.41 55.54 66 56.42 65.49 55.4 64.91 54.52 65.41"/>
                    <polygon class="cls-79" points="42.26 58.44 43.27 59.02 44.15 58.51 43.14 57.93 42.26 58.44"/>
                    <polygon class="cls-75" points="40.2 57.25 41.08 56.74 42.91 57.8 42.03 58.31 40.2 57.25"/>
                    <polygon class="cls-24" points="57.22 64.88 59.49 66.19 58.62 66.7 56.34 65.38 57.22 64.88"/>
                    <polygon class="cls-43" points="55.96 64.15 56.97 64.73 56.1 65.24 55.08 64.66 55.96 64.15"/>
                    <polygon class="cls-5" points="43.74 58.11 44.76 58.7 45.64 58.19 44.62 57.6 43.74 58.11"/>
                    <polygon class="cls-28" points="45 58.84 46.02 59.42 46.9 58.92 45.88 58.33 45 58.84"/>
                    <polygon class="cls-41" points="46.26 59.57 47.28 60.15 48.16 59.64 47.14 59.06 46.26 59.57"/>
                    <polygon class="cls-62" points="47.52 60.29 48.54 60.88 49.42 60.37 48.4 59.79 47.52 60.29"/>
                    <polygon class="cls-88" points="48.78 61.02 49.8 61.61 50.68 61.1 49.66 60.52 48.78 61.02"/>
                    <polygon class="cls-1" points="50.04 61.75 51.06 62.34 51.93 61.83 50.92 61.24 50.04 61.75"/>
                    <polygon class="cls-53" points="51.3 62.48 52.32 63.07 53.19 62.56 52.18 61.97 51.3 62.48"/>
                    <polygon class="cls-30" points="52.56 63.21 53.58 63.79 54.45 63.29 53.44 62.7 52.56 63.21"/>
                    <polygon class="cls-29" points="53.82 63.94 54.84 64.52 55.71 64.01 54.7 63.43 53.82 63.94"/>
                    <polygon class="cls-17" points="42.1 56.15 44.28 57.41 43.41 57.91 41.22 56.65 42.1 56.15"/>
                    <path class="cls-35" d="m59.64,66.1l.88-.51-1.01-.59-.88.51s1.01.59,1.01.59Z"/>
                    <path class="cls-76" d="m58.38,65.38l.88-.51-1.01-.59-.88.51s1.01.59,1.01.59Z"/>
                    <path class="cls-51" d="m57.12,64.65l.88-.51-1.01-.59-.88.51s1.01.59,1.01.59Z"/>
                    <path class="cls-80" d="m55.88,63.93l.88-.51-1.01-.59-.88.51s1.01.59,1.01.59Z"/>
                    <polygon class="cls-66" points="46.03 58.25 46.91 57.74 55.48 62.69 54.6 63.2 46.03 58.25"/>
                    <polygon class="cls-63" points="45.65 57.01 46.66 57.6 46.19 57.87 45.18 57.28 45.65 57.01"/>
                    <polygon class="cls-64" points="44.39 56.28 45.4 56.87 44.52 57.38 43.51 56.79 44.39 56.28"/>
                    <polygon class="cls-42" points="43.13 55.56 44.14 56.14 43.67 56.41 42.66 55.83 43.13 55.56"/>
                    <path class="cls-74" d="m40.5,58.6l1.01.59.87-.5s-1-.59-1-.59l-.88.51Z"/>
                    <path class="cls-49" d="m41.83,59.37l1.01.59.87-.5s-1-.59-1-.59l-.88.51Z"/>
                    <path class="cls-60" d="m43.16,60.14l1.01.59.87-.5s-1-.59-1-.59l-.88.51Z"/>
                    <path class="cls-38" d="m44.49,60.9l1.01.59.87-.5s-1-.59-1-.59l-.88.51Z"/>
                    <path class="cls-39" d="m45.82,61.67l1.01.59.87-.5s-1-.59-1-.59l-.88.51Z"/>
                    <path class="cls-83" d="m47.14,62.43l1.01.59.87-.5s-1-.59-1-.59l-.88.51Z"/>
                    <path class="cls-9" d="m48.47,63.2l1.01.59.87-.5s-1-.59-1-.59l-.88.51Z"/>
                    <path class="cls-26" d="m49.8,63.97l1.01.59.87-.5s-1-.59-1-.59l-.88.51Z"/>
                    <path class="cls-45" d="m51.13,64.73l1.01.59.87-.5s-1-.59-1-.59l-.88.51Z"/>
                    <path class="cls-44" d="m52.46,65.5l1.01.59.87-.5s-1-.59-1-.59l-.88.51Z"/>
                    <path class="cls-69" d="m53.79,66.26l1.01.59.87-.5s-1-.59-1-.59l-.88.51Z"/>
                    <polygon class="cls-7" points="39.22 59.27 40.24 59.85 39.71 60.16 38.69 59.57 39.22 59.27"/>
                    <polygon class="cls-27" points="40.48 59.99 41.5 60.58 40.97 60.89 39.95 60.3 40.48 59.99"/>
                    <polygon class="cls-81" points="41.74 60.72 42.76 61.31 42.23 61.61 41.21 61.03 41.74 60.72"/>
                    <polygon class="cls-61" points="43 61.45 44.02 62.04 43.49 62.34 42.47 61.76 43 61.45"/>
                    <polygon class="cls-31" points="44.26 62.18 45.28 62.76 44.74 63.07 43.73 62.49 44.26 62.18"/>
                    <polygon class="cls-8" points="45.52 62.91 46.54 63.49 46 63.8 44.99 63.21 45.52 62.91"/>
                    <polygon class="cls-77" points="46.78 63.64 47.8 64.22 47.26 64.53 46.25 63.94 46.78 63.64"/>
                    <polygon class="cls-57" points="48.04 64.36 49.06 64.95 48.52 65.26 47.51 64.67 48.04 64.36"/>
                    <polygon class="cls-85" points="49.3 65.09 50.32 65.68 49.78 65.98 48.77 65.4 49.3 65.09"/>
                    <polygon class="cls-25" points="50.56 65.82 51.58 66.41 51.04 66.71 50.03 66.13 50.56 65.82"/>
                    <polygon class="cls-78" points="51.82 66.55 52.84 67.13 52.3 67.44 51.29 66.86 51.82 66.55"/>
                  </g>
                </g>
              </g>
              <g>
                <path class="cls-23" d="m68.83,60.48s-.66,2.02-1.15,1.83c-.49-.19-1.15-.05-1.68-1.82-.14-.46.19-3.24,1.78-2.63,1.59.61,1.05,2.61,1.05,2.61Z"/>
                <path class="cls-14" d="m67.55,44.86s1.11.18,2.01,1.55c.9,1.37.83,10.62-.27,13.48-1.1,2.86-.9,1.88-.9,1.88,0,0,.98-1.88,0-3.08-.97-1.2-2.28.18-2.28.18,0,0-2.81-7.77-1.74-10.56,1.07-2.79,1.58-3.73,3.16-3.45Z"/>
                <path class="cls-18" d="m66.13,58.87s-2.56,1.37-4.11,1.8-3.01.72-3.01.72l-2.22-.36s-1.51.59-1.86.4-.75.09-.63.35,1.32.3,1.32.3l-2.72.98s-1.23,1.05-1.21,1.15c.02.1-.2.42.47.1.67-.32,1.04-.53,1.04-.53l2.08-.46s-1.35.88-1.5.89-.76.69-.97.95.23.22.39.22c.16,0,.4-.13.4-.13l-.48.28s.17.49.6.31c.43-.18,1.24-.65,1.24-.65l1.39-.27-1.07.58-.91.89s.03.4.53.21c.5-.19.89-.72.89-.72,0,0,1.3-.41,2.06-.7s2.65-1.85,2.65-1.85c0,0,1.82.14,3.6-.27s4.19-1.15,4.51-1.72c.32-.57.38-4.72-2.48-2.46Z"/>
              </g>
              <g>
                <path class="cls-23" d="m14.14,50.98l17.78,11.07c1.19.69,3.01-.13,2.76-1.47-.49-2.65-2.71-7.67-3.59-10.22-.35-1.02-.96-3.04-2.15-3.73l-18.58-10.73c-1.19-.69-2.15-.13-2.15,1.24l3.78,10.11c0,1.37.96,3.04,2.15,3.73Z"/>
                <path class="cls-21" d="m13.34,51.32l18.58,10.73c1.19.69,2.34-.65,2.15-1.24-.71-2.21-2.9-7.56-3.78-10.11-.35-1.02-.96-3.04-2.15-3.73l-18.58-10.73c-1.19-.69-2.15-.13-2.15,1.24,0,0,2.9,7.56,3.78,10.11.35,1.02.96,3.04,2.15,3.73Z"/>
                <polygon class="cls-10" points="20.51 53.06 21.2 55.86 18.81 54.6 20.51 53.06"/>
                <g>
                  <polygon class="cls-21" points="18.42 60.57 22.31 58.32 20.03 57.01 16.81 59.64 18.42 60.57"/>
                  <polygon class="cls-10" points="20.51 53.06 19.34 59.22 19.34 60.07 22.31 58.36 22.31 59.98 17.75 62.61 17.75 59.94 20.4 52.17 20.51 53.06"/>
                  <polygon class="cls-11" points="20.4 52.17 17.75 59.94 17.75 62.75 14.2 60.57 14.2 57.91 18.52 51.07 20.4 52.17"/>
                </g>
              </g>
            </g>
            <g>
              <polygon class="cls-55" points="68.03 83.59 79.53 77.46 79.53 76.11 59.74 77.93 59.74 79.29 68.03 83.59"/>
              <polygon class="cls-10" points="68.03 82.23 79.53 76.11 71.24 71.81 59.74 77.93 68.03 82.23"/>
              <polygon class="cls-40" points="67.85 82.42 67.85 83.14 59.74 79.03 59.74 78.23 67.85 82.42"/>
            </g>
            <g>
              <polygon class="cls-50" points="49.95 89.48 61.45 83.36 61.45 82 41.65 83.83 41.65 85.18 49.95 89.48"/>
              <polygon class="cls-14" points="49.95 88.13 61.45 82 53.16 77.7 41.65 83.83 49.95 88.13"/>
              <polygon class="cls-40" points="49.77 88.31 49.77 89.03 41.65 84.92 41.65 84.12 49.77 88.31"/>
            </g>
            <g>
              <polygon class="cls-70" points="49.95 87.74 61.45 81.61 61.45 80.26 41.65 82.08 41.65 83.44 49.95 87.74"/>
              <polygon class="cls-87" points="49.95 86.38 61.45 80.26 53.16 75.96 41.65 82.08 49.95 86.38"/>
              <polygon class="cls-40" points="49.77 86.57 49.77 87.29 41.65 83.18 41.65 82.38 49.77 86.57"/>
            </g>
          </g>
        </g>
        <path class="cls-18" d="m47.76,48.52c-.07.65-1.26,2.33-1.41,4.19-.14,1.86-.14,3.34-.14,3.34l-2.11.98s-.81,1.07-.76,1.16c.04.1-.2,1.71-.2,1.71,0,0,.15.26.37.09.22-.17.22-.34.22-.34,0,0-.1,1.09.17.99s.34-.17.38-.52c.04-.35.1-1.05.13-1.07.03-.02,1.02-1.18,1.02-1.18l-.46,1.38s-.29,1.56.1,1.39c.39-.17.58-.66.58-.66v-1.27l.87-.81-.34,1.2s.02,1.34-.1,1.42.39.34.5.08c.11-.27.27-1.6.27-1.6l1.15-1.37s1.36.33,1.36.68c0,.35.23.64.72.74.49.1.71-.38.71-.38,0,0-.79-.72-.71-.84.08-.12-.88-1.33-.88-1.33,0,0-.44-.2-.45-.35s1.22-2.79,1.29-3.38.91-1.7.91-1.7c0,0,2.23-1.83-.79-3.34-1.13-.56-2.3.13-2.37.79Z"/>
      </g>
      <g>
        <g>
          <polygon class="cls-72" points="67.93 24.91 54.55 17.19 54.55 1.84 67.93 9.56 67.93 24.91"/>
          <polygon class="cls-70" points="71.21 23.04 67.91 24.91 67.91 9.56 71.21 7.7 71.21 23.04"/>
          <polygon class="cls-87" points="67.95 9.54 54.58 1.82 57.8 0 71.17 7.72 67.95 9.54"/>
        </g>
        <g>
          <path class="cls-14" d="m59.34,11.36c-.07.33-.17.58-.32.75.2.45.32.94.37,1.49v1.93c0,.15,0,.29.03.42.07.41.26.71.7.96l.15.09v1.93l-.15-.09c-.26-.15-.49-.3-.7-.46-1.11-.83-1.66-1.85-1.79-3.24v-1.92c0-.16,0-.3-.03-.42-.07-.41-.26-.7-.7-.96l-.15-.09v-1.93l.15.09c.07.04.14.07.2.1.07.03.13.05.18.05.02,0,.05,0,.07,0,.05,0,.09-.02.12-.04.02,0,.03-.03.04-.04.03-.03.05-.07.07-.13,0-.03.02-.05.02-.09.02-.11.03-.24.03-.39v-1.74c.13-1.23.68-1.61,1.79-1.16.21.09.45.2.7.35l.15.09v1.93l-.15-.09c-.44-.26-.64-.19-.7.15-.02.1-.03.23-.03.39v1.74c-.02.12-.03.22-.05.31Z"/>
          <path class="cls-14" d="m63.14,15.44c.07-.33.17-.58.32-.75-.2-.45-.32-.94-.37-1.5v-1.74c0-.15,0-.29-.03-.42-.07-.41-.26-.71-.7-.96l-.15-.09v-1.93l.15.09c.26.15.49.3.7.46,1.11.83,1.66,1.85,1.79,3.24v1.73c0,.16,0,.3.03.42.07.41.26.7.7.96l.15.09v1.93l-.15-.09c-.07-.04-.14-.07-.2-.1-.07-.03-.13-.05-.18-.05-.02,0-.05,0-.07,0-.05,0-.09.02-.12.04-.02,0-.03.03-.04.04-.03.03-.05.07-.07.13,0,.03-.02.05-.02.09-.02.11-.03.24-.03.39v1.93c-.13,1.23-.68,1.61-1.79,1.16-.21-.09-.45-.2-.7-.35l-.15-.09v-1.93l.15.09c.44.26.64.19.7-.15.02-.1.03-.23.03-.39v-1.93c.02-.12.03-.22.05-.31Z"/>
        </g>
      </g>
      <g>
        <g>
          <polygon class="cls-72" points="37.13 33.53 17.79 22.32 17.79 7.42 37.13 18.63 37.13 33.53"/>
          <polygon class="cls-70" points="40.32 31.72 37.12 33.53 37.12 18.63 40.32 16.82 40.32 31.72"/>
          <polygon class="cls-87" points="37.16 18.6 17.82 7.39 20.94 5.63 40.28 16.84 37.16 18.6"/>
        </g>
        <g>
          <path class="cls-73" d="m21.77,18.24l2.13,3.36v.6l-1.6-.92-2.27-3.64v-.81l2.27-1.01,1.6.92v.59l-2.13.9Z"/>
          <path class="cls-73" d="m25.93,24.95l-1.58-.91v-.49l4.31-6.02,1.57.91v.49l-4.3,6.02Z"/>
          <path class="cls-73" d="m30.67,20.66l1.61.93,2.27,3.64v.81l-2.27,1.01-1.61-.93v-.6l2.14-.9-2.14-3.37v-.59Z"/>
        </g>
      </g>
      <g>
        <g>
          <polygon class="cls-72" points="90.15 43.6 81.56 38.64 81.56 28.79 90.15 33.75 90.15 43.6"/>
          <polygon class="cls-70" points="92.26 42.4 90.14 43.6 90.14 33.75 92.26 32.55 92.26 42.4"/>
          <polygon class="cls-87" points="90.17 33.73 81.58 28.77 83.65 27.61 92.23 32.56 90.17 33.73"/>
        </g>
        <g>
          <path class="cls-55" d="m83.59,38.15l-.06-.04c-.73-.42-1.02-.95-1.02-1.77v-3.91c0-.82.29-1.01,1.02-.59l.06.04v.78l-.06-.04c-.24-.14-.3-.05-.3.22v3.94c0,.26.06.42.3.56l.06.04v.78Z"/>
          <path class="cls-55" d="m88.19,40.02c.24.14.3.04.3-.22v-3.94c0-.26-.06-.42-.3-.56l-.06-.04v-.78l.06.04c.73.42,1.02.95,1.02,1.77v3.91c0,.82-.29,1.02-1.02.6l-.06-.04v-.78l.06.04Z"/>
        </g>
      </g>
    </g>
  </g>
</svg>